<svg xmlns="http://www.w3.org/2000/svg" xmlns:xlink="http://www.w3.org/1999/xlink" width="1452" zoomAndPan="magnify" viewBox="0 0 1089 384.749986" height="513" preserveAspectRatio="xMidYMid meet" version="1.0"><defs><clipPath id="5a265bfecf"><path d="M 20.589844 0 L 1088.644531 0 L 1088.644531 384.5 L 20.589844 384.5 Z M 20.589844 0 " clip-rule="nonzero"/></clipPath><clipPath id="3094d9da72"><path d="M 552 0 L 820 0 L 820 384.5 L 552 384.5 Z M 552 0 " clip-rule="nonzero"/></clipPath><clipPath id="e235242aeb"><path d="M 798 0 L 1066 0 L 1066 384.5 L 798 384.5 Z M 798 0 " clip-rule="nonzero"/></clipPath><clipPath id="088919ff96"><path d="M 51 0 L 320 0 L 320 384.5 L 51 384.5 Z M 51 0 " clip-rule="nonzero"/></clipPath><clipPath id="78648a52fb"><path d="M 297 0 L 566 0 L 566 384.5 L 297 384.5 Z M 297 0 " clip-rule="nonzero"/></clipPath><clipPath id="e5b641ccb0"><rect x="0" width="1069" y="0" height="385"/></clipPath></defs><g clip-path="url(#5a265bfecf)"><g transform="matrix(1, 0, 0, 1, 20, 0)"><g clip-path="url(#e5b641ccb0)"><g clip-path="url(#3094d9da72)"><path fill="#6d597a" d="M 743.125 384.5 L 818.046875 309.578125 L 709.199219 192.25 L 819.460938 77.75 L 745.953125 0 L 552.289062 186.597656 Z M 806.738281 309.578125 L 743.125 373.191406 L 563.597656 189.421875 L 744.539062 12.722656 L 806.738281 79.160156 L 696.476562 193.664062 Z M 806.738281 309.578125 " fill-opacity="1" fill-rule="nonzero"/></g><g clip-path="url(#e235242aeb)"><path fill="#6d597a" d="M 989.09375 384.5 L 1064.011719 309.578125 L 955.164062 192.25 L 1065.425781 77.75 L 991.917969 0 L 798.253906 186.597656 Z M 1052.703125 309.578125 L 989.09375 373.191406 L 809.5625 189.421875 L 991.917969 12.722656 L 1054.117188 79.160156 L 943.855469 193.664062 Z M 1052.703125 309.578125 " fill-opacity="1" fill-rule="nonzero"/></g><g clip-path="url(#088919ff96)"><path fill="#6d597a" d="M 242.710938 384.5 L 317.628906 309.578125 L 208.78125 192.25 L 319.042969 77.75 L 245.535156 0 L 51.871094 186.597656 Z M 306.320312 309.578125 L 242.710938 373.191406 L 63.183594 189.421875 L 245.535156 12.722656 L 307.734375 79.160156 L 197.472656 193.664062 Z M 306.320312 309.578125 " fill-opacity="1" fill-rule="nonzero"/></g><g clip-path="url(#78648a52fb)"><path fill="#6d597a" d="M 488.675781 384.5 L 563.597656 309.578125 L 454.75 192.25 L 565.011719 77.75 L 491.503906 0 L 297.839844 186.597656 Z M 552.289062 309.578125 L 488.675781 373.191406 L 309.148438 189.421875 L 491.503906 12.722656 L 553.703125 79.160156 L 443.441406 193.664062 Z M 552.289062 309.578125 " fill-opacity="1" fill-rule="nonzero"/></g><path fill="#ffffff" d="M 758.675781 73.507812 L 690.820312 1.414062 L 504.226562 183.769531 L 687.996094 373.191406 L 757.261719 303.925781 L 648.414062 186.59375 Z M 758.675781 73.507812 " fill-opacity="1" fill-rule="nonzero"/><path fill="#ffffff" d="M 1004.640625 73.507812 L 936.789062 1.414062 L 750.191406 183.769531 L 935.375 373.191406 L 1004.640625 303.925781 L 894.378906 186.59375 Z M 1004.640625 73.507812 " fill-opacity="1" fill-rule="nonzero"/><path fill="#ffffff" d="M 258.257812 73.507812 L 191.820312 1.414062 L 3.808594 183.769531 L 188.992188 373.191406 L 258.257812 303.925781 L 149.410156 186.59375 Z M 258.257812 73.507812 " fill-opacity="1" fill-rule="nonzero"/><path fill="#ffffff" d="M 505.640625 73.507812 L 437.785156 1.414062 L 249.777344 183.769531 L 434.960938 373.191406 L 504.226562 303.925781 L 395.378906 186.59375 Z M 505.640625 73.507812 " fill-opacity="1" fill-rule="nonzero"/></g></g></g></svg>