<svg xmlns="http://www.w3.org/2000/svg" xmlns:xlink="http://www.w3.org/1999/xlink" width="1452" zoomAndPan="magnify" viewBox="0 0 1089 384.749986" height="513" preserveAspectRatio="xMidYMid meet" version="1.0"><defs><clipPath id="792310ebbb"><path d="M 249 0 L 517 0 L 517 384.5 L 249 384.5 Z M 249 0 " clip-rule="nonzero"/></clipPath><clipPath id="084cba5396"><path d="M 3 0 L 271 0 L 271 384.5 L 3 384.5 Z M 3 0 " clip-rule="nonzero"/></clipPath><clipPath id="617f745c6b"><path d="M 749 0 L 1018 0 L 1018 384.5 L 749 384.5 Z M 749 0 " clip-rule="nonzero"/></clipPath><clipPath id="803399e0e2"><path d="M 503 0 L 772 0 L 772 384.5 L 503 384.5 Z M 503 0 " clip-rule="nonzero"/></clipPath></defs><g clip-path="url(#792310ebbb)"><path fill="#6d597a" d="M 325.875 384.5 L 250.953125 309.578125 L 359.800781 192.25 L 249.539062 77.75 L 323.046875 0 L 516.710938 186.597656 Z M 262.261719 309.578125 L 325.875 373.191406 L 505.402344 189.421875 L 324.460938 12.722656 L 262.261719 79.160156 L 372.523438 193.664062 Z M 262.261719 309.578125 " fill-opacity="1" fill-rule="nonzero"/></g><g clip-path="url(#084cba5396)"><path fill="#6d597a" d="M 79.90625 384.5 L 4.988281 309.578125 L 113.835938 192.25 L 3.574219 77.75 L 77.082031 0 L 270.746094 186.597656 Z M 16.296875 309.578125 L 79.90625 373.191406 L 259.4375 189.421875 L 77.082031 12.722656 L 14.882812 79.160156 L 125.144531 193.664062 Z M 16.296875 309.578125 " fill-opacity="1" fill-rule="nonzero"/></g><g clip-path="url(#617f745c6b)"><path fill="#6d597a" d="M 826.289062 384.5 L 751.371094 309.578125 L 860.21875 192.25 L 749.957031 77.75 L 823.464844 0 L 1017.128906 186.597656 Z M 762.679688 309.578125 L 826.289062 373.191406 L 1005.816406 189.421875 L 823.464844 12.722656 L 761.265625 79.160156 L 871.527344 193.664062 Z M 762.679688 309.578125 " fill-opacity="1" fill-rule="nonzero"/></g><g clip-path="url(#803399e0e2)"><path fill="#6d597a" d="M 580.324219 384.5 L 505.402344 309.578125 L 614.25 192.25 L 503.988281 77.75 L 577.496094 0 L 771.160156 186.597656 Z M 516.710938 309.578125 L 580.324219 373.191406 L 759.851562 189.421875 L 577.496094 12.722656 L 515.296875 79.160156 L 625.558594 193.664062 Z M 516.710938 309.578125 " fill-opacity="1" fill-rule="nonzero"/></g><path fill="#ffffff" d="M 310.324219 73.507812 L 378.179688 1.414062 L 564.773438 183.769531 L 381.003906 373.191406 L 311.738281 303.925781 L 420.585938 186.59375 Z M 310.324219 73.507812 " fill-opacity="1" fill-rule="nonzero"/><path fill="#ffffff" d="M 64.359375 73.507812 L 132.210938 1.414062 L 318.808594 183.769531 L 133.625 373.191406 L 64.359375 303.925781 L 174.621094 186.59375 Z M 64.359375 73.507812 " fill-opacity="1" fill-rule="nonzero"/><path fill="#ffffff" d="M 810.742188 73.507812 L 877.179688 1.414062 L 1065.191406 183.769531 L 880.007812 373.191406 L 810.742188 303.925781 L 919.589844 186.59375 Z M 810.742188 73.507812 " fill-opacity="1" fill-rule="nonzero"/><path fill="#ffffff" d="M 563.359375 73.507812 L 631.214844 1.414062 L 819.222656 183.769531 L 634.039062 373.191406 L 564.773438 303.925781 L 673.621094 186.59375 Z M 563.359375 73.507812 " fill-opacity="1" fill-rule="nonzero"/></svg>