<svg xmlns="http://www.w3.org/2000/svg" xmlns:xlink="http://www.w3.org/1999/xlink" width="1920" zoomAndPan="magnify" viewBox="0 0 1440 391.91998" height="513" preserveAspectRatio="xMidYMid meet" version="1.0"><defs><filter x="0%" y="0%" width="100%" height="100%" id="2b4466ac49"><feColorMatrix values="0 0 0 0 1 0 0 0 0 1 0 0 0 0 1 0 0 0 1 0" color-interpolation-filters="sRGB"/></filter><g/><clipPath id="bc6edcf1b4"><path d="M 0.148438 0 L 1439.851562 0 L 1439.851562 384.671875 L 0.148438 384.671875 Z M 0.148438 0 " clip-rule="nonzero"/></clipPath><mask id="8afc90cac2"><g filter="url(#2b4466ac49)"><rect x="-144" width="1728" fill="#000000" y="-39.191998" height="470.303976" fill-opacity="0.8"/></g></mask><clipPath id="7b1726b9f5"><path d="M 0.148438 0 L 1439.851562 0 L 1439.851562 384.671875 L 0.148438 384.671875 Z M 0.148438 0 " clip-rule="nonzero"/></clipPath><clipPath id="0ad8cb9787"><path d="M 75.132812 0 L 1364.832031 0 C 1406.246094 0 1439.816406 33.570312 1439.816406 74.984375 L 1439.816406 309.6875 C 1439.816406 351.101562 1406.246094 384.671875 1364.832031 384.671875 L 75.132812 384.671875 C 33.71875 384.671875 0.148438 351.101562 0.148438 309.6875 L 0.148438 74.984375 C 0.148438 33.570312 33.71875 0 75.132812 0 Z M 75.132812 0 " clip-rule="nonzero"/></clipPath><clipPath id="65b5eeb14d"><path d="M 0.148438 0 L 1439.851562 0 L 1439.851562 384.671875 L 0.148438 384.671875 Z M 0.148438 0 " clip-rule="nonzero"/></clipPath><clipPath id="e5c77120b7"><path d="M 75.132812 0 L 1364.832031 0 C 1406.246094 0 1439.816406 33.570312 1439.816406 74.984375 L 1439.816406 309.6875 C 1439.816406 351.101562 1406.246094 384.671875 1364.832031 384.671875 L 75.132812 384.671875 C 33.71875 384.671875 0.148438 351.101562 0.148438 309.6875 L 0.148438 74.984375 C 0.148438 33.570312 33.71875 0 75.132812 0 Z M 75.132812 0 " clip-rule="nonzero"/></clipPath><clipPath id="7c440f988c"><rect x="0" width="1440" y="0" height="385"/></clipPath><clipPath id="e36fa0f4ca"><path d="M 0.164062 0 L 1439.851562 0 L 1439.851562 384.671875 L 0.164062 384.671875 Z M 0.164062 0 " clip-rule="nonzero"/></clipPath><clipPath id="5b192f6aff"><path d="M 75.148438 0 L 1364.851562 0 C 1406.265625 0 1439.835938 33.570312 1439.835938 74.984375 L 1439.835938 309.6875 C 1439.835938 351.101562 1406.265625 384.671875 1364.851562 384.671875 L 75.148438 384.671875 C 33.734375 384.671875 0.164062 351.101562 0.164062 309.6875 L 0.164062 74.984375 C 0.164062 33.570312 33.734375 0 75.148438 0 Z M 75.148438 0 " clip-rule="nonzero"/></clipPath><clipPath id="737e406191"><rect x="0" width="1440" y="0" height="385"/></clipPath><mask id="02c284a27f"><g filter="url(#2b4466ac49)"><rect x="-144" width="1728" fill="#000000" y="-39.191998" height="470.303976" fill-opacity="0.1"/></g></mask><clipPath id="5561c27107"><path d="M 0.847656 0.796875 L 586.476562 0.796875 L 586.476562 162.765625 L 0.847656 162.765625 Z M 0.847656 0.796875 " clip-rule="nonzero"/></clipPath><clipPath id="f3446d84ad"><rect x="0" width="588" y="0" height="163"/></clipPath><clipPath id="d56727c75d"><path d="M 79 126 L 630 126 L 630 384.671875 L 79 384.671875 Z M 79 126 " clip-rule="nonzero"/></clipPath><mask id="a19789a09a"><g filter="url(#2b4466ac49)"><rect x="-144" width="1728" fill="#000000" y="-39.191998" height="470.303976" fill-opacity="0.08"/></g></mask><clipPath id="12ef9344a3"><path d="M 14 69 L 535 69 L 535 237 L 14 237 Z M 14 69 " clip-rule="nonzero"/></clipPath><clipPath id="4ebccfad66"><path d="M 412.75 478.042969 L 0.285156 240.148438 L 138.152344 1.113281 L 550.617188 239.007812 Z M 412.75 478.042969 " clip-rule="nonzero"/></clipPath><clipPath id="d119ef078b"><path d="M 412.75 478.042969 L 0.285156 240.148438 L 138.152344 1.113281 L 550.617188 239.007812 Z M 412.75 478.042969 " clip-rule="nonzero"/></clipPath><clipPath id="2def844acb"><path d="M 0.570312 64 L 550.777344 64 L 550.777344 241 L 0.570312 241 Z M 0.570312 64 " clip-rule="nonzero"/></clipPath><clipPath id="3fd80b838f"><path d="M 412.75 478.042969 L 0.285156 240.148438 L 138.152344 1.113281 L 550.617188 239.007812 Z M 412.75 478.042969 " clip-rule="nonzero"/></clipPath><clipPath id="02736ad276"><path d="M 412.75 478.042969 L 0.285156 240.148438 L 138.152344 1.113281 L 550.617188 239.007812 Z M 412.75 478.042969 " clip-rule="nonzero"/></clipPath><clipPath id="21a13ec93e"><rect x="0" width="551" y="0" height="259"/></clipPath><clipPath id="af93fe8f71"><path d="M 322 253 L 476 253 L 476 384.671875 L 322 384.671875 Z M 322 253 " clip-rule="nonzero"/></clipPath><mask id="4e9edcf38f"><g filter="url(#2b4466ac49)"><rect x="-144" width="1728" fill="#000000" y="-39.191998" height="470.303976" fill-opacity="0.26"/></g></mask><clipPath id="6ac880da6d"><path d="M 0.429688 0.832031 L 153.011719 0.832031 L 153.011719 131.671875 L 0.429688 131.671875 Z M 0.429688 0.832031 " clip-rule="nonzero"/></clipPath><clipPath id="b30f64035b"><path d="M 0.542969 0.832031 L 143.628906 0.832031 L 143.628906 131.671875 L 0.542969 131.671875 Z M 0.542969 0.832031 " clip-rule="nonzero"/></clipPath><clipPath id="9402785e03"><path d="M 0.542969 0.832031 L 124.808594 0.832031 L 124.808594 131.671875 L 0.542969 131.671875 Z M 0.542969 0.832031 " clip-rule="nonzero"/></clipPath><clipPath id="a8235ae80c"><path d="M 4 8 L 141 8 L 141 131.671875 L 4 131.671875 Z M 4 8 " clip-rule="nonzero"/></clipPath><clipPath id="940ca47633"><path d="M 9 8 L 152 8 L 152 131.671875 L 9 131.671875 Z M 9 8 " clip-rule="nonzero"/></clipPath><clipPath id="c41fcb79c4"><rect x="0" width="154" y="0" height="132"/></clipPath><clipPath id="66ef804078"><rect x="0" width="154" y="0" height="132"/></clipPath><clipPath id="e025a1b360"><path d="M 0.148438 38 L 151 38 L 151 337 L 0.148438 337 Z M 0.148438 38 " clip-rule="nonzero"/></clipPath><mask id="400896863f"><g filter="url(#2b4466ac49)"><rect x="-144" width="1728" fill="#000000" y="-39.191998" height="470.303976" fill-opacity="0.08"/></g></mask><clipPath id="d1838a2e43"><path d="M 18 8 L 113 8 L 113 290 L 18 290 Z M 18 8 " clip-rule="nonzero"/></clipPath><clipPath id="0b709f105e"><path d="M -111.539062 220.925781 L 22.417969 0.488281 L 150.578125 78.371094 L 16.625 298.808594 Z M -111.539062 220.925781 " clip-rule="nonzero"/></clipPath><clipPath id="e5ad367856"><path d="M -111.539062 220.925781 L 22.417969 0.488281 L 150.578125 78.371094 L 16.625 298.808594 Z M -111.539062 220.925781 " clip-rule="nonzero"/></clipPath><clipPath id="21a9a1694e"><path d="M 16 0.390625 L 115 0.390625 L 115 298.890625 L 16 298.890625 Z M 16 0.390625 " clip-rule="nonzero"/></clipPath><clipPath id="32fc3f4eed"><path d="M -111.539062 220.925781 L 22.417969 0.488281 L 150.578125 78.371094 L 16.625 298.808594 Z M -111.539062 220.925781 " clip-rule="nonzero"/></clipPath><clipPath id="0af5677c18"><path d="M -111.539062 220.925781 L 22.417969 0.488281 L 150.578125 78.371094 L 16.625 298.808594 Z M -111.539062 220.925781 " clip-rule="nonzero"/></clipPath><clipPath id="2a1d5dcb81"><rect x="0" width="151" y="0" height="299"/></clipPath><mask id="703461bcb3"><g filter="url(#2b4466ac49)"><rect x="-144" width="1728" fill="#000000" y="-39.191998" height="470.303976" fill-opacity="0.39"/></g></mask><clipPath id="4dc15b46bf"><path d="M 47 1.351562 L 80 1.351562 L 80 34 L 47 34 Z M 47 1.351562 " clip-rule="nonzero"/></clipPath><clipPath id="4fee3b3dfe"><path d="M 1.226562 4.671875 L 128.589844 4.671875 L 128.589844 142.324219 L 1.226562 142.324219 Z M 1.226562 4.671875 " clip-rule="nonzero"/></clipPath><clipPath id="b93a4a9617"><rect x="0" width="129" y="0" height="143"/></clipPath><mask id="5fc4d2ef33"><g filter="url(#2b4466ac49)"><rect x="-144" width="1728" fill="#000000" y="-39.191998" height="470.303976" fill-opacity="0.12"/></g></mask><clipPath id="56665d7805"><path d="M 0.117188 0.324219 L 299.804688 0.324219 L 299.804688 195.285156 L 0.117188 195.285156 Z M 0.117188 0.324219 " clip-rule="nonzero"/></clipPath><clipPath id="5171301e6a"><rect x="0" width="300" y="0" height="196"/></clipPath><clipPath id="8bca0bd706"><rect x="0" width="316" y="0" height="150"/></clipPath></defs><g clip-path="url(#bc6edcf1b4)"><g mask="url(#8afc90cac2)"><g><g clip-path="url(#737e406191)"><g clip-path="url(#7b1726b9f5)"><g clip-path="url(#0ad8cb9787)"><g><g clip-path="url(#7c440f988c)"><g clip-path="url(#65b5eeb14d)"><g clip-path="url(#e5c77120b7)"><path fill="#0097b2" d="M 0.148438 384.671875 L 0.148438 0 L 1439.660156 0 L 1439.660156 384.671875 Z M 0.148438 384.671875 " fill-opacity="1" fill-rule="nonzero"/></g></g></g></g></g></g><g clip-path="url(#e36fa0f4ca)"><g clip-path="url(#5b192f6aff)"><path stroke-linecap="butt" transform="matrix(0, -0.749847, 0.749847, 0, 0.164517, 384.671444)" fill="none" stroke-linejoin="miter" d="M 513 99.998978 L 513 1819.954315 C 513 1875.184342 468.230443 1919.953899 413.000416 1919.953899 L 99.999009 1919.953899 C 44.768983 1919.953899 -0.000574872 1875.184342 -0.000574872 1819.954315 L -0.000574872 99.998978 C -0.000574872 44.768951 44.768983 -0.000606185 99.999009 -0.000606185 L 413.000416 -0.000606185 C 468.230443 -0.000606185 513 44.768951 513 99.998978 Z M 513 99.998978 " stroke="#ffffff" stroke-width="54" stroke-opacity="1" stroke-miterlimit="4"/></g></g></g></g></g></g><g mask="url(#02c284a27f)"><g transform="matrix(1, 0, 0, 1, 831, 203)"><g clip-path="url(#f3446d84ad)"><g clip-path="url(#5561c27107)"><path fill="#bbe4e4" d="M 586.5625 0.933594 L 586.5625 162.460938 L 0.847656 162.460938 Z M 586.5625 0.933594 " fill-opacity="1" fill-rule="nonzero"/></g></g></g></g><g clip-path="url(#d56727c75d)"><g mask="url(#a19789a09a)"><g transform="matrix(1, 0, 0, 1, 79, 126)"><g clip-path="url(#21a13ec93e)"><g clip-path="url(#12ef9344a3)"><g clip-path="url(#4ebccfad66)"><g clip-path="url(#d119ef078b)"><path fill="#bbe4e4" d="M 534.3125 234.625 L 14.386719 236.097656 L 247.496094 69.199219 Z M 534.3125 234.625 " fill-opacity="1" fill-rule="nonzero"/></g></g></g><g clip-path="url(#2def844acb)"><g clip-path="url(#3fd80b838f)"><g clip-path="url(#02736ad276)"><path fill="#0097b2" d="M 247.292969 64.035156 L 550.414062 238.863281 L 0.796875 240.441406 Z M 518.175781 230.257812 L 247.746094 74.28125 L 27.894531 231.707031 Z M 518.175781 230.257812 " fill-opacity="1" fill-rule="nonzero"/></g></g></g></g></g></g></g><g clip-path="url(#af93fe8f71)"><g mask="url(#4e9edcf38f)"><g transform="matrix(1, 0, 0, 1, 322, 253)"><g clip-path="url(#66ef804078)"><g clip-path="url(#6ac880da6d)"><g><g clip-path="url(#c41fcb79c4)"><path fill="#2c9eb2" d="M 24.535156 46.109375 C 26.167969 41.113281 29.597656 36.773438 32.109375 32.207031 C 34.792969 27.328125 36.890625 22.238281 39.300781 17.238281 C 39.890625 16.015625 40.773438 14.585938 42.265625 14.429688 C 43.414062 14.308594 44.671875 14.988281 45.796875 15.78125 C 45.820312 15.78125 45.839844 15.777344 45.863281 15.78125 C 46.0625 15.792969 46.226562 15.863281 46.378906 15.957031 L 46.292969 15.457031 C 56.332031 20.46875 66.21875 25.398438 76.097656 30.34375 C 87.628906 36.109375 99.15625 41.882812 110.679688 47.664062 C 117.316406 50.992188 123.914062 54.410156 130.59375 57.648438 C 133.167969 58.894531 135.039062 60.421875 134.945312 63.53125 C 134.945312 63.53125 135.882812 73.242188 131.714844 79.035156 C 127.546875 84.828125 123.75 85.375 123.75 85.375 C 123.417969 85.421875 123.074219 85.519531 122.71875 85.6875 C 122.191406 85.9375 121.386719 85.730469 120.746094 85.578125 C 119.617188 85.304688 118.5 84.957031 117.402344 84.5625 C 108.445312 81.359375 99.492188 78.132812 90.539062 74.921875 C 89.867188 74.679688 89.179688 74.480469 88.449219 74.242188 C 88.429688 74.371094 88.417969 74.496094 88.402344 74.621094 C 87.832031 74.386719 87.253906 74.164062 86.675781 73.941406 C 86.65625 73.886719 86.644531 73.832031 86.625 73.78125 C 86.617188 73.824219 86.605469 73.867188 86.601562 73.910156 C 85.683594 73.558594 84.761719 73.207031 83.84375 72.832031 C 82.742188 72.386719 81.636719 71.949219 80.53125 71.515625 C 80.550781 71.496094 75.011719 69.28125 72.3125 68.246094 C 69.734375 67.253906 67.148438 66.273438 64.558594 65.300781 C 64.363281 65.273438 64.167969 65.242188 63.972656 65.222656 C 53.09375 61.230469 42.210938 57.238281 31.316406 53.292969 C 31.28125 53.292969 31.246094 53.292969 31.207031 53.292969 C 29.824219 53.152344 28.515625 52.878906 27.15625 52.578125 C 26.316406 52.390625 24.917969 52.351562 24.269531 51.644531 C 23.078125 50.355469 24.074219 47.523438 24.535156 46.109375 Z M 135.332031 84.25 C 137.035156 85.03125 141.714844 87.261719 143.429688 88.042969 C 144.101562 88.351562 144.761719 88.679688 145.449219 88.945312 C 148.257812 90.019531 149.304688 89.820312 150.859375 87.261719 C 151.761719 85.785156 152.253906 84.023438 152.726562 82.335938 C 153.160156 80.777344 152.441406 79.625 150.96875 78.917969 C 149.199219 78.0625 147.457031 77.152344 145.703125 76.265625 C 144.996094 75.90625 141.136719 74.105469 140.398438 73.722656 C 140.398438 73.722656 140.910156 79.359375 135.332031 84.25 " fill-opacity="1" fill-rule="nonzero"/><g clip-path="url(#b30f64035b)"><path fill="#146fa2" d="M 4.480469 21.972656 C 6.003906 17.972656 8.175781 14.195312 10.753906 10.785156 C 12.582031 8.382812 16.519531 3.035156 19.734375 2.675781 C 23.726562 2.230469 23.8125 8.050781 23.835938 10.859375 C 23.90625 19.304688 19.523438 27.863281 14.363281 34.296875 C 12.835938 36.207031 7.976562 42.945312 5.289062 43.054688 C 2.726562 43.160156 2.359375 39.820312 2.148438 37.214844 C 2.09375 36.507812 1.921875 35.828125 1.738281 35.144531 C 1.203125 33.152344 3.964844 23.332031 4.480469 21.972656 Z M 1.886719 42.867188 C 3.414062 46 6.152344 46.636719 9.257812 47.761719 C 14.074219 49.507812 23.707031 55.214844 28.714844 52.832031 C 32.609375 50.980469 36.132812 45.808594 38.46875 42.480469 C 42.28125 37.046875 45.007812 30.925781 46.222656 24.378906 C 47.097656 19.691406 47.527344 14.375 43.234375 11.378906 C 40.269531 9.308594 36.449219 7.933594 33.210938 6.300781 C 30.125 4.746094 25.367188 1.230469 21.878906 0.867188 C 16.242188 0.269531 11.121094 7.800781 8.25 11.984375 C 4.21875 17.851562 1.691406 24.640625 0.789062 31.699219 C 0.363281 35.035156 0.355469 39.722656 1.886719 42.867188 Z M 131.714844 79.035156 C 135.40625 73.90625 135.09375 65.707031 134.972656 63.898438 C 135.09375 63.964844 135.175781 64.023438 135.195312 64.0625 C 136.808594 64.816406 138.566406 65.671875 140.359375 66.457031 C 142.160156 67.242188 143.214844 68.488281 143.265625 70.53125 C 143.304688 72.050781 143.453125 73.570312 143.554688 75.152344 C 143.554688 75.152344 143.875 80.796875 138.292969 85.691406 C 137.644531 86.203125 137.070312 86.574219 136.597656 87.046875 C 135.042969 88.609375 133.316406 88.742188 131.359375 87.882812 C 129.84375 87.21875 128.25 86.726562 126.734375 86.0625 C 125.738281 85.625 124.824219 85.230469 123.78125 85.371094 C 124.136719 85.308594 127.757812 84.535156 131.714844 79.035156 Z M 36.765625 152.957031 C 34.3125 161 37.089844 163.507812 42.902344 156.613281 C 45.644531 153.363281 48.023438 144.476562 50.828125 139.40625 C 59.34375 124.019531 67.859375 108.628906 76.375 93.242188 C 78.34375 93.625 76.664062 136.953125 76.664062 140.539062 C 76.664062 144.597656 75.746094 185.957031 79.136719 185.035156 C 84.398438 183.601562 81.222656 145.609375 81.222656 140.503906 C 81.222656 136.246094 78.828125 94.007812 81.542969 93.203125 C 92.5625 113.125 103.453125 136.226562 113.554688 154.660156 C 115.105469 157.492188 119.390625 164.332031 122.890625 159.855469 C 125.367188 156.691406 118.429688 151.0625 118.421875 151.050781 C 112.441406 139.472656 105.78125 128.1875 99.476562 116.78125 C 95.542969 109.667969 89.898438 91.96875 83.261719 88.207031 C 74.144531 83.039062 72.984375 90.503906 68.839844 97.996094 C 63 108.558594 57.164062 119.117188 51.324219 129.675781 C 47.492188 136.609375 38.617188 146.882812 36.765625 152.957031 " fill-opacity="1" fill-rule="nonzero"/></g><g clip-path="url(#9402785e03)"><path fill="#34bcc0" d="M 72.929688 69.960938 C 72.90625 69.746094 72.964844 69.523438 73.085938 69.359375 C 73.109375 69.277344 73.128906 69.191406 73.152344 69.105469 C 73.296875 68.589844 74.050781 68.433594 74.351562 68.890625 C 74.519531 68.988281 74.691406 69.082031 74.863281 69.175781 C 75.847656 69.433594 76.828125 69.71875 77.789062 70.058594 C 78.171875 70.195312 78.566406 70.316406 78.917969 70.480469 C 79.082031 69.773438 79.242188 69.0625 79.40625 68.351562 C 79.808594 66.609375 80.097656 64.773438 80.804688 63.117188 C 81.945312 60.429688 84.375 59.285156 87.117188 60.5 C 88.398438 61.070312 89.855469 62.0625 90.628906 63.261719 C 91.574219 64.734375 91.339844 66.433594 91.050781 68.0625 C 90.636719 70.433594 90.113281 72.785156 89.59375 75.132812 C 89.179688 76.992188 88.867188 79 88.113281 80.773438 C 88.164062 80.832031 88.183594 80.914062 88.152344 81.003906 C 87.824219 81.878906 87.242188 82.15625 86.386719 82.453125 C 83.90625 83.3125 85.28125 84.910156 85.328125 86.785156 C 85.335938 87.035156 85.277344 87.285156 85.175781 87.53125 C 85.242188 87.703125 85.203125 87.933594 85.03125 88.03125 C 84.960938 88.070312 84.890625 88.105469 84.816406 88.140625 C 84.226562 88.882812 83.25 89.339844 82.511719 88.894531 C 78.84375 89.625 73.789062 88.910156 74.296875 84.75 C 74.371094 84.152344 74.59375 83.578125 74.660156 82.984375 C 74.847656 81.300781 74.148438 80.792969 72.921875 79.96875 C 72.214844 79.488281 71.628906 79.074219 71.46875 78.164062 C 71.289062 77.097656 71.734375 75.761719 71.925781 74.726562 C 72.222656 73.136719 72.53125 71.53125 72.929688 69.960938 Z M 111.128906 147.519531 C 112.375 146.269531 113.941406 145.355469 115.683594 145.085938 C 115.996094 144.9375 116.40625 144.980469 116.671875 145.351562 C 118.324219 147.65625 119.792969 150.105469 121.304688 152.5 C 122 153.601562 122.695312 154.703125 123.390625 155.800781 C 123.851562 156.53125 124.460938 157.292969 124.550781 158.1875 C 124.890625 161.726562 120.070312 163.714844 117.238281 163.191406 C 115.328125 162.835938 114.671875 161.648438 113.996094 159.972656 C 112.988281 157.472656 111.964844 154.976562 110.992188 152.464844 C 110.691406 151.679688 109.792969 150.132812 109.84375 149.324219 C 109.882812 148.695312 110.722656 147.929688 111.128906 147.519531 Z M 75.898438 172.855469 C 75.992188 172.042969 75.820312 170.28125 76.292969 169.605469 C 76.707031 169.015625 82.171875 168.09375 82.734375 168.554688 C 83.21875 168.949219 83.097656 171.4375 83.1875 172.25 C 83.445312 174.582031 83.597656 176.917969 83.9375 179.242188 C 84.21875 181.128906 84.894531 182.882812 83.332031 184.355469 C 82.171875 185.445312 80.375 185.730469 78.863281 185.523438 C 76.972656 185.257812 75.097656 184.785156 74.878906 182.808594 C 74.65625 180.746094 75.097656 178.769531 75.394531 176.742188 C 75.582031 175.449219 75.753906 174.152344 75.898438 172.855469 Z M 41.617188 143.582031 C 43.8125 141.96875 47.109375 144.386719 48.953125 146.058594 C 49.167969 146.128906 49.359375 146.289062 49.441406 146.515625 C 49.566406 146.65625 49.554688 146.835938 49.464844 146.972656 C 48.464844 152.542969 43.730469 156.523438 42.347656 161.96875 C 42.265625 162.285156 41.933594 162.550781 41.601562 162.535156 C 38.691406 162.402344 35.9375 161.234375 33.96875 159.050781 C 33.25 158.253906 32.199219 157.101562 32.1875 155.960938 C 32.171875 154.480469 33.761719 152.75 34.558594 151.605469 C 36.511719 148.785156 38.828125 145.632812 41.617188 143.582031 Z M 0.746094 36.253906 C 0.945312 36.996094 1.136719 37.738281 1.195312 38.507812 C 1.425781 41.351562 1.824219 44.988281 4.617188 44.875 C 7.546875 44.753906 12.84375 37.410156 14.507812 35.328125 C 20.132812 28.3125 24.910156 18.988281 24.832031 9.777344 C 24.808594 6.714844 24.714844 0.371094 20.359375 0.859375 C 16.855469 1.25 12.566406 7.078125 10.574219 9.699219 C 7.765625 13.417969 5.394531 17.535156 3.738281 21.894531 C 3.175781 23.375 0.160156 34.082031 0.746094 36.253906 " fill-opacity="1" fill-rule="nonzero"/></g><g clip-path="url(#a8235ae80c)"><path fill="#3822c0" d="M 45.523438 150.03125 C 45.523438 149.984375 45.527344 149.933594 45.550781 149.882812 C 45.582031 149.820312 45.617188 149.769531 45.65625 149.710938 C 45.960938 149.273438 46.550781 149.855469 46.105469 150.164062 C 46.074219 150.1875 46.039062 150.203125 46.007812 150.222656 C 45 153.339844 43.753906 156.375 41.902344 159.132812 C 41.355469 159.949219 40.1875 159.25 40.597656 158.371094 C 41.964844 155.429688 43.730469 152.703125 45.523438 150.03125 Z M 80.464844 182.023438 C 80.789062 180.914062 80.511719 179.113281 80.546875 177.984375 C 80.589844 176.570312 80.625 175.148438 80.886719 173.753906 C 80.972656 173.285156 81.75 173.285156 81.835938 173.753906 C 82.203125 175.699219 82.171875 177.71875 82.21875 179.691406 C 82.238281 180.628906 82.75 182.652344 81.617188 183.140625 C 81.09375 183.363281 80.339844 183.117188 80.382812 182.429688 C 80.386719 182.394531 80.386719 182.355469 80.390625 182.320312 C 80.394531 182.210938 80.421875 182.113281 80.464844 182.023438 Z M 117.796875 150.242188 C 119.234375 150.902344 120 152.949219 120.738281 154.273438 C 121.601562 155.832031 122.597656 157.5625 122.9375 159.324219 C 123.0625 159.953125 122.304688 160.246094 121.9375 159.746094 C 120.828125 158.261719 120.097656 156.4375 119.167969 154.828125 C 118.421875 153.539062 117.097656 152.195312 117.023438 150.6875 C 117.003906 150.261719 117.46875 150.09375 117.796875 150.242188 Z M 139.972656 76.035156 C 140.203125 75.570312 141.03125 75.902344 140.824219 76.394531 C 139.441406 79.703125 137.707031 82.851562 135.226562 85.46875 C 134.441406 86.296875 133.207031 85.054688 133.980469 84.222656 C 136.308594 81.714844 138.421875 79.105469 139.972656 76.035156 Z M 87.738281 40.464844 C 90.714844 41.710938 93.671875 42.953125 96.566406 44.390625 C 97.105469 44.65625 96.730469 45.558594 96.152344 45.367188 C 93.351562 44.441406 90.628906 43.355469 87.898438 42.25 C 87.59375 42.1875 87.484375 42.128906 87.117188 41.933594 C 86.332031 41.515625 86.886719 40.105469 87.738281 40.464844 Z M 102.367188 47.402344 C 105.421875 48.367188 108.246094 50.292969 111.066406 51.792969 C 113.988281 53.347656 116.945312 54.824219 119.957031 56.1875 C 123.972656 58.011719 132.070312 59.644531 132.125 65.328125 C 132.132812 65.832031 131.453125 65.871094 131.292969 65.441406 C 130.152344 62.386719 127.4375 61.171875 124.570312 60.097656 C 121.945312 59.117188 119.363281 58.023438 116.832031 56.816406 C 114.15625 55.539062 111.527344 54.164062 108.925781 52.746094 C 106.511719 51.429688 103.886719 50.179688 101.808594 48.355469 C 101.378906 47.976562 101.835938 47.234375 102.367188 47.402344 Z M 18.226562 8.570312 C 18.710938 8.148438 18.648438 8.882812 18.660156 9.003906 C 18.695312 9.347656 17.460938 10.445312 17.253906 10.707031 C 16.242188 11.96875 15.269531 13.269531 14.363281 14.609375 C 13.460938 15.9375 12.667969 17.320312 11.886719 18.722656 C 11.488281 19.441406 10.167969 22.550781 9.296875 22.722656 C 7.863281 23.007812 11.402344 16.4375 11.859375 15.769531 C 13.675781 13.113281 15.796875 10.683594 18.226562 8.570312 Z M 7.617188 27.113281 C 7.617188 27.097656 7.621094 27.082031 7.625 27.066406 C 7.621094 27.101562 7.617188 27.113281 7.617188 27.113281 Z M 7.242188 25.960938 C 7.785156 24.796875 7.601562 27.113281 7.617188 27.113281 C 7.503906 27.914062 7.132812 28.828125 6.933594 29.605469 C 6.753906 30.292969 5.917969 35.660156 5.214844 35.792969 C 3.191406 36.171875 6.828125 26.839844 7.242188 25.960938 Z M 29.039062 47.371094 C 28.800781 47.847656 29.285156 48.355469 29.765625 48.097656 C 32.222656 46.804688 34.039062 44.007812 35.402344 41.671875 C 36.9375 39.039062 38.160156 36.21875 39.160156 33.339844 C 40.203125 30.335938 40.96875 27.234375 41.550781 24.109375 C 42.128906 21.023438 42.496094 17.992188 41.429688 14.972656 C 41.246094 14.449219 40.46875 14.65625 40.597656 15.203125 C 41.359375 18.394531 40.300781 21.6875 39.460938 24.761719 C 38.722656 27.449219 37.96875 30.128906 37.039062 32.757812 C 36.085938 35.457031 34.949219 38.085938 33.503906 40.5625 C 32.152344 42.890625 30.230469 44.980469 29.039062 47.371094 " fill-opacity="1" fill-rule="nonzero"/></g><g clip-path="url(#940ca47633)"><path fill="#0097b2" d="M 146.707031 87.398438 C 147.621094 86.746094 148.390625 85.898438 148.972656 84.941406 C 150.175781 82.949219 150.171875 80.777344 150.195312 78.519531 C 150.195312 78.226562 150.609375 78.179688 150.695312 78.449219 C 151.464844 80.851562 151.316406 83.367188 150.066406 85.582031 C 149.171875 87.171875 147.191406 89.527344 145.191406 89.351562 C 144.847656 89.324219 144.699219 88.960938 144.917969 88.695312 C 145.417969 88.097656 146.078125 87.847656 146.707031 87.398438 Z M 141.882812 81.371094 C 142.980469 79.621094 143.644531 77.617188 143.84375 75.566406 C 143.859375 75.402344 144.128906 75.332031 144.15625 75.523438 C 144.453125 77.714844 144.144531 79.804688 143.109375 81.777344 C 142.25 83.421875 140.710938 85.5625 138.746094 85.824219 C 138.484375 85.859375 138.332031 85.511719 138.453125 85.316406 C 139.355469 83.832031 140.9375 82.882812 141.882812 81.371094 Z M 127.9375 81.238281 C 129.296875 79.878906 130.589844 78.410156 131.679688 76.824219 C 134.019531 73.429688 135.390625 69.441406 135.351562 65.300781 C 135.347656 64.988281 135.863281 64.898438 135.914062 65.226562 C 136.539062 69.503906 135.5 73.714844 133.203125 77.367188 C 131.195312 80.5625 127.910156 84.074219 124.269531 85.359375 C 123.992188 85.460938 123.835938 85.089844 124.003906 84.898438 C 125.175781 83.550781 126.671875 82.5 127.9375 81.238281 Z M 73.570312 90.226562 C 74.378906 90.34375 75.21875 91.199219 75.84375 91.699219 C 76.253906 92.035156 77.414062 92.765625 77.140625 93.421875 C 77.078125 93.570312 76.953125 93.714844 76.773438 93.703125 C 76.085938 93.65625 75.40625 92.953125 74.867188 92.574219 C 74.242188 92.132812 73.335938 91.714844 72.933594 91.050781 C 72.652344 90.589844 73.113281 90.160156 73.570312 90.226562 Z M 81.234375 93.398438 C 81.863281 92.804688 82.765625 92.441406 83.53125 92.050781 C 84.105469 91.757812 84.71875 91.390625 85.375 91.367188 C 85.613281 91.359375 85.644531 91.703125 85.429688 91.773438 C 84.785156 91.984375 84.160156 92.671875 83.613281 93.074219 C 83.019531 93.503906 82.425781 94.007812 81.738281 94.265625 C 81.242188 94.449219 80.871094 93.738281 81.234375 93.398438 Z M 42.695312 142.675781 C 43.832031 142.035156 45.21875 142.832031 46.214844 143.449219 C 47.40625 144.183594 48.328125 145 49 146.234375 C 49.207031 146.605469 48.722656 146.988281 48.410156 146.6875 C 47.65625 145.964844 46.757812 145.328125 45.878906 144.765625 C 45.378906 144.445312 44.859375 144.113281 44.296875 143.917969 C 43.800781 143.746094 43.296875 143.757812 42.808594 143.558594 C 42.449219 143.414062 42.300781 142.898438 42.695312 142.675781 Z M 76.511719 167.910156 C 78.460938 167.753906 81.019531 167.355469 82.867188 168.152344 C 83.238281 168.3125 83.082031 168.851562 82.761719 168.957031 C 81.816406 169.269531 80.792969 169.171875 79.8125 169.199219 C 78.710938 169.234375 77.609375 169.292969 76.511719 169.390625 C 75.566406 169.472656 75.566406 167.988281 76.511719 167.910156 Z M 112.410156 145.488281 C 113.511719 145.015625 114.742188 144.566406 115.945312 144.839844 C 116.253906 144.910156 116.265625 145.324219 116.03125 145.480469 C 115.042969 146.128906 113.8125 146.355469 112.757812 146.878906 C 111.769531 147.367188 110.886719 148.28125 109.839844 148.566406 C 109.324219 148.703125 108.941406 148.148438 109.175781 147.703125 C 109.75 146.589844 111.304688 145.957031 112.410156 145.488281 Z M 85.316406 73.105469 C 84.207031 71.769531 85.351562 67.003906 87.578125 67.6875 C 87.683594 67.660156 87.792969 67.644531 87.90625 67.652344 C 88.375 67.683594 88.738281 68.039062 88.855469 68.484375 C 89.179688 69.707031 88.589844 71.382812 87.949219 72.402344 C 87.398438 73.28125 86.191406 74.164062 85.316406 73.105469 Z M 84.414062 84.242188 C 84.675781 84.367188 84.558594 84.84375 84.261719 84.808594 C 81.078125 84.414062 78.046875 83.800781 74.816406 83.761719 C 74.097656 83.753906 74.097656 82.671875 74.816406 82.648438 C 77.972656 82.53125 81.539062 82.863281 84.414062 84.242188 Z M 78.410156 79.886719 C 77.765625 80.324219 76.496094 80.664062 76.023438 79.8125 C 75.953125 79.683594 76.011719 79.472656 76.175781 79.445312 C 76.910156 79.308594 77.558594 79.46875 78.1875 78.917969 C 78.78125 78.402344 79.175781 77.679688 79.527344 76.988281 C 79.652344 76.742188 80.0625 76.914062 79.976562 77.179688 C 79.652344 78.199219 79.34375 79.257812 78.410156 79.886719 Z M 78.601562 71.039062 C 78.265625 72.566406 78.089844 74.183594 77.457031 75.632812 C 77.105469 76.433594 76.398438 76.890625 75.515625 76.578125 C 72.859375 75.640625 74.898438 71.515625 75.472656 69.859375 C 75.554688 69.613281 75.816406 69.425781 76.085938 69.511719 C 76.96875 69.796875 77.90625 69.890625 78.75 70.28125 C 79.101562 70.445312 78.949219 71 78.601562 71.039062 Z M 87.855469 63.957031 C 82.308594 62.726562 83.058594 72.519531 81.425781 75.4375 C 81.257812 75.738281 80.730469 75.695312 80.660156 75.339844 C 80.351562 73.816406 80.933594 72.171875 81.308594 70.691406 C 81.722656 69.046875 82.15625 67.332031 82.921875 65.808594 C 83.84375 63.972656 85.984375 62.253906 88.03125 63.539062 C 88.253906 63.679688 88.109375 64.015625 87.855469 63.957031 Z M 33.070312 49.21875 C 34.3125 47.957031 35.488281 46.625 36.578125 45.226562 C 38.730469 42.464844 40.601562 39.460938 42.121094 36.308594 C 45.226562 29.871094 46.867188 22.703125 47.394531 15.59375 C 47.425781 15.195312 47.96875 15.238281 48 15.617188 C 48.578125 23.039062 46.9375 30.285156 43.75 37.007812 C 42.164062 40.355469 40.21875 43.519531 37.910156 46.425781 C 35.90625 48.945312 33.429688 52.304688 30.320312 53.464844 C 29.925781 53.613281 29.65625 53.085938 29.835938 52.777344 C 30.652344 51.402344 31.953125 50.351562 33.070312 49.21875 Z M 9.90625 45.828125 C 16.722656 44.628906 22.15625 38.140625 25.042969 32.261719 C 28.53125 25.164062 30.019531 16.652344 28.652344 8.855469 C 28.605469 8.582031 28.160156 8.648438 28.175781 8.917969 C 28.394531 12.855469 27.855469 17.054688 27.121094 20.921875 C 26.425781 24.554688 25.332031 28.144531 23.660156 31.453125 C 22.109375 34.527344 20.074219 37.308594 17.554688 39.660156 C 15.152344 41.90625 12.386719 43.394531 9.558594 44.996094 C 9.078125 45.265625 9.425781 45.910156 9.90625 45.828125 " fill-opacity="1" fill-rule="nonzero"/></g></g></g></g></g></g></g></g><g clip-path="url(#e025a1b360)"><g mask="url(#400896863f)"><g transform="matrix(1, 0, 0, 1, 0, 38)"><g clip-path="url(#2a1d5dcb81)"><g clip-path="url(#d1838a2e43)"><g clip-path="url(#0b709f105e)"><g clip-path="url(#e5ad367856)"><path fill="#bbe4e4" d="M 18.890625 289.832031 L 24.542969 8.003906 L 112.113281 136.425781 Z M 18.890625 289.832031 " fill-opacity="1" fill-rule="nonzero"/></g></g></g><g clip-path="url(#21a9a1694e)"><g clip-path="url(#32fc3f4eed)"><g clip-path="url(#0af5677c18)"><path fill="#0097b2" d="M 114.914062 136.378906 L 16.394531 298.507812 L 22.355469 0.585938 Z M 21.460938 281.140625 L 109.355469 136.5 L 26.753906 15.382812 Z M 21.460938 281.140625 " fill-opacity="1" fill-rule="nonzero"/></g></g></g></g></g></g></g><g mask="url(#703461bcb3)"><g transform="matrix(1, 0, 0, 1, 334, 14)"><g clip-path="url(#b93a4a9617)"><path fill="#1994b5" d="M 27.316406 78.808594 C 29.347656 69.894531 33.933594 62.402344 39.929688 55.621094 C 42.984375 52.164062 46.160156 48.742188 48.359375 44.652344 C 49.503906 42.515625 50.339844 40.226562 50.863281 37.859375 C 51.382812 35.492188 51.257812 33.125 51.609375 30.753906 C 52.210938 26.710938 56.046875 26.050781 59.511719 26.074219 C 64.414062 26.105469 69.324219 26.597656 74.136719 27.535156 C 74.554688 27.375 75.121094 27.503906 75.199219 28.011719 C 75.539062 30.304688 75.875 32.601562 76.332031 34.875 C 77.28125 39.566406 78.832031 44.097656 81.808594 47.90625 C 84.476562 51.3125 87.804688 54.121094 90.707031 57.3125 C 96.296875 63.464844 99.519531 71.433594 100.203125 79.691406 C 100.824219 87.1875 99.316406 95.027344 95.355469 101.480469 C 91.140625 108.355469 84.324219 112.792969 76.695312 115.097656 C 68.28125 117.636719 58.640625 118.378906 49.941406 117.179688 C 41.585938 116.027344 33.21875 112.019531 29.222656 104.222656 C 25.304688 96.570312 25.449219 87.007812 27.316406 78.808594 " fill-opacity="1" fill-rule="nonzero"/><path fill="#34bcc0" d="M 51.65625 51.457031 C 54.742188 52.554688 55.269531 56.941406 58.167969 53.71875 C 58.480469 53.375 61.125 39.574219 60.960938 38.949219 C 58.570312 29.847656 46.988281 49.804688 51.65625 51.457031 Z M 55.375 108.164062 C 53.589844 109.1875 47.671875 108.394531 46.238281 110.476562 C 43.957031 113.789062 49.0625 115.070312 51.597656 115.367188 C 59.070312 116.242188 58.074219 106.621094 55.375 108.164062 Z M 31.222656 93.96875 C 31.203125 82.648438 34.933594 68.8125 42.613281 60.175781 C 44.828125 57.679688 49.332031 53.410156 52.175781 57.335938 C 53.8125 59.589844 51.617188 70.433594 51.707031 73.03125 C 51.941406 79.882812 53.472656 86.402344 54.257812 93.171875 C 54.910156 98.8125 54.089844 100.636719 48.839844 102.902344 C 39 107.144531 31.242188 106.324219 31.222656 93.96875 " fill-opacity="1" fill-rule="nonzero"/><g clip-path="url(#4dc15b46bf)"><path fill="#bbe4e4" d="M 47.898438 18.359375 C 47.992188 16.25 49.222656 14.175781 51.265625 13.777344 C 50.539062 11.730469 51.6875 9.535156 53.457031 8.28125 C 53.40625 6.347656 53.90625 4.585938 55.597656 3.265625 C 57.539062 1.75 60.171875 1.304688 62.574219 1.289062 C 65.988281 1.261719 73.328125 2.886719 73.011719 7.363281 C 74.179688 7.65625 75.332031 8.085938 76.195312 8.902344 C 77.085938 9.746094 77.515625 10.945312 77.011719 12.117188 C 76.679688 12.894531 76.082031 13.414062 75.394531 13.808594 C 77.417969 14.730469 79.066406 16.34375 79.375 18.695312 C 79.644531 20.71875 78.574219 22.679688 76.777344 23.472656 C 78.316406 25.300781 79.710938 27.390625 79.425781 29.886719 C 79.242188 31.519531 78.179688 32.921875 76.71875 33.457031 C 76.632812 33.605469 76.488281 33.703125 76.292969 33.679688 C 76.191406 33.667969 76.085938 33.65625 75.988281 33.644531 C 75.703125 33.6875 75.410156 33.703125 75.109375 33.679688 C 74.925781 33.664062 74.785156 33.59375 74.675781 33.488281 C 71.558594 33.144531 68.433594 32.917969 65.296875 32.945312 C 61.714844 32.976562 58.246094 33.480469 54.699219 33.871094 C 52.347656 34.125 49.691406 33.515625 48.996094 30.9375 C 48.390625 28.675781 49.027344 26.324219 50.3125 24.4375 C 48.628906 22.910156 47.792969 20.652344 47.898438 18.359375 " fill-opacity="1" fill-rule="nonzero"/></g><g clip-path="url(#4fee3b3dfe)"><path fill="#bcb1ff" d="M 54.5625 7.777344 C 57 6.101562 59.691406 5.957031 62.5625 5.964844 C 65.75 5.96875 68.671875 6.40625 71.746094 7.21875 C 72.195312 7.339844 72.507812 6.671875 72.070312 6.445312 C 69.0625 4.894531 65.324219 4.878906 62.023438 4.851562 C 59.269531 4.828125 56.003906 4.871094 53.953125 6.988281 C 53.570312 7.382812 54.078125 8.109375 54.5625 7.777344 Z M 52.6875 14.273438 C 54.355469 14.042969 55.992188 13.410156 57.660156 13.101562 C 59.46875 12.769531 61.300781 12.578125 63.140625 12.523438 C 66.703125 12.417969 70.21875 12.90625 73.679688 13.734375 C 74.289062 13.878906 74.535156 12.980469 73.9375 12.796875 C 70.351562 11.714844 66.597656 11.269531 62.855469 11.347656 C 59.507812 11.414062 55.257812 11.652344 52.242188 13.21875 C 51.609375 13.546875 52.09375 14.351562 52.6875 14.273438 Z M 63.105469 21.835938 C 59.648438 22.003906 55.425781 22.160156 52.246094 23.621094 C 51.8125 23.820312 52.027344 24.554688 52.492188 24.519531 C 54.167969 24.398438 55.820312 23.855469 57.480469 23.582031 C 59.4375 23.257812 61.414062 23.035156 63.394531 22.945312 C 67.117188 22.777344 70.703125 23.285156 74.402344 23.523438 C 74.925781 23.558594 75.015625 22.753906 74.523438 22.621094 C 70.902344 21.648438 66.824219 21.652344 63.105469 21.835938 Z M 45.390625 80.1875 C 45.453125 80.492188 45.863281 80.707031 46.488281 80.761719 C 46.574219 80.769531 46.664062 80.773438 46.753906 80.773438 C 48.164062 80.773438 49.589844 79.847656 50.558594 78.886719 C 49.875 78.648438 49.167969 78.523438 48.492188 78.523438 C 47.703125 78.523438 46.992188 78.6875 46.375 79.015625 C 45.613281 79.417969 45.332031 79.894531 45.390625 80.1875 Z M 53.816406 78.570312 L 53.867188 78.589844 L 53.90625 78.621094 C 54.316406 78.96875 54.699219 79.359375 55.046875 79.777344 C 55.648438 80.496094 56.164062 81.332031 56.585938 82.257812 C 57.636719 81.535156 58.835938 81.15625 60.074219 81.15625 C 62.015625 81.15625 63.863281 82.105469 65.09375 83.714844 C 66.53125 81.902344 68.277344 80.910156 70.042969 80.910156 C 70.6875 80.910156 71.332031 81.042969 71.96875 81.304688 C 72.199219 80.0625 72.484375 79.054688 72.863281 78.160156 C 72.941406 77.980469 73.066406 77.761719 73.203125 77.527344 C 73.382812 77.21875 73.6875 76.695312 73.664062 76.515625 C 73.636719 76.257812 73.136719 75.679688 72.773438 75.253906 C 72.453125 74.882812 72.15625 74.53125 72.003906 74.253906 C 71.566406 73.441406 71.183594 72.511719 70.835938 71.414062 C 69.53125 67.285156 69.3125 62.804688 69.210938 58.933594 C 69.097656 54.707031 69.207031 50.40625 69.3125 46.246094 C 69.335938 45.277344 69.359375 44.304688 69.382812 43.335938 C 69.4375 40.914062 69.511719 38.394531 69.597656 35.847656 C 69.601562 35.703125 69.597656 35.4375 69.589844 35.109375 C 69.582031 34.730469 69.574219 34.355469 69.574219 33.992188 C 67.582031 33.890625 65.59375 33.804688 63.589844 33.851562 C 61.132812 33.910156 58.707031 34.136719 56.277344 34.398438 C 56.480469 35.503906 56.519531 36.96875 56.523438 38.449219 C 56.527344 38.867188 56.527344 39.230469 56.539062 39.445312 C 56.824219 44.195312 56.828125 49.332031 56.546875 55.605469 C 56.492188 56.773438 56.449219 57.945312 56.402344 59.121094 C 56.257812 62.953125 56.105469 66.910156 55.671875 70.75 C 55.511719 72.160156 55.316406 73.292969 55.054688 74.320312 C 54.972656 74.644531 54.792969 75.121094 54.585938 75.667969 C 54.28125 76.460938 53.578125 78.308594 53.816406 78.570312 Z M 73.363281 84.777344 C 73.347656 84.90625 73.328125 85.035156 73.308594 85.171875 C 73.054688 86.90625 72.671875 89.519531 73.386719 90.757812 C 73.617188 91.152344 73.941406 91.386719 74.257812 91.386719 C 74.492188 91.386719 74.722656 91.261719 74.945312 91.019531 C 75.429688 90.484375 75.128906 89.296875 74.949219 88.585938 L 74.910156 88.433594 C 74.53125 86.90625 74.023438 85.703125 73.363281 84.777344 Z M 64.839844 87.582031 C 64.242188 88.574219 63.59375 89.742188 63.484375 90.820312 C 63.4375 91.292969 63.605469 92.0625 63.898438 92.386719 C 63.972656 92.46875 64.039062 92.507812 64.105469 92.507812 C 64.164062 92.507812 64.339844 92.46875 64.609375 92.101562 C 65.460938 90.9375 65.25 89.101562 64.839844 87.582031 Z M 55.671875 85.824219 C 54.234375 87.664062 53.597656 89.136719 53.773438 90.203125 C 53.878906 90.84375 54.453125 91.40625 55 91.40625 C 55.441406 91.40625 55.671875 91.023438 55.785156 90.699219 C 56.171875 89.625 56.132812 87.988281 55.671875 85.824219 Z M 76.832031 76.3125 C 77.199219 76.4375 77.578125 76.503906 77.960938 76.503906 C 78.679688 76.503906 79.3125 76.277344 79.78125 75.859375 C 79.457031 75.703125 79.113281 75.625 78.757812 75.625 C 78.015625 75.625 77.34375 75.957031 76.832031 76.3125 Z M 43.574219 80.480469 C 43.40625 79.09375 44.464844 77.3125 46.753906 76.757812 C 47.253906 76.632812 47.796875 76.574219 48.367188 76.574219 C 48.730469 76.574219 49.109375 76.597656 49.488281 76.648438 C 49.726562 76.679688 50.113281 76.824219 50.5625 76.992188 C 51.003906 77.15625 51.605469 77.382812 51.824219 77.382812 C 52.316406 77.242188 53.003906 76.101562 53.507812 71.457031 L 53.539062 71.171875 C 54.789062 60.34375 55.121094 49.382812 54.519531 38.589844 C 54.511719 38.476562 54.484375 38.230469 54.445312 37.914062 C 54.308594 36.78125 54.183594 35.601562 54.183594 34.632812 C 53.757812 34.679688 53.332031 34.726562 52.90625 34.773438 C 52.238281 34.847656 52.097656 33.726562 52.75 33.605469 C 56.296875 32.945312 59.988281 32.738281 63.589844 32.667969 C 67.171875 32.601562 70.898438 32.621094 74.433594 33.25 C 74.984375 33.347656 74.84375 34.234375 74.300781 34.214844 C 73.429688 34.1875 72.558594 34.144531 71.691406 34.101562 C 71.6875 35.882812 71.574219 38.351562 71.355469 41.691406 C 71.292969 42.589844 71.25 43.300781 71.242188 43.605469 C 71.167969 47.710938 71.101562 52.558594 71.171875 57.351562 C 71.226562 61.417969 71.445312 65.761719 72.640625 69.910156 C 72.679688 70.046875 72.726562 70.214844 72.777344 70.40625 C 73.101562 71.617188 73.867188 74.453125 74.855469 74.867188 C 74.855469 74.867188 74.875 74.875 74.921875 74.875 C 75.214844 74.875 75.820312 74.625 76.402344 74.382812 C 77.246094 74.03125 78.199219 73.636719 78.953125 73.636719 C 79.007812 73.636719 79.058594 73.636719 79.109375 73.644531 C 80.195312 73.730469 81.609375 74.175781 82.023438 75.152344 C 82.195312 75.554688 82.253906 76.207031 81.5625 77.046875 C 80.765625 78.015625 79.542969 78.550781 78.125 78.550781 C 77.972656 78.550781 77.820312 78.546875 77.671875 78.53125 C 77.34375 78.507812 76.949219 78.347656 76.570312 78.195312 C 76.210938 78.050781 75.839844 77.902344 75.609375 77.902344 C 75.59375 77.902344 75.582031 77.902344 75.566406 77.90625 C 75.105469 77.957031 74.839844 78.628906 74.582031 79.28125 L 74.429688 79.660156 C 74.179688 80.269531 73.84375 81.101562 73.84375 81.695312 C 73.84375 82.472656 74.003906 82.664062 74.386719 83.121094 C 74.53125 83.292969 74.699219 83.488281 74.890625 83.753906 C 75.980469 85.277344 77.664062 89.125 76.8125 91.535156 C 76.484375 92.476562 75.8125 93.089844 74.816406 93.367188 C 74.511719 93.449219 74.222656 93.492188 73.953125 93.492188 C 73.316406 93.492188 72.773438 93.261719 72.34375 92.800781 C 71.09375 91.460938 71.152344 88.546875 71.234375 87.355469 C 71.253906 87.074219 71.34375 86.59375 71.449219 86.035156 C 71.601562 85.21875 71.921875 83.515625 71.75 83.238281 C 71.445312 82.808594 70.863281 82.71875 70.421875 82.71875 C 69.558594 82.71875 68.527344 83.066406 68.027344 83.40625 C 67.421875 83.816406 66.699219 84.472656 66.457031 85.015625 C 66.183594 85.632812 66.308594 86.039062 66.492188 86.65625 C 66.570312 86.910156 66.660156 87.199219 66.726562 87.539062 C 67.15625 89.746094 67.011719 91.492188 66.296875 92.722656 C 65.78125 93.613281 64.769531 94.507812 63.675781 94.507812 C 63.25 94.507812 62.847656 94.375 62.484375 94.113281 C 60.882812 92.976562 61.460938 90.53125 61.785156 89.535156 C 61.929688 89.078125 62.363281 88.410156 62.816406 87.703125 C 63.335938 86.902344 64.046875 85.800781 64.007812 85.390625 C 63.933594 84.539062 62.113281 83.421875 61.195312 83.164062 C 60.902344 83.078125 60.519531 83.035156 60.121094 83.035156 C 58.875 83.035156 57.460938 83.453125 57.300781 84.371094 C 57.191406 84.976562 57.414062 85.816406 57.628906 86.632812 C 57.816406 87.335938 58.007812 88.058594 58.007812 88.691406 C 58.007812 89.707031 57.671875 90.878906 57.109375 91.820312 C 56.460938 92.90625 55.628906 93.503906 54.765625 93.503906 C 53.980469 93.503906 53.234375 93.023438 52.542969 92.078125 C 51.5625 90.742188 51.625 88.898438 52.71875 86.753906 L 54.089844 84.664062 C 54.238281 84.480469 54.367188 84.332031 54.476562 84.207031 C 54.949219 83.664062 54.976562 83.632812 54.636719 82.707031 C 54.320312 81.855469 53.613281 81.035156 53.21875 80.617188 C 52.996094 80.382812 52.621094 79.992188 52.496094 79.992188 C 52.433594 79.992188 52.300781 80.082031 52.140625 80.191406 C 52.015625 80.277344 51.867188 80.378906 51.679688 80.492188 C 51.308594 80.710938 50.964844 80.945312 50.632812 81.171875 C 49.671875 81.828125 48.765625 82.449219 47.375 82.628906 C 47.109375 82.664062 46.847656 82.679688 46.601562 82.679688 C 44.566406 82.679688 43.703125 81.546875 43.574219 80.480469 Z M 17.292969 44.1875 C 19.308594 45.855469 21.492188 47.3125 23.503906 48.996094 C 25.429688 50.605469 27.171875 52.472656 29.195312 53.960938 C 29.835938 54.433594 30.738281 53.503906 30.292969 52.863281 C 28.8125 50.742188 26.710938 49.023438 24.722656 47.394531 C 22.710938 45.75 20.609375 44.074219 18.292969 42.890625 C 17.503906 42.492188 16.53125 43.558594 17.292969 44.1875 Z M 1.523438 63.238281 C 4.082031 65.105469 6.980469 66.542969 9.78125 68.007812 C 12.347656 69.351562 15.273438 71.328125 18.164062 71.789062 C 18.949219 71.914062 19.765625 70.953125 19.027344 70.308594 C 16.8125 68.359375 13.589844 67.300781 10.972656 65.96875 C 8.140625 64.527344 5.382812 62.882812 2.460938 61.636719 C 1.367188 61.171875 0.546875 62.523438 1.523438 63.238281 Z M 16.488281 100.941406 C 14.023438 101.339844 11.601562 102.199219 9.207031 102.894531 C 6.8125 103.59375 4.3125 104.175781 2 105.113281 C 0.96875 105.527344 1.34375 106.984375 2.457031 106.785156 C 5.011719 106.328125 7.535156 105.457031 10.027344 104.742188 C 12.410156 104.058594 14.867188 103.484375 17.152344 102.515625 C 18.121094 102.105469 17.367188 100.800781 16.488281 100.941406 Z M 24.828125 132.75 C 24.203125 133.613281 25.617188 134.402344 26.242188 133.578125 C 27.996094 131.253906 29.792969 128.960938 31.632812 126.703125 C 33.300781 124.652344 35.183594 122.699219 36.660156 120.507812 C 37.195312 119.714844 36.042969 118.921875 35.382812 119.523438 C 33.289062 121.441406 31.546875 123.894531 29.796875 126.125 C 28.09375 128.300781 26.441406 130.511719 24.828125 132.75 Z M 63.589844 124.660156 C 63.238281 127.386719 63.695312 130.347656 63.753906 133.101562 C 63.816406 135.917969 63.789062 138.730469 63.8125 141.546875 C 63.820312 142.59375 65.347656 142.570312 65.421875 141.546875 C 65.632812 138.636719 65.675781 135.714844 65.664062 132.796875 C 65.652344 130.101562 65.859375 127.074219 65.207031 124.4375 C 64.96875 123.460938 63.699219 123.800781 63.589844 124.660156 Z M 101.546875 121.023438 C 103.246094 123.257812 104.859375 125.699219 106.789062 127.738281 C 107.453125 128.441406 108.613281 127.539062 108.121094 126.714844 C 106.621094 124.195312 104.632812 121.882812 102.871094 119.542969 C 101.199219 117.316406 99.617188 114.78125 97.613281 112.839844 C 96.929688 112.179688 95.867188 113.015625 96.3125 113.84375 C 97.683594 116.402344 99.789062 118.71875 101.546875 121.023438 Z M 111.71875 90.675781 C 109.84375 90.4375 107.867188 90.046875 105.972656 90.21875 C 104.953125 90.308594 104.683594 91.714844 105.726562 92.042969 C 107.347656 92.554688 109.128906 92.640625 110.8125 92.847656 C 112.828125 93.097656 114.839844 93.363281 116.851562 93.644531 C 120.453125 94.148438 124.050781 94.828125 127.667969 95.226562 C 128.746094 95.347656 128.945312 93.613281 127.921875 93.355469 C 124.296875 92.4375 120.542969 91.921875 116.847656 91.375 C 115.140625 91.121094 113.433594 90.890625 111.71875 90.675781 Z M 103.125 59.992188 C 105.464844 58.390625 108.074219 57.167969 110.519531 55.726562 C 112.78125 54.390625 115.074219 52.429688 117.535156 51.535156 C 118.359375 51.238281 118.824219 52.339844 118.328125 52.898438 C 117.410156 53.9375 116.09375 54.640625 114.933594 55.386719 C 113.734375 56.152344 112.523438 56.902344 111.296875 57.625 C 108.882812 59.050781 106.414062 60.558594 103.753906 61.484375 C 102.828125 61.808594 102.410156 60.484375 103.125 59.992188 " fill-opacity="1" fill-rule="nonzero"/></g><path fill="#ffffff" d="M 89.285156 69.703125 C 89.710938 70.914062 89.871094 72.160156 90.5625 73.257812 C 90.730469 73.527344 91.140625 73.476562 91.230469 73.171875 C 92 70.652344 90.890625 67.597656 89.625 65.402344 C 88.585938 63.59375 86.941406 60.652344 84.683594 60.390625 C 84.40625 60.359375 84.152344 60.660156 84.160156 60.917969 C 84.210938 62.949219 86.484375 64.652344 87.523438 66.257812 C 88.226562 67.339844 88.855469 68.484375 89.285156 69.703125 Z M 81.941406 101.648438 C 84.988281 99.78125 87.15625 96.765625 88.476562 93.484375 C 90.058594 89.558594 89.933594 85.445312 90.890625 81.402344 C 91.117188 80.457031 92.722656 80.375 92.886719 81.402344 C 93.597656 85.804688 92.535156 90.902344 90.769531 94.949219 C 89.175781 98.605469 86.5625 101.628906 83.035156 103.519531 C 81.804688 104.175781 80.75 102.375 81.941406 101.648438 " fill-opacity="1" fill-rule="nonzero"/></g></g></g><g mask="url(#5fc4d2ef33)"><g transform="matrix(1, 0, 0, 1, 992, 156)"><g clip-path="url(#5171301e6a)"><g clip-path="url(#56665d7805)"><path fill="#bbe4e4" d="M 299.53125 1.804688 C 299.410156 1.511719 299.230469 1.25 299.011719 1.03125 C 299.011719 1.03125 299.011719 1.03125 299.007812 1.027344 C 298.976562 0.996094 298.933594 0.988281 298.902344 0.957031 C 298.703125 0.78125 298.484375 0.625 298.234375 0.523438 C 298.019531 0.433594 297.792969 0.410156 297.5625 0.386719 C 297.484375 0.378906 297.417969 0.339844 297.335938 0.339844 L 2.492188 0.339844 C 2.414062 0.339844 2.347656 0.378906 2.269531 0.386719 C 2.039062 0.40625 1.8125 0.433594 1.59375 0.519531 C 1.34375 0.625 1.128906 0.78125 0.929688 0.957031 C 0.894531 0.988281 0.851562 0.996094 0.820312 1.027344 C 0.820312 1.027344 0.820312 1.03125 0.820312 1.03125 C 0.597656 1.25 0.421875 1.511719 0.300781 1.804688 C 0.179688 2.09375 0.117188 2.402344 0.117188 2.710938 C 0.117188 2.714844 0.117188 2.714844 0.117188 2.71875 L 0.117188 192.941406 C 0.117188 194.253906 1.179688 195.316406 2.492188 195.316406 L 297.335938 195.316406 C 298.652344 195.316406 299.714844 194.253906 299.714844 192.941406 L 299.714844 2.71875 C 299.714844 2.714844 299.714844 2.714844 299.714844 2.710938 C 299.710938 2.402344 299.652344 2.09375 299.53125 1.804688 Z M 294.960938 175.140625 L 284.464844 175.140625 L 284.464844 19.117188 L 294.960938 8.503906 Z M 4.871094 175.140625 L 4.871094 8.503906 L 15.367188 19.117188 L 15.367188 175.140625 Z M 281.09375 15.761719 L 18.734375 15.761719 L 8.1875 5.097656 L 291.640625 5.097656 Z M 20.121094 20.519531 L 279.707031 20.519531 L 279.707031 175.136719 L 20.121094 175.136719 Z M 4.871094 190.5625 L 4.871094 179.894531 L 294.960938 179.894531 L 294.960938 190.5625 Z M 4.871094 190.5625 " fill-opacity="1" fill-rule="nonzero"/></g><path fill="#bbe4e4" d="M 45.703125 74.5 C 45.832031 74.5 45.960938 74.492188 46.09375 74.46875 C 47.058594 74.308594 47.824219 73.574219 48.03125 72.613281 L 55.253906 38.511719 L 104.164062 38.511719 C 105.476562 38.511719 106.539062 37.449219 106.539062 36.132812 C 106.539062 34.816406 105.476562 33.753906 104.164062 33.753906 L 53.324219 33.753906 C 52.199219 33.753906 51.230469 34.542969 50.996094 35.640625 L 44.636719 65.667969 L 40.121094 58.054688 C 39.449219 56.925781 37.992188 56.554688 36.863281 57.222656 C 35.734375 57.894531 35.363281 59.355469 36.03125 60.484375 L 43.65625 73.335938 C 44.09375 74.066406 44.871094 74.5 45.703125 74.5 Z M 45.703125 74.5 " fill-opacity="1" fill-rule="nonzero"/><path fill="#bbe4e4" d="M 69.449219 66.101562 C 69.914062 66.5625 70.515625 66.789062 71.121094 66.789062 C 71.734375 66.789062 72.347656 66.550781 72.8125 66.082031 L 78.746094 60.082031 L 84.679688 66.082031 C 85.144531 66.554688 85.757812 66.789062 86.371094 66.789062 C 86.976562 66.789062 87.578125 66.5625 88.042969 66.101562 C 88.976562 65.179688 88.984375 63.675781 88.0625 62.738281 L 82.09375 56.699219 L 88.0625 50.65625 C 88.988281 49.722656 88.976562 48.214844 88.042969 47.292969 C 87.105469 46.367188 85.605469 46.382812 84.679688 47.3125 L 78.746094 53.316406 L 72.8125 47.3125 C 71.890625 46.375 70.382812 46.371094 69.449219 47.292969 C 68.515625 48.214844 68.507812 49.722656 69.429688 50.65625 L 75.402344 56.699219 L 69.429688 62.738281 C 68.507812 63.675781 68.515625 65.183594 69.449219 66.101562 Z M 69.449219 66.101562 " fill-opacity="1" fill-rule="nonzero"/><path fill="#bbe4e4" d="M 124.5 48.792969 L 155 48.792969 C 156.3125 48.792969 157.375 47.730469 157.375 46.417969 C 157.375 45.101562 156.3125 44.039062 155 44.039062 L 124.5 44.039062 C 123.183594 44.039062 122.121094 45.101562 122.121094 46.417969 C 122.121094 47.730469 123.183594 48.792969 124.5 48.792969 Z M 124.5 48.792969 " fill-opacity="1" fill-rule="nonzero"/><path fill="#bbe4e4" d="M 124.5 64.21875 L 155 64.21875 C 156.3125 64.21875 157.375 63.15625 157.375 61.839844 C 157.375 60.527344 156.3125 59.464844 155 59.464844 L 124.5 59.464844 C 123.183594 59.464844 122.121094 60.527344 122.121094 61.839844 C 122.121094 63.15625 123.183594 64.21875 124.5 64.21875 Z M 124.5 64.21875 " fill-opacity="1" fill-rule="nonzero"/><path fill="#bbe4e4" d="M 38.242188 100.398438 C 38.242188 101.714844 39.304688 102.777344 40.617188 102.777344 L 114.328125 102.777344 C 115.644531 102.777344 116.707031 101.714844 116.707031 100.398438 C 116.707031 99.085938 115.644531 98.023438 114.328125 98.023438 L 40.617188 98.023438 C 39.304688 98.023438 38.242188 99.085938 38.242188 100.398438 Z M 38.242188 100.398438 " fill-opacity="1" fill-rule="nonzero"/><path fill="#bbe4e4" d="M 114.328125 116.015625 L 55.871094 116.015625 C 54.554688 116.015625 53.492188 117.078125 53.492188 118.390625 C 53.492188 119.707031 54.554688 120.769531 55.871094 120.769531 L 114.328125 120.769531 C 115.644531 120.769531 116.707031 119.707031 116.707031 118.390625 C 116.707031 117.078125 115.644531 116.015625 114.328125 116.015625 Z M 114.328125 116.015625 " fill-opacity="1" fill-rule="nonzero"/><path fill="#bbe4e4" d="M 132.125 144.292969 L 40.617188 144.292969 C 39.304688 144.292969 38.242188 145.355469 38.242188 146.671875 C 38.242188 147.984375 39.304688 149.046875 40.617188 149.046875 L 132.121094 149.046875 C 133.4375 149.046875 134.5 147.984375 134.5 146.671875 C 134.5 145.355469 133.4375 144.292969 132.125 144.292969 Z M 132.125 144.292969 " fill-opacity="1" fill-rule="nonzero"/><path fill="#bbe4e4" d="M 264.296875 131.4375 L 226.167969 131.4375 C 224.851562 131.4375 223.789062 132.5 223.789062 133.816406 C 223.789062 135.132812 224.851562 136.195312 226.167969 136.195312 L 264.292969 136.195312 C 265.609375 136.195312 266.671875 135.132812 266.671875 133.816406 C 266.671875 132.5 265.609375 131.4375 264.296875 131.4375 Z M 264.296875 131.4375 " fill-opacity="1" fill-rule="nonzero"/><path fill="#bbe4e4" d="M 264.296875 146.863281 L 226.167969 146.863281 C 224.851562 146.863281 223.789062 147.925781 223.789062 149.242188 C 223.789062 150.554688 224.851562 151.617188 226.167969 151.617188 L 264.292969 151.617188 C 265.609375 151.617188 266.671875 150.554688 266.671875 149.242188 C 266.671875 147.925781 265.609375 146.863281 264.296875 146.863281 Z M 264.296875 146.863281 " fill-opacity="1" fill-rule="nonzero"/><path fill="#bbe4e4" d="M 233.449219 103.875 C 233.488281 103.78125 233.519531 103.683594 233.546875 103.585938 L 235.152344 97.636719 L 256.671875 97.636719 C 257.984375 97.636719 259.046875 96.574219 259.046875 95.257812 C 259.046875 93.945312 257.984375 92.878906 256.671875 92.878906 L 236.4375 92.878906 L 241.175781 75.3125 C 241.519531 74.046875 240.765625 72.742188 239.5 72.394531 C 238.230469 72.050781 236.925781 72.804688 236.582031 74.074219 L 231.511719 92.878906 L 213.660156 92.878906 L 202.96875 71.277344 C 201.863281 68.355469 200.167969 65.789062 198.042969 63.742188 L 198.042969 33.566406 C 198.042969 32.25 196.980469 31.1875 195.664062 31.1875 C 194.351562 31.1875 193.289062 32.25 193.289062 33.566406 L 193.289062 60.429688 C 189.566406 58.632812 185.535156 58.320312 182.113281 59.621094 C 175.03125 62.3125 173.1875 70.71875 173.023438 71.554688 L 167.753906 92.882812 L 134.664062 92.882812 C 133.347656 92.882812 132.285156 93.945312 132.285156 95.261719 C 132.285156 96.574219 133.347656 97.640625 134.664062 97.640625 L 166.578125 97.640625 L 163.410156 110.449219 C 162.847656 112.734375 161.808594 114.625 160.414062 115.917969 C 158.269531 117.90625 155.460938 118.890625 152.699219 118.601562 C 149.132812 118.238281 145.984375 115.832031 144.476562 112.316406 C 143.957031 111.109375 142.554688 110.546875 141.351562 111.070312 C 140.148438 111.589844 139.589844 112.988281 140.105469 114.191406 C 142.292969 119.296875 146.9375 122.796875 152.21875 123.332031 C 152.691406 123.378906 153.164062 123.402344 153.636719 123.402344 C 157.273438 123.402344 160.859375 121.984375 163.648438 119.40625 C 165.726562 117.480469 167.246094 114.777344 168.03125 111.589844 L 171.480469 97.640625 L 193.292969 97.640625 L 193.292969 156.953125 C 193.292969 158.269531 194.355469 159.332031 195.671875 159.332031 C 196.984375 159.332031 198.046875 158.269531 198.046875 156.953125 L 198.046875 97.636719 L 210.71875 97.636719 L 213.804688 103.875 C 215.460938 107.890625 219.316406 110.488281 223.632812 110.488281 C 227.945312 110.488281 231.796875 107.890625 233.449219 103.875 Z M 172.652344 92.878906 L 177.667969 72.585938 C 177.71875 72.3125 179.035156 65.875 183.804688 64.066406 C 186.148438 63.171875 189.054688 63.503906 191.757812 64.964844 C 192.300781 65.257812 192.792969 65.632812 193.289062 65.996094 L 193.289062 92.878906 Z M 198.042969 92.878906 L 198.042969 71.96875 C 198.234375 72.375 198.453125 72.75 198.617188 73.179688 L 208.363281 92.878906 Z M 223.625 105.734375 C 221.246094 105.734375 219.117188 104.292969 218.132812 101.917969 L 216.011719 97.636719 L 230.226562 97.636719 L 228.996094 102.191406 C 228.050781 104.347656 225.957031 105.734375 223.625 105.734375 Z M 223.625 105.734375 " fill-opacity="1" fill-rule="nonzero"/></g></g></g><g transform="matrix(1, 0, 0, 1, 576, 102)"><g clip-path="url(#8bca0bd706)"><g fill="#f7f7f7" fill-opacity="1"><g transform="translate(0.533019, 117.383602)"><g><path d="M 26.046875 0 L 9.796875 0 L 9.796875 -77.890625 L 54.453125 -77.890625 L 54.453125 -64.359375 L 26.046875 -64.359375 L 26.046875 -44.265625 L 52.484375 -44.265625 L 52.484375 -30.796875 L 26.046875 -30.796875 Z M 26.046875 0 "/></g></g></g><g fill="#f7f7f7" fill-opacity="1"><g transform="translate(60.413468, 117.383602)"><g><path d="M 7.828125 -74.953125 C 7.828125 -80.242188 10.773438 -82.890625 16.671875 -82.890625 C 22.566406 -82.890625 25.515625 -80.242188 25.515625 -74.953125 C 25.515625 -72.429688 24.773438 -70.46875 23.296875 -69.0625 C 21.828125 -67.664062 19.617188 -66.96875 16.671875 -66.96875 C 10.773438 -66.96875 7.828125 -69.628906 7.828125 -74.953125 Z M 24.765625 0 L 8.53125 0 L 8.53125 -59.5625 L 24.765625 -59.5625 Z M 24.765625 0 "/></g></g></g><g fill="#f7f7f7" fill-opacity="1"><g transform="translate(93.709982, 117.383602)"><g><path d="M 50.078125 -17.6875 C 50.078125 -11.582031 47.953125 -6.929688 43.703125 -3.734375 C 39.460938 -0.535156 33.117188 1.0625 24.671875 1.0625 C 20.335938 1.0625 16.640625 0.769531 13.578125 0.1875 C 10.523438 -0.394531 7.671875 -1.253906 5.015625 -2.390625 L 5.015625 -15.828125 C 8.023438 -14.398438 11.421875 -13.207031 15.203125 -12.25 C 18.992188 -11.289062 22.328125 -10.8125 25.203125 -10.8125 C 31.097656 -10.8125 34.046875 -12.515625 34.046875 -15.921875 C 34.046875 -17.203125 33.65625 -18.242188 32.875 -19.046875 C 32.09375 -19.847656 30.742188 -20.753906 28.828125 -21.765625 C 26.910156 -22.773438 24.351562 -23.957031 21.15625 -25.3125 C 16.570312 -27.226562 13.203125 -29 11.046875 -30.625 C 8.898438 -32.257812 7.335938 -34.132812 6.359375 -36.25 C 5.390625 -38.363281 4.90625 -40.96875 4.90625 -44.0625 C 4.90625 -49.351562 6.953125 -53.445312 11.046875 -56.34375 C 15.148438 -59.238281 20.96875 -60.6875 28.5 -60.6875 C 35.675781 -60.6875 42.65625 -59.125 49.4375 -56 L 44.53125 -44.265625 C 41.550781 -45.546875 38.765625 -46.59375 36.171875 -47.40625 C 33.578125 -48.226562 30.929688 -48.640625 28.234375 -48.640625 C 23.441406 -48.640625 21.046875 -47.34375 21.046875 -44.75 C 21.046875 -43.289062 21.816406 -42.03125 23.359375 -40.96875 C 24.898438 -39.90625 28.285156 -38.328125 33.515625 -36.234375 C 38.160156 -34.347656 41.566406 -32.585938 43.734375 -30.953125 C 45.898438 -29.316406 47.5 -27.429688 48.53125 -25.296875 C 49.5625 -23.171875 50.078125 -20.632812 50.078125 -17.6875 Z M 50.078125 -17.6875 "/></g></g></g><g fill="#f7f7f7" fill-opacity="1"><g transform="translate(147.943342, 117.383602)"><g><path d="M 7.828125 -74.953125 C 7.828125 -80.242188 10.773438 -82.890625 16.671875 -82.890625 C 22.566406 -82.890625 25.515625 -80.242188 25.515625 -74.953125 C 25.515625 -72.429688 24.773438 -70.46875 23.296875 -69.0625 C 21.828125 -67.664062 19.617188 -66.96875 16.671875 -66.96875 C 10.773438 -66.96875 7.828125 -69.628906 7.828125 -74.953125 Z M 24.765625 0 L 8.53125 0 L 8.53125 -59.5625 L 24.765625 -59.5625 Z M 24.765625 0 "/></g></g></g><g fill="#f7f7f7" fill-opacity="1"><g transform="translate(181.239855, 117.383602)"><g><path d="M 24.140625 -32.390625 L 31.21875 -41.453125 L 47.890625 -59.5625 L 66.21875 -59.5625 L 42.5625 -33.71875 L 67.65625 0 L 48.90625 0 L 31.75 -24.140625 L 24.765625 -18.546875 L 24.765625 0 L 8.53125 0 L 8.53125 -82.890625 L 24.765625 -82.890625 L 24.765625 -45.921875 L 23.921875 -32.390625 Z M 24.140625 -32.390625 "/></g></g></g><g fill="#f7f7f7" fill-opacity="1"><g transform="translate(248.89837, 117.383602)"><g><path d="M 46.34375 0 L 43.203125 -8.09375 L 42.78125 -8.09375 C 40.039062 -4.65625 37.222656 -2.269531 34.328125 -0.9375 C 31.441406 0.394531 27.671875 1.0625 23.015625 1.0625 C 17.296875 1.0625 12.789062 -0.566406 9.5 -3.828125 C 6.21875 -7.097656 4.578125 -11.753906 4.578125 -17.796875 C 4.578125 -24.117188 6.785156 -28.78125 11.203125 -31.78125 C 15.628906 -34.78125 22.300781 -36.441406 31.21875 -36.765625 L 41.5625 -37.078125 L 41.5625 -39.6875 C 41.5625 -45.726562 38.46875 -48.75 32.28125 -48.75 C 27.519531 -48.75 21.925781 -47.3125 15.5 -44.4375 L 10.125 -55.40625 C 16.976562 -58.988281 24.578125 -60.78125 32.921875 -60.78125 C 40.910156 -60.78125 47.035156 -59.039062 51.296875 -55.5625 C 55.566406 -52.082031 57.703125 -46.789062 57.703125 -39.6875 L 57.703125 0 Z M 41.5625 -27.59375 L 35.265625 -27.390625 C 30.546875 -27.242188 27.03125 -26.390625 24.71875 -24.828125 C 22.40625 -23.265625 21.25 -20.882812 21.25 -17.6875 C 21.25 -13.101562 23.878906 -10.8125 29.140625 -10.8125 C 32.910156 -10.8125 35.921875 -11.894531 38.171875 -14.0625 C 40.429688 -16.226562 41.5625 -19.109375 41.5625 -22.703125 Z M 41.5625 -27.59375 "/></g></g></g></g></g></svg>