<svg xmlns="http://www.w3.org/2000/svg" xmlns:xlink="http://www.w3.org/1999/xlink" width="1920" zoomAndPan="magnify" viewBox="0 0 1440 384.749986" height="513" preserveAspectRatio="xMidYMid meet" version="1.0"><defs><filter x="0%" y="0%" width="100%" height="100%" id="d09b652b58"><feColorMatrix values="0 0 0 0 1 0 0 0 0 1 0 0 0 0 1 0 0 0 1 0" color-interpolation-filters="sRGB"/></filter><g/><clipPath id="63f4f1a1a8"><path d="M 0.46875 0 L 1439.53125 0 L 1439.53125 384.5 L 0.46875 384.5 Z M 0.46875 0 " clip-rule="nonzero"/></clipPath><clipPath id="50429d7c1a"><path d="M 0.46875 0 L 1439.53125 0 L 1439.53125 384.5 L 0.46875 384.5 Z M 0.46875 0 " clip-rule="nonzero"/></clipPath><mask id="36d2ce64ef"><g filter="url(#d09b652b58)"><rect x="-316.8" width="2073.6" fill="#000000" y="-84.644997" height="554.039979" fill-opacity="0.8"/></g></mask><clipPath id="452f394c82"><path d="M 1.085938 0.253906 L 1439.53125 0.253906 L 1439.53125 384.5 L 1.085938 384.5 Z M 1.085938 0.253906 " clip-rule="nonzero"/></clipPath><clipPath id="b69069e77a"><path d="M 15.328125 0.253906 L 1425.296875 0.253906 C 1433.164062 0.253906 1439.539062 6.628906 1439.539062 14.496094 L 1439.539062 370.515625 C 1439.539062 378.382812 1433.164062 384.757812 1425.296875 384.757812 L 15.328125 384.757812 C 7.460938 384.757812 1.085938 378.382812 1.085938 370.515625 L 1.085938 14.496094 C 1.085938 6.628906 7.460938 0.253906 15.328125 0.253906 Z M 15.328125 0.253906 " clip-rule="nonzero"/></clipPath><clipPath id="d0fb52ff3a"><path d="M 0.0859375 0.253906 L 1438.53125 0.253906 L 1438.53125 384.5 L 0.0859375 384.5 Z M 0.0859375 0.253906 " clip-rule="nonzero"/></clipPath><clipPath id="d709b1b995"><path d="M 14.328125 0.253906 L 1424.296875 0.253906 C 1432.164062 0.253906 1438.539062 6.628906 1438.539062 14.496094 L 1438.539062 370.515625 C 1438.539062 378.382812 1432.164062 384.757812 1424.296875 384.757812 L 14.328125 384.757812 C 6.460938 384.757812 0.0859375 378.382812 0.0859375 370.515625 L 0.0859375 14.496094 C 0.0859375 6.628906 6.460938 0.253906 14.328125 0.253906 Z M 14.328125 0.253906 " clip-rule="nonzero"/></clipPath><clipPath id="9b1c2d465f"><rect x="0" width="1439" y="0" height="385"/></clipPath><clipPath id="1e1d5c4a58"><path d="M 1.085938 0 L 1439.3125 0 L 1439.3125 384.5 L 1.085938 384.5 Z M 1.085938 0 " clip-rule="nonzero"/></clipPath><clipPath id="07d960c4bd"><path d="M 15.324219 0.253906 L 1425.285156 0.253906 C 1433.148438 0.253906 1439.523438 6.632812 1439.523438 14.496094 L 1439.523438 370.515625 C 1439.523438 378.378906 1433.148438 384.753906 1425.285156 384.753906 L 15.324219 384.753906 C 7.460938 384.753906 1.085938 378.378906 1.085938 370.515625 L 1.085938 14.496094 C 1.085938 6.632812 7.460938 0.253906 15.324219 0.253906 Z M 15.324219 0.253906 " clip-rule="nonzero"/></clipPath><clipPath id="9c358911e4"><rect x="0" width="1440" y="0" height="385"/></clipPath><clipPath id="0401cb1f3d"><path d="M 1.078125 271.921875 L 1439.53125 271.921875 L 1439.53125 384.5 L 1.078125 384.5 Z M 1.078125 271.921875 " clip-rule="nonzero"/></clipPath><clipPath id="a4fe288200"><path d="M 0.078125 0.921875 L 1438.53125 0.921875 L 1438.53125 113.5 L 0.078125 113.5 Z M 0.078125 0.921875 " clip-rule="nonzero"/></clipPath><clipPath id="d0b8c5a62e"><rect x="0" width="1439" y="0" height="114"/></clipPath><clipPath id="9d2fec2c1b"><path d="M 1.1875 271.941406 L 1439.304688 271.941406 L 1439.304688 384.5 L 1.1875 384.5 Z M 1.1875 271.941406 " clip-rule="nonzero"/></clipPath><clipPath id="639e5fffbe"><path d="M 131 57 L 651 57 L 651 384.5 L 131 384.5 Z M 131 57 " clip-rule="nonzero"/></clipPath><mask id="8acec66d39"><g filter="url(#d09b652b58)"><rect x="-316.8" width="2073.6" fill="#000000" y="-84.644997" height="554.039979" fill-opacity="0.08"/></g></mask><clipPath id="51dffe357b"><path d="M 13 65 L 504 65 L 504 223 L 13 223 Z M 13 65 " clip-rule="nonzero"/></clipPath><clipPath id="3ced038170"><path d="M 389.1875 450.988281 L 0.921875 227.046875 L 130.609375 2.191406 L 518.878906 226.132812 Z M 389.1875 450.988281 " clip-rule="nonzero"/></clipPath><clipPath id="7f07abadec"><path d="M 389.1875 450.988281 L 0.921875 227.046875 L 130.609375 2.191406 L 518.878906 226.132812 Z M 389.1875 450.988281 " clip-rule="nonzero"/></clipPath><clipPath id="08e9d6b9d3"><path d="M 0.421875 60 L 519 60 L 519 227 L 0.421875 227 Z M 0.421875 60 " clip-rule="nonzero"/></clipPath><clipPath id="6019448fe7"><path d="M 389.1875 450.988281 L 0.921875 227.046875 L 130.609375 2.191406 L 518.878906 226.132812 Z M 389.1875 450.988281 " clip-rule="nonzero"/></clipPath><clipPath id="31af15794c"><path d="M 389.1875 450.988281 L 0.921875 227.046875 L 130.609375 2.191406 L 518.878906 226.132812 Z M 389.1875 450.988281 " clip-rule="nonzero"/></clipPath><clipPath id="537dd3d431"><rect x="0" width="520" y="0" height="328"/></clipPath><clipPath id="45729b2091"><path d="M 0.46875 0 L 132 0 L 132 273 L 0.46875 273 Z M 0.46875 0 " clip-rule="nonzero"/></clipPath><mask id="35aba850f1"><g filter="url(#d09b652b58)"><rect x="-316.8" width="2073.6" fill="#000000" y="-84.644997" height="554.039979" fill-opacity="0.08"/></g></mask><clipPath id="9aa9464de2"><path d="M 7 0 L 96 0 L 96 264 L 7 264 Z M 7 0 " clip-rule="nonzero"/></clipPath><clipPath id="29efafa7cf"><path d="M -115.546875 198.644531 L 10.632812 -9 L 131.863281 64.671875 L 5.683594 272.3125 Z M -115.546875 198.644531 " clip-rule="nonzero"/></clipPath><clipPath id="099082eeb7"><path d="M -115.546875 198.644531 L 10.632812 -9 L 131.863281 64.671875 L 5.683594 272.3125 Z M -115.546875 198.644531 " clip-rule="nonzero"/></clipPath><clipPath id="950c0426e4"><path d="M 5 0 L 99 0 L 99 272 L 5 272 Z M 5 0 " clip-rule="nonzero"/></clipPath><clipPath id="4321a4e331"><path d="M -115.546875 198.644531 L 10.632812 -9 L 131.863281 64.671875 L 5.683594 272.3125 Z M -115.546875 198.644531 " clip-rule="nonzero"/></clipPath><clipPath id="5cedc66b4a"><path d="M -115.546875 198.644531 L 10.632812 -9 L 131.863281 64.671875 L 5.683594 272.3125 Z M -115.546875 198.644531 " clip-rule="nonzero"/></clipPath><clipPath id="e591fb1d77"><rect x="0" width="132" y="0" height="273"/></clipPath><mask id="0e310a2d26"><g filter="url(#d09b652b58)"><rect x="-316.8" width="2073.6" fill="#000000" y="-84.644997" height="554.039979" fill-opacity="0.1"/></g></mask><clipPath id="7d78b684a6"><path d="M 0.316406 0.179688 L 552.664062 0.179688 L 552.664062 152.601562 L 0.316406 152.601562 Z M 0.316406 0.179688 " clip-rule="nonzero"/></clipPath><clipPath id="3ad5d3ea55"><rect x="0" width="555" y="0" height="154"/></clipPath><mask id="7622467659"><g filter="url(#d09b652b58)"><rect x="-316.8" width="2073.6" fill="#000000" y="-84.644997" height="554.039979" fill-opacity="0.39"/></g></mask><clipPath id="0c7fb3015e"><path d="M 45 1.203125 L 76 1.203125 L 76 32 L 45 32 Z M 45 1.203125 " clip-rule="nonzero"/></clipPath><clipPath id="8c8deda629"><path d="M 1.230469 4.183594 L 121.480469 4.183594 L 121.480469 134.007812 L 1.230469 134.007812 Z M 1.230469 4.183594 " clip-rule="nonzero"/></clipPath><clipPath id="ec05ba90b7"><rect x="0" width="122" y="0" height="135"/></clipPath><mask id="50c8530f6a"><g filter="url(#d09b652b58)"><rect x="-316.8" width="2073.6" fill="#000000" y="-84.644997" height="554.039979" fill-opacity="0.26"/></g></mask><clipPath id="6db3e5ba31"><path d="M 0.285156 0.476562 L 144.238281 0.476562 L 144.238281 174.03125 L 0.285156 174.03125 Z M 0.285156 0.476562 " clip-rule="nonzero"/></clipPath><clipPath id="7eb8511946"><path d="M 22 13 L 144.238281 13 L 144.238281 85 L 22 85 Z M 22 13 " clip-rule="nonzero"/></clipPath><clipPath id="0b0b2fbd1d"><path d="M 0.398438 0.476562 L 135.34375 0.476562 L 135.34375 174.03125 L 0.398438 174.03125 Z M 0.398438 0.476562 " clip-rule="nonzero"/></clipPath><clipPath id="f5e2b2efaa"><path d="M 0.398438 0.476562 L 117.597656 0.476562 L 117.597656 174.03125 L 0.398438 174.03125 Z M 0.398438 0.476562 " clip-rule="nonzero"/></clipPath><clipPath id="c4733938a5"><rect x="0" width="145" y="0" height="175"/></clipPath><clipPath id="d2d6e3e99b"><rect x="0" width="145" y="0" height="175"/></clipPath><mask id="364396b4fd"><g filter="url(#d09b652b58)"><rect x="-316.8" width="2073.6" fill="#000000" y="-84.644997" height="554.039979" fill-opacity="0.12"/></g></mask><clipPath id="b9b8bc9045"><path d="M 0.464844 0.753906 L 244.691406 0.753906 L 244.691406 159.214844 L 0.464844 159.214844 Z M 0.464844 0.753906 " clip-rule="nonzero"/></clipPath><clipPath id="32a6ff1046"><rect x="0" width="245" y="0" height="160"/></clipPath><clipPath id="2c05ae3e9f"><rect x="0" width="298" y="0" height="141"/></clipPath><clipPath id="57ce780ff2"><rect x="0" width="1440" y="0" height="385"/></clipPath></defs><g clip-path="url(#63f4f1a1a8)"><g><g clip-path="url(#57ce780ff2)"><g clip-path="url(#50429d7c1a)"><g mask="url(#36d2ce64ef)"><g><g clip-path="url(#9c358911e4)"><g clip-path="url(#452f394c82)"><g clip-path="url(#b69069e77a)"><g transform="matrix(1, 0, 0, 1, 1, 0)"><g clip-path="url(#9b1c2d465f)"><g clip-path="url(#d0fb52ff3a)"><g clip-path="url(#d709b1b995)"><path fill="#0097b2" d="M 0.0859375 384.757812 L 0.0859375 0.253906 L 1438.972656 0.253906 L 1438.972656 384.757812 Z M 0.0859375 384.757812 " fill-opacity="1" fill-rule="nonzero"/></g></g></g></g></g></g><g clip-path="url(#1e1d5c4a58)"><g clip-path="url(#07d960c4bd)"><path stroke-linecap="butt" transform="matrix(0, -1.509157, 1.509157, 0, 1.085567, 384.755727)" fill="none" stroke-linejoin="miter" d="M 254.779279 9.434841 L 254.779279 943.705661 C 254.779279 948.916043 250.552477 953.140257 245.342096 953.140257 L 9.435801 953.140257 C 4.22542 953.140257 0.00120622 948.916043 0.00120622 943.705661 L 0.00120622 9.434841 C 0.00120622 4.22446 4.22542 0.000245814 9.435801 0.000245814 L 245.342096 0.000245814 C 250.552477 0.000245814 254.779279 4.22446 254.779279 9.434841 Z M 254.779279 9.434841 " stroke="#000000" stroke-width="4.966436" stroke-opacity="1" stroke-miterlimit="4"/></g></g></g></g></g></g><g clip-path="url(#0401cb1f3d)"><g transform="matrix(1, 0, 0, 1, 1, 271)"><g clip-path="url(#d0b8c5a62e)"><g clip-path="url(#a4fe288200)"><path fill="#f7f7f7" d="M 0.078125 113.75 L 0.078125 0.921875 L 1438.636719 0.921875 L 1438.636719 113.75 Z M 0.078125 113.75 " fill-opacity="1" fill-rule="nonzero"/></g></g></g></g><g clip-path="url(#9d2fec2c1b)"><path stroke-linecap="butt" transform="matrix(0, -1.509157, 1.509157, 0, 1.18886, 384.749519)" fill="none" stroke-linejoin="miter" d="M -0.000318415 -0.00090095 L 74.749112 -0.00090095 L 74.749112 952.991573 L -0.000318415 952.991573 Z M -0.000318415 -0.00090095 " stroke="#000000" stroke-width="4.966436" stroke-opacity="1" stroke-miterlimit="4"/></g><g clip-path="url(#639e5fffbe)"><g mask="url(#8acec66d39)"><g transform="matrix(1, 0, 0, 1, 131, 57)"><g clip-path="url(#537dd3d431)"><g clip-path="url(#51dffe357b)"><g clip-path="url(#3ced038170)"><g clip-path="url(#7f07abadec)"><path fill="#bbe4e4" d="M 503.832031 221.398438 L 13.457031 222.789062 L 233.316406 65.375 Z M 503.832031 221.398438 " fill-opacity="1" fill-rule="nonzero"/></g></g></g><g clip-path="url(#08e9d6b9d3)"><g clip-path="url(#6019448fe7)"><g clip-path="url(#31af15794c)"><path fill="#0097b2" d="M 233.125 60.503906 L 519.019531 225.398438 L 0.640625 226.886719 Z M 488.613281 217.277344 L 233.554688 70.167969 L 26.195312 218.648438 Z M 488.613281 217.277344 " fill-opacity="1" fill-rule="nonzero"/></g></g></g></g></g></g></g><g clip-path="url(#45729b2091)"><g mask="url(#35aba850f1)"><g><g clip-path="url(#e591fb1d77)"><g clip-path="url(#9aa9464de2)"><g clip-path="url(#29efafa7cf)"><g clip-path="url(#099082eeb7)"><path fill="#bbe4e4" d="M 7.480469 263.644531 L 12.8125 -2.195312 L 95.414062 118.9375 Z M 7.480469 263.644531 " fill-opacity="1" fill-rule="nonzero"/></g></g></g><g clip-path="url(#950c0426e4)"><g clip-path="url(#4321a4e331)"><g clip-path="url(#5cedc66b4a)"><path fill="#0097b2" d="M 98.054688 118.894531 L 5.125 271.824219 L 10.75 -9.191406 Z M 9.902344 255.445312 L 92.8125 119.007812 L 14.898438 4.761719 Z M 9.902344 255.445312 " fill-opacity="1" fill-rule="nonzero"/></g></g></g></g></g></g></g><g mask="url(#0e310a2d26)"><g transform="matrix(1, 0, 0, 1, 879, 116)"><g clip-path="url(#3ad5d3ea55)"><g clip-path="url(#7d78b684a6)"><path fill="#bbe4e4" d="M 552.761719 0.308594 L 552.761719 152.660156 L 0.316406 152.660156 Z M 552.761719 0.308594 " fill-opacity="1" fill-rule="nonzero"/></g></g></g></g><g mask="url(#7622467659)"><g transform="matrix(1, 0, 0, 1, 1177, 15)"><g clip-path="url(#ec05ba90b7)"><path fill="#1994b5" d="M 25.964844 74.101562 C 27.882812 65.699219 32.207031 58.628906 37.863281 52.234375 C 40.742188 48.976562 43.738281 45.75 45.808594 41.890625 C 46.890625 39.875 47.679688 37.714844 48.171875 35.484375 C 48.664062 33.25 48.542969 31.019531 48.875 28.785156 C 49.441406 24.96875 53.0625 24.347656 56.328125 24.367188 C 60.953125 24.398438 65.585938 24.863281 70.125 25.746094 C 70.515625 25.59375 71.050781 25.71875 71.125 26.195312 C 71.445312 28.359375 71.761719 30.527344 72.195312 32.671875 C 73.089844 37.09375 74.550781 41.367188 77.359375 44.957031 C 79.871094 48.171875 83.011719 50.820312 85.75 53.832031 C 91.023438 59.632812 94.0625 67.148438 94.707031 74.933594 C 95.292969 82.007812 93.867188 89.398438 90.136719 95.488281 C 86.160156 101.972656 79.730469 106.15625 72.535156 108.328125 C 64.601562 110.722656 55.507812 111.421875 47.304688 110.292969 C 39.421875 109.207031 31.53125 105.425781 27.765625 98.070312 C 24.066406 90.855469 24.207031 81.835938 25.964844 74.101562 " fill-opacity="1" fill-rule="nonzero"/><path fill="#34bcc0" d="M 48.917969 48.308594 C 51.832031 49.34375 52.328125 53.480469 55.0625 50.441406 C 55.355469 50.113281 57.851562 37.101562 57.695312 36.511719 C 55.441406 27.929688 44.515625 46.75 48.917969 48.308594 Z M 52.429688 101.789062 C 50.746094 102.753906 45.160156 102.003906 43.808594 103.96875 C 41.660156 107.09375 46.472656 108.304688 48.863281 108.585938 C 55.914062 109.40625 54.976562 100.335938 52.429688 101.789062 Z M 29.648438 88.402344 C 29.632812 77.726562 33.152344 64.675781 40.390625 56.53125 C 42.480469 54.179688 46.726562 50.148438 49.410156 53.851562 C 50.953125 55.976562 48.882812 66.203125 48.96875 68.65625 C 49.1875 75.117188 50.632812 81.265625 51.375 87.648438 C 51.988281 92.96875 51.21875 94.691406 46.265625 96.828125 C 36.984375 100.828125 29.667969 100.054688 29.648438 88.402344 " fill-opacity="1" fill-rule="nonzero"/><g clip-path="url(#0c7fb3015e)"><path fill="#bbe4e4" d="M 45.375 17.09375 C 45.46875 15.105469 46.625 13.144531 48.550781 12.773438 C 47.867188 10.839844 48.953125 8.773438 50.617188 7.589844 C 50.574219 5.765625 51.042969 4.101562 52.636719 2.855469 C 54.46875 1.425781 56.949219 1.011719 59.21875 0.992188 C 62.4375 0.96875 69.359375 2.5 69.058594 6.722656 C 70.164062 7 71.25 7.402344 72.0625 8.175781 C 72.902344 8.96875 73.308594 10.101562 72.835938 11.207031 C 72.519531 11.9375 71.957031 12.429688 71.308594 12.800781 C 73.214844 13.671875 74.773438 15.191406 75.066406 17.410156 C 75.316406 19.316406 74.304688 21.167969 72.613281 21.914062 C 74.066406 23.640625 75.378906 25.609375 75.113281 27.964844 C 74.9375 29.503906 73.933594 30.828125 72.554688 31.332031 C 72.476562 31.46875 72.339844 31.566406 72.15625 31.542969 C 72.058594 31.53125 71.960938 31.519531 71.867188 31.507812 C 71.601562 31.546875 71.324219 31.5625 71.039062 31.539062 C 70.867188 31.527344 70.730469 31.460938 70.628906 31.363281 C 67.691406 31.035156 64.746094 30.820312 61.785156 30.847656 C 58.40625 30.878906 55.136719 31.355469 51.789062 31.71875 C 49.570312 31.960938 47.066406 31.386719 46.414062 28.957031 C 45.839844 26.820312 46.441406 24.605469 47.652344 22.828125 C 46.066406 21.386719 45.277344 19.253906 45.375 17.09375 " fill-opacity="1" fill-rule="nonzero"/></g><g clip-path="url(#8c8deda629)"><path fill="#bcb1ff" d="M 51.660156 7.113281 C 53.960938 5.535156 56.5 5.398438 59.207031 5.402344 C 62.214844 5.40625 64.96875 5.820312 67.867188 6.585938 C 68.292969 6.699219 68.585938 6.070312 68.175781 5.859375 C 65.339844 4.394531 61.8125 4.382812 58.699219 4.355469 C 56.101562 4.332031 53.023438 4.375 51.085938 6.367188 C 50.726562 6.738281 51.203125 7.425781 51.660156 7.113281 Z M 49.894531 13.238281 C 51.46875 13.023438 53.011719 12.425781 54.582031 12.132812 C 56.289062 11.820312 58.015625 11.640625 59.75 11.589844 C 63.113281 11.488281 66.425781 11.949219 69.691406 12.730469 C 70.265625 12.867188 70.5 12.019531 69.933594 11.847656 C 66.554688 10.828125 63.011719 10.40625 59.480469 10.480469 C 56.324219 10.542969 52.320312 10.765625 49.472656 12.246094 C 48.878906 12.554688 49.332031 13.3125 49.894531 13.238281 Z M 59.71875 20.371094 C 56.460938 20.53125 52.476562 20.679688 49.476562 22.054688 C 49.070312 22.242188 49.269531 22.9375 49.707031 22.902344 C 51.289062 22.789062 52.847656 22.277344 54.414062 22.015625 C 56.257812 21.710938 58.121094 21.5 59.992188 21.417969 C 63.503906 21.257812 66.886719 21.738281 70.371094 21.964844 C 70.867188 21.996094 70.953125 21.238281 70.488281 21.113281 C 67.074219 20.195312 63.222656 20.195312 59.71875 20.371094 Z M 43.011719 75.40625 C 43.070312 75.695312 43.457031 75.894531 44.046875 75.945312 C 44.128906 75.953125 44.214844 75.957031 44.296875 75.957031 C 45.625 75.957031 46.972656 75.082031 47.882812 74.175781 C 47.242188 73.953125 46.574219 73.835938 45.9375 73.835938 C 45.195312 73.835938 44.523438 73.992188 43.941406 74.300781 C 43.222656 74.679688 42.957031 75.128906 43.011719 75.40625 Z M 50.960938 73.878906 L 51.007812 73.898438 L 51.039062 73.925781 C 51.429688 74.257812 51.792969 74.625 52.117188 75.019531 C 52.6875 75.695312 53.171875 76.480469 53.566406 77.355469 C 54.5625 76.675781 55.691406 76.316406 56.859375 76.316406 C 58.6875 76.316406 60.433594 77.210938 61.59375 78.730469 C 62.949219 77.023438 64.597656 76.085938 66.261719 76.085938 C 66.871094 76.085938 67.480469 76.210938 68.078125 76.457031 C 68.292969 75.285156 68.566406 74.335938 68.921875 73.492188 C 68.996094 73.324219 69.113281 73.117188 69.242188 72.898438 C 69.414062 72.601562 69.699219 72.113281 69.679688 71.941406 C 69.652344 71.699219 69.179688 71.152344 68.835938 70.75 C 68.535156 70.402344 68.253906 70.070312 68.109375 69.804688 C 67.699219 69.042969 67.335938 68.167969 67.007812 67.128906 C 65.777344 63.234375 65.574219 59.011719 65.476562 55.359375 C 65.371094 51.375 65.472656 47.316406 65.574219 43.394531 C 65.597656 42.476562 65.617188 41.5625 65.640625 40.648438 C 65.691406 38.363281 65.757812 35.988281 65.839844 33.585938 C 65.84375 33.449219 65.839844 33.203125 65.832031 32.890625 C 65.824219 32.535156 65.820312 32.179688 65.816406 31.835938 C 63.941406 31.738281 62.066406 31.660156 60.175781 31.703125 C 57.855469 31.757812 55.570312 31.972656 53.28125 32.21875 C 53.472656 33.261719 53.507812 34.644531 53.511719 36.039062 C 53.511719 36.433594 53.515625 36.777344 53.527344 36.980469 C 53.796875 41.460938 53.796875 46.300781 53.53125 52.21875 C 53.480469 53.320312 53.441406 54.429688 53.398438 55.535156 C 53.261719 59.148438 53.117188 62.882812 52.707031 66.503906 C 52.554688 67.835938 52.371094 68.902344 52.125 69.871094 C 52.050781 70.175781 51.878906 70.625 51.683594 71.144531 C 51.398438 71.886719 50.734375 73.632812 50.960938 73.878906 Z M 69.394531 79.734375 C 69.378906 79.851562 69.359375 79.976562 69.339844 80.105469 C 69.101562 81.738281 68.742188 84.207031 69.417969 85.371094 C 69.632812 85.746094 69.941406 85.96875 70.238281 85.96875 C 70.457031 85.96875 70.675781 85.851562 70.886719 85.617188 C 71.339844 85.117188 71.058594 83.996094 70.886719 83.324219 L 70.851562 83.179688 C 70.496094 81.742188 70.015625 80.605469 69.394531 79.734375 Z M 61.351562 82.378906 C 60.792969 83.3125 60.179688 84.417969 60.074219 85.433594 C 60.03125 85.878906 60.1875 86.605469 60.46875 86.910156 C 60.535156 86.984375 60.597656 87.023438 60.660156 87.023438 C 60.71875 87.023438 60.882812 86.984375 61.136719 86.640625 C 61.941406 85.542969 61.742188 83.8125 61.351562 82.378906 Z M 52.707031 80.722656 C 51.351562 82.457031 50.75 83.84375 50.917969 84.851562 C 51.019531 85.453125 51.558594 85.984375 52.074219 85.984375 C 52.492188 85.984375 52.707031 85.621094 52.816406 85.320312 C 53.179688 84.304688 53.144531 82.761719 52.707031 80.722656 Z M 72.664062 71.75 C 73.007812 71.867188 73.371094 71.929688 73.730469 71.929688 C 74.40625 71.929688 75.003906 71.714844 75.445312 71.324219 C 75.140625 71.175781 74.816406 71.101562 74.480469 71.101562 C 73.78125 71.101562 73.148438 71.414062 72.664062 71.75 Z M 41.300781 75.683594 C 41.140625 74.371094 42.140625 72.695312 44.296875 72.167969 C 44.769531 72.054688 45.28125 71.996094 45.820312 71.996094 C 46.160156 71.996094 46.515625 72.019531 46.878906 72.066406 C 47.097656 72.09375 47.464844 72.230469 47.890625 72.390625 C 48.304688 72.546875 48.871094 72.761719 49.078125 72.761719 C 49.542969 72.628906 50.191406 71.550781 50.667969 67.171875 L 50.699219 66.902344 C 51.875 56.691406 52.1875 46.351562 51.621094 36.171875 C 51.617188 36.066406 51.585938 35.832031 51.550781 35.535156 C 51.421875 34.46875 51.304688 33.351562 51.304688 32.441406 C 50.902344 32.484375 50.503906 32.527344 50.101562 32.574219 C 49.46875 32.644531 49.335938 31.585938 49.953125 31.472656 C 53.300781 30.847656 56.777344 30.652344 60.175781 30.589844 C 63.550781 30.523438 67.066406 30.542969 70.402344 31.136719 C 70.921875 31.230469 70.789062 32.0625 70.277344 32.046875 C 69.457031 32.019531 68.636719 31.980469 67.816406 31.9375 C 67.8125 33.621094 67.703125 35.949219 67.5 39.097656 C 67.441406 39.945312 67.398438 40.613281 67.394531 40.902344 C 67.324219 44.777344 67.261719 49.347656 67.324219 53.867188 C 67.378906 57.703125 67.582031 61.796875 68.710938 65.714844 C 68.75 65.839844 68.792969 65.996094 68.839844 66.179688 C 69.148438 67.320312 69.867188 69.996094 70.800781 70.386719 C 70.800781 70.386719 70.820312 70.394531 70.863281 70.394531 C 71.140625 70.394531 71.710938 70.160156 72.257812 69.929688 C 73.054688 69.601562 73.953125 69.226562 74.664062 69.226562 C 74.714844 69.226562 74.765625 69.226562 74.8125 69.230469 C 75.835938 69.3125 77.171875 69.734375 77.5625 70.65625 C 77.722656 71.035156 77.777344 71.652344 77.125 72.441406 C 76.371094 73.359375 75.222656 73.863281 73.882812 73.863281 C 73.742188 73.863281 73.597656 73.855469 73.457031 73.84375 C 73.144531 73.820312 72.777344 73.671875 72.417969 73.527344 C 72.078125 73.390625 71.726562 73.25 71.511719 73.25 C 71.5 73.25 71.484375 73.25 71.472656 73.25 C 71.035156 73.300781 70.785156 73.933594 70.542969 74.550781 L 70.398438 74.90625 C 70.164062 75.480469 69.847656 76.265625 69.847656 76.828125 C 69.84375 77.5625 69.996094 77.738281 70.359375 78.167969 C 70.496094 78.332031 70.652344 78.515625 70.832031 78.769531 C 71.863281 80.203125 73.449219 83.832031 72.648438 86.109375 C 72.335938 86.992188 71.703125 87.574219 70.761719 87.835938 C 70.476562 87.914062 70.203125 87.953125 69.949219 87.953125 C 69.347656 87.953125 68.835938 87.734375 68.429688 87.300781 C 67.253906 86.039062 67.308594 83.289062 67.386719 82.164062 C 67.402344 81.902344 67.488281 81.445312 67.585938 80.917969 C 67.734375 80.148438 68.035156 78.542969 67.871094 78.28125 C 67.585938 77.875 67.035156 77.792969 66.621094 77.792969 C 65.808594 77.792969 64.832031 78.121094 64.359375 78.4375 C 63.789062 78.824219 63.109375 79.445312 62.878906 79.957031 C 62.621094 80.539062 62.738281 80.921875 62.914062 81.503906 C 62.988281 81.746094 63.070312 82.019531 63.132812 82.335938 C 63.539062 84.417969 63.402344 86.066406 62.730469 87.226562 C 62.242188 88.066406 61.289062 88.910156 60.257812 88.910156 C 59.855469 88.910156 59.476562 88.785156 59.132812 88.539062 C 57.625 87.464844 58.167969 85.160156 58.472656 84.21875 C 58.613281 83.789062 59.019531 83.160156 59.449219 82.492188 C 59.9375 81.738281 60.605469 80.699219 60.570312 80.3125 C 60.5 79.507812 58.78125 78.453125 57.917969 78.210938 C 57.640625 78.132812 57.28125 78.089844 56.90625 78.089844 C 55.730469 78.089844 54.394531 78.484375 54.242188 79.351562 C 54.144531 79.917969 54.351562 80.714844 54.554688 81.484375 C 54.730469 82.144531 54.910156 82.828125 54.910156 83.425781 C 54.910156 84.382812 54.59375 85.488281 54.066406 86.375 C 53.453125 87.398438 52.667969 87.964844 51.851562 87.964844 C 51.113281 87.964844 50.40625 87.511719 49.753906 86.621094 C 48.832031 85.359375 48.890625 83.621094 49.921875 81.597656 L 51.21875 79.625 C 51.355469 79.453125 51.476562 79.316406 51.582031 79.195312 C 52.023438 78.683594 52.050781 78.652344 51.730469 77.777344 C 51.433594 76.976562 50.765625 76.203125 50.394531 75.8125 C 50.183594 75.589844 49.832031 75.21875 49.714844 75.21875 C 49.65625 75.21875 49.527344 75.304688 49.378906 75.40625 C 49.261719 75.488281 49.121094 75.585938 48.941406 75.691406 C 48.589844 75.898438 48.269531 76.121094 47.957031 76.332031 C 47.050781 76.953125 46.191406 77.539062 44.886719 77.707031 C 44.632812 77.738281 44.386719 77.757812 44.15625 77.757812 C 42.234375 77.757812 41.421875 76.683594 41.300781 75.683594 Z M 16.511719 41.453125 C 18.414062 43.027344 20.472656 44.398438 22.367188 45.988281 C 24.183594 47.503906 25.832031 49.265625 27.738281 50.667969 C 28.34375 51.113281 29.195312 50.238281 28.773438 49.632812 C 27.375 47.632812 25.394531 46.011719 23.519531 44.476562 C 21.621094 42.925781 19.640625 41.34375 17.453125 40.230469 C 16.710938 39.855469 15.792969 40.859375 16.511719 41.453125 Z M 1.640625 59.417969 C 4.050781 61.179688 6.785156 62.535156 9.425781 63.917969 C 11.847656 65.183594 14.605469 67.050781 17.335938 67.484375 C 18.074219 67.601562 18.84375 66.695312 18.148438 66.085938 C 16.058594 64.246094 13.019531 63.25 10.550781 61.996094 C 7.878906 60.636719 5.277344 59.085938 2.523438 57.910156 C 1.492188 57.46875 0.71875 58.746094 1.640625 59.417969 Z M 15.753906 94.980469 C 13.425781 95.351562 11.144531 96.164062 8.886719 96.820312 C 6.625 97.476562 4.269531 98.03125 2.085938 98.910156 C 1.117188 99.300781 1.46875 100.675781 2.523438 100.488281 C 4.929688 100.058594 7.308594 99.234375 9.660156 98.5625 C 11.90625 97.917969 14.222656 97.378906 16.378906 96.464844 C 17.292969 96.078125 16.582031 94.84375 15.753906 94.980469 Z M 23.617188 124.980469 C 23.03125 125.792969 24.363281 126.539062 24.953125 125.757812 C 26.605469 123.566406 28.300781 121.402344 30.035156 119.273438 C 31.609375 117.339844 33.386719 115.5 34.777344 113.429688 C 35.285156 112.683594 34.195312 111.933594 33.574219 112.5 C 31.597656 114.3125 29.953125 116.625 28.304688 118.730469 C 26.699219 120.78125 25.140625 122.867188 23.617188 124.980469 Z M 60.175781 117.347656 C 59.84375 119.921875 60.277344 122.710938 60.332031 125.308594 C 60.386719 127.964844 60.363281 130.621094 60.386719 133.273438 C 60.394531 134.261719 61.832031 134.242188 61.902344 133.273438 C 62.105469 130.53125 62.144531 127.773438 62.132812 125.023438 C 62.121094 122.476562 62.316406 119.621094 61.703125 117.140625 C 61.472656 116.21875 60.277344 116.539062 60.175781 117.347656 Z M 95.972656 113.917969 C 97.574219 116.023438 99.097656 118.324219 100.917969 120.253906 C 101.542969 120.914062 102.636719 120.0625 102.171875 119.285156 C 100.757812 116.910156 98.882812 114.726562 97.222656 112.519531 C 95.644531 110.421875 94.15625 108.03125 92.261719 106.199219 C 91.617188 105.578125 90.617188 106.363281 91.035156 107.144531 C 92.328125 109.558594 94.316406 111.742188 95.972656 113.917969 Z M 105.566406 85.292969 C 103.796875 85.070312 101.933594 84.703125 100.148438 84.863281 C 99.183594 84.953125 98.929688 86.277344 99.914062 86.585938 C 101.445312 87.070312 103.125 87.148438 104.710938 87.34375 C 106.613281 87.578125 108.511719 87.832031 110.40625 88.097656 C 113.804688 88.574219 117.195312 89.210938 120.609375 89.589844 C 121.625 89.699219 121.8125 88.066406 120.847656 87.824219 C 117.429688 86.957031 113.890625 86.472656 110.40625 85.957031 C 108.796875 85.71875 107.183594 85.496094 105.566406 85.292969 Z M 97.464844 56.359375 C 99.671875 54.847656 102.132812 53.695312 104.433594 52.335938 C 106.570312 51.074219 108.730469 49.226562 111.050781 48.382812 C 111.828125 48.101562 112.269531 49.140625 111.800781 49.667969 C 110.933594 50.648438 109.691406 51.3125 108.597656 52.011719 C 107.46875 52.738281 106.328125 53.445312 105.171875 54.125 C 102.894531 55.472656 100.566406 56.894531 98.054688 57.765625 C 97.179688 58.070312 96.789062 56.820312 97.464844 56.359375 " fill-opacity="1" fill-rule="nonzero"/></g><path fill="#ffffff" d="M 84.410156 65.515625 C 84.8125 66.660156 84.964844 67.835938 85.613281 68.871094 C 85.773438 69.125 86.15625 69.074219 86.246094 68.789062 C 86.96875 66.410156 85.921875 63.53125 84.730469 61.457031 C 83.75 59.753906 82.199219 56.980469 80.070312 56.734375 C 79.808594 56.707031 79.570312 56.984375 79.574219 57.230469 C 79.621094 59.148438 81.769531 60.753906 82.75 62.265625 C 83.410156 63.285156 84.003906 64.367188 84.410156 65.515625 Z M 77.484375 95.644531 C 80.355469 93.882812 82.398438 91.039062 83.648438 87.945312 C 85.140625 84.242188 85.019531 80.363281 85.925781 76.550781 C 86.136719 75.65625 87.648438 75.582031 87.808594 76.550781 C 88.476562 80.703125 87.472656 85.507812 85.808594 89.328125 C 84.304688 92.777344 81.84375 95.628906 78.515625 97.410156 C 77.355469 98.03125 76.359375 96.332031 77.484375 95.644531 " fill-opacity="1" fill-rule="nonzero"/></g></g></g><g mask="url(#50c8530f6a)"><g transform="matrix(1, 0, 0, 1, 393, 100)"><g clip-path="url(#d2d6e3e99b)"><g clip-path="url(#6db3e5ba31)"><g><g clip-path="url(#c4733938a5)"><g clip-path="url(#7eb8511946)"><path fill="#2c9eb2" d="M 23.027344 43.179688 C 24.566406 38.46875 27.800781 34.378906 30.167969 30.070312 C 32.699219 25.46875 34.679688 20.667969 36.953125 15.953125 C 37.507812 14.800781 38.339844 13.449219 39.75 13.300781 C 40.832031 13.1875 42.015625 13.828125 43.082031 14.578125 C 43.101562 14.578125 43.121094 14.574219 43.144531 14.574219 C 43.328125 14.589844 43.484375 14.652344 43.625 14.742188 L 43.546875 14.269531 C 53.015625 19 62.335938 23.648438 71.65625 28.3125 C 82.53125 33.75 93.402344 39.195312 104.269531 44.648438 C 110.53125 47.785156 116.753906 51.007812 123.054688 54.0625 C 125.480469 55.238281 127.246094 56.679688 127.15625 59.613281 C 127.15625 59.613281 128.042969 68.773438 124.109375 74.234375 C 120.179688 79.699219 116.597656 80.214844 116.597656 80.214844 C 116.285156 80.257812 115.960938 80.351562 115.625 80.507812 C 115.128906 80.746094 114.371094 80.550781 113.765625 80.402344 C 112.699219 80.148438 111.644531 79.816406 110.609375 79.449219 C 102.164062 76.425781 93.722656 73.382812 85.277344 70.355469 C 84.644531 70.128906 83.996094 69.9375 83.304688 69.714844 C 83.289062 69.832031 83.273438 69.953125 83.261719 70.070312 C 82.722656 69.851562 82.179688 69.640625 81.632812 69.429688 C 81.617188 69.378906 81.601562 69.328125 81.585938 69.277344 C 81.578125 69.320312 81.566406 69.359375 81.5625 69.402344 C 80.699219 69.066406 79.828125 68.738281 78.960938 68.382812 C 77.921875 67.964844 76.878906 67.550781 75.835938 67.140625 C 75.855469 67.125 70.632812 65.035156 68.085938 64.058594 C 65.65625 63.121094 63.214844 62.199219 60.773438 61.28125 C 60.589844 61.253906 60.40625 61.226562 60.21875 61.207031 C 49.960938 57.441406 39.699219 53.679688 29.421875 49.953125 C 29.390625 49.957031 29.355469 49.957031 29.320312 49.953125 C 28.015625 49.824219 26.78125 49.566406 25.5 49.28125 C 24.707031 49.105469 23.386719 49.066406 22.773438 48.402344 C 21.652344 47.1875 22.589844 44.515625 23.027344 43.179688 Z M 127.519531 79.152344 C 129.128906 79.890625 133.539062 81.992188 135.160156 82.730469 C 135.792969 83.019531 136.414062 83.332031 137.0625 83.578125 C 139.714844 84.59375 140.699219 84.402344 142.167969 81.992188 C 143.015625 80.597656 143.480469 78.941406 143.925781 77.347656 C 144.335938 75.875 143.65625 74.792969 142.269531 74.121094 C 140.597656 73.316406 138.957031 72.460938 137.304688 71.621094 C 136.636719 71.28125 132.996094 69.582031 132.300781 69.222656 C 132.300781 69.222656 132.785156 74.539062 127.519531 79.152344 " fill-opacity="1" fill-rule="nonzero"/></g><g clip-path="url(#0b0b2fbd1d)"><path fill="#146fa2" d="M 4.113281 20.417969 C 5.546875 16.644531 7.597656 13.082031 10.03125 9.867188 C 11.75 7.597656 15.464844 2.558594 18.496094 2.21875 C 22.261719 1.796875 22.34375 7.285156 22.367188 9.933594 C 22.433594 17.902344 18.296875 25.972656 13.433594 32.042969 C 11.992188 33.839844 7.410156 40.195312 4.875 40.300781 C 2.457031 40.398438 2.113281 37.25 1.914062 34.789062 C 1.863281 34.125 1.699219 33.484375 1.527344 32.839844 C 1.019531 30.960938 3.628906 21.699219 4.113281 20.417969 Z M 1.667969 40.121094 C 3.109375 43.078125 5.691406 43.675781 8.617188 44.738281 C 13.160156 46.386719 22.246094 51.769531 26.964844 49.519531 C 30.640625 47.773438 33.964844 42.898438 36.167969 39.761719 C 39.765625 34.632812 42.332031 28.859375 43.480469 22.6875 C 44.304688 18.265625 44.710938 13.25 40.664062 10.425781 C 37.863281 8.472656 34.261719 7.175781 31.207031 5.636719 C 28.300781 4.171875 23.808594 0.855469 20.523438 0.511719 C 15.203125 -0.0507812 10.375 7.050781 7.667969 10.996094 C 3.863281 16.53125 1.484375 22.933594 0.628906 29.589844 C 0.230469 32.738281 0.222656 37.15625 1.667969 40.121094 Z M 124.109375 74.234375 C 127.59375 69.394531 127.296875 61.664062 127.179688 59.957031 C 127.296875 60.023438 127.375 60.074219 127.390625 60.113281 C 128.914062 60.824219 130.574219 61.632812 132.261719 62.371094 C 133.960938 63.113281 134.957031 64.289062 135.003906 66.210938 C 135.042969 67.644531 135.179688 69.078125 135.277344 70.574219 C 135.277344 70.574219 135.578125 75.894531 130.3125 80.511719 C 129.703125 80.996094 129.160156 81.34375 128.714844 81.792969 C 127.25 83.265625 125.621094 83.386719 123.777344 82.578125 C 122.34375 81.953125 120.84375 81.488281 119.414062 80.863281 C 118.472656 80.449219 117.609375 80.074219 116.628906 80.210938 C 116.964844 80.148438 120.375 79.421875 124.109375 74.234375 Z M 34.5625 143.949219 C 32.246094 151.535156 34.867188 153.902344 40.347656 147.398438 C 42.933594 144.332031 45.179688 135.953125 47.824219 131.171875 C 55.855469 116.660156 63.886719 102.144531 71.917969 87.632812 C 73.773438 87.996094 72.191406 128.859375 72.191406 132.238281 C 72.191406 136.066406 71.324219 175.078125 74.523438 174.207031 C 79.484375 172.855469 76.488281 137.023438 76.488281 132.207031 C 76.488281 128.191406 74.234375 88.355469 76.792969 87.597656 C 87.1875 106.386719 97.453125 128.175781 106.980469 145.558594 C 108.445312 148.226562 112.484375 154.679688 115.789062 150.457031 C 118.121094 147.476562 111.582031 142.164062 111.574219 142.15625 C 105.933594 131.234375 99.652344 120.589844 93.707031 109.832031 C 89.996094 103.125 84.671875 86.433594 78.414062 82.882812 C 69.816406 78.007812 68.71875 85.050781 64.8125 92.117188 C 59.304688 102.078125 53.796875 112.035156 48.292969 121.992188 C 44.675781 128.53125 36.308594 138.222656 34.5625 143.949219 " fill-opacity="1" fill-rule="nonzero"/></g><g clip-path="url(#f5e2b2efaa)"><path fill="#34bcc0" d="M 68.667969 65.675781 C 68.648438 65.472656 68.703125 65.265625 68.816406 65.109375 C 68.839844 65.03125 68.855469 64.949219 68.878906 64.871094 C 69.015625 64.382812 69.726562 64.234375 70.007812 64.667969 C 70.167969 64.757812 70.332031 64.847656 70.492188 64.933594 C 71.421875 65.179688 72.34375 65.445312 73.25 65.769531 C 73.613281 65.898438 73.984375 66.011719 74.316406 66.167969 C 74.46875 65.5 74.625 64.828125 74.777344 64.160156 C 75.15625 62.515625 75.429688 60.785156 76.09375 59.222656 C 77.171875 56.6875 79.464844 55.605469 82.050781 56.753906 C 83.257812 57.292969 84.632812 58.226562 85.363281 59.359375 C 86.253906 60.746094 86.03125 62.351562 85.761719 63.886719 C 85.367188 66.121094 84.875 68.339844 84.382812 70.554688 C 83.996094 72.304688 83.699219 74.203125 82.988281 75.875 C 83.035156 75.929688 83.054688 76.003906 83.023438 76.089844 C 82.714844 76.917969 82.167969 77.179688 81.363281 77.460938 C 79.019531 78.269531 80.316406 79.773438 80.363281 81.542969 C 80.371094 81.777344 80.3125 82.015625 80.21875 82.246094 C 80.28125 82.410156 80.246094 82.625 80.082031 82.71875 C 80.015625 82.753906 79.949219 82.789062 79.878906 82.824219 C 79.324219 83.523438 78.402344 83.953125 77.707031 83.53125 C 74.246094 84.222656 69.480469 83.546875 69.960938 79.625 C 70.027344 79.0625 70.238281 78.519531 70.300781 77.957031 C 70.476562 76.371094 69.816406 75.894531 68.660156 75.113281 C 67.992188 74.660156 67.441406 74.269531 67.292969 73.410156 C 67.121094 72.40625 67.539062 71.144531 67.71875 70.171875 C 68 68.671875 68.292969 67.160156 68.667969 65.675781 Z M 104.695312 138.820312 C 105.871094 137.644531 107.347656 136.78125 108.988281 136.53125 C 109.285156 136.390625 109.671875 136.429688 109.921875 136.777344 C 111.480469 138.953125 112.863281 141.261719 114.292969 143.523438 C 114.949219 144.558594 115.601562 145.597656 116.257812 146.632812 C 116.695312 147.324219 117.269531 148.039062 117.351562 148.886719 C 117.671875 152.222656 113.128906 154.097656 110.457031 153.601562 C 108.65625 153.269531 108.039062 152.148438 107.402344 150.570312 C 106.449219 148.210938 105.484375 145.859375 104.566406 143.488281 C 104.28125 142.746094 103.433594 141.289062 103.484375 140.527344 C 103.519531 139.933594 104.3125 139.210938 104.695312 138.820312 Z M 71.46875 162.71875 C 71.554688 161.949219 71.394531 160.292969 71.84375 159.652344 C 72.230469 159.097656 77.386719 158.226562 77.917969 158.664062 C 78.371094 159.035156 78.257812 161.382812 78.34375 162.148438 C 78.585938 164.347656 78.726562 166.550781 79.050781 168.742188 C 79.3125 170.523438 79.953125 172.175781 78.480469 173.5625 C 77.386719 174.589844 75.6875 174.863281 74.265625 174.664062 C 72.480469 174.417969 70.714844 173.96875 70.507812 172.105469 C 70.296875 170.160156 70.714844 168.292969 70.992188 166.382812 C 71.167969 165.164062 71.332031 163.945312 71.46875 162.71875 Z M 39.136719 135.109375 C 41.207031 133.589844 44.320312 135.871094 46.058594 137.445312 C 46.257812 137.511719 46.4375 137.664062 46.515625 137.878906 C 46.636719 138.007812 46.621094 138.179688 46.539062 138.308594 C 45.59375 143.558594 41.128906 147.3125 39.824219 152.449219 C 39.75 152.75 39.433594 153 39.121094 152.984375 C 36.375 152.859375 33.78125 151.761719 31.921875 149.699219 C 31.246094 148.949219 30.253906 147.859375 30.242188 146.785156 C 30.226562 145.386719 31.730469 143.757812 32.480469 142.675781 C 34.320312 140.019531 36.507812 137.042969 39.136719 135.109375 Z M 0.589844 33.886719 C 0.78125 34.585938 0.957031 35.285156 1.011719 36.011719 C 1.230469 38.691406 1.605469 42.125 4.242188 42.015625 C 7.003906 41.902344 12 34.976562 13.570312 33.011719 C 18.875 26.398438 23.378906 17.601562 23.308594 8.914062 C 23.285156 6.027344 23.195312 0.0429688 19.089844 0.503906 C 15.785156 0.871094 11.738281 6.367188 9.859375 8.84375 C 7.210938 12.347656 4.972656 16.230469 3.410156 20.34375 C 2.882812 21.738281 0.0390625 31.835938 0.589844 33.886719 " fill-opacity="1" fill-rule="nonzero"/></g><path fill="#3822c0" d="M 42.820312 141.191406 C 42.820312 141.148438 42.824219 141.101562 42.847656 141.054688 C 42.875 140.992188 42.910156 140.945312 42.945312 140.890625 C 43.234375 140.476562 43.789062 141.027344 43.371094 141.316406 C 43.339844 141.339844 43.308594 141.355469 43.277344 141.375 C 42.328125 144.3125 41.152344 147.175781 39.40625 149.777344 C 38.890625 150.546875 37.789062 149.886719 38.175781 149.054688 C 39.464844 146.285156 41.128906 143.710938 42.820312 141.191406 Z M 75.773438 171.367188 C 76.082031 170.320312 75.820312 168.621094 75.851562 167.554688 C 75.894531 166.222656 75.925781 164.878906 76.171875 163.566406 C 76.253906 163.125 76.984375 163.125 77.070312 163.566406 C 77.414062 165.402344 77.386719 167.304688 77.429688 169.167969 C 77.449219 170.050781 77.929688 171.960938 76.863281 172.417969 C 76.371094 172.628906 75.660156 172.398438 75.695312 171.75 C 75.699219 171.714844 75.703125 171.679688 75.703125 171.644531 C 75.710938 171.542969 75.734375 171.449219 75.773438 171.367188 Z M 110.984375 141.390625 C 112.339844 142.011719 113.0625 143.945312 113.757812 145.195312 C 114.574219 146.664062 115.511719 148.292969 115.832031 149.957031 C 115.949219 150.550781 115.238281 150.824219 114.886719 150.355469 C 113.84375 148.957031 113.152344 147.234375 112.277344 145.714844 C 111.574219 144.503906 110.324219 143.234375 110.253906 141.8125 C 110.234375 141.410156 110.675781 141.25 110.984375 141.390625 Z M 131.898438 71.402344 C 132.117188 70.964844 132.894531 71.28125 132.703125 71.742188 C 131.398438 74.863281 129.761719 77.835938 127.421875 80.304688 C 126.683594 81.082031 125.519531 79.910156 126.246094 79.125 C 128.441406 76.761719 130.4375 74.300781 131.898438 71.402344 Z M 82.632812 37.855469 C 85.441406 39.03125 88.230469 40.203125 90.960938 41.558594 C 91.472656 41.8125 91.113281 42.660156 90.570312 42.480469 C 87.929688 41.605469 85.359375 40.582031 82.785156 39.542969 C 82.5 39.484375 82.394531 39.425781 82.050781 39.242188 C 81.308594 38.847656 81.832031 37.519531 82.632812 37.855469 Z M 96.429688 44.398438 C 99.3125 45.308594 101.976562 47.125 104.636719 48.542969 C 107.390625 50.007812 110.179688 51.398438 113.019531 52.6875 C 116.808594 54.40625 124.445312 55.945312 124.5 61.308594 C 124.503906 61.78125 123.863281 61.820312 123.714844 61.414062 C 122.636719 58.53125 120.078125 57.386719 117.371094 56.375 C 114.894531 55.449219 112.460938 54.417969 110.074219 53.277344 C 107.550781 52.074219 105.070312 50.777344 102.617188 49.441406 C 100.339844 48.199219 97.863281 47.019531 95.90625 45.300781 C 95.5 44.941406 95.929688 44.242188 96.429688 44.398438 Z M 17.078125 7.777344 C 17.535156 7.378906 17.476562 8.074219 17.484375 8.1875 C 17.515625 8.511719 16.355469 9.546875 16.160156 9.789062 C 15.203125 10.980469 14.289062 12.207031 13.433594 13.472656 C 12.582031 14.726562 11.832031 16.027344 11.097656 17.351562 C 10.71875 18.03125 9.476562 20.960938 8.65625 21.125 C 7.304688 21.390625 10.640625 15.195312 11.070312 14.566406 C 12.785156 12.0625 14.785156 9.769531 17.078125 7.777344 Z M 7.070312 25.265625 C 7.070312 25.25 7.074219 25.234375 7.078125 25.21875 C 7.074219 25.253906 7.070312 25.265625 7.070312 25.265625 Z M 6.714844 24.175781 C 7.230469 23.082031 7.054688 25.265625 7.070312 25.265625 C 6.964844 26.019531 6.613281 26.882812 6.425781 27.613281 C 6.253906 28.265625 5.46875 33.328125 4.804688 33.453125 C 2.894531 33.808594 6.328125 25.007812 6.714844 24.175781 Z M 27.273438 44.371094 C 27.050781 44.820312 27.503906 45.296875 27.960938 45.058594 C 30.273438 43.835938 31.992188 41.199219 33.277344 38.996094 C 34.722656 36.515625 35.875 33.851562 36.816406 31.140625 C 37.800781 28.304688 38.527344 25.382812 39.074219 22.429688 C 39.617188 19.523438 39.96875 16.664062 38.960938 13.8125 C 38.789062 13.324219 38.050781 13.515625 38.175781 14.03125 C 38.890625 17.042969 37.898438 20.144531 37.101562 23.046875 C 36.40625 25.582031 35.695312 28.109375 34.820312 30.589844 C 33.921875 33.132812 32.847656 35.617188 31.488281 37.949219 C 30.207031 40.144531 28.398438 42.117188 27.273438 44.371094 " fill-opacity="1" fill-rule="nonzero"/><path fill="#0097b2" d="M 138.25 82.121094 C 139.113281 81.507812 139.839844 80.707031 140.386719 79.804688 C 141.523438 77.925781 141.515625 75.875 141.539062 73.746094 C 141.542969 73.472656 141.929688 73.425781 142.011719 73.683594 C 142.738281 75.949219 142.597656 78.320312 141.417969 80.410156 C 140.574219 81.90625 138.707031 84.128906 136.820312 83.964844 C 136.496094 83.9375 136.355469 83.59375 136.5625 83.347656 C 137.035156 82.78125 137.65625 82.546875 138.25 82.121094 Z M 133.699219 76.4375 C 134.734375 74.789062 135.359375 72.898438 135.550781 70.960938 C 135.5625 70.808594 135.820312 70.742188 135.847656 70.921875 C 136.125 72.988281 135.832031 74.960938 134.859375 76.820312 C 134.042969 78.371094 132.59375 80.390625 130.738281 80.636719 C 130.492188 80.667969 130.351562 80.34375 130.464844 80.15625 C 131.316406 78.757812 132.808594 77.863281 133.699219 76.4375 Z M 120.546875 76.3125 C 121.828125 75.027344 123.046875 73.644531 124.078125 72.148438 C 126.28125 68.949219 127.578125 65.1875 127.539062 61.28125 C 127.539062 60.988281 128.023438 60.902344 128.070312 61.210938 C 128.660156 65.246094 127.683594 69.214844 125.511719 72.664062 C 123.621094 75.671875 120.519531 78.984375 117.089844 80.199219 C 116.824219 80.292969 116.679688 79.941406 116.835938 79.761719 C 117.941406 78.492188 119.355469 77.503906 120.546875 76.3125 Z M 69.273438 84.789062 C 70.035156 84.898438 70.828125 85.703125 71.414062 86.179688 C 71.800781 86.492188 72.898438 87.183594 72.640625 87.800781 C 72.582031 87.941406 72.464844 88.078125 72.292969 88.066406 C 71.644531 88.023438 71.003906 87.363281 70.496094 87 C 69.90625 86.585938 69.050781 86.191406 68.671875 85.566406 C 68.410156 85.132812 68.84375 84.726562 69.273438 84.789062 Z M 76.5 87.78125 C 77.09375 87.21875 77.945312 86.878906 78.667969 86.507812 C 79.207031 86.234375 79.785156 85.886719 80.40625 85.863281 C 80.632812 85.855469 80.660156 86.183594 80.457031 86.25 C 79.847656 86.449219 79.261719 87.09375 78.742188 87.472656 C 78.1875 87.882812 77.625 88.355469 76.976562 88.597656 C 76.511719 88.769531 76.15625 88.101562 76.5 87.78125 Z M 40.152344 134.253906 C 41.226562 133.652344 42.53125 134.402344 43.472656 134.984375 C 44.597656 135.675781 45.46875 136.449219 46.101562 137.609375 C 46.292969 137.960938 45.839844 138.324219 45.542969 138.039062 C 44.832031 137.359375 43.984375 136.753906 43.15625 136.226562 C 42.683594 135.925781 42.195312 135.613281 41.664062 135.425781 C 41.199219 135.265625 40.71875 135.273438 40.261719 135.089844 C 39.917969 134.953125 39.78125 134.464844 40.152344 134.253906 Z M 72.046875 158.054688 C 73.882812 157.90625 76.300781 157.53125 78.039062 158.285156 C 78.394531 158.4375 78.242188 158.941406 77.941406 159.042969 C 77.050781 159.339844 76.085938 159.246094 75.160156 159.273438 C 74.121094 159.304688 73.082031 159.359375 72.046875 159.449219 C 71.15625 159.527344 71.15625 158.128906 72.046875 158.054688 Z M 105.902344 136.90625 C 106.945312 136.464844 108.101562 136.035156 109.238281 136.296875 C 109.53125 136.363281 109.542969 136.753906 109.316406 136.902344 C 108.386719 137.511719 107.226562 137.726562 106.230469 138.21875 C 105.300781 138.679688 104.46875 139.542969 103.480469 139.808594 C 102.996094 139.941406 102.632812 139.417969 102.851562 138.996094 C 103.394531 137.945312 104.863281 137.351562 105.902344 136.90625 Z M 80.351562 68.640625 C 79.304688 67.378906 80.382812 62.886719 82.484375 63.53125 C 82.582031 63.507812 82.683594 63.488281 82.792969 63.496094 C 83.234375 63.527344 83.578125 63.863281 83.6875 64.285156 C 83.992188 65.4375 83.4375 67.015625 82.835938 67.976562 C 82.3125 68.808594 81.179688 69.640625 80.351562 68.640625 Z M 79.5 79.144531 C 79.746094 79.265625 79.636719 79.714844 79.355469 79.679688 C 76.355469 79.304688 73.496094 78.730469 70.449219 78.691406 C 69.769531 78.683594 69.773438 77.664062 70.449219 77.640625 C 73.421875 77.53125 76.789062 77.84375 79.5 79.144531 Z M 73.835938 75.039062 C 73.230469 75.449219 72.03125 75.769531 71.589844 74.96875 C 71.519531 74.84375 71.574219 74.648438 71.730469 74.621094 C 72.425781 74.492188 73.03125 74.640625 73.628906 74.121094 C 74.1875 73.636719 74.558594 72.957031 74.890625 72.304688 C 75.007812 72.070312 75.394531 72.234375 75.316406 72.484375 C 75.011719 73.445312 74.71875 74.441406 73.835938 75.039062 Z M 74.015625 66.691406 C 73.699219 68.132812 73.535156 69.65625 72.9375 71.023438 C 72.605469 71.78125 71.941406 72.210938 71.105469 71.917969 C 68.601562 71.03125 70.527344 67.140625 71.066406 65.582031 C 71.144531 65.347656 71.390625 65.171875 71.644531 65.253906 C 72.480469 65.519531 73.359375 65.609375 74.15625 65.980469 C 74.488281 66.132812 74.347656 66.652344 74.015625 66.691406 Z M 82.746094 60.015625 C 77.515625 58.851562 78.21875 68.089844 76.679688 70.839844 C 76.523438 71.125 76.027344 71.085938 75.957031 70.746094 C 75.667969 69.3125 76.21875 67.761719 76.570312 66.363281 C 76.960938 64.816406 77.371094 63.195312 78.09375 61.757812 C 78.960938 60.027344 80.980469 58.410156 82.910156 59.621094 C 83.121094 59.75 82.984375 60.066406 82.746094 60.015625 Z M 31.074219 46.113281 C 32.25 44.925781 33.355469 43.667969 34.382812 42.347656 C 36.414062 39.742188 38.179688 36.914062 39.613281 33.9375 C 42.539062 27.863281 44.089844 21.105469 44.585938 14.398438 C 44.613281 14.023438 45.128906 14.066406 45.15625 14.421875 C 45.699219 21.425781 44.152344 28.257812 41.148438 34.597656 C 39.652344 37.753906 37.816406 40.738281 35.640625 43.476562 C 33.753906 45.855469 31.414062 49.023438 28.484375 50.117188 C 28.109375 50.257812 27.855469 49.757812 28.027344 49.472656 C 28.796875 48.171875 30.023438 47.179688 31.074219 46.113281 Z M 9.230469 42.914062 C 15.65625 41.785156 20.78125 35.664062 23.507812 30.121094 C 26.792969 23.425781 28.195312 15.398438 26.910156 8.042969 C 26.863281 7.789062 26.445312 7.851562 26.460938 8.105469 C 26.667969 11.816406 26.15625 15.78125 25.464844 19.425781 C 24.8125 22.851562 23.777344 26.238281 22.203125 29.355469 C 20.738281 32.257812 18.816406 34.882812 16.441406 37.101562 C 14.179688 39.214844 11.570312 40.621094 8.898438 42.132812 C 8.449219 42.386719 8.777344 42.992188 9.230469 42.914062 " fill-opacity="1" fill-rule="nonzero"/></g></g></g></g></g></g><g mask="url(#364396b4fd)"><g transform="matrix(1, 0, 0, 1, 949, 101)"><g clip-path="url(#32a6ff1046)"><g clip-path="url(#b9b8bc9045)"><path fill="#bbe4e4" d="M 244.375 1.960938 C 244.273438 1.722656 244.128906 1.511719 243.949219 1.332031 C 243.949219 1.332031 243.949219 1.328125 243.945312 1.328125 C 243.921875 1.304688 243.886719 1.296875 243.859375 1.273438 C 243.695312 1.128906 243.519531 1 243.316406 0.917969 C 243.140625 0.84375 242.957031 0.824219 242.769531 0.808594 C 242.707031 0.800781 242.652344 0.769531 242.585938 0.769531 L 2.402344 0.769531 C 2.335938 0.769531 2.28125 0.800781 2.214844 0.804688 C 2.03125 0.824219 1.84375 0.84375 1.667969 0.914062 C 1.464844 1 1.289062 1.125 1.125 1.269531 C 1.097656 1.296875 1.0625 1.304688 1.039062 1.328125 C 1.039062 1.328125 1.035156 1.328125 1.035156 1.332031 C 0.855469 1.511719 0.714844 1.722656 0.613281 1.960938 C 0.515625 2.199219 0.464844 2.449219 0.464844 2.699219 C 0.464844 2.703125 0.464844 2.703125 0.464844 2.707031 L 0.464844 157.664062 C 0.464844 158.734375 1.328125 159.601562 2.402344 159.601562 L 242.585938 159.601562 C 243.65625 159.601562 244.523438 158.734375 244.523438 157.664062 L 244.523438 2.707031 C 244.523438 2.703125 244.523438 2.703125 244.523438 2.699219 C 244.519531 2.449219 244.46875 2.199219 244.375 1.960938 Z M 240.648438 143.164062 L 232.097656 143.164062 L 232.097656 16.0625 L 240.648438 7.417969 Z M 4.335938 143.164062 L 4.335938 7.417969 L 12.886719 16.0625 L 12.886719 143.164062 Z M 229.355469 13.332031 L 15.632812 13.332031 L 7.039062 4.640625 L 237.945312 4.640625 Z M 16.761719 17.207031 L 228.226562 17.207031 L 228.226562 143.160156 L 16.761719 143.160156 Z M 4.335938 155.726562 L 4.335938 147.035156 L 240.648438 147.035156 L 240.648438 155.726562 Z M 4.335938 155.726562 " fill-opacity="1" fill-rule="nonzero"/></g><path fill="#bbe4e4" d="M 37.601562 61.179688 C 37.707031 61.179688 37.808594 61.171875 37.917969 61.152344 C 38.703125 61.027344 39.328125 60.425781 39.496094 59.644531 L 45.378906 31.863281 L 85.222656 31.863281 C 86.292969 31.863281 87.160156 30.996094 87.160156 29.925781 C 87.160156 28.855469 86.292969 27.988281 85.222656 27.988281 L 43.808594 27.988281 C 42.894531 27.988281 42.101562 28.628906 41.914062 29.523438 L 36.730469 53.988281 L 33.054688 47.785156 C 32.503906 46.863281 31.316406 46.558594 30.398438 47.105469 C 29.476562 47.652344 29.175781 48.84375 29.71875 49.761719 L 35.929688 60.230469 C 36.289062 60.828125 36.921875 61.179688 37.601562 61.179688 Z M 37.601562 61.179688 " fill-opacity="1" fill-rule="nonzero"/><path fill="#bbe4e4" d="M 56.945312 54.339844 C 57.320312 54.714844 57.8125 54.898438 58.304688 54.898438 C 58.804688 54.898438 59.304688 54.707031 59.683594 54.324219 L 64.515625 49.433594 L 69.351562 54.324219 C 69.730469 54.707031 70.230469 54.898438 70.730469 54.898438 C 71.222656 54.898438 71.714844 54.714844 72.089844 54.339844 C 72.851562 53.585938 72.859375 52.363281 72.105469 51.601562 L 67.242188 46.679688 L 72.105469 41.757812 C 72.859375 40.996094 72.851562 39.769531 72.089844 39.019531 C 71.328125 38.261719 70.105469 38.273438 69.351562 39.03125 L 64.515625 43.921875 L 59.683594 39.03125 C 58.929688 38.269531 57.703125 38.265625 56.945312 39.019531 C 56.183594 39.769531 56.175781 40.996094 56.929688 41.757812 L 61.792969 46.679688 L 56.929688 51.601562 C 56.175781 52.363281 56.183594 53.589844 56.945312 54.339844 Z M 56.945312 54.339844 " fill-opacity="1" fill-rule="nonzero"/><path fill="#bbe4e4" d="M 101.789062 40.238281 L 126.632812 40.238281 C 127.707031 40.238281 128.570312 39.375 128.570312 38.304688 C 128.570312 37.230469 127.707031 36.367188 126.632812 36.367188 L 101.789062 36.367188 C 100.71875 36.367188 99.851562 37.230469 99.851562 38.304688 C 99.851562 39.375 100.71875 40.238281 101.789062 40.238281 Z M 101.789062 40.238281 " fill-opacity="1" fill-rule="nonzero"/><path fill="#bbe4e4" d="M 101.789062 52.804688 L 126.632812 52.804688 C 127.707031 52.804688 128.570312 51.9375 128.570312 50.867188 C 128.570312 49.796875 127.707031 48.929688 126.632812 48.929688 L 101.789062 48.929688 C 100.71875 48.929688 99.851562 49.796875 99.851562 50.867188 C 99.851562 51.9375 100.71875 52.804688 101.789062 52.804688 Z M 101.789062 52.804688 " fill-opacity="1" fill-rule="nonzero"/><path fill="#bbe4e4" d="M 31.519531 82.277344 C 31.519531 83.347656 32.386719 84.214844 33.457031 84.214844 L 93.503906 84.214844 C 94.574219 84.214844 95.441406 83.347656 95.441406 82.277344 C 95.441406 81.207031 94.574219 80.339844 93.503906 80.339844 L 33.457031 80.339844 C 32.386719 80.339844 31.519531 81.207031 31.519531 82.277344 Z M 31.519531 82.277344 " fill-opacity="1" fill-rule="nonzero"/><path fill="#bbe4e4" d="M 93.503906 95 L 45.882812 95 C 44.808594 95 43.945312 95.863281 43.945312 96.933594 C 43.945312 98.007812 44.808594 98.871094 45.882812 98.871094 L 93.503906 98.871094 C 94.574219 98.871094 95.441406 98.007812 95.441406 96.933594 C 95.441406 95.863281 94.574219 95 93.503906 95 Z M 93.503906 95 " fill-opacity="1" fill-rule="nonzero"/><path fill="#bbe4e4" d="M 108 118.035156 L 33.457031 118.035156 C 32.386719 118.035156 31.519531 118.902344 31.519531 119.972656 C 31.519531 121.042969 32.386719 121.910156 33.457031 121.910156 L 108 121.910156 C 109.070312 121.910156 109.933594 121.042969 109.933594 119.972656 C 109.933594 118.902344 109.070312 118.035156 108 118.035156 Z M 108 118.035156 " fill-opacity="1" fill-rule="nonzero"/><path fill="#bbe4e4" d="M 215.667969 107.5625 L 184.609375 107.5625 C 183.539062 107.5625 182.671875 108.429688 182.671875 109.5 C 182.671875 110.570312 183.539062 111.4375 184.609375 111.4375 L 215.667969 111.4375 C 216.738281 111.4375 217.605469 110.570312 217.605469 109.5 C 217.605469 108.429688 216.738281 107.5625 215.667969 107.5625 Z M 215.667969 107.5625 " fill-opacity="1" fill-rule="nonzero"/><path fill="#bbe4e4" d="M 215.667969 120.128906 L 184.609375 120.128906 C 183.539062 120.128906 182.671875 120.996094 182.671875 122.066406 C 182.671875 123.136719 183.539062 124.003906 184.609375 124.003906 L 215.667969 124.003906 C 216.738281 124.003906 217.605469 123.136719 217.605469 122.066406 C 217.605469 120.996094 216.738281 120.128906 215.667969 120.128906 Z M 215.667969 120.128906 " fill-opacity="1" fill-rule="nonzero"/><path fill="#bbe4e4" d="M 190.542969 85.109375 C 190.574219 85.035156 190.597656 84.953125 190.621094 84.875 L 191.929688 80.027344 L 209.457031 80.027344 C 210.527344 80.027344 211.394531 79.160156 211.394531 78.089844 C 211.394531 77.019531 210.527344 76.152344 209.457031 76.152344 L 192.976562 76.152344 L 196.835938 61.84375 C 197.113281 60.808594 196.503906 59.746094 195.46875 59.464844 C 194.4375 59.183594 193.375 59.800781 193.09375 60.832031 L 188.960938 76.152344 L 174.421875 76.152344 L 165.710938 58.554688 C 164.808594 56.175781 163.429688 54.082031 161.699219 52.414062 L 161.699219 27.832031 C 161.699219 26.761719 160.832031 25.898438 159.761719 25.898438 C 158.691406 25.898438 157.824219 26.761719 157.824219 27.832031 L 157.824219 49.71875 C 154.792969 48.253906 151.511719 48 148.722656 49.058594 C 142.953125 51.25 141.449219 58.097656 141.320312 58.78125 L 137.023438 76.15625 L 110.070312 76.15625 C 108.996094 76.15625 108.132812 77.019531 108.132812 78.09375 C 108.132812 79.164062 108.996094 80.027344 110.070312 80.027344 L 136.066406 80.027344 L 133.488281 90.464844 C 133.027344 92.328125 132.183594 93.867188 131.046875 94.917969 C 129.296875 96.539062 127.011719 97.339844 124.757812 97.105469 C 121.855469 96.8125 119.289062 94.851562 118.0625 91.984375 C 117.640625 91.003906 116.496094 90.546875 115.519531 90.972656 C 114.535156 91.394531 114.082031 92.53125 114.503906 93.515625 C 116.285156 97.671875 120.066406 100.523438 124.371094 100.960938 C 124.753906 101 125.140625 101.019531 125.523438 101.019531 C 128.488281 101.019531 131.40625 99.863281 133.679688 97.761719 C 135.375 96.191406 136.609375 93.992188 137.25 91.394531 L 140.058594 80.027344 L 157.828125 80.027344 L 157.828125 128.347656 C 157.828125 129.421875 158.695312 130.285156 159.765625 130.285156 C 160.835938 130.285156 161.703125 129.421875 161.703125 128.347656 L 161.703125 80.027344 L 172.023438 80.027344 L 174.539062 85.109375 C 175.886719 88.382812 179.027344 90.496094 182.542969 90.496094 C 186.058594 90.496094 189.195312 88.382812 190.542969 85.109375 Z M 141.015625 76.152344 L 145.097656 59.621094 C 145.140625 59.398438 146.214844 54.15625 150.097656 52.679688 C 152.007812 51.953125 154.375 52.222656 156.578125 53.414062 C 157.019531 53.652344 157.421875 53.957031 157.828125 54.253906 L 157.828125 76.152344 Z M 161.699219 76.152344 L 161.699219 59.121094 C 161.855469 59.449219 162.03125 59.753906 162.167969 60.101562 L 170.105469 76.152344 Z M 182.539062 86.621094 C 180.601562 86.621094 178.867188 85.449219 178.0625 83.515625 L 176.335938 80.027344 L 187.917969 80.027344 L 186.914062 83.738281 C 186.144531 85.492188 184.4375 86.621094 182.539062 86.621094 Z M 182.539062 86.621094 " fill-opacity="1" fill-rule="nonzero"/></g></g></g><g transform="matrix(1, 0, 0, 1, 571, 49)"><g clip-path="url(#2c05ae3e9f)"><g fill="#f7f7f7" fill-opacity="1"><g transform="translate(1.087063, 110.591541)"><g><path d="M 24.578125 0 L 9.25 0 L 9.25 -73.46875 L 51.359375 -73.46875 L 51.359375 -60.703125 L 24.578125 -60.703125 L 24.578125 -41.75 L 49.5 -41.75 L 49.5 -29.046875 L 24.578125 -29.046875 Z M 24.578125 0 "/></g></g></g><g fill="#f7f7f7" fill-opacity="1"><g transform="translate(57.567418, 110.591541)"><g><path d="M 7.390625 -70.703125 C 7.390625 -75.691406 10.171875 -78.1875 15.734375 -78.1875 C 21.285156 -78.1875 24.0625 -75.691406 24.0625 -70.703125 C 24.0625 -68.316406 23.363281 -66.460938 21.96875 -65.140625 C 20.582031 -63.816406 18.503906 -63.15625 15.734375 -63.15625 C 10.171875 -63.15625 7.390625 -65.671875 7.390625 -70.703125 Z M 23.359375 0 L 8.046875 0 L 8.046875 -56.171875 L 23.359375 -56.171875 Z M 23.359375 0 "/></g></g></g><g fill="#f7f7f7" fill-opacity="1"><g transform="translate(88.973309, 110.591541)"><g><path d="M 47.234375 -16.6875 C 47.234375 -10.925781 45.226562 -6.535156 41.21875 -3.515625 C 37.21875 -0.503906 31.234375 1 23.265625 1 C 19.179688 1 15.695312 0.722656 12.8125 0.171875 C 9.925781 -0.378906 7.226562 -1.191406 4.71875 -2.265625 L 4.71875 -14.921875 C 7.570312 -13.578125 10.78125 -12.453125 14.34375 -11.546875 C 17.914062 -10.648438 21.054688 -10.203125 23.765625 -10.203125 C 29.328125 -10.203125 32.109375 -11.8125 32.109375 -15.03125 C 32.109375 -16.226562 31.738281 -17.203125 31 -17.953125 C 30.257812 -18.710938 28.984375 -19.566406 27.171875 -20.515625 C 25.367188 -21.472656 22.960938 -22.59375 19.953125 -23.875 C 15.628906 -25.675781 12.453125 -27.347656 10.421875 -28.890625 C 8.398438 -30.429688 6.925781 -32.195312 6 -34.1875 C 5.082031 -36.1875 4.625 -38.640625 4.625 -41.546875 C 4.625 -46.546875 6.554688 -50.410156 10.421875 -53.140625 C 14.296875 -55.867188 19.78125 -57.234375 26.875 -57.234375 C 33.644531 -57.234375 40.226562 -55.757812 46.625 -52.8125 L 42 -41.75 C 39.1875 -42.957031 36.554688 -43.945312 34.109375 -44.71875 C 31.671875 -45.488281 29.175781 -45.875 26.625 -45.875 C 22.101562 -45.875 19.84375 -44.648438 19.84375 -42.203125 C 19.84375 -40.828125 20.570312 -39.632812 22.03125 -38.625 C 23.488281 -37.625 26.679688 -36.140625 31.609375 -34.171875 C 35.992188 -32.390625 39.207031 -30.726562 41.25 -29.1875 C 43.289062 -27.644531 44.796875 -25.867188 45.765625 -23.859375 C 46.742188 -21.859375 47.234375 -19.46875 47.234375 -16.6875 Z M 47.234375 -16.6875 "/></g></g></g><g fill="#f7f7f7" fill-opacity="1"><g transform="translate(140.127225, 110.591541)"><g><path d="M 7.390625 -70.703125 C 7.390625 -75.691406 10.171875 -78.1875 15.734375 -78.1875 C 21.285156 -78.1875 24.0625 -75.691406 24.0625 -70.703125 C 24.0625 -68.316406 23.363281 -66.460938 21.96875 -65.140625 C 20.582031 -63.816406 18.503906 -63.15625 15.734375 -63.15625 C 10.171875 -63.15625 7.390625 -65.671875 7.390625 -70.703125 Z M 23.359375 0 L 8.046875 0 L 8.046875 -56.171875 L 23.359375 -56.171875 Z M 23.359375 0 "/></g></g></g><g fill="#f7f7f7" fill-opacity="1"><g transform="translate(171.533116, 110.591541)"><g><path d="M 22.765625 -30.546875 L 29.4375 -39.09375 L 45.171875 -56.171875 L 62.453125 -56.171875 L 40.140625 -31.8125 L 63.8125 0 L 46.125 0 L 29.953125 -22.765625 L 23.359375 -17.484375 L 23.359375 0 L 8.046875 0 L 8.046875 -78.1875 L 23.359375 -78.1875 L 23.359375 -43.3125 L 22.5625 -30.546875 Z M 22.765625 -30.546875 "/></g></g></g><g fill="#f7f7f7" fill-opacity="1"><g transform="translate(235.349886, 110.591541)"><g><path d="M 43.71875 0 L 40.75 -7.640625 L 40.34375 -7.640625 C 37.769531 -4.390625 35.117188 -2.132812 32.390625 -0.875 C 29.660156 0.375 26.097656 1 21.703125 1 C 16.304688 1 12.0625 -0.535156 8.96875 -3.609375 C 5.875 -6.691406 4.328125 -11.082031 4.328125 -16.78125 C 4.328125 -22.75 6.410156 -27.144531 10.578125 -29.96875 C 14.742188 -32.800781 21.03125 -34.367188 29.4375 -34.671875 L 39.1875 -34.96875 L 39.1875 -37.4375 C 39.1875 -43.125 36.273438 -45.96875 30.453125 -45.96875 C 25.960938 -45.96875 20.6875 -44.613281 14.625 -41.90625 L 9.546875 -52.25 C 16.015625 -55.632812 23.179688 -57.328125 31.046875 -57.328125 C 38.585938 -57.328125 44.367188 -55.6875 48.390625 -52.40625 C 52.410156 -49.125 54.421875 -44.132812 54.421875 -37.4375 L 54.421875 0 Z M 39.1875 -26.03125 L 33.265625 -25.828125 C 28.804688 -25.691406 25.488281 -24.882812 23.3125 -23.40625 C 21.132812 -21.9375 20.046875 -19.695312 20.046875 -16.6875 C 20.046875 -12.363281 22.523438 -10.203125 27.484375 -10.203125 C 31.035156 -10.203125 33.875 -11.222656 36 -13.265625 C 38.125 -15.304688 39.1875 -18.019531 39.1875 -21.40625 Z M 39.1875 -26.03125 "/></g></g></g></g></g></g></g></g></svg>