<svg xmlns="http://www.w3.org/2000/svg" xmlns:xlink="http://www.w3.org/1999/xlink" width="1920" zoomAndPan="magnify" viewBox="0 0 1440 384.749986" height="513" preserveAspectRatio="xMidYMid meet" version="1.0"><defs><filter x="0%" y="0%" width="100%" height="100%" id="b701b1de1a"><feColorMatrix values="0 0 0 0 1 0 0 0 0 1 0 0 0 0 1 0 0 0 1 0" color-interpolation-filters="sRGB"/></filter><g/><clipPath id="7d4ae5845c"><path d="M 0.46875 0 L 1439.53125 0 L 1439.53125 384.5 L 0.46875 384.5 Z M 0.46875 0 " clip-rule="nonzero"/></clipPath><clipPath id="4d42a996ab"><path d="M 0.46875 0 L 1439.53125 0 L 1439.53125 384.5 L 0.46875 384.5 Z M 0.46875 0 " clip-rule="nonzero"/></clipPath><linearGradient x1="0.00332642" gradientTransform="matrix(0, 1.004232, -1.004232, 0, 1439.532021, -0.00297452)" y1="716.5" x2="382.882645" gradientUnits="userSpaceOnUse" y2="716.5" id="4ac8b4e0e3"><stop stop-opacity="1" stop-color="rgb(12.939453%, 12.939453%, 16.079712%)" offset="0"/><stop stop-opacity="1" stop-color="rgb(12.869263%, 12.85553%, 16.221619%)" offset="0.015625"/><stop stop-opacity="1" stop-color="rgb(12.731934%, 12.689209%, 16.508484%)" offset="0.03125"/><stop stop-opacity="1" stop-color="rgb(12.593079%, 12.522888%, 16.793823%)" offset="0.046875"/><stop stop-opacity="1" stop-color="rgb(12.454224%, 12.358093%, 17.079163%)" offset="0.0625"/><stop stop-opacity="1" stop-color="rgb(12.316895%, 12.191772%, 17.366028%)" offset="0.078125"/><stop stop-opacity="1" stop-color="rgb(12.17804%, 12.025452%, 17.651367%)" offset="0.09375"/><stop stop-opacity="1" stop-color="rgb(12.04071%, 11.859131%, 17.936707%)" offset="0.109375"/><stop stop-opacity="1" stop-color="rgb(11.901855%, 11.694336%, 18.223572%)" offset="0.125"/><stop stop-opacity="1" stop-color="rgb(11.763%, 11.528015%, 18.508911%)" offset="0.140625"/><stop stop-opacity="1" stop-color="rgb(11.625671%, 11.361694%, 18.79425%)" offset="0.15625"/><stop stop-opacity="1" stop-color="rgb(11.486816%, 11.195374%, 19.081116%)" offset="0.171875"/><stop stop-opacity="1" stop-color="rgb(11.349487%, 11.029053%, 19.366455%)" offset="0.1875"/><stop stop-opacity="1" stop-color="rgb(11.210632%, 10.864258%, 19.65332%)" offset="0.203125"/><stop stop-opacity="1" stop-color="rgb(11.071777%, 10.697937%, 19.93866%)" offset="0.21875"/><stop stop-opacity="1" stop-color="rgb(10.934448%, 10.531616%, 20.223999%)" offset="0.234375"/><stop stop-opacity="1" stop-color="rgb(10.795593%, 10.365295%, 20.510864%)" offset="0.25"/><stop stop-opacity="1" stop-color="rgb(10.658264%, 10.198975%, 20.796204%)" offset="0.265625"/><stop stop-opacity="1" stop-color="rgb(10.519409%, 10.03418%, 21.081543%)" offset="0.28125"/><stop stop-opacity="1" stop-color="rgb(10.380554%, 9.867859%, 21.368408%)" offset="0.296875"/><stop stop-opacity="1" stop-color="rgb(10.243225%, 9.701538%, 21.653748%)" offset="0.3125"/><stop stop-opacity="1" stop-color="rgb(10.10437%, 9.535217%, 21.939087%)" offset="0.328125"/><stop stop-opacity="1" stop-color="rgb(9.967041%, 9.370422%, 22.225952%)" offset="0.34375"/><stop stop-opacity="1" stop-color="rgb(9.828186%, 9.204102%, 22.511292%)" offset="0.359375"/><stop stop-opacity="1" stop-color="rgb(9.689331%, 9.037781%, 22.798157%)" offset="0.375"/><stop stop-opacity="1" stop-color="rgb(9.552002%, 8.87146%, 23.083496%)" offset="0.390625"/><stop stop-opacity="1" stop-color="rgb(9.413147%, 8.705139%, 23.368835%)" offset="0.40625"/><stop stop-opacity="1" stop-color="rgb(9.275818%, 8.540344%, 23.655701%)" offset="0.421875"/><stop stop-opacity="1" stop-color="rgb(9.136963%, 8.374023%, 23.94104%)" offset="0.4375"/><stop stop-opacity="1" stop-color="rgb(8.998108%, 8.207703%, 24.226379%)" offset="0.453125"/><stop stop-opacity="1" stop-color="rgb(8.860779%, 8.041382%, 24.513245%)" offset="0.46875"/><stop stop-opacity="1" stop-color="rgb(8.721924%, 7.876587%, 24.798584%)" offset="0.484375"/><stop stop-opacity="1" stop-color="rgb(8.584595%, 7.710266%, 25.085449%)" offset="0.5"/><stop stop-opacity="1" stop-color="rgb(8.44574%, 7.543945%, 25.370789%)" offset="0.515625"/><stop stop-opacity="1" stop-color="rgb(8.306885%, 7.377625%, 25.656128%)" offset="0.53125"/><stop stop-opacity="1" stop-color="rgb(8.169556%, 7.211304%, 25.942993%)" offset="0.546875"/><stop stop-opacity="1" stop-color="rgb(8.030701%, 7.046509%, 26.228333%)" offset="0.5625"/><stop stop-opacity="1" stop-color="rgb(7.893372%, 6.880188%, 26.513672%)" offset="0.578125"/><stop stop-opacity="1" stop-color="rgb(7.754517%, 6.713867%, 26.800537%)" offset="0.59375"/><stop stop-opacity="1" stop-color="rgb(7.615662%, 6.547546%, 27.085876%)" offset="0.609375"/><stop stop-opacity="1" stop-color="rgb(7.478333%, 6.381226%, 27.371216%)" offset="0.625"/><stop stop-opacity="1" stop-color="rgb(7.339478%, 6.216431%, 27.658081%)" offset="0.640625"/><stop stop-opacity="1" stop-color="rgb(7.202148%, 6.05011%, 27.94342%)" offset="0.65625"/><stop stop-opacity="1" stop-color="rgb(7.199097%, 5.94635%, 28.28064%)" offset="0.671875"/><stop stop-opacity="1" stop-color="rgb(7.376099%, 5.950928%, 28.601074%)" offset="0.679688"/><stop stop-opacity="1" stop-color="rgb(7.595825%, 6.001282%, 28.85437%)" offset="0.6875"/><stop stop-opacity="1" stop-color="rgb(7.817078%, 6.053162%, 29.107666%)" offset="0.695312"/><stop stop-opacity="1" stop-color="rgb(8.036804%, 6.103516%, 29.359436%)" offset="0.703125"/><stop stop-opacity="1" stop-color="rgb(8.258057%, 6.15387%, 29.612732%)" offset="0.710938"/><stop stop-opacity="1" stop-color="rgb(8.477783%, 6.204224%, 29.866028%)" offset="0.71875"/><stop stop-opacity="1" stop-color="rgb(8.699036%, 6.254578%, 30.117798%)" offset="0.726562"/><stop stop-opacity="1" stop-color="rgb(8.920288%, 6.306458%, 30.371094%)" offset="0.734375"/><stop stop-opacity="1" stop-color="rgb(9.140015%, 6.356812%, 30.622864%)" offset="0.742188"/><stop stop-opacity="1" stop-color="rgb(9.361267%, 6.407166%, 30.87616%)" offset="0.75"/><stop stop-opacity="1" stop-color="rgb(9.580994%, 6.45752%, 31.129456%)" offset="0.757812"/><stop stop-opacity="1" stop-color="rgb(9.802246%, 6.507874%, 31.381226%)" offset="0.765625"/><stop stop-opacity="1" stop-color="rgb(10.021973%, 6.558228%, 31.634521%)" offset="0.773438"/><stop stop-opacity="1" stop-color="rgb(10.243225%, 6.610107%, 31.886292%)" offset="0.78125"/><stop stop-opacity="1" stop-color="rgb(10.462952%, 6.660461%, 32.139587%)" offset="0.789062"/><stop stop-opacity="1" stop-color="rgb(10.684204%, 6.710815%, 32.392883%)" offset="0.796875"/><stop stop-opacity="1" stop-color="rgb(10.905457%, 6.761169%, 32.644653%)" offset="0.804688"/><stop stop-opacity="1" stop-color="rgb(11.125183%, 6.811523%, 32.897949%)" offset="0.8125"/><stop stop-opacity="1" stop-color="rgb(11.346436%, 6.863403%, 33.149719%)" offset="0.820312"/><stop stop-opacity="1" stop-color="rgb(11.566162%, 6.913757%, 33.403015%)" offset="0.828125"/><stop stop-opacity="1" stop-color="rgb(11.787415%, 6.964111%, 33.656311%)" offset="0.835938"/><stop stop-opacity="1" stop-color="rgb(12.007141%, 7.014465%, 33.908081%)" offset="0.84375"/><stop stop-opacity="1" stop-color="rgb(12.228394%, 7.064819%, 34.161377%)" offset="0.851562"/><stop stop-opacity="1" stop-color="rgb(12.449646%, 7.115173%, 34.413147%)" offset="0.859375"/><stop stop-opacity="1" stop-color="rgb(12.669373%, 7.167053%, 34.666443%)" offset="0.867187"/><stop stop-opacity="1" stop-color="rgb(12.890625%, 7.217407%, 34.919739%)" offset="0.875"/><stop stop-opacity="1" stop-color="rgb(13.110352%, 7.267761%, 35.171509%)" offset="0.882813"/><stop stop-opacity="1" stop-color="rgb(13.331604%, 7.318115%, 35.424805%)" offset="0.890625"/><stop stop-opacity="1" stop-color="rgb(13.551331%, 7.368469%, 35.676575%)" offset="0.898438"/><stop stop-opacity="1" stop-color="rgb(13.772583%, 7.420349%, 35.929871%)" offset="0.90625"/><stop stop-opacity="1" stop-color="rgb(13.99231%, 7.470703%, 36.183167%)" offset="0.914062"/><stop stop-opacity="1" stop-color="rgb(14.213562%, 7.521057%, 36.434937%)" offset="0.921875"/><stop stop-opacity="1" stop-color="rgb(14.434814%, 7.571411%, 36.688232%)" offset="0.929688"/><stop stop-opacity="1" stop-color="rgb(14.654541%, 7.621765%, 36.940002%)" offset="0.9375"/><stop stop-opacity="1" stop-color="rgb(14.875793%, 7.672119%, 37.193298%)" offset="0.945312"/><stop stop-opacity="1" stop-color="rgb(15.09552%, 7.723999%, 37.446594%)" offset="0.953125"/><stop stop-opacity="1" stop-color="rgb(15.316772%, 7.774353%, 37.698364%)" offset="0.960938"/><stop stop-opacity="1" stop-color="rgb(15.536499%, 7.824707%, 37.95166%)" offset="0.96875"/><stop stop-opacity="1" stop-color="rgb(15.757751%, 7.875061%, 38.20343%)" offset="0.976562"/><stop stop-opacity="1" stop-color="rgb(15.977478%, 7.925415%, 38.456726%)" offset="0.984375"/><stop stop-opacity="1" stop-color="rgb(16.19873%, 7.977295%, 38.710022%)" offset="0.992188"/><stop stop-opacity="1" stop-color="rgb(16.419983%, 8.027649%, 38.961792%)" offset="1"/></linearGradient><clipPath id="c1849d296f"><rect x="0" width="1440" y="0" height="385"/></clipPath><mask id="3d3a9502c3"><g filter="url(#b701b1de1a)"><rect x="-144" width="1728" fill="#000000" y="-38.474999" height="461.699983" fill-opacity="0.8"/></g></mask><clipPath id="3f1bf3ee64"><path d="M 0.46875 0.00390625 L 1437.824219 0.00390625 L 1437.824219 384.5 L 0.46875 384.5 Z M 0.46875 0.00390625 " clip-rule="nonzero"/></clipPath><clipPath id="bfc682e751"><path d="M 14.707031 0.00390625 L 1423.476562 0.00390625 C 1427.253906 0.00390625 1430.875 1.503906 1433.546875 4.175781 C 1436.21875 6.84375 1437.71875 10.46875 1437.71875 14.242188 L 1437.71875 370.257812 C 1437.71875 374.035156 1436.21875 377.65625 1433.546875 380.328125 C 1430.875 383 1427.253906 384.5 1423.476562 384.5 L 14.707031 384.5 C 10.933594 384.5 7.308594 383 4.640625 380.328125 C 1.96875 377.65625 0.46875 374.035156 0.46875 370.257812 L 0.46875 14.242188 C 0.46875 10.46875 1.96875 6.84375 4.640625 4.175781 C 7.308594 1.503906 10.933594 0.00390625 14.707031 0.00390625 Z M 14.707031 0.00390625 " clip-rule="nonzero"/></clipPath><clipPath id="c39e2eebd0"><path d="M 0.46875 0.00390625 L 1437.824219 0.00390625 L 1437.824219 384.5 L 0.46875 384.5 Z M 0.46875 0.00390625 " clip-rule="nonzero"/></clipPath><clipPath id="51508fcd23"><path d="M 14.707031 0.00390625 L 1423.476562 0.00390625 C 1427.253906 0.00390625 1430.875 1.503906 1433.546875 4.175781 C 1436.21875 6.84375 1437.71875 10.46875 1437.71875 14.242188 L 1437.71875 370.257812 C 1437.71875 374.035156 1436.21875 377.65625 1433.546875 380.328125 C 1430.875 383 1427.253906 384.5 1423.476562 384.5 L 14.707031 384.5 C 10.933594 384.5 7.308594 383 4.640625 380.328125 C 1.96875 377.65625 0.46875 374.035156 0.46875 370.257812 L 0.46875 14.242188 C 0.46875 10.46875 1.96875 6.84375 4.640625 4.175781 C 7.308594 1.503906 10.933594 0.00390625 14.707031 0.00390625 Z M 14.707031 0.00390625 " clip-rule="nonzero"/></clipPath><clipPath id="0dc43dd8e3"><rect x="0" width="1438" y="0" height="385"/></clipPath><clipPath id="da406af69a"><path d="M 0.46875 0 L 1438 0 L 1438 384.5 L 0.46875 384.5 Z M 0.46875 0 " clip-rule="nonzero"/></clipPath><clipPath id="e9af525890"><path d="M 14.707031 0 L 1423.476562 0 C 1427.253906 0 1430.875 1.5 1433.546875 4.171875 C 1436.21875 6.84375 1437.71875 10.464844 1437.71875 14.242188 L 1437.71875 370.257812 C 1437.71875 374.035156 1436.21875 377.65625 1433.546875 380.328125 C 1430.875 382.996094 1427.253906 384.5 1423.476562 384.5 L 14.707031 384.5 C 10.933594 384.5 7.308594 382.996094 4.640625 380.328125 C 1.96875 377.65625 0.46875 374.035156 0.46875 370.257812 L 0.46875 14.242188 C 0.46875 10.464844 1.96875 6.84375 4.640625 4.171875 C 7.308594 1.5 10.933594 0 14.707031 0 Z M 14.707031 0 " clip-rule="nonzero"/></clipPath><clipPath id="c6f66b3d9a"><rect x="0" width="1440" y="0" height="385"/></clipPath><clipPath id="5c568165ec"><path d="M 0.46875 272.683594 L 1437.710938 272.683594 L 1437.710938 383.667969 L 0.46875 383.667969 Z M 0.46875 272.683594 " clip-rule="nonzero"/></clipPath><clipPath id="84ce5b4941"><path d="M 0.46875 0.683594 L 1437.710938 0.683594 L 1437.710938 111.667969 L 0.46875 111.667969 Z M 0.46875 0.683594 " clip-rule="nonzero"/></clipPath><clipPath id="700f36508c"><rect x="0" width="1438" y="0" height="112"/></clipPath><clipPath id="270c514a8c"><path d="M 0.527344 272.742188 L 1437.648438 272.742188 L 1437.648438 383.667969 L 0.527344 383.667969 Z M 0.527344 272.742188 " clip-rule="nonzero"/></clipPath><clipPath id="ed239d4679"><path d="M 39 62 L 523 62 L 523 384.5 L 39 384.5 Z M 39 62 " clip-rule="nonzero"/></clipPath><mask id="ff5edbab27"><g filter="url(#b701b1de1a)"><rect x="-144" width="1728" fill="#000000" y="-38.474999" height="461.699983" fill-opacity="0.08"/></g></mask><clipPath id="f5d97755c3"><path d="M 12 60 L 470 60 L 470 208 L 12 208 Z M 12 60 " clip-rule="nonzero"/></clipPath><clipPath id="f009d70519"><path d="M 362.410156 420.339844 L 0.121094 211.386719 L 121.449219 1.023438 L 483.738281 209.976562 Z M 362.410156 420.339844 " clip-rule="nonzero"/></clipPath><clipPath id="66501c9b70"><path d="M 362.410156 420.339844 L 0.121094 211.386719 L 121.449219 1.023438 L 483.738281 209.976562 Z M 362.410156 420.339844 " clip-rule="nonzero"/></clipPath><clipPath id="10d84633f7"><path d="M 0.0820312 56 L 483.847656 56 L 483.847656 212 L 0.0820312 212 Z M 0.0820312 56 " clip-rule="nonzero"/></clipPath><clipPath id="f5519ccd32"><path d="M 362.410156 420.339844 L 0.121094 211.386719 L 121.449219 1.023438 L 483.738281 209.976562 Z M 362.410156 420.339844 " clip-rule="nonzero"/></clipPath><clipPath id="3e7bcfedf9"><path d="M 362.410156 420.339844 L 0.121094 211.386719 L 121.449219 1.023438 L 483.738281 209.976562 Z M 362.410156 420.339844 " clip-rule="nonzero"/></clipPath><clipPath id="b3d1eab631"><rect x="0" width="484" y="0" height="323"/></clipPath><clipPath id="14daebcbad"><path d="M 0.46875 0 L 116 0 L 116 249 L 0.46875 249 Z M 0.46875 0 " clip-rule="nonzero"/></clipPath><mask id="8d1966bbec"><g filter="url(#b701b1de1a)"><rect x="-144" width="1728" fill="#000000" y="-38.474999" height="461.699983" fill-opacity="0.08"/></g></mask><clipPath id="459b535d3d"><path d="M 0.46875 0 L 83 0 L 83 241 L 0.46875 241 Z M 0.46875 0 " clip-rule="nonzero"/></clipPath><clipPath id="6c56d09610"><path d="M -114.671875 179.773438 L 3.265625 -14.304688 L 115.996094 54.199219 L -1.941406 248.277344 Z M -114.671875 179.773438 " clip-rule="nonzero"/></clipPath><clipPath id="cdd8a26c6e"><path d="M -114.671875 179.773438 L 3.265625 -14.304688 L 115.996094 54.199219 L -1.941406 248.277344 Z M -114.671875 179.773438 " clip-rule="nonzero"/></clipPath><clipPath id="1e3ee3aec2"><path d="M 0.46875 0 L 85 0 L 85 248.238281 L 0.46875 248.238281 Z M 0.46875 0 " clip-rule="nonzero"/></clipPath><clipPath id="a087ef8bd1"><path d="M -114.671875 179.773438 L 3.265625 -14.304688 L 115.996094 54.199219 L -1.941406 248.277344 Z M -114.671875 179.773438 " clip-rule="nonzero"/></clipPath><clipPath id="718dea901e"><path d="M -114.671875 179.773438 L 3.265625 -14.304688 L 115.996094 54.199219 L -1.941406 248.277344 Z M -114.671875 179.773438 " clip-rule="nonzero"/></clipPath><clipPath id="8090a3274e"><rect x="0" width="116" y="0" height="249"/></clipPath><mask id="7413f8975c"><g filter="url(#b701b1de1a)"><rect x="-144" width="1728" fill="#000000" y="-38.474999" height="461.699983" fill-opacity="0.1"/></g></mask><clipPath id="e192bd7be6"><path d="M 0.632812 0.339844 L 515.550781 0.339844 L 515.550781 142.746094 L 0.632812 142.746094 Z M 0.632812 0.339844 " clip-rule="nonzero"/></clipPath><clipPath id="dd3f315f60"><rect x="0" width="517" y="0" height="143"/></clipPath><mask id="2e6c80e1cc"><g filter="url(#b701b1de1a)"><rect x="-144" width="1728" fill="#000000" y="-38.474999" height="461.699983" fill-opacity="0.39"/></g></mask><clipPath id="a43f615831"><path d="M 42 0.265625 L 71 0.265625 L 71 30 L 42 30 Z M 42 0.265625 " clip-rule="nonzero"/></clipPath><clipPath id="66659a8cf2"><path d="M 1.34375 3.5625 L 113.472656 3.5625 L 113.472656 124.617188 L 1.34375 124.617188 Z M 1.34375 3.5625 " clip-rule="nonzero"/></clipPath><clipPath id="69bf111435"><rect x="0" width="114" y="0" height="125"/></clipPath><mask id="a291b7d039"><g filter="url(#b701b1de1a)"><rect x="-144" width="1728" fill="#000000" y="-38.474999" height="461.699983" fill-opacity="0.26"/></g></mask><clipPath id="f1446ecddd"><path d="M 0.242188 1 L 134.40625 1 L 134.40625 163.644531 L 0.242188 163.644531 Z M 0.242188 1 " clip-rule="nonzero"/></clipPath><clipPath id="ba048ace4a"><path d="M 20 11 L 134.40625 11 L 134.40625 79 L 20 79 Z M 20 11 " clip-rule="nonzero"/></clipPath><clipPath id="cc4b538571"><path d="M 0.488281 0 L 126.179688 0 L 126.179688 162.242188 L 0.488281 162.242188 Z M 0.488281 0 " clip-rule="nonzero"/></clipPath><clipPath id="2660142617"><path d="M 0.488281 0 L 109.628906 0 L 109.628906 162.476562 L 0.488281 162.476562 Z M 0.488281 0 " clip-rule="nonzero"/></clipPath><clipPath id="95aa7b44f6"><rect x="0" width="135" y="0" height="163"/></clipPath><clipPath id="2be30ec577"><rect x="0" width="135" y="0" height="164"/></clipPath><mask id="77837f8bda"><g filter="url(#b701b1de1a)"><rect x="-144" width="1728" fill="#000000" y="-38.474999" height="461.699983" fill-opacity="0.12"/></g></mask><clipPath id="df323d9c6c"><path d="M 1.042969 0.550781 L 228.757812 0.550781 L 228.757812 148.835938 L 1.042969 148.835938 Z M 1.042969 0.550781 " clip-rule="nonzero"/></clipPath><clipPath id="d04d500cbe"><rect x="0" width="229" y="0" height="149"/></clipPath></defs><g clip-path="url(#7d4ae5845c)"><path fill="#ffffff" d="M 0.46875 0 L 1439.53125 0 L 1439.53125 384.5 L 0.46875 384.5 Z M 0.46875 0 " fill-opacity="1" fill-rule="nonzero"/><path fill="#ffffff" d="M 0.46875 0 L 1439.53125 0 L 1439.53125 384.5 L 0.46875 384.5 Z M 0.46875 0 " fill-opacity="1" fill-rule="nonzero"/><g><g clip-path="url(#c1849d296f)"><g clip-path="url(#4d42a996ab)"><path fill="url(#4ac8b4e0e3)" d="M 1439.53125 0 L 0.46875 0 L 0.46875 384.5 L 1439.53125 384.5 Z M 1439.53125 0 " fill-rule="nonzero"/></g></g></g><g mask="url(#3d3a9502c3)"><g><g clip-path="url(#c6f66b3d9a)"><g clip-path="url(#3f1bf3ee64)"><g clip-path="url(#bfc682e751)"><g><g clip-path="url(#0dc43dd8e3)"><g clip-path="url(#c39e2eebd0)"><g clip-path="url(#51508fcd23)"><path fill="#0097b2" d="M 0.46875 384.5 L 0.46875 0.00390625 L 1437.824219 0.00390625 L 1437.824219 384.5 Z M 0.46875 384.5 " fill-opacity="1" fill-rule="nonzero"/></g></g></g></g></g></g><g clip-path="url(#da406af69a)"><g clip-path="url(#e9af525890)"><path stroke-linecap="butt" transform="matrix(0, -0.749513, 0.749513, 0, 0.46788, 384.498052)" fill="none" stroke-linejoin="miter" d="M 512.997226 18.997873 L 512.997226 1898.577903 C 512.997226 1903.617635 510.995926 1908.448897 507.431111 1912.013712 C 503.866296 1915.578527 499.035033 1917.579827 493.995302 1917.579827 L 18.999325 1917.579827 C 13.959594 1917.579827 9.128332 1915.578527 5.563516 1912.013712 C 2.003913 1908.448897 -0.00259838 1903.617635 -0.00259838 1898.577903 L -0.00259838 18.997873 C -0.00259838 13.963354 2.003913 9.126879 5.563516 5.567276 C 9.128332 2.002461 13.959594 0.00116126 18.999325 0.00116126 L 493.995302 0.00116126 C 499.035033 0.00116126 503.866296 2.002461 507.431111 5.567276 C 510.995926 9.126879 512.997226 13.963354 512.997226 18.997873 Z M 512.997226 18.997873 " stroke="#000000" stroke-width="10" stroke-opacity="1" stroke-miterlimit="4"/></g></g></g></g></g></g><g clip-path="url(#5c568165ec)"><g transform="matrix(1, 0, 0, 1, 0, 272)"><g clip-path="url(#700f36508c)"><g clip-path="url(#84ce5b4941)"><path fill="#f7f7f7" d="M 0.460938 111.667969 L 0.460938 0.683594 L 1437.628906 0.683594 L 1437.628906 111.667969 Z M 0.460938 111.667969 " fill-opacity="1" fill-rule="nonzero"/></g></g></g></g><g clip-path="url(#270c514a8c)"><path stroke-linecap="butt" transform="matrix(0, -0.749513, 0.749513, 0, 0.526413, 383.66911)" fill="none" stroke-linejoin="miter" d="M 0.00152315 0.00124153 L 148.061219 0.00124153 L 148.061219 1917.407921 L 0.00152315 1917.407921 Z M 0.00152315 0.00124153 " stroke="#000000" stroke-width="10" stroke-opacity="1" stroke-miterlimit="4"/></g><g clip-path="url(#ed239d4679)"><g mask="url(#ff5edbab27)"><g transform="matrix(1, 0, 0, 1, 39, 62)"><g clip-path="url(#b3d1eab631)"><g clip-path="url(#f5d97755c3)"><g clip-path="url(#f009d70519)"><g clip-path="url(#66501c9b70)"><path fill="#0097b2" d="M 469.316406 206.261719 L 12.0625 207.558594 L 217.074219 60.777344 Z M 469.316406 206.261719 " fill-opacity="1" fill-rule="nonzero"/></g></g></g><g clip-path="url(#10d84633f7)"><g clip-path="url(#f5519ccd32)"><g clip-path="url(#3e7bcfedf9)"><path fill="#0097b2" d="M 216.894531 56.234375 L 483.476562 209.988281 L 0.113281 211.378906 Z M 455.125 202.417969 L 217.292969 65.246094 L 23.941406 203.695312 Z M 455.125 202.417969 " fill-opacity="1" fill-rule="nonzero"/></g></g></g></g></g></g></g><g clip-path="url(#14daebcbad)"><g mask="url(#8d1966bbec)"><g><g clip-path="url(#8090a3274e)"><g clip-path="url(#459b535d3d)"><g clip-path="url(#6c56d09610)"><g clip-path="url(#cdd8a26c6e)"><path fill="#bbe4e4" d="M 0.0390625 240.375 L 5.007812 -7.488281 L 82.027344 105.457031 Z M 0.0390625 240.375 " fill-opacity="1" fill-rule="nonzero"/></g></g></g><g clip-path="url(#1e3ee3aec2)"><g clip-path="url(#a087ef8bd1)"><g clip-path="url(#718dea901e)"><path fill="#0097b2" d="M 84.492188 105.414062 L -2.15625 248.003906 L 3.085938 -14.011719 Z M 2.296875 232.730469 L 79.601562 105.519531 L 6.953125 -1 Z M 2.296875 232.730469 " fill-opacity="1" fill-rule="nonzero"/></g></g></g></g></g></g></g><g mask="url(#7413f8975c)"><g transform="matrix(1, 0, 0, 1, 922, 130)"><g clip-path="url(#dd3f315f60)"><g clip-path="url(#e192bd7be6)"><path fill="#bbe4e4" d="M 515.761719 0.460938 L 515.761719 142.519531 L 0.632812 142.519531 Z M 515.761719 0.460938 " fill-opacity="1" fill-rule="nonzero"/></g></g></g></g><g mask="url(#2e6c80e1cc)"><g transform="matrix(1, 0, 0, 1, 1200, 23)"><g clip-path="url(#69bf111435)"><path fill="#1994b5" d="M 24.410156 68.757812 C 26.199219 60.921875 30.230469 54.328125 35.503906 48.367188 C 38.191406 45.328125 40.984375 42.316406 42.914062 38.71875 C 43.921875 36.839844 44.65625 34.828125 45.117188 32.746094 C 45.578125 30.664062 45.464844 28.582031 45.773438 26.5 C 46.300781 22.941406 49.675781 22.363281 52.722656 22.382812 C 57.035156 22.410156 61.355469 22.84375 65.585938 23.667969 C 65.953125 23.527344 66.453125 23.640625 66.519531 24.085938 C 66.820312 26.101562 67.113281 28.125 67.515625 30.125 C 68.351562 34.25 69.714844 38.230469 72.332031 41.582031 C 74.675781 44.578125 77.605469 47.046875 80.15625 49.855469 C 85.074219 55.265625 87.910156 62.273438 88.511719 69.535156 C 89.054688 76.128906 87.726562 83.019531 84.246094 88.695312 C 80.539062 94.742188 74.542969 98.644531 67.835938 100.671875 C 60.4375 102.902344 51.957031 103.558594 44.308594 102.503906 C 36.960938 101.488281 29.601562 97.964844 26.089844 91.109375 C 22.640625 84.378906 22.769531 75.96875 24.410156 68.757812 " fill-opacity="1" fill-rule="nonzero"/><path fill="#34bcc0" d="M 45.8125 44.707031 C 48.53125 45.667969 48.992188 49.527344 51.542969 46.695312 C 51.816406 46.390625 54.144531 34.253906 54 33.703125 C 51.898438 25.703125 41.710938 43.25 45.8125 44.707031 Z M 49.085938 94.574219 C 47.515625 95.472656 42.308594 94.777344 41.050781 96.605469 C 39.046875 99.523438 43.535156 100.648438 45.761719 100.910156 C 52.335938 101.679688 51.460938 93.21875 49.085938 94.574219 Z M 27.84375 82.089844 C 27.828125 72.136719 31.109375 59.96875 37.863281 52.371094 C 39.8125 50.179688 43.769531 46.421875 46.273438 49.875 C 47.710938 51.855469 45.78125 61.394531 45.859375 63.679688 C 46.066406 69.703125 47.410156 75.4375 48.101562 81.390625 C 48.675781 86.347656 47.957031 87.957031 43.339844 89.945312 C 34.6875 93.675781 27.863281 92.953125 27.84375 82.089844 " fill-opacity="1" fill-rule="nonzero"/><g clip-path="url(#a43f615831)"><path fill="#bbe4e4" d="M 42.511719 15.597656 C 42.59375 13.746094 43.675781 11.917969 45.472656 11.570312 C 44.832031 9.769531 45.84375 7.839844 47.398438 6.738281 C 47.355469 5.035156 47.792969 3.484375 49.28125 2.324219 C 50.988281 0.988281 53.304688 0.601562 55.417969 0.585938 C 58.417969 0.5625 64.875 1.992188 64.59375 5.929688 C 65.625 6.183594 66.636719 6.5625 67.394531 7.28125 C 68.179688 8.023438 68.558594 9.078125 68.113281 10.109375 C 67.820312 10.792969 67.296875 11.25 66.691406 11.59375 C 68.46875 12.410156 69.921875 13.824219 70.195312 15.894531 C 70.429688 17.671875 69.488281 19.398438 67.90625 20.09375 C 69.261719 21.703125 70.488281 23.539062 70.238281 25.734375 C 70.074219 27.171875 69.140625 28.40625 67.855469 28.875 C 67.78125 29.003906 67.652344 29.09375 67.480469 29.070312 C 67.390625 29.058594 67.300781 29.050781 67.214844 29.039062 C 66.964844 29.078125 66.707031 29.089844 66.441406 29.070312 C 66.28125 29.058594 66.152344 28.996094 66.058594 28.90625 C 63.320312 28.597656 60.570312 28.398438 57.808594 28.421875 C 54.660156 28.453125 51.609375 28.898438 48.492188 29.238281 C 46.421875 29.464844 44.085938 28.925781 43.476562 26.660156 C 42.941406 24.667969 43.503906 22.601562 44.632812 20.945312 C 43.15625 19.601562 42.417969 17.613281 42.511719 15.597656 " fill-opacity="1" fill-rule="nonzero"/></g><g clip-path="url(#66659a8cf2)"><path fill="#bcb1ff" d="M 48.371094 6.289062 C 50.511719 4.820312 52.882812 4.691406 55.40625 4.695312 C 58.210938 4.703125 60.78125 5.085938 63.480469 5.800781 C 63.878906 5.90625 64.152344 5.320312 63.769531 5.121094 C 61.125 3.757812 57.835938 3.746094 54.933594 3.71875 C 52.511719 3.699219 49.640625 3.738281 47.835938 5.597656 C 47.5 5.945312 47.945312 6.585938 48.371094 6.289062 Z M 46.722656 12.003906 C 48.191406 11.804688 49.628906 11.246094 51.097656 10.972656 C 52.6875 10.679688 54.296875 10.515625 55.914062 10.464844 C 59.046875 10.371094 62.140625 10.800781 65.183594 11.53125 C 65.71875 11.660156 65.9375 10.867188 65.410156 10.707031 C 62.257812 9.753906 58.953125 9.363281 55.664062 9.429688 C 52.71875 9.488281 48.984375 9.699219 46.332031 11.078125 C 45.773438 11.367188 46.199219 12.074219 46.722656 12.003906 Z M 55.882812 18.65625 C 52.84375 18.804688 49.128906 18.941406 46.335938 20.222656 C 45.953125 20.398438 46.140625 21.046875 46.550781 21.015625 C 48.023438 20.910156 49.476562 20.429688 50.9375 20.1875 C 52.660156 19.90625 54.394531 19.707031 56.136719 19.628906 C 59.414062 19.484375 62.566406 19.929688 65.816406 20.140625 C 66.277344 20.167969 66.359375 19.464844 65.925781 19.347656 C 62.742188 18.492188 59.152344 18.492188 55.882812 18.65625 Z M 40.308594 69.972656 C 40.363281 70.242188 40.722656 70.429688 41.269531 70.476562 C 41.347656 70.484375 41.425781 70.488281 41.503906 70.488281 C 42.746094 70.488281 44 69.671875 44.847656 68.824219 C 44.25 68.617188 43.628906 68.507812 43.03125 68.507812 C 42.339844 68.507812 41.714844 68.652344 41.171875 68.941406 C 40.503906 69.292969 40.253906 69.714844 40.308594 69.972656 Z M 47.71875 68.550781 L 47.761719 68.566406 L 47.792969 68.59375 C 48.15625 68.902344 48.492188 69.242188 48.796875 69.609375 C 49.328125 70.242188 49.78125 70.976562 50.148438 71.792969 C 51.074219 71.15625 52.128906 70.820312 53.21875 70.820312 C 54.925781 70.820312 56.550781 71.65625 57.632812 73.074219 C 58.898438 71.480469 60.433594 70.605469 61.984375 70.605469 C 62.550781 70.605469 63.121094 70.722656 63.679688 70.953125 C 63.882812 69.859375 64.132812 68.976562 64.464844 68.1875 C 64.535156 68.03125 64.644531 67.835938 64.761719 67.632812 C 64.921875 67.359375 65.191406 66.902344 65.171875 66.742188 C 65.144531 66.515625 64.707031 66.003906 64.386719 65.632812 C 64.105469 65.304688 63.84375 65 63.710938 64.75 C 63.324219 64.039062 62.988281 63.222656 62.683594 62.253906 C 61.535156 58.625 61.34375 54.683594 61.253906 51.28125 C 61.15625 47.5625 61.25 43.78125 61.34375 40.121094 C 61.363281 39.269531 61.386719 38.417969 61.40625 37.5625 C 61.453125 35.433594 61.515625 33.21875 61.59375 30.976562 C 61.597656 30.851562 61.59375 30.617188 61.585938 30.328125 C 61.578125 29.996094 61.574219 29.667969 61.570312 29.34375 C 59.824219 29.253906 58.074219 29.179688 56.308594 29.222656 C 54.148438 29.273438 52.015625 29.472656 49.878906 29.703125 C 50.058594 30.675781 50.09375 31.960938 50.097656 33.265625 C 50.097656 33.632812 50.097656 33.953125 50.109375 34.144531 C 50.363281 38.320312 50.363281 42.835938 50.117188 48.351562 C 50.070312 49.378906 50.03125 50.410156 49.992188 51.445312 C 49.863281 54.8125 49.730469 58.296875 49.347656 61.671875 C 49.207031 62.914062 49.035156 63.910156 48.804688 64.808594 C 48.734375 65.097656 48.574219 65.515625 48.390625 65.996094 C 48.125 66.691406 47.503906 68.320312 47.71875 68.550781 Z M 64.90625 74.007812 C 64.890625 74.121094 64.875 74.234375 64.855469 74.355469 C 64.636719 75.878906 64.296875 78.179688 64.925781 79.265625 C 65.128906 79.613281 65.414062 79.820312 65.691406 79.820312 C 65.898438 79.820312 66.101562 79.710938 66.296875 79.496094 C 66.722656 79.027344 66.457031 77.980469 66.300781 77.355469 L 66.265625 77.222656 C 65.933594 75.878906 65.488281 74.820312 64.90625 74.007812 Z M 57.40625 76.472656 C 56.886719 77.347656 56.3125 78.375 56.21875 79.324219 C 56.175781 79.738281 56.324219 80.414062 56.582031 80.699219 C 56.644531 80.769531 56.707031 80.804688 56.761719 80.804688 C 56.816406 80.804688 56.96875 80.769531 57.207031 80.445312 C 57.957031 79.425781 57.769531 77.808594 57.40625 76.472656 Z M 49.347656 74.929688 C 48.082031 76.546875 47.519531 77.839844 47.675781 78.78125 C 47.769531 79.34375 48.273438 79.835938 48.753906 79.835938 C 49.144531 79.835938 49.347656 79.5 49.449219 79.214844 C 49.789062 78.273438 49.753906 76.828125 49.347656 74.929688 Z M 67.957031 66.5625 C 68.277344 66.675781 68.613281 66.730469 68.949219 66.730469 C 69.578125 66.730469 70.136719 66.53125 70.550781 66.164062 C 70.261719 66.027344 69.960938 65.960938 69.648438 65.960938 C 68.996094 65.960938 68.40625 66.25 67.957031 66.5625 Z M 38.710938 70.230469 C 38.5625 69.007812 39.492188 67.445312 41.503906 66.953125 C 41.945312 66.847656 42.421875 66.792969 42.921875 66.792969 C 43.242188 66.792969 43.574219 66.8125 43.910156 66.859375 C 44.117188 66.886719 44.457031 67.011719 44.855469 67.160156 C 45.242188 67.304688 45.769531 67.503906 45.960938 67.503906 C 46.394531 67.382812 47 66.378906 47.445312 62.292969 L 47.472656 62.042969 C 48.570312 52.523438 48.863281 42.882812 48.332031 33.390625 C 48.328125 33.289062 48.300781 33.070312 48.269531 32.796875 C 48.148438 31.800781 48.039062 30.761719 48.039062 29.910156 C 47.664062 29.949219 47.289062 29.992188 46.914062 30.035156 C 46.328125 30.097656 46.203125 29.113281 46.777344 29.003906 C 49.898438 28.425781 53.140625 28.242188 56.308594 28.179688 C 59.460938 28.121094 62.738281 28.140625 65.84375 28.691406 C 66.332031 28.78125 66.207031 29.558594 65.730469 29.542969 C 64.964844 29.519531 64.199219 29.480469 63.433594 29.441406 C 63.429688 31.007812 63.332031 33.179688 63.136719 36.117188 C 63.085938 36.90625 63.046875 37.53125 63.039062 37.800781 C 62.976562 41.414062 62.917969 45.671875 62.976562 49.886719 C 63.027344 53.464844 63.21875 57.285156 64.269531 60.933594 C 64.304688 61.050781 64.34375 61.199219 64.390625 61.371094 C 64.675781 62.433594 65.347656 64.925781 66.214844 65.292969 C 66.21875 65.292969 66.234375 65.300781 66.277344 65.300781 C 66.535156 65.300781 67.066406 65.078125 67.578125 64.867188 C 68.320312 64.558594 69.160156 64.210938 69.820312 64.210938 C 69.867188 64.210938 69.914062 64.210938 69.960938 64.214844 C 70.914062 64.292969 72.15625 64.683594 72.519531 65.542969 C 72.671875 65.894531 72.722656 66.472656 72.117188 67.210938 C 71.414062 68.0625 70.339844 68.53125 69.09375 68.53125 C 68.960938 68.53125 68.828125 68.527344 68.695312 68.515625 C 68.40625 68.492188 68.058594 68.355469 67.726562 68.21875 C 67.410156 68.09375 67.082031 67.960938 66.882812 67.960938 C 66.867188 67.960938 66.855469 67.960938 66.84375 67.964844 C 66.4375 68.007812 66.203125 68.601562 65.976562 69.175781 L 65.84375 69.507812 C 65.625 70.042969 65.328125 70.773438 65.328125 71.296875 C 65.328125 71.980469 65.46875 72.148438 65.804688 72.550781 C 65.933594 72.699219 66.078125 72.875 66.246094 73.109375 C 67.207031 74.445312 68.6875 77.828125 67.941406 79.953125 C 67.648438 80.777344 67.058594 81.320312 66.183594 81.5625 C 65.917969 81.636719 65.660156 81.671875 65.425781 81.671875 C 64.863281 81.671875 64.386719 81.46875 64.007812 81.0625 C 62.910156 79.886719 62.960938 77.320312 63.03125 76.273438 C 63.050781 76.027344 63.128906 75.605469 63.222656 75.113281 C 63.359375 74.394531 63.636719 72.898438 63.488281 72.652344 C 63.21875 72.277344 62.707031 72.195312 62.320312 72.195312 C 61.5625 72.195312 60.652344 72.503906 60.214844 72.800781 C 59.679688 73.160156 59.042969 73.738281 58.832031 74.21875 C 58.589844 74.761719 58.699219 75.117188 58.863281 75.660156 C 58.933594 75.882812 59.007812 76.140625 59.066406 76.433594 C 59.445312 78.378906 59.320312 79.914062 58.691406 80.996094 C 58.238281 81.777344 57.347656 82.566406 56.386719 82.566406 C 56.011719 82.566406 55.660156 82.449219 55.335938 82.21875 C 53.929688 81.21875 54.4375 79.066406 54.722656 78.191406 C 54.851562 77.789062 55.230469 77.203125 55.632812 76.582031 C 56.085938 75.875 56.710938 74.910156 56.679688 74.546875 C 56.613281 73.800781 55.011719 72.8125 54.203125 72.585938 C 53.945312 72.515625 53.613281 72.476562 53.261719 72.476562 C 52.164062 72.476562 50.921875 72.84375 50.777344 73.652344 C 50.683594 74.179688 50.878906 74.921875 51.070312 75.640625 C 51.230469 76.257812 51.398438 76.894531 51.402344 77.449219 C 51.402344 78.34375 51.105469 79.375 50.613281 80.203125 C 50.042969 81.15625 49.308594 81.679688 48.550781 81.679688 C 47.859375 81.679688 47.203125 81.261719 46.59375 80.429688 C 45.734375 79.253906 45.789062 77.632812 46.75 75.746094 L 47.957031 73.910156 C 48.085938 73.746094 48.199219 73.617188 48.296875 73.507812 C 48.710938 73.03125 48.734375 73 48.433594 72.183594 C 48.160156 71.4375 47.535156 70.714844 47.191406 70.351562 C 46.996094 70.144531 46.664062 69.796875 46.554688 69.796875 C 46.5 69.796875 46.378906 69.878906 46.242188 69.972656 C 46.132812 70.050781 46 70.140625 45.835938 70.238281 C 45.507812 70.429688 45.207031 70.636719 44.914062 70.835938 C 44.070312 71.414062 43.273438 71.960938 42.050781 72.117188 C 41.816406 72.148438 41.589844 72.164062 41.371094 72.164062 C 39.578125 72.164062 38.820312 71.164062 38.710938 70.230469 Z M 15.59375 38.3125 C 17.367188 39.78125 19.289062 41.058594 21.058594 42.539062 C 22.75 43.957031 24.285156 45.597656 26.0625 46.90625 C 26.625 47.320312 27.421875 46.503906 27.027344 45.941406 C 25.726562 44.074219 23.878906 42.5625 22.128906 41.132812 C 20.363281 39.6875 18.511719 38.210938 16.472656 37.171875 C 15.78125 36.820312 14.925781 37.757812 15.59375 38.3125 Z M 1.726562 55.066406 C 3.976562 56.707031 6.527344 57.96875 8.988281 59.257812 C 11.246094 60.441406 13.820312 62.179688 16.363281 62.585938 C 17.054688 62.695312 17.769531 61.851562 17.121094 61.28125 C 15.171875 59.566406 12.339844 58.640625 10.035156 57.46875 C 7.546875 56.199219 5.121094 54.753906 2.550781 53.65625 C 1.589844 53.246094 0.867188 54.4375 1.726562 55.066406 Z M 14.886719 88.222656 C 12.71875 88.570312 10.589844 89.328125 8.484375 89.941406 C 6.378906 90.554688 4.179688 91.066406 2.144531 91.890625 C 1.242188 92.253906 1.570312 93.535156 2.550781 93.359375 C 4.796875 92.957031 7.015625 92.191406 9.207031 91.566406 C 11.300781 90.964844 13.460938 90.460938 15.472656 89.609375 C 16.324219 89.246094 15.660156 88.097656 14.886719 88.222656 Z M 22.222656 116.195312 C 21.675781 116.957031 22.917969 117.652344 23.464844 116.925781 C 25.007812 114.878906 26.589844 112.863281 28.207031 110.878906 C 29.671875 109.074219 31.332031 107.355469 32.628906 105.429688 C 33.101562 104.730469 32.082031 104.035156 31.503906 104.5625 C 29.660156 106.25 28.128906 108.410156 26.59375 110.371094 C 25.09375 112.28125 23.640625 114.226562 22.222656 116.195312 Z M 56.308594 109.078125 C 56 111.480469 56.402344 114.082031 56.457031 116.503906 C 56.507812 118.980469 56.484375 121.457031 56.507812 123.933594 C 56.511719 124.851562 57.855469 124.832031 57.921875 123.933594 C 58.109375 121.375 58.144531 118.804688 58.132812 116.238281 C 58.125 113.867188 58.304688 111.203125 57.734375 108.886719 C 57.519531 108.027344 56.40625 108.324219 56.308594 109.078125 Z M 89.6875 105.882812 C 91.183594 107.847656 92.605469 109.992188 94.300781 111.789062 C 94.882812 112.40625 95.902344 111.613281 95.472656 110.886719 C 94.152344 108.671875 92.402344 106.636719 90.855469 104.582031 C 89.382812 102.625 87.996094 100.394531 86.230469 98.6875 C 85.628906 98.105469 84.695312 98.839844 85.085938 99.570312 C 86.292969 101.820312 88.144531 103.855469 89.6875 105.882812 Z M 98.636719 79.191406 C 96.984375 78.984375 95.25 78.644531 93.582031 78.792969 C 92.683594 78.875 92.449219 80.109375 93.367188 80.398438 C 94.792969 80.847656 96.359375 80.921875 97.839844 81.105469 C 99.609375 81.324219 101.382812 81.558594 103.148438 81.804688 C 106.320312 82.25 109.480469 82.847656 112.660156 83.195312 C 113.609375 83.300781 113.785156 81.78125 112.886719 81.550781 C 109.699219 80.742188 106.398438 80.292969 103.148438 79.808594 C 101.644531 79.585938 100.144531 79.382812 98.636719 79.191406 Z M 91.078125 52.210938 C 93.136719 50.800781 95.433594 49.726562 97.582031 48.460938 C 99.570312 47.285156 101.585938 45.558594 103.75 44.773438 C 104.476562 44.511719 104.886719 45.480469 104.449219 45.972656 C 103.640625 46.886719 102.484375 47.503906 101.464844 48.160156 C 100.410156 48.835938 99.34375 49.492188 98.265625 50.128906 C 96.144531 51.382812 93.972656 52.710938 91.632812 53.523438 C 90.816406 53.808594 90.449219 52.644531 91.078125 52.210938 " fill-opacity="1" fill-rule="nonzero"/></g><path fill="#ffffff" d="M 78.90625 60.75 C 79.28125 61.816406 79.421875 62.914062 80.03125 63.878906 C 80.179688 64.117188 80.539062 64.070312 80.621094 63.800781 C 81.296875 61.585938 80.316406 58.902344 79.207031 56.96875 C 78.292969 55.378906 76.847656 52.792969 74.859375 52.5625 C 74.617188 52.535156 74.394531 52.796875 74.398438 53.023438 C 74.445312 54.8125 76.445312 56.308594 77.359375 57.722656 C 77.976562 58.671875 78.53125 59.679688 78.90625 60.75 Z M 72.449219 88.84375 C 75.128906 87.199219 77.035156 84.550781 78.199219 81.664062 C 79.589844 78.210938 79.476562 74.59375 80.320312 71.039062 C 80.515625 70.207031 81.929688 70.136719 82.074219 71.039062 C 82.699219 74.910156 81.765625 79.394531 80.210938 82.953125 C 78.808594 86.171875 76.511719 88.828125 73.410156 90.488281 C 72.328125 91.066406 71.402344 89.484375 72.449219 88.84375 " fill-opacity="1" fill-rule="nonzero"/></g></g></g><g mask="url(#a291b7d039)"><g transform="matrix(1, 0, 0, 1, 426, 116)"><g clip-path="url(#2be30ec577)"><g clip-path="url(#f1446ecddd)"><g transform="matrix(1, 0, 0, 1, 0, 1)"><g clip-path="url(#95aa7b44f6)"><g clip-path="url(#ba048ace4a)"><path fill="#2c9eb2" d="M 21.445312 39.816406 C 22.878906 35.425781 25.894531 31.609375 28.105469 27.59375 C 30.464844 23.300781 32.308594 18.824219 34.429688 14.429688 C 34.949219 13.355469 35.726562 12.09375 37.039062 11.957031 C 38.046875 11.851562 39.152344 12.449219 40.144531 13.148438 C 40.164062 13.148438 40.183594 13.140625 40.203125 13.144531 C 40.375 13.15625 40.519531 13.21875 40.652344 13.300781 L 40.578125 12.859375 C 49.40625 17.269531 58.101562 21.605469 66.789062 25.953125 C 76.929688 31.023438 87.066406 36.101562 97.199219 41.183594 C 103.039062 44.113281 108.839844 47.117188 114.71875 49.964844 C 116.980469 51.0625 118.625 52.402344 118.539062 55.140625 C 118.539062 55.140625 119.367188 63.679688 115.703125 68.773438 C 112.035156 73.867188 108.699219 74.351562 108.699219 74.351562 C 108.40625 74.390625 108.101562 74.476562 107.789062 74.625 C 107.328125 74.84375 106.617188 74.664062 106.054688 74.527344 C 105.0625 74.289062 104.078125 73.980469 103.113281 73.636719 C 95.238281 70.816406 87.367188 67.980469 79.488281 65.15625 C 78.898438 64.945312 78.296875 64.769531 77.652344 64.558594 C 77.636719 64.671875 77.625 64.78125 77.613281 64.890625 C 77.109375 64.6875 76.601562 64.492188 76.09375 64.292969 C 76.078125 64.246094 76.066406 64.199219 76.046875 64.152344 C 76.039062 64.191406 76.03125 64.226562 76.027344 64.265625 C 75.222656 63.957031 74.410156 63.648438 73.601562 63.320312 C 72.632812 62.929688 71.660156 62.542969 70.6875 62.160156 C 70.707031 62.144531 65.835938 60.199219 63.460938 59.285156 C 61.195312 58.410156 58.917969 57.550781 56.640625 56.695312 C 56.472656 56.671875 56.300781 56.644531 56.125 56.628906 C 46.558594 53.117188 36.992188 49.605469 27.410156 46.132812 C 27.378906 46.136719 27.347656 46.136719 27.3125 46.132812 C 26.097656 46.011719 24.945312 45.773438 23.75 45.503906 C 23.011719 45.339844 21.78125 45.308594 21.210938 44.6875 C 20.164062 43.550781 21.039062 41.0625 21.445312 39.816406 Z M 118.882812 73.359375 C 120.378906 74.046875 124.496094 76.007812 126.003906 76.695312 C 126.59375 76.964844 127.175781 77.253906 127.777344 77.488281 C 130.25 78.433594 131.167969 78.257812 132.539062 76.007812 C 133.332031 74.710938 133.765625 73.160156 134.179688 71.675781 C 134.5625 70.304688 133.929688 69.292969 132.632812 68.667969 C 131.078125 67.917969 129.542969 67.121094 128.003906 66.339844 C 127.378906 66.023438 123.984375 64.4375 123.335938 64.101562 C 123.335938 64.101562 123.789062 69.058594 118.882812 73.359375 " fill-opacity="1" fill-rule="nonzero"/></g><g clip-path="url(#cc4b538571)"><path fill="#146fa2" d="M 3.808594 18.59375 C 5.148438 15.074219 7.058594 11.753906 9.324219 8.753906 C 10.933594 6.640625 14.394531 1.9375 17.222656 1.621094 C 20.730469 1.230469 20.808594 6.347656 20.828125 8.816406 C 20.890625 16.246094 17.035156 23.773438 12.5 29.429688 C 11.15625 31.109375 6.882812 37.035156 4.519531 37.132812 C 2.265625 37.226562 1.945312 34.289062 1.757812 31.996094 C 1.710938 31.375 1.558594 30.773438 1.394531 30.175781 C 0.925781 28.425781 3.355469 19.785156 3.808594 18.59375 Z M 1.527344 36.964844 C 2.871094 39.722656 5.28125 40.28125 8.007812 41.269531 C 12.246094 42.804688 20.714844 47.824219 25.117188 45.730469 C 28.546875 44.101562 31.644531 39.554688 33.699219 36.628906 C 37.050781 31.847656 39.449219 26.464844 40.519531 20.707031 C 41.289062 16.585938 41.664062 11.910156 37.890625 9.273438 C 35.28125 7.453125 31.921875 6.246094 29.074219 4.808594 C 26.359375 3.445312 22.175781 0.351562 19.109375 0.03125 C 14.152344 -0.492188 9.648438 6.128906 7.121094 9.804688 C 3.578125 14.96875 1.355469 20.9375 0.5625 27.144531 C 0.1875 30.082031 0.183594 34.199219 1.527344 36.964844 Z M 115.703125 68.773438 C 118.949219 64.261719 118.671875 57.054688 118.566406 55.460938 C 118.671875 55.523438 118.742188 55.570312 118.761719 55.609375 C 120.179688 56.269531 121.726562 57.023438 123.304688 57.710938 C 124.886719 58.402344 125.816406 59.5 125.859375 61.292969 C 125.894531 62.632812 126.023438 63.96875 126.113281 65.359375 C 126.113281 65.359375 126.394531 70.324219 121.484375 74.625 C 120.917969 75.078125 120.410156 75.40625 119.996094 75.820312 C 118.628906 77.195312 117.109375 77.308594 115.390625 76.554688 C 114.054688 75.96875 112.65625 75.539062 111.320312 74.953125 C 110.445312 74.570312 109.640625 74.222656 108.722656 74.34375 C 109.039062 74.289062 112.21875 73.613281 115.703125 68.773438 Z M 32.199219 133.78125 C 30.042969 140.855469 32.488281 143.0625 37.597656 136.996094 C 40.007812 134.140625 42.101562 126.324219 44.566406 121.867188 C 52.054688 108.332031 59.542969 94.800781 67.03125 81.265625 C 68.765625 81.605469 67.289062 119.707031 67.289062 122.859375 C 67.289062 126.429688 66.480469 162.804688 69.464844 161.992188 C 74.089844 160.734375 71.296875 127.324219 71.296875 122.832031 C 71.296875 119.085938 69.191406 81.941406 71.578125 81.234375 C 81.269531 98.753906 90.847656 119.070312 99.730469 135.28125 C 101.09375 137.769531 104.863281 143.789062 107.941406 139.847656 C 110.117188 137.070312 104.019531 132.117188 104.011719 132.105469 C 98.75 121.925781 92.894531 112 87.351562 101.96875 C 83.890625 95.710938 78.925781 80.148438 73.09375 76.839844 C 65.074219 72.292969 64.050781 78.859375 60.40625 85.449219 C 55.273438 94.734375 50.136719 104.023438 45.003906 113.308594 C 41.632812 119.40625 33.828125 128.441406 32.199219 133.78125 " fill-opacity="1" fill-rule="nonzero"/></g><g clip-path="url(#2660142617)"><path fill="#34bcc0" d="M 64.003906 60.792969 C 63.984375 60.605469 64.035156 60.410156 64.140625 60.265625 C 64.164062 60.191406 64.179688 60.117188 64.199219 60.042969 C 64.328125 59.589844 64.988281 59.449219 65.253906 59.855469 C 65.402344 59.9375 65.554688 60.019531 65.703125 60.101562 C 66.570312 60.328125 67.429688 60.578125 68.277344 60.878906 C 68.613281 61 68.960938 61.105469 69.269531 61.253906 C 69.414062 60.628906 69.558594 60.003906 69.699219 59.378906 C 70.054688 57.847656 70.308594 56.234375 70.929688 54.777344 C 71.933594 52.410156 74.070312 51.40625 76.484375 52.476562 C 77.609375 52.976562 78.890625 53.847656 79.570312 54.902344 C 80.398438 56.195312 80.195312 57.691406 79.941406 59.125 C 79.574219 61.207031 79.117188 63.277344 78.660156 65.34375 C 78.296875 66.976562 78.019531 68.746094 77.359375 70.300781 C 77.398438 70.355469 77.417969 70.425781 77.390625 70.503906 C 77.101562 71.277344 76.589844 71.519531 75.839844 71.78125 C 73.65625 72.535156 74.863281 73.941406 74.910156 75.585938 C 74.914062 75.808594 74.863281 76.03125 74.773438 76.246094 C 74.832031 76.398438 74.800781 76.597656 74.648438 76.683594 C 74.585938 76.71875 74.523438 76.75 74.457031 76.78125 C 73.9375 77.433594 73.082031 77.835938 72.429688 77.441406 C 69.207031 78.089844 64.761719 77.457031 65.207031 73.800781 C 65.273438 73.273438 65.464844 72.769531 65.523438 72.246094 C 65.691406 70.765625 65.074219 70.320312 63.996094 69.59375 C 63.375 69.171875 62.859375 68.808594 62.722656 68.007812 C 62.558594 67.070312 62.953125 65.894531 63.121094 64.984375 C 63.382812 63.585938 63.652344 62.175781 64.003906 60.792969 Z M 97.597656 129 C 98.691406 127.902344 100.070312 127.097656 101.601562 126.863281 C 101.878906 126.730469 102.238281 126.769531 102.472656 127.09375 C 103.925781 129.121094 105.214844 131.273438 106.546875 133.382812 C 107.15625 134.347656 107.769531 135.316406 108.378906 136.285156 C 108.789062 136.925781 109.324219 137.59375 109.398438 138.382812 C 109.699219 141.496094 105.460938 143.242188 102.96875 142.78125 C 101.289062 142.472656 100.714844 141.425781 100.121094 139.953125 C 99.234375 137.753906 98.332031 135.558594 97.476562 133.347656 C 97.210938 132.660156 96.421875 131.300781 96.46875 130.589844 C 96.5 130.035156 97.238281 129.359375 97.597656 129 Z M 66.617188 151.285156 C 66.695312 150.566406 66.546875 149.019531 66.964844 148.421875 C 67.324219 147.90625 72.132812 147.09375 72.628906 147.5 C 73.050781 147.847656 72.945312 150.035156 73.023438 150.75 C 73.25 152.800781 73.382812 154.855469 73.6875 156.898438 C 73.929688 158.558594 74.527344 160.101562 73.152344 161.394531 C 72.132812 162.351562 70.550781 162.605469 69.222656 162.421875 C 67.558594 162.191406 65.910156 161.773438 65.71875 160.035156 C 65.519531 158.222656 65.910156 156.480469 66.171875 154.699219 C 66.335938 153.5625 66.488281 152.425781 66.617188 151.285156 Z M 36.46875 125.539062 C 38.394531 124.121094 41.300781 126.246094 42.921875 127.714844 C 43.109375 127.777344 43.273438 127.917969 43.347656 128.121094 C 43.457031 128.238281 43.445312 128.398438 43.367188 128.519531 C 42.488281 133.417969 38.324219 136.917969 37.109375 141.707031 C 37.039062 141.984375 36.746094 142.21875 36.453125 142.207031 C 33.894531 142.085938 31.472656 141.0625 29.742188 139.140625 C 29.109375 138.441406 28.183594 137.425781 28.171875 136.425781 C 28.160156 135.121094 29.558594 133.601562 30.257812 132.59375 C 31.976562 130.113281 34.015625 127.339844 36.46875 125.539062 Z M 0.523438 31.152344 C 0.699219 31.804688 0.867188 32.457031 0.917969 33.132812 C 1.121094 35.632812 1.472656 38.832031 3.929688 38.730469 C 6.503906 38.625 11.164062 32.167969 12.628906 30.335938 C 17.574219 24.167969 21.773438 15.964844 21.707031 7.867188 C 21.6875 5.171875 21.601562 -0.40625 17.773438 0.0234375 C 14.691406 0.367188 10.917969 5.492188 9.167969 7.796875 C 6.695312 11.066406 4.613281 14.6875 3.15625 18.523438 C 2.660156 19.824219 0.0078125 29.242188 0.523438 31.152344 " fill-opacity="1" fill-rule="nonzero"/></g><path fill="#3822c0" d="M 39.902344 131.207031 C 39.902344 131.167969 39.90625 131.125 39.925781 131.082031 C 39.953125 131.023438 39.984375 130.980469 40.019531 130.929688 C 40.289062 130.542969 40.804688 131.054688 40.414062 131.324219 C 40.386719 131.34375 40.355469 131.359375 40.328125 131.378906 C 39.441406 134.121094 38.347656 136.789062 36.71875 139.214844 C 36.238281 139.933594 35.210938 139.316406 35.570312 138.542969 C 36.773438 135.957031 38.324219 133.558594 39.902344 131.207031 Z M 70.628906 159.34375 C 70.917969 158.367188 70.671875 156.785156 70.703125 155.792969 C 70.742188 154.546875 70.769531 153.296875 71 152.074219 C 71.078125 151.660156 71.757812 151.660156 71.835938 152.074219 C 72.160156 153.785156 72.132812 155.558594 72.171875 157.296875 C 72.191406 158.121094 72.640625 159.898438 71.644531 160.324219 C 71.183594 160.523438 70.523438 160.308594 70.558594 159.703125 C 70.5625 159.667969 70.5625 159.636719 70.5625 159.605469 C 70.570312 159.511719 70.59375 159.421875 70.628906 159.34375 Z M 103.460938 131.394531 C 104.726562 131.972656 105.402344 133.773438 106.046875 134.941406 C 106.808594 136.3125 107.683594 137.832031 107.984375 139.382812 C 108.089844 139.9375 107.425781 140.191406 107.101562 139.753906 C 106.128906 138.449219 105.484375 136.84375 104.667969 135.429688 C 104.011719 134.296875 102.84375 133.113281 102.78125 131.785156 C 102.765625 131.414062 103.171875 131.261719 103.460938 131.394531 Z M 122.960938 66.132812 C 123.167969 65.726562 123.894531 66.019531 123.710938 66.453125 C 122.5 69.359375 120.972656 72.132812 118.789062 74.433594 C 118.101562 75.160156 117.015625 74.066406 117.691406 73.335938 C 119.738281 71.128906 121.597656 68.835938 122.960938 66.132812 Z M 77.027344 34.851562 C 79.644531 35.949219 82.246094 37.042969 84.789062 38.304688 C 85.265625 38.539062 84.933594 39.335938 84.425781 39.164062 C 81.964844 38.347656 79.570312 37.394531 77.167969 36.425781 C 76.902344 36.371094 76.804688 36.316406 76.480469 36.144531 C 75.789062 35.777344 76.277344 34.539062 77.027344 34.851562 Z M 89.890625 40.953125 C 92.578125 41.800781 95.0625 43.496094 97.542969 44.816406 C 100.113281 46.183594 102.710938 47.480469 105.359375 48.683594 C 108.894531 50.285156 116.011719 51.722656 116.0625 56.722656 C 116.066406 57.164062 115.472656 57.199219 115.332031 56.820312 C 114.328125 54.132812 111.941406 53.0625 109.417969 52.121094 C 107.109375 51.257812 104.839844 50.296875 102.613281 49.230469 C 100.261719 48.109375 97.949219 46.902344 95.660156 45.652344 C 93.539062 44.5 91.230469 43.398438 89.402344 41.792969 C 89.023438 41.460938 89.421875 40.808594 89.890625 40.953125 Z M 15.898438 6.804688 C 16.324219 6.433594 16.269531 7.082031 16.277344 7.1875 C 16.308594 7.488281 15.226562 8.453125 15.042969 8.683594 C 14.148438 9.792969 13.296875 10.9375 12.5 12.117188 C 11.707031 13.285156 11.007812 14.5 10.320312 15.734375 C 9.96875 16.367188 8.808594 19.101562 8.042969 19.25 C 6.785156 19.5 9.894531 13.722656 10.296875 13.136719 C 11.894531 10.800781 13.757812 8.664062 15.898438 6.804688 Z M 6.566406 23.113281 C 6.566406 23.097656 6.570312 23.082031 6.574219 23.070312 C 6.570312 23.101562 6.566406 23.113281 6.566406 23.113281 Z M 6.234375 22.097656 C 6.714844 21.074219 6.550781 23.113281 6.566406 23.113281 C 6.464844 23.816406 6.140625 24.621094 5.964844 25.304688 C 5.804688 25.910156 5.074219 30.628906 4.453125 30.746094 C 2.675781 31.078125 5.875 22.875 6.234375 22.097656 Z M 25.40625 40.925781 C 25.199219 41.347656 25.621094 41.792969 26.046875 41.566406 C 28.203125 40.429688 29.804688 37.96875 31 35.917969 C 32.351562 33.601562 33.425781 31.121094 34.304688 28.589844 C 35.222656 25.945312 35.898438 23.21875 36.410156 20.46875 C 36.914062 17.757812 37.242188 15.09375 36.304688 12.433594 C 36.140625 11.976562 35.457031 12.15625 35.570312 12.636719 C 36.238281 15.445312 35.3125 18.339844 34.570312 21.042969 C 33.921875 23.40625 33.257812 25.765625 32.441406 28.078125 C 31.605469 30.449219 30.601562 32.761719 29.332031 34.941406 C 28.140625 36.984375 26.453125 38.824219 25.40625 40.925781 " fill-opacity="1" fill-rule="nonzero"/><path fill="#0097b2" d="M 128.886719 76.128906 C 129.691406 75.554688 130.367188 74.8125 130.878906 73.96875 C 131.9375 72.21875 131.933594 70.304688 131.953125 68.320312 C 131.953125 68.0625 132.316406 68.019531 132.394531 68.261719 C 133.070312 70.371094 132.9375 72.585938 131.839844 74.53125 C 131.054688 75.929688 129.3125 78 127.554688 77.847656 C 127.25 77.824219 127.121094 77.5 127.3125 77.269531 C 127.753906 76.746094 128.332031 76.523438 128.886719 76.128906 Z M 124.644531 70.828125 C 125.609375 69.289062 126.191406 67.527344 126.367188 65.722656 C 126.382812 65.578125 126.621094 65.515625 126.644531 65.6875 C 126.90625 67.613281 126.632812 69.449219 125.722656 71.1875 C 124.964844 72.632812 123.613281 74.511719 121.882812 74.742188 C 121.652344 74.773438 121.519531 74.472656 121.625 74.296875 C 122.417969 72.992188 123.8125 72.15625 124.644531 70.828125 Z M 112.378906 70.710938 C 113.574219 69.515625 114.710938 68.222656 115.671875 66.832031 C 117.726562 63.84375 118.933594 60.339844 118.898438 56.695312 C 118.898438 56.421875 119.351562 56.34375 119.394531 56.628906 C 119.945312 60.394531 119.03125 64.09375 117.011719 67.308594 C 115.246094 70.117188 112.355469 73.203125 109.15625 74.335938 C 108.910156 74.425781 108.773438 74.097656 108.917969 73.929688 C 109.949219 72.742188 111.265625 71.820312 112.378906 70.710938 Z M 64.566406 78.617188 C 65.277344 78.71875 66.019531 79.46875 66.566406 79.914062 C 66.925781 80.207031 67.949219 80.851562 67.707031 81.425781 C 67.652344 81.554688 67.542969 81.683594 67.382812 81.671875 C 66.78125 81.632812 66.183594 81.015625 65.707031 80.679688 C 65.160156 80.292969 64.359375 79.925781 64.007812 79.34375 C 63.761719 78.933594 64.167969 78.558594 64.566406 78.617188 Z M 71.304688 81.40625 C 71.859375 80.882812 72.65625 80.566406 73.328125 80.21875 C 73.832031 79.964844 74.371094 79.640625 74.949219 79.617188 C 75.160156 79.609375 75.1875 79.914062 74.996094 79.976562 C 74.429688 80.164062 73.882812 80.765625 73.398438 81.117188 C 72.878906 81.5 72.355469 81.941406 71.75 82.167969 C 71.316406 82.328125 70.988281 81.703125 71.304688 81.40625 Z M 37.414062 124.742188 C 38.414062 124.179688 39.632812 124.878906 40.511719 125.421875 C 41.558594 126.066406 42.371094 126.785156 42.960938 127.871094 C 43.140625 128.199219 42.714844 128.535156 42.441406 128.269531 C 41.777344 127.632812 40.988281 127.074219 40.214844 126.578125 C 39.773438 126.296875 39.316406 126.007812 38.824219 125.835938 C 38.386719 125.683594 37.945312 125.691406 37.515625 125.519531 C 37.195312 125.390625 37.070312 124.9375 37.414062 124.742188 Z M 67.15625 146.933594 C 68.867188 146.796875 71.121094 146.445312 72.742188 147.144531 C 73.070312 147.289062 72.933594 147.761719 72.648438 147.855469 C 71.820312 148.128906 70.921875 148.042969 70.054688 148.066406 C 69.085938 148.097656 68.121094 148.148438 67.15625 148.234375 C 66.324219 148.308594 66.324219 147 67.15625 146.933594 Z M 98.722656 127.214844 C 99.695312 126.800781 100.773438 126.402344 101.832031 126.644531 C 102.105469 126.707031 102.117188 127.070312 101.90625 127.207031 C 101.039062 127.777344 99.960938 127.976562 99.027344 128.4375 C 98.160156 128.867188 97.386719 129.671875 96.464844 129.921875 C 96.011719 130.042969 95.675781 129.554688 95.878906 129.160156 C 96.386719 128.183594 97.753906 127.628906 98.722656 127.214844 Z M 74.898438 63.558594 C 73.921875 62.382812 74.929688 58.191406 76.886719 58.792969 C 76.980469 58.769531 77.074219 58.753906 77.175781 58.761719 C 77.585938 58.792969 77.90625 59.105469 78.011719 59.496094 C 78.292969 60.570312 77.777344 62.042969 77.214844 62.941406 C 76.726562 63.714844 75.667969 64.492188 74.898438 63.558594 Z M 74.105469 73.355469 C 74.335938 73.464844 74.234375 73.882812 73.96875 73.851562 C 71.171875 73.503906 68.503906 72.964844 65.664062 72.929688 C 65.03125 72.921875 65.03125 71.972656 65.664062 71.949219 C 68.4375 71.851562 71.578125 72.140625 74.105469 73.355469 Z M 68.824219 69.523438 C 68.257812 69.90625 67.140625 70.207031 66.726562 69.457031 C 66.664062 69.34375 66.714844 69.160156 66.859375 69.132812 C 67.507812 69.015625 68.074219 69.152344 68.628906 68.667969 C 69.148438 68.214844 69.496094 67.582031 69.804688 66.976562 C 69.917969 66.757812 70.277344 66.90625 70.203125 67.140625 C 69.917969 68.039062 69.644531 68.96875 68.824219 69.523438 Z M 68.992188 61.742188 C 68.695312 63.085938 68.542969 64.503906 67.984375 65.78125 C 67.675781 66.488281 67.054688 66.886719 66.277344 66.613281 C 63.941406 65.789062 65.738281 62.160156 66.238281 60.707031 C 66.3125 60.488281 66.542969 60.324219 66.777344 60.398438 C 67.558594 60.648438 68.378906 60.734375 69.121094 61.074219 C 69.429688 61.21875 69.300781 61.707031 68.992188 61.742188 Z M 77.128906 55.515625 C 72.253906 54.429688 72.910156 63.042969 71.476562 65.609375 C 71.328125 65.875 70.863281 65.839844 70.800781 65.523438 C 70.53125 64.183594 71.042969 62.738281 71.371094 61.4375 C 71.734375 59.992188 72.121094 58.480469 72.792969 57.140625 C 73.601562 55.527344 75.484375 54.015625 77.285156 55.148438 C 77.480469 55.269531 77.351562 55.566406 77.128906 55.515625 Z M 28.949219 42.554688 C 30.042969 41.445312 31.078125 40.269531 32.035156 39.039062 C 33.925781 36.613281 35.574219 33.972656 36.910156 31.199219 C 39.640625 25.535156 41.085938 19.234375 41.546875 12.980469 C 41.574219 12.628906 42.054688 12.667969 42.078125 13 C 42.589844 19.53125 41.144531 25.902344 38.34375 31.8125 C 36.949219 34.757812 35.238281 37.539062 33.207031 40.09375 C 31.445312 42.3125 29.265625 45.265625 26.535156 46.285156 C 26.183594 46.417969 25.945312 45.953125 26.105469 45.683594 C 26.824219 44.472656 27.96875 43.546875 28.949219 42.554688 Z M 8.578125 39.570312 C 14.574219 38.515625 19.351562 32.808594 21.890625 27.640625 C 24.957031 21.398438 26.265625 13.910156 25.066406 7.054688 C 25.023438 6.816406 24.632812 6.875 24.644531 7.113281 C 24.839844 10.574219 24.363281 14.269531 23.71875 17.667969 C 23.109375 20.863281 22.144531 24.019531 20.675781 26.929688 C 19.3125 29.632812 17.519531 32.078125 15.304688 34.148438 C 13.195312 36.121094 10.761719 37.429688 8.273438 38.839844 C 7.851562 39.078125 8.15625 39.644531 8.578125 39.570312 " fill-opacity="1" fill-rule="nonzero"/></g></g></g></g></g></g><g mask="url(#77837f8bda)"><g transform="matrix(1, 0, 0, 1, 987, 103)"><g clip-path="url(#d04d500cbe)"><g clip-path="url(#df323d9c6c)"><path fill="#bbe4e4" d="M 228.460938 1.675781 C 228.371094 1.453125 228.234375 1.253906 228.066406 1.089844 C 228.066406 1.089844 228.066406 1.085938 228.066406 1.085938 C 228.042969 1.0625 228.007812 1.054688 227.984375 1.03125 C 227.832031 0.898438 227.667969 0.78125 227.476562 0.703125 C 227.3125 0.636719 227.140625 0.617188 226.96875 0.597656 C 226.90625 0.59375 226.855469 0.5625 226.796875 0.5625 L 2.847656 0.5625 C 2.785156 0.5625 2.738281 0.59375 2.675781 0.597656 C 2.503906 0.613281 2.332031 0.632812 2.164062 0.699219 C 1.976562 0.777344 1.8125 0.898438 1.660156 1.03125 C 1.636719 1.054688 1.601562 1.0625 1.578125 1.085938 C 1.578125 1.085938 1.578125 1.085938 1.578125 1.089844 C 1.410156 1.253906 1.277344 1.453125 1.183594 1.675781 C 1.089844 1.894531 1.042969 2.128906 1.042969 2.363281 C 1.042969 2.367188 1.042969 2.367188 1.042969 2.371094 L 1.042969 146.851562 C 1.042969 147.851562 1.851562 148.65625 2.847656 148.65625 L 226.796875 148.65625 C 227.792969 148.65625 228.601562 147.851562 228.601562 146.851562 L 228.601562 2.371094 C 228.601562 2.367188 228.601562 2.367188 228.601562 2.363281 C 228.601562 2.128906 228.554688 1.894531 228.460938 1.675781 Z M 224.988281 133.332031 L 217.019531 133.332031 L 217.019531 14.824219 L 224.988281 6.761719 Z M 4.65625 133.332031 L 4.65625 6.761719 L 12.625 14.824219 L 12.625 133.332031 Z M 214.457031 12.277344 L 15.183594 12.277344 L 7.175781 4.175781 L 222.46875 4.175781 Z M 16.238281 15.890625 L 213.40625 15.890625 L 213.40625 133.328125 L 16.238281 133.328125 Z M 4.65625 145.046875 L 4.65625 136.945312 L 224.988281 136.945312 L 224.988281 145.046875 Z M 4.65625 145.046875 " fill-opacity="1" fill-rule="nonzero"/></g><path fill="#bbe4e4" d="M 35.667969 56.890625 C 35.765625 56.890625 35.863281 56.882812 35.964844 56.867188 C 36.695312 56.746094 37.28125 56.1875 37.4375 55.460938 L 42.921875 29.554688 L 80.070312 29.554688 C 81.070312 29.554688 81.875 28.75 81.875 27.75 C 81.875 26.75 81.070312 25.945312 80.070312 25.945312 L 41.457031 25.945312 C 40.601562 25.945312 39.867188 26.542969 39.691406 27.375 L 34.859375 50.183594 L 31.429688 44.402344 C 30.917969 43.542969 29.8125 43.257812 28.953125 43.769531 C 28.09375 44.277344 27.8125 45.386719 28.320312 46.246094 L 34.113281 56.007812 C 34.445312 56.5625 35.039062 56.890625 35.667969 56.890625 Z M 35.667969 56.890625 " fill-opacity="1" fill-rule="nonzero"/><path fill="#bbe4e4" d="M 53.703125 50.511719 C 54.054688 50.859375 54.515625 51.035156 54.972656 51.035156 C 55.441406 51.035156 55.90625 50.855469 56.257812 50.5 L 60.765625 45.941406 L 65.273438 50.5 C 65.625 50.855469 66.09375 51.035156 66.558594 51.035156 C 67.015625 51.035156 67.476562 50.859375 67.828125 50.511719 C 68.539062 49.8125 68.542969 48.667969 67.84375 47.957031 L 63.308594 43.371094 L 67.84375 38.78125 C 68.542969 38.070312 68.539062 36.925781 67.828125 36.226562 C 67.117188 35.523438 65.972656 35.535156 65.273438 36.242188 L 60.765625 40.800781 L 56.257812 36.242188 C 55.558594 35.53125 54.414062 35.523438 53.703125 36.226562 C 52.996094 36.925781 52.988281 38.070312 53.691406 38.78125 L 58.226562 43.371094 L 53.691406 47.957031 C 52.988281 48.667969 52.996094 49.8125 53.703125 50.511719 Z M 53.703125 50.511719 " fill-opacity="1" fill-rule="nonzero"/><path fill="#bbe4e4" d="M 95.515625 37.367188 L 118.683594 37.367188 C 119.683594 37.367188 120.488281 36.558594 120.488281 35.5625 C 120.488281 34.5625 119.683594 33.753906 118.683594 33.753906 L 95.515625 33.753906 C 94.519531 33.753906 93.710938 34.5625 93.710938 35.5625 C 93.710938 36.558594 94.519531 37.367188 95.515625 37.367188 Z M 95.515625 37.367188 " fill-opacity="1" fill-rule="nonzero"/><path fill="#bbe4e4" d="M 95.515625 49.082031 L 118.683594 49.082031 C 119.683594 49.082031 120.488281 48.273438 120.488281 47.277344 C 120.488281 46.277344 119.683594 45.46875 118.683594 45.46875 L 95.515625 45.46875 C 94.519531 45.46875 93.710938 46.277344 93.710938 47.277344 C 93.710938 48.273438 94.519531 49.082031 95.515625 49.082031 Z M 95.515625 49.082031 " fill-opacity="1" fill-rule="nonzero"/><path fill="#bbe4e4" d="M 30 76.5625 C 30 77.5625 30.808594 78.367188 31.804688 78.367188 L 87.792969 78.367188 C 88.792969 78.367188 89.597656 77.5625 89.597656 76.5625 C 89.597656 75.5625 88.792969 74.757812 87.792969 74.757812 L 31.804688 74.757812 C 30.808594 74.757812 30 75.5625 30 76.5625 Z M 30 76.5625 " fill-opacity="1" fill-rule="nonzero"/><path fill="#bbe4e4" d="M 87.792969 88.421875 L 43.390625 88.421875 C 42.390625 88.421875 41.585938 89.230469 41.585938 90.230469 C 41.585938 91.226562 42.390625 92.035156 43.390625 92.035156 L 87.792969 92.035156 C 88.792969 92.035156 89.597656 91.226562 89.597656 90.230469 C 89.597656 89.230469 88.792969 88.421875 87.792969 88.421875 Z M 87.792969 88.421875 " fill-opacity="1" fill-rule="nonzero"/><path fill="#bbe4e4" d="M 101.308594 109.902344 L 31.804688 109.902344 C 30.808594 109.902344 30 110.710938 30 111.707031 C 30 112.707031 30.808594 113.515625 31.804688 113.515625 L 101.308594 113.515625 C 102.304688 113.515625 103.113281 112.707031 103.113281 111.707031 C 103.113281 110.710938 102.304688 109.902344 101.308594 109.902344 Z M 101.308594 109.902344 " fill-opacity="1" fill-rule="nonzero"/><path fill="#bbe4e4" d="M 201.699219 100.136719 L 172.738281 100.136719 C 171.742188 100.136719 170.933594 100.945312 170.933594 101.945312 C 170.933594 102.941406 171.742188 103.75 172.738281 103.75 L 201.695312 103.75 C 202.695312 103.75 203.503906 102.941406 203.503906 101.945312 C 203.503906 100.945312 202.695312 100.136719 201.699219 100.136719 Z M 201.699219 100.136719 " fill-opacity="1" fill-rule="nonzero"/><path fill="#bbe4e4" d="M 201.699219 111.855469 L 172.738281 111.855469 C 171.742188 111.855469 170.933594 112.660156 170.933594 113.660156 C 170.933594 114.660156 171.742188 115.464844 172.738281 115.464844 L 201.695312 115.464844 C 202.695312 115.464844 203.503906 114.660156 203.503906 113.660156 C 203.503906 112.660156 202.695312 111.855469 201.699219 111.855469 Z M 201.699219 111.855469 " fill-opacity="1" fill-rule="nonzero"/><path fill="#bbe4e4" d="M 178.269531 79.203125 C 178.300781 79.132812 178.324219 79.058594 178.34375 78.984375 L 179.5625 74.464844 L 195.90625 74.464844 C 196.90625 74.464844 197.714844 73.65625 197.714844 72.65625 C 197.714844 71.660156 196.90625 70.851562 195.90625 70.851562 L 180.539062 70.851562 L 184.140625 57.507812 C 184.398438 56.546875 183.828125 55.554688 182.867188 55.292969 C 181.902344 55.03125 180.910156 55.605469 180.648438 56.566406 L 176.796875 70.851562 L 163.238281 70.851562 L 155.121094 54.445312 C 154.277344 52.226562 152.992188 50.273438 151.378906 48.71875 L 151.378906 25.800781 C 151.378906 24.800781 150.570312 23.992188 149.570312 23.992188 C 148.574219 23.992188 147.765625 24.800781 147.765625 25.800781 L 147.765625 46.207031 C 144.9375 44.839844 141.878906 44.601562 139.277344 45.589844 C 133.898438 47.632812 132.496094 54.019531 132.375 54.652344 L 128.371094 70.855469 L 103.238281 70.855469 C 102.238281 70.855469 101.433594 71.660156 101.433594 72.660156 C 101.433594 73.660156 102.238281 74.464844 103.238281 74.464844 L 127.480469 74.464844 L 125.074219 84.195312 C 124.644531 85.933594 123.855469 87.367188 122.796875 88.347656 C 121.167969 89.859375 119.035156 90.605469 116.933594 90.386719 C 114.226562 90.113281 111.835938 88.285156 110.691406 85.613281 C 110.296875 84.695312 109.230469 84.269531 108.320312 84.667969 C 107.402344 85.0625 106.976562 86.125 107.371094 87.039062 C 109.035156 90.914062 112.558594 93.574219 116.570312 93.980469 C 116.929688 94.019531 117.289062 94.035156 117.648438 94.035156 C 120.410156 94.035156 123.132812 92.957031 125.253906 91 C 126.832031 89.535156 127.984375 87.484375 128.582031 85.0625 L 131.199219 74.464844 L 147.769531 74.464844 L 147.769531 119.519531 C 147.769531 120.519531 148.578125 121.324219 149.574219 121.324219 C 150.574219 121.324219 151.382812 120.519531 151.382812 119.519531 L 151.382812 74.464844 L 161.003906 74.464844 L 163.351562 79.203125 C 164.605469 82.253906 167.535156 84.226562 170.8125 84.226562 C 174.089844 84.226562 177.015625 82.253906 178.269531 79.203125 Z M 132.089844 70.851562 L 135.898438 55.4375 C 135.941406 55.226562 136.941406 50.339844 140.5625 48.964844 C 142.34375 48.289062 144.550781 48.539062 146.605469 49.648438 C 147.015625 49.871094 147.386719 50.15625 147.765625 50.433594 L 147.765625 70.851562 Z M 151.378906 70.851562 L 151.378906 54.96875 C 151.523438 55.277344 151.6875 55.558594 151.8125 55.886719 L 159.214844 70.851562 Z M 170.808594 80.613281 C 169 80.613281 167.382812 79.519531 166.636719 77.714844 L 165.027344 74.464844 L 175.824219 74.464844 L 174.886719 77.925781 C 174.167969 79.5625 172.582031 80.613281 170.808594 80.613281 Z M 170.808594 80.613281 " fill-opacity="1" fill-rule="nonzero"/></g></g></g><g fill="#f7f7f7" fill-opacity="1"><g transform="translate(563.116431, 189.221082)"><g><path d="M 26 0 L 9.78125 0 L 9.78125 -77.75 L 54.359375 -77.75 L 54.359375 -64.25 L 26 -64.25 L 26 -44.203125 L 52.390625 -44.203125 L 52.390625 -30.734375 L 26 -30.734375 Z M 26 0 "/></g></g></g><g fill="#f7f7f7" fill-opacity="1"><g transform="translate(622.897703, 189.221082)"><g><path d="M 7.8125 -74.828125 C 7.8125 -80.109375 10.753906 -82.75 16.640625 -82.75 C 22.523438 -82.75 25.46875 -80.109375 25.46875 -74.828125 C 25.46875 -72.304688 24.734375 -70.347656 23.265625 -68.953125 C 21.796875 -67.554688 19.585938 -66.859375 16.640625 -66.859375 C 10.753906 -66.859375 7.8125 -69.515625 7.8125 -74.828125 Z M 24.734375 0 L 8.515625 0 L 8.515625 -59.453125 L 24.734375 -59.453125 Z M 24.734375 0 "/></g></g></g><g fill="#f7f7f7" fill-opacity="1"><g transform="translate(656.139075, 189.221082)"><g><path d="M 50 -17.65625 C 50 -11.5625 47.878906 -6.914062 43.640625 -3.71875 C 39.398438 -0.53125 33.0625 1.0625 24.625 1.0625 C 20.300781 1.0625 16.613281 0.769531 13.5625 0.1875 C 10.507812 -0.394531 7.65625 -1.253906 5 -2.390625 L 5 -15.796875 C 8.007812 -14.378906 11.398438 -13.191406 15.171875 -12.234375 C 18.953125 -11.273438 22.28125 -10.796875 25.15625 -10.796875 C 31.039062 -10.796875 33.984375 -12.5 33.984375 -15.90625 C 33.984375 -17.175781 33.59375 -18.207031 32.8125 -19 C 32.03125 -19.800781 30.679688 -20.707031 28.765625 -21.71875 C 26.859375 -22.726562 24.304688 -23.910156 21.109375 -25.265625 C 16.535156 -27.179688 13.175781 -28.953125 11.03125 -30.578125 C 8.882812 -32.210938 7.320312 -34.082031 6.34375 -36.1875 C 5.375 -38.300781 4.890625 -40.898438 4.890625 -43.984375 C 4.890625 -49.265625 6.9375 -53.347656 11.03125 -56.234375 C 15.125 -59.128906 20.929688 -60.578125 28.453125 -60.578125 C 35.617188 -60.578125 42.585938 -59.015625 49.359375 -55.890625 L 44.46875 -44.203125 C 41.488281 -45.472656 38.703125 -46.515625 36.109375 -47.328125 C 33.523438 -48.148438 30.882812 -48.5625 28.1875 -48.5625 C 23.40625 -48.5625 21.015625 -47.265625 21.015625 -44.671875 C 21.015625 -43.222656 21.785156 -41.960938 23.328125 -40.890625 C 24.867188 -39.828125 28.242188 -38.253906 33.453125 -36.171875 C 38.097656 -34.285156 41.5 -32.523438 43.65625 -30.890625 C 45.820312 -29.265625 47.421875 -27.390625 48.453125 -25.265625 C 49.484375 -23.140625 50 -20.601562 50 -17.65625 Z M 50 -17.65625 "/></g></g></g><g fill="#f7f7f7" fill-opacity="1"><g transform="translate(710.282613, 189.221082)"><g><path d="M 7.8125 -74.828125 C 7.8125 -80.109375 10.753906 -82.75 16.640625 -82.75 C 22.523438 -82.75 25.46875 -80.109375 25.46875 -74.828125 C 25.46875 -72.304688 24.734375 -70.347656 23.265625 -68.953125 C 21.796875 -67.554688 19.585938 -66.859375 16.640625 -66.859375 C 10.753906 -66.859375 7.8125 -69.515625 7.8125 -74.828125 Z M 24.734375 0 L 8.515625 0 L 8.515625 -59.453125 L 24.734375 -59.453125 Z M 24.734375 0 "/></g></g></g><g fill="#f7f7f7" fill-opacity="1"><g transform="translate(743.523985, 189.221082)"><g><path d="M 24.09375 -32.34375 L 31.171875 -41.375 L 47.8125 -59.453125 L 66.109375 -59.453125 L 42.5 -33.671875 L 67.546875 0 L 48.828125 0 L 31.703125 -24.09375 L 24.734375 -18.515625 L 24.734375 0 L 8.515625 0 L 8.515625 -82.75 L 24.734375 -82.75 L 24.734375 -45.84375 L 23.875 -32.34375 Z M 24.09375 -32.34375 "/></g></g></g><g fill="#f7f7f7" fill-opacity="1"><g transform="translate(811.070441, 189.221082)"><g><path d="M 46.265625 0 L 43.125 -8.078125 L 42.703125 -8.078125 C 39.972656 -4.640625 37.160156 -2.253906 34.265625 -0.921875 C 31.378906 0.398438 27.613281 1.0625 22.96875 1.0625 C 17.257812 1.0625 12.765625 -0.566406 9.484375 -3.828125 C 6.210938 -7.085938 4.578125 -11.734375 4.578125 -17.765625 C 4.578125 -24.078125 6.78125 -28.726562 11.1875 -31.71875 C 15.601562 -34.71875 22.265625 -36.378906 31.171875 -36.703125 L 41.484375 -37.015625 L 41.484375 -39.625 C 41.484375 -45.644531 38.398438 -48.65625 32.234375 -48.65625 C 27.484375 -48.65625 21.898438 -47.222656 15.484375 -44.359375 L 10.109375 -55.3125 C 16.953125 -58.894531 24.539062 -60.6875 32.875 -60.6875 C 40.84375 -60.6875 46.953125 -58.945312 51.203125 -55.46875 C 55.460938 -52 57.59375 -46.71875 57.59375 -39.625 L 57.59375 0 Z M 41.484375 -27.546875 L 35.203125 -27.34375 C 30.492188 -27.195312 26.984375 -26.34375 24.671875 -24.78125 C 22.367188 -23.21875 21.21875 -20.84375 21.21875 -17.65625 C 21.21875 -13.082031 23.84375 -10.796875 29.09375 -10.796875 C 32.851562 -10.796875 35.859375 -11.875 38.109375 -14.03125 C 40.359375 -16.195312 41.484375 -19.070312 41.484375 -22.65625 Z M 41.484375 -27.546875 "/></g></g></g></svg>