<svg xmlns="http://www.w3.org/2000/svg" xmlns:xlink="http://www.w3.org/1999/xlink" width="1920" zoomAndPan="magnify" viewBox="0 0 1440 384.749986" height="513" preserveAspectRatio="xMidYMid meet" version="1.0"><defs><filter x="0%" y="0%" width="100%" height="100%" id="fec4d7a824"><feColorMatrix values="0 0 0 0 1 0 0 0 0 1 0 0 0 0 1 0 0 0 1 0" color-interpolation-filters="sRGB"/></filter><g/><clipPath id="276296c42e"><path d="M 0.46875 0 L 1439.53125 0 L 1439.53125 384.5 L 0.46875 384.5 Z M 0.46875 0 " clip-rule="nonzero"/></clipPath><clipPath id="c67f51ea38"><path d="M 0.46875 0 L 1439.53125 0 L 1439.53125 384.5 L 0.46875 384.5 Z M 0.46875 0 " clip-rule="nonzero"/></clipPath><mask id="876c02847f"><g filter="url(#fec4d7a824)"><rect x="-316.8" width="2073.6" fill="#000000" y="-84.644997" height="554.039979" fill-opacity="0.75"/></g></mask><clipPath id="e80ad51cc8"><path d="M 0.472656 0 L 1439.53125 0 L 1439.53125 384.5 L 0.472656 384.5 Z M 0.472656 0 " clip-rule="nonzero"/></clipPath><clipPath id="59dede0d3e"><path d="M 14.714844 -0.00390625 L 1425.296875 -0.00390625 C 1429.074219 -0.00390625 1432.695312 1.496094 1435.367188 4.164062 C 1438.039062 6.835938 1439.539062 10.457031 1439.539062 14.234375 L 1439.539062 370.421875 C 1439.539062 374.199219 1438.039062 377.820312 1435.367188 380.492188 C 1432.695312 383.164062 1429.074219 384.664062 1425.296875 384.664062 L 14.714844 384.664062 C 10.9375 384.664062 7.316406 383.164062 4.644531 380.492188 C 1.972656 377.820312 0.472656 374.199219 0.472656 370.421875 L 0.472656 14.234375 C 0.472656 10.457031 1.972656 6.835938 4.644531 4.164062 C 7.316406 1.496094 10.9375 -0.00390625 14.714844 -0.00390625 Z M 14.714844 -0.00390625 " clip-rule="nonzero"/></clipPath><clipPath id="87fed9e03f"><path d="M 0.472656 0 L 1439.53125 0 L 1439.53125 384.5 L 0.472656 384.5 Z M 0.472656 0 " clip-rule="nonzero"/></clipPath><clipPath id="e4b82ecc3b"><path d="M 14.714844 -0.00390625 L 1425.296875 -0.00390625 C 1429.074219 -0.00390625 1432.695312 1.496094 1435.367188 4.164062 C 1438.039062 6.835938 1439.539062 10.457031 1439.539062 14.234375 L 1439.539062 370.421875 C 1439.539062 374.199219 1438.039062 377.820312 1435.367188 380.492188 C 1432.695312 383.164062 1429.074219 384.664062 1425.296875 384.664062 L 14.714844 384.664062 C 10.9375 384.664062 7.316406 383.164062 4.644531 380.492188 C 1.972656 377.820312 0.472656 374.199219 0.472656 370.421875 L 0.472656 14.234375 C 0.472656 10.457031 1.972656 6.835938 4.644531 4.164062 C 7.316406 1.496094 10.9375 -0.00390625 14.714844 -0.00390625 Z M 14.714844 -0.00390625 " clip-rule="nonzero"/></clipPath><clipPath id="84e19cdff8"><rect x="0" width="1440" y="0" height="385"/></clipPath><clipPath id="90abf911ad"><path d="M 0.472656 0 L 1439.3125 0 L 1439.3125 384.5 L 0.472656 384.5 Z M 0.472656 0 " clip-rule="nonzero"/></clipPath><clipPath id="87885b18b6"><path d="M 14.714844 -0.00390625 L 1425.285156 -0.00390625 C 1429.058594 -0.00390625 1432.683594 1.496094 1435.351562 4.167969 C 1438.023438 6.839844 1439.523438 10.460938 1439.523438 14.238281 L 1439.523438 370.417969 C 1439.523438 374.195312 1438.023438 377.820312 1435.351562 380.488281 C 1432.683594 383.160156 1429.058594 384.660156 1425.285156 384.660156 L 14.714844 384.660156 C 10.9375 384.660156 7.316406 383.160156 4.644531 380.488281 C 1.972656 377.820312 0.472656 374.195312 0.472656 370.417969 L 0.472656 14.238281 C 0.472656 10.460938 1.972656 6.839844 4.644531 4.167969 C 7.316406 1.496094 10.9375 -0.00390625 14.714844 -0.00390625 Z M 14.714844 -0.00390625 " clip-rule="nonzero"/></clipPath><clipPath id="9360cdc1b3"><rect x="0" width="1440" y="0" height="385"/></clipPath><clipPath id="496dd80137"><path d="M 0.46875 271.777344 L 1439.53125 271.777344 L 1439.53125 384.5 L 0.46875 384.5 Z M 0.46875 271.777344 " clip-rule="nonzero"/></clipPath><clipPath id="75e26fe889"><path d="M 0.46875 0.777344 L 1439.53125 0.777344 L 1439.53125 113.5 L 0.46875 113.5 Z M 0.46875 0.777344 " clip-rule="nonzero"/></clipPath><clipPath id="20e35b9d65"><rect x="0" width="1440" y="0" height="114"/></clipPath><clipPath id="c150aeb16f"><path d="M 0.578125 271.796875 L 1439.304688 271.796875 L 1439.304688 384.5 L 0.578125 384.5 Z M 0.578125 271.796875 " clip-rule="nonzero"/></clipPath><mask id="6a33ee1535"><g filter="url(#fec4d7a824)"><rect x="-316.8" width="2073.6" fill="#000000" y="-84.644997" height="554.039979" fill-opacity="0.04"/></g></mask><clipPath id="ba063d0434"><path d="M 0.308594 0.523438 L 77.308594 0.523438 L 77.308594 279.835938 L 0.308594 279.835938 Z M 0.308594 0.523438 " clip-rule="nonzero"/></clipPath><clipPath id="78f735d434"><rect x="0" width="78" y="0" height="280"/></clipPath><mask id="06422251bf"><g filter="url(#fec4d7a824)"><rect x="-316.8" width="2073.6" fill="#000000" y="-84.644997" height="554.039979" fill-opacity="0.4"/></g></mask><clipPath id="cf3a2a6228"><path d="M 0.851562 1.105469 L 207.695312 1.105469 L 207.695312 123.402344 L 0.851562 123.402344 Z M 0.851562 1.105469 " clip-rule="nonzero"/></clipPath><clipPath id="2517bcfaa6"><path d="M 0.945312 0.105469 L 207.695312 0.105469 L 207.695312 122.402344 L 0.945312 122.402344 Z M 0.945312 0.105469 " clip-rule="nonzero"/></clipPath><clipPath id="735ddef1dc"><rect x="0" width="208" y="0" height="123"/></clipPath><clipPath id="bf52631d15"><rect x="0" width="209" y="0" height="125"/></clipPath><clipPath id="df57616df4"><rect x="0" width="620" y="0" height="141"/></clipPath><clipPath id="b8a37ee149"><path d="M 869 82 L 1323 82 L 1323 384.5 L 869 384.5 Z M 869 82 " clip-rule="nonzero"/></clipPath><mask id="f8dfe3f4d9"><g filter="url(#fec4d7a824)"><rect x="-316.8" width="2073.6" fill="#000000" y="-84.644997" height="554.039979" fill-opacity="0.35"/></g></mask><clipPath id="5105b42c29"><path d="M 11 57 L 440 57 L 440 196 L 11 196 Z M 11 57 " clip-rule="nonzero"/></clipPath><clipPath id="6129053dce"><path d="M 337.808594 394.800781 L 0.753906 196.546875 L 115.574219 1.339844 L 452.628906 199.59375 Z M 337.808594 394.800781 " clip-rule="nonzero"/></clipPath><clipPath id="c772002747"><path d="M 337.808594 394.800781 L 0.753906 196.546875 L 115.574219 1.339844 L 452.628906 199.59375 Z M 337.808594 394.800781 " clip-rule="nonzero"/></clipPath><clipPath id="3c1af6fe14"><path d="M 0.664062 53 L 453 53 L 453 200 L 0.664062 200 Z M 0.664062 53 " clip-rule="nonzero"/></clipPath><clipPath id="2e0ff51829"><path d="M 337.808594 394.800781 L 0.753906 196.546875 L 115.574219 1.339844 L 452.628906 199.59375 Z M 337.808594 394.800781 " clip-rule="nonzero"/></clipPath><clipPath id="e89085dec0"><path d="M 337.808594 394.800781 L 0.753906 196.546875 L 115.574219 1.339844 L 452.628906 199.59375 Z M 337.808594 394.800781 " clip-rule="nonzero"/></clipPath><clipPath id="af4e8083ec"><rect x="0" width="454" y="0" height="303"/></clipPath><mask id="8edcecdabe"><g filter="url(#fec4d7a824)"><rect x="-316.8" width="2073.6" fill="#000000" y="-84.644997" height="554.039979" fill-opacity="0.48"/></g></mask><clipPath id="6e68089f91"><path d="M 0.839844 1.046875 L 150.308594 1.046875 L 150.308594 106.734375 L 0.839844 106.734375 Z M 0.839844 1.046875 " clip-rule="nonzero"/></clipPath><clipPath id="2bc495ca8f"><rect x="0" width="151" y="0" height="108"/></clipPath><mask id="7d1d8cb9af"><g filter="url(#fec4d7a824)"><rect x="-316.8" width="2073.6" fill="#000000" y="-84.644997" height="554.039979" fill-opacity="0.43"/></g></mask><clipPath id="b699896337"><path d="M 159 89 L 186.148438 89 L 186.148438 113.582031 L 159 113.582031 Z M 159 89 " clip-rule="nonzero"/></clipPath><clipPath id="d497f08420"><path d="M 0.710938 57 L 144 57 L 144 113 L 0.710938 113 Z M 0.710938 57 " clip-rule="nonzero"/></clipPath><clipPath id="0453131245"><path d="M 39 0.347656 L 107 0.347656 L 107 63 L 39 63 Z M 39 0.347656 " clip-rule="nonzero"/></clipPath><clipPath id="8a6e319d74"><path d="M 127 0.347656 L 174 0.347656 L 174 75 L 127 75 Z M 127 0.347656 " clip-rule="nonzero"/></clipPath><clipPath id="1032daf3dc"><rect x="0" width="187" y="0" height="115"/></clipPath><clipPath id="807e4cacfb"><path d="M 1124.636719 125 L 1135 125 L 1135 136 L 1124.636719 136 Z M 1124.636719 125 " clip-rule="nonzero"/></clipPath><clipPath id="b48615819b"><path d="M 1258 88 L 1268.066406 88 L 1268.066406 99 L 1258 99 Z M 1258 88 " clip-rule="nonzero"/></clipPath><clipPath id="f09f424df5"><rect x="0" width="1440" y="0" height="385"/></clipPath></defs><g clip-path="url(#276296c42e)"><g><g clip-path="url(#f09f424df5)"><g clip-path="url(#c67f51ea38)"><g mask="url(#876c02847f)"><g><g clip-path="url(#9360cdc1b3)"><g clip-path="url(#e80ad51cc8)"><g clip-path="url(#59dede0d3e)"><g><g clip-path="url(#84e19cdff8)"><g clip-path="url(#87fed9e03f)"><g clip-path="url(#e4b82ecc3b)"><path fill="#00caff" d="M 0.472656 384.664062 L 0.472656 -0.00390625 L 1439.972656 -0.00390625 L 1439.972656 384.664062 Z M 0.472656 384.664062 " fill-opacity="1" fill-rule="nonzero"/></g></g></g></g></g></g><g clip-path="url(#90abf911ad)"><g clip-path="url(#87885b18b6)"><path stroke-linecap="butt" transform="matrix(0, -1.509799, 1.509799, 0, 0.473319, 384.660398)" fill="none" stroke-linejoin="miter" d="M 254.778514 9.43273 L 254.778514 943.709719 C 254.778514 946.209017 253.785004 948.609999 252.015315 950.377101 C 250.245625 952.146791 247.84723 953.1403 245.345345 953.1403 L 9.433329 953.1403 C 6.931444 953.1403 4.530462 952.146791 2.763359 950.377101 C 0.99367 948.609999 0.000160238 946.209017 0.000160238 943.709719 L 0.000160238 9.43273 C 0.000160238 6.930845 0.99367 4.53245 2.763359 2.76276 C 4.530462 0.993071 6.931444 -0.000438848 9.433329 -0.000438848 L 245.345345 -0.000438848 C 247.84723 -0.000438848 250.245625 0.993071 252.015315 2.76276 C 253.785004 4.53245 254.778514 6.930845 254.778514 9.43273 Z M 254.778514 9.43273 " stroke="#000000" stroke-width="4.964323" stroke-opacity="1" stroke-miterlimit="4"/></g></g></g></g></g></g><g clip-path="url(#496dd80137)"><g transform="matrix(1, 0, 0, 1, 0, 271)"><g clip-path="url(#20e35b9d65)"><g clip-path="url(#75e26fe889)"><path fill="#f7f7f7" d="M 0.464844 113.652344 L 0.464844 0.777344 L 1439.636719 0.777344 L 1439.636719 113.652344 Z M 0.464844 113.652344 " fill-opacity="1" fill-rule="nonzero"/></g></g></g></g><g clip-path="url(#c150aeb16f)"><path stroke-linecap="butt" transform="matrix(0, -1.509799, 1.509799, 0, 0.576655, 384.654162)" fill="none" stroke-linejoin="miter" d="M 0.00120445 0.00097333 L 74.749883 0.00097333 L 74.749883 952.991651 L 0.00120445 952.991651 Z M 0.00120445 0.00097333 " stroke="#000000" stroke-width="4.964323" stroke-opacity="1" stroke-miterlimit="4"/></g><g mask="url(#6a33ee1535)"><g transform="matrix(1, 0, 0, 1, 1351, 0)"><g clip-path="url(#78f735d434)"><g clip-path="url(#ba063d0434)"><path fill="#231f20" d="M 0.375 -0.0234375 L 77.550781 -0.0234375 L 77.550781 279.835938 Z M 0.375 -0.0234375 " fill-opacity="1" fill-rule="nonzero"/></g></g></g></g><g mask="url(#06422251bf)"><g transform="matrix(1, 0, 0, 1, 4, 147)"><g clip-path="url(#bf52631d15)"><g clip-path="url(#cf3a2a6228)"><g transform="matrix(1, 0, 0, 1, -0.000000000000000888, 1)"><g clip-path="url(#735ddef1dc)"><g clip-path="url(#2517bcfaa6)"><path fill="#02bbc6" d="M 0.847656 0.152344 L 0.847656 123.105469 L 207.789062 123.105469 Z M 0.847656 0.152344 " fill-opacity="1" fill-rule="nonzero"/></g></g></g></g></g></g></g><g transform="matrix(1, 0, 0, 1, 389, 31)"><g clip-path="url(#df57616df4)"><g fill="#f7f7f7" fill-opacity="1"><g transform="translate(1.315108, 110.406439)"><g><path d="M 9.25 0 L 9.25 -73.5 L 24.828125 -73.5 L 24.828125 0 Z M 9.25 0 "/></g></g></g><g fill="#f7f7f7" fill-opacity="1"><g transform="translate(35.398719, 110.406439)"><g><path d="M 59.921875 0 L 44.59375 0 L 44.59375 -32.828125 C 44.59375 -36.878906 43.867188 -39.914062 42.421875 -41.9375 C 40.984375 -43.96875 38.691406 -44.984375 35.546875 -44.984375 C 31.253906 -44.984375 28.148438 -43.550781 26.234375 -40.6875 C 24.328125 -37.820312 23.375 -33.070312 23.375 -26.4375 L 23.375 0 L 8.046875 0 L 8.046875 -56.203125 L 19.75 -56.203125 L 21.8125 -49.015625 L 22.671875 -49.015625 C 24.378906 -51.722656 26.734375 -53.769531 29.734375 -55.15625 C 32.734375 -56.550781 36.144531 -57.25 39.96875 -57.25 C 46.5 -57.25 51.457031 -55.484375 54.84375 -51.953125 C 58.226562 -48.421875 59.921875 -43.316406 59.921875 -36.640625 Z M 59.921875 0 "/></g></g></g><g fill="#f7f7f7" fill-opacity="1"><g transform="translate(103.063234, 110.406439)"><g><path d="M 39.109375 -44.6875 L 25.84375 -44.6875 L 25.84375 0 L 10.5 0 L 10.5 -44.6875 L 2.0625 -44.6875 L 2.0625 -52.078125 L 10.5 -56.203125 L 10.5 -60.328125 C 10.5 -66.722656 12.070312 -71.394531 15.21875 -74.34375 C 18.375 -77.289062 23.421875 -78.765625 30.359375 -78.765625 C 35.660156 -78.765625 40.367188 -77.976562 44.484375 -76.40625 L 40.5625 -65.15625 C 37.476562 -66.125 34.628906 -66.609375 32.015625 -66.609375 C 29.835938 -66.609375 28.265625 -65.960938 27.296875 -64.671875 C 26.328125 -63.378906 25.84375 -61.726562 25.84375 -59.71875 L 25.84375 -56.203125 L 39.109375 -56.203125 Z M 39.109375 -44.6875 "/></g></g></g><g fill="#f7f7f7" fill-opacity="1"><g transform="translate(142.927988, 110.406439)"><g><path d="M 20.265625 -28.203125 C 20.265625 -22.640625 21.175781 -18.429688 23 -15.578125 C 24.820312 -12.734375 27.796875 -11.3125 31.921875 -11.3125 C 36.003906 -11.3125 38.941406 -12.726562 40.734375 -15.5625 C 42.535156 -18.394531 43.4375 -22.609375 43.4375 -28.203125 C 43.4375 -33.765625 42.53125 -37.9375 40.71875 -40.71875 C 38.90625 -43.5 35.941406 -44.890625 31.828125 -44.890625 C 27.734375 -44.890625 24.78125 -43.503906 22.96875 -40.734375 C 21.164062 -37.972656 20.265625 -33.796875 20.265625 -28.203125 Z M 59.125 -28.203125 C 59.125 -19.054688 56.707031 -11.898438 51.875 -6.734375 C 47.050781 -1.578125 40.332031 1 31.71875 1 C 26.320312 1 21.5625 -0.175781 17.4375 -2.53125 C 13.320312 -4.894531 10.15625 -8.289062 7.9375 -12.71875 C 5.726562 -17.144531 4.625 -22.304688 4.625 -28.203125 C 4.625 -37.378906 7.019531 -44.515625 11.8125 -49.609375 C 16.601562 -54.703125 23.335938 -57.25 32.015625 -57.25 C 37.410156 -57.25 42.171875 -56.078125 46.296875 -53.734375 C 50.421875 -51.390625 53.585938 -48.019531 55.796875 -43.625 C 58.015625 -39.238281 59.125 -34.097656 59.125 -28.203125 Z M 59.125 -28.203125 "/></g></g></g><g fill="#f7f7f7" fill-opacity="1"><g transform="translate(206.671378, 110.406439)"><g><path d="M 39.40625 -57.25 C 41.488281 -57.25 43.21875 -57.101562 44.59375 -56.8125 L 43.4375 -42.421875 C 42.195312 -42.765625 40.6875 -42.9375 38.90625 -42.9375 C 34.007812 -42.9375 30.195312 -41.675781 27.46875 -39.15625 C 24.738281 -36.644531 23.375 -33.128906 23.375 -28.609375 L 23.375 0 L 8.046875 0 L 8.046875 -56.203125 L 19.65625 -56.203125 L 21.921875 -46.75 L 22.671875 -46.75 C 24.410156 -49.90625 26.765625 -52.441406 29.734375 -54.359375 C 32.703125 -56.285156 35.925781 -57.25 39.40625 -57.25 Z M 39.40625 -57.25 "/></g></g></g><g fill="#f7f7f7" fill-opacity="1"><g transform="translate(253.423247, 110.406439)"><g><path d="M 58.359375 0 L 43.03125 0 L 43.03125 -32.828125 C 43.03125 -36.878906 42.347656 -39.914062 40.984375 -41.9375 C 39.628906 -43.96875 37.492188 -44.984375 34.578125 -44.984375 C 30.660156 -44.984375 27.8125 -43.539062 26.03125 -40.65625 C 24.257812 -37.78125 23.375 -33.039062 23.375 -26.4375 L 23.375 0 L 8.046875 0 L 8.046875 -56.203125 L 19.75 -56.203125 L 21.8125 -49.015625 L 22.671875 -49.015625 C 24.179688 -51.597656 26.359375 -53.613281 29.203125 -55.0625 C 32.054688 -56.519531 35.328125 -57.25 39.015625 -57.25 C 47.421875 -57.25 53.113281 -54.503906 56.09375 -49.015625 L 57.453125 -49.015625 C 58.960938 -51.628906 61.179688 -53.65625 64.109375 -55.09375 C 67.046875 -56.53125 70.359375 -57.25 74.046875 -57.25 C 80.410156 -57.25 85.226562 -55.613281 88.5 -52.34375 C 91.769531 -49.082031 93.40625 -43.847656 93.40625 -36.640625 L 93.40625 0 L 78.015625 0 L 78.015625 -32.828125 C 78.015625 -36.878906 77.335938 -39.914062 75.984375 -41.9375 C 74.628906 -43.96875 72.492188 -44.984375 69.578125 -44.984375 C 65.816406 -44.984375 63.003906 -43.644531 61.140625 -40.96875 C 59.285156 -38.289062 58.359375 -34.035156 58.359375 -28.203125 Z M 58.359375 0 "/></g></g></g><g fill="#f7f7f7" fill-opacity="1"><g transform="translate(354.517838, 110.406439)"><g><path d="M 43.734375 0 L 40.765625 -7.640625 L 40.359375 -7.640625 C 37.785156 -4.390625 35.128906 -2.132812 32.390625 -0.875 C 29.660156 0.375 26.101562 1 21.71875 1 C 16.320312 1 12.070312 -0.539062 8.96875 -3.625 C 5.875 -6.707031 4.328125 -11.097656 4.328125 -16.796875 C 4.328125 -22.753906 6.410156 -27.148438 10.578125 -29.984375 C 14.753906 -32.816406 21.046875 -34.382812 29.453125 -34.6875 L 39.203125 -34.984375 L 39.203125 -37.453125 C 39.203125 -43.148438 36.289062 -46 30.46875 -46 C 25.976562 -46 20.695312 -44.640625 14.625 -41.921875 L 9.546875 -52.28125 C 16.015625 -55.664062 23.1875 -57.359375 31.0625 -57.359375 C 38.601562 -57.359375 44.382812 -55.710938 48.40625 -52.421875 C 52.425781 -49.140625 54.4375 -44.148438 54.4375 -37.453125 L 54.4375 0 Z M 39.203125 -26.046875 L 33.28125 -25.84375 C 28.820312 -25.707031 25.503906 -24.898438 23.328125 -23.421875 C 21.148438 -21.953125 20.0625 -19.707031 20.0625 -16.6875 C 20.0625 -12.363281 22.539062 -10.203125 27.5 -10.203125 C 31.050781 -10.203125 33.890625 -11.222656 36.015625 -13.265625 C 38.140625 -15.316406 39.203125 -18.035156 39.203125 -21.421875 Z M 39.203125 -26.046875 "/></g></g></g><g fill="#f7f7f7" fill-opacity="1"><g transform="translate(416.702846, 110.406439)"><g><path d="M 31.71875 -11.203125 C 34.394531 -11.203125 37.613281 -11.789062 41.375 -12.96875 L 41.375 -1.5625 C 37.550781 0.144531 32.859375 1 27.296875 1 C 21.160156 1 16.691406 -0.546875 13.890625 -3.640625 C 11.097656 -6.742188 9.703125 -11.394531 9.703125 -17.59375 L 9.703125 -44.6875 L 2.359375 -44.6875 L 2.359375 -51.171875 L 10.8125 -56.296875 L 15.234375 -68.171875 L 25.03125 -68.171875 L 25.03125 -56.203125 L 40.765625 -56.203125 L 40.765625 -44.6875 L 25.03125 -44.6875 L 25.03125 -17.59375 C 25.03125 -15.414062 25.640625 -13.804688 26.859375 -12.765625 C 28.085938 -11.722656 29.707031 -11.203125 31.71875 -11.203125 Z M 31.71875 -11.203125 "/></g></g></g><g fill="#f7f7f7" fill-opacity="1"><g transform="translate(461.393586, 110.406439)"><g><path d="M 7.390625 -70.734375 C 7.390625 -75.722656 10.171875 -78.21875 15.734375 -78.21875 C 21.296875 -78.21875 24.078125 -75.722656 24.078125 -70.734375 C 24.078125 -68.347656 23.378906 -66.492188 21.984375 -65.171875 C 20.597656 -63.847656 18.515625 -63.1875 15.734375 -63.1875 C 10.171875 -63.1875 7.390625 -65.703125 7.390625 -70.734375 Z M 23.375 0 L 8.046875 0 L 8.046875 -56.203125 L 23.375 -56.203125 Z M 23.375 0 "/></g></g></g><g fill="#f7f7f7" fill-opacity="1"><g transform="translate(492.812831, 110.406439)"><g><path d="M 22.765625 -30.5625 L 29.453125 -39.109375 L 45.1875 -56.203125 L 62.484375 -56.203125 L 40.171875 -31.828125 L 63.84375 0 L 46.140625 0 L 29.96875 -22.765625 L 23.375 -17.5 L 23.375 0 L 8.046875 0 L 8.046875 -78.21875 L 23.375 -78.21875 L 23.375 -43.328125 L 22.578125 -30.5625 Z M 22.765625 -30.5625 "/></g></g></g><g fill="#f7f7f7" fill-opacity="1"><g transform="translate(556.656789, 110.406439)"><g><path d="M 43.734375 0 L 40.765625 -7.640625 L 40.359375 -7.640625 C 37.785156 -4.390625 35.128906 -2.132812 32.390625 -0.875 C 29.660156 0.375 26.101562 1 21.71875 1 C 16.320312 1 12.070312 -0.539062 8.96875 -3.625 C 5.875 -6.707031 4.328125 -11.097656 4.328125 -16.796875 C 4.328125 -22.753906 6.410156 -27.148438 10.578125 -29.984375 C 14.753906 -32.816406 21.046875 -34.382812 29.453125 -34.6875 L 39.203125 -34.984375 L 39.203125 -37.453125 C 39.203125 -43.148438 36.289062 -46 30.46875 -46 C 25.976562 -46 20.695312 -44.640625 14.625 -41.921875 L 9.546875 -52.28125 C 16.015625 -55.664062 23.1875 -57.359375 31.0625 -57.359375 C 38.601562 -57.359375 44.382812 -55.710938 48.40625 -52.421875 C 52.425781 -49.140625 54.4375 -44.148438 54.4375 -37.453125 L 54.4375 0 Z M 39.203125 -26.046875 L 33.28125 -25.84375 C 28.820312 -25.707031 25.503906 -24.898438 23.328125 -23.421875 C 21.148438 -21.953125 20.0625 -19.707031 20.0625 -16.6875 C 20.0625 -12.363281 22.539062 -10.203125 27.5 -10.203125 C 31.050781 -10.203125 33.890625 -11.222656 36.015625 -13.265625 C 38.140625 -15.316406 39.203125 -18.035156 39.203125 -21.421875 Z M 39.203125 -26.046875 "/></g></g></g></g></g><g clip-path="url(#b8a37ee149)"><g mask="url(#f8dfe3f4d9)"><g transform="matrix(1, 0, 0, 1, 869, 82)"><g clip-path="url(#af4e8083ec)"><g clip-path="url(#5105b42c29)"><g clip-path="url(#6129053dce)"><g clip-path="url(#c772002747)"><path fill="#13aad1" d="M 439.449219 195.519531 L 11.980469 193.082031 L 204.800781 57.503906 Z M 439.449219 195.519531 " fill-opacity="1" fill-rule="nonzero"/></g></g></g><g clip-path="url(#3c1af6fe14)"><g clip-path="url(#2e0ff51829)"><g clip-path="url(#e89085dec0)"><path fill="#00caff" d="M 204.671875 53.253906 L 452.65625 199.117188 L 0.777344 196.558594 Z M 426.210938 191.816406 L 204.972656 61.683594 L 23.117188 189.570312 Z M 426.210938 191.816406 " fill-opacity="1" fill-rule="nonzero"/></g></g></g></g></g></g></g><g mask="url(#8edcecdabe)"><g transform="matrix(1, 0, 0, 1, 304, 168)"><g clip-path="url(#2bc495ca8f)"><g clip-path="url(#6e68089f91)"><path fill="#03bfe8" d="M 125.632812 94.671875 C 132.527344 94.671875 138.050781 89.089844 138.050781 82.195312 L 138.113281 13.554688 C 138.113281 6.660156 132.527344 1.078125 125.632812 1.078125 L 25.796875 1.078125 C 18.902344 1.078125 13.320312 6.660156 13.320312 13.554688 L 13.320312 82.195312 C 13.320312 89.089844 18.902344 94.671875 25.796875 94.671875 L 0.839844 94.671875 C 0.839844 101.566406 6.425781 107.152344 13.320312 107.152344 L 138.113281 107.152344 C 145.007812 107.152344 150.59375 101.566406 150.59375 94.671875 Z M 25.796875 13.554688 L 125.632812 13.554688 L 125.632812 82.195312 L 25.796875 82.195312 Z M 75.714844 100.914062 C 72.285156 100.914062 69.476562 98.105469 69.476562 94.671875 C 69.476562 91.242188 72.285156 88.433594 75.714844 88.433594 C 79.148438 88.433594 81.957031 91.242188 81.957031 94.671875 C 81.957031 98.105469 79.148438 100.914062 75.714844 100.914062 Z M 75.714844 100.914062 " fill-opacity="1" fill-rule="nonzero"/></g></g></g></g><g mask="url(#7d1d8cb9af)"><g transform="matrix(1, 0, 0, 1, 554, 161)"><g clip-path="url(#1032daf3dc)"><g clip-path="url(#b699896337)"><path fill="#d8d5ff" d="M 185.246094 89.539062 C 180.992188 101.140625 176.847656 99.117188 173.179688 99.167969 C 167.058594 99.246094 162.242188 94.398438 160.398438 89.539062 C 160.265625 90.71875 160.117188 91.855469 159.921875 92.84375 C 157.847656 103.0625 165.648438 114.023438 172.816406 114.195312 C 179.988281 114.023438 187.796875 103.0625 185.722656 92.84375 C 185.519531 91.855469 185.378906 90.726562 185.246094 89.539062 " fill-opacity="1" fill-rule="nonzero"/></g><path fill="#03bfe8" d="M 185.246094 89.539062 C 184.792969 85.480469 184.519531 80.707031 182.875 78.085938 C 180.515625 74.335938 176.589844 73.828125 172.816406 73.816406 C 169.050781 73.828125 165.117188 74.335938 162.769531 78.085938 C 161.121094 80.707031 160.851562 85.480469 160.398438 89.539062 C 162.21875 94.335938 164.433594 105.183594 172.9375 105.183594 C 180.160156 105.183594 183.332031 96.675781 185.246094 89.539062 " fill-opacity="1" fill-rule="nonzero"/><path fill="#d8d5ff" d="M 175.648438 84.683594 C 175.648438 89.433594 174.378906 93.289062 172.816406 93.289062 C 171.253906 93.289062 169.988281 89.433594 169.988281 84.683594 C 169.988281 79.933594 171.253906 76.082031 172.816406 76.082031 C 174.378906 76.082031 175.648438 79.933594 175.648438 84.683594 " fill-opacity="1" fill-rule="nonzero"/><path fill="#02bbc6" d="M 174.132812 87.25 C 174.132812 87.972656 173.542969 88.554688 172.816406 88.554688 C 172.09375 88.554688 171.507812 87.972656 171.507812 87.25 L 171.507812 82.121094 C 171.507812 81.398438 172.09375 80.816406 172.816406 80.816406 C 173.542969 80.816406 174.132812 81.398438 174.132812 82.121094 L 174.132812 87.25 " fill-opacity="1" fill-rule="nonzero"/><g clip-path="url(#d497f08420)"><path fill="#03bfe8" d="M 0.742188 112.570312 L 143.421875 112.570312 L 143.421875 57.710938 L 0.742188 57.710938 L 0.742188 112.570312 " fill-opacity="1" fill-rule="nonzero"/></g><path fill="#02bbc6" d="M 11.90625 72.519531 L 5.710938 72.519531 L 5.710938 66.332031 L 11.90625 66.332031 L 11.90625 72.519531 " fill-opacity="1" fill-rule="nonzero"/><path fill="#02bbc6" d="M 11.90625 80.269531 L 5.710938 80.269531 L 5.710938 74.074219 L 11.90625 74.074219 L 11.90625 80.269531 " fill-opacity="1" fill-rule="nonzero"/><path fill="#02bbc6" d="M 14.066406 88.019531 L 5.710938 88.019531 L 5.710938 81.820312 L 14.066406 81.820312 L 14.066406 88.019531 " fill-opacity="1" fill-rule="nonzero"/><path fill="#02bbc6" d="M 16.574219 95.984375 L 5.710938 95.984375 L 5.710938 89.789062 L 16.574219 89.789062 L 16.574219 95.984375 " fill-opacity="1" fill-rule="nonzero"/><path fill="#02bbc6" d="M 14.675781 103.949219 L 5.710938 103.949219 L 5.710938 97.753906 L 14.675781 97.753906 L 14.675781 103.949219 " fill-opacity="1" fill-rule="nonzero"/><path fill="#02bbc6" d="M 21.820312 88.019531 L 15.621094 88.019531 L 15.621094 81.820312 L 21.820312 81.820312 L 21.820312 88.019531 " fill-opacity="1" fill-rule="nonzero"/><path fill="#02bbc6" d="M 24.96875 95.984375 L 18.769531 95.984375 L 18.769531 89.789062 L 24.96875 89.789062 L 24.96875 95.984375 " fill-opacity="1" fill-rule="nonzero"/><path fill="#02bbc6" d="M 23.304688 103.949219 L 17.109375 103.949219 L 17.109375 97.753906 L 23.304688 97.753906 L 23.304688 103.949219 " fill-opacity="1" fill-rule="nonzero"/><path fill="#02bbc6" d="M 31.171875 103.949219 L 24.96875 103.949219 L 24.96875 97.753906 L 31.171875 97.753906 L 31.171875 103.949219 " fill-opacity="1" fill-rule="nonzero"/><path fill="#02bbc6" d="M 66.558594 103.949219 L 32.828125 103.949219 L 32.828125 97.753906 L 66.558594 97.753906 L 66.558594 103.949219 " fill-opacity="1" fill-rule="nonzero"/><path fill="#02bbc6" d="M 32.933594 95.984375 L 26.734375 95.984375 L 26.734375 89.789062 L 32.933594 89.789062 L 32.933594 95.984375 " fill-opacity="1" fill-rule="nonzero"/><path fill="#02bbc6" d="M 40.894531 95.984375 L 34.703125 95.984375 L 34.703125 89.789062 L 40.894531 89.789062 L 40.894531 95.984375 " fill-opacity="1" fill-rule="nonzero"/><path fill="#02bbc6" d="M 48.863281 95.984375 L 42.664062 95.984375 L 42.664062 89.789062 L 48.863281 89.789062 L 48.863281 95.984375 " fill-opacity="1" fill-rule="nonzero"/><path fill="#02bbc6" d="M 56.824219 95.984375 L 50.628906 95.984375 L 50.628906 89.789062 L 56.824219 89.789062 L 56.824219 95.984375 " fill-opacity="1" fill-rule="nonzero"/><path fill="#02bbc6" d="M 64.785156 95.984375 L 58.589844 95.984375 L 58.589844 89.789062 L 64.785156 89.789062 L 64.785156 95.984375 " fill-opacity="1" fill-rule="nonzero"/><path fill="#02bbc6" d="M 72.753906 95.984375 L 66.558594 95.984375 L 66.558594 89.789062 L 72.753906 89.789062 L 72.753906 95.984375 " fill-opacity="1" fill-rule="nonzero"/><path fill="#02bbc6" d="M 74.324219 103.949219 L 68.121094 103.949219 L 68.121094 97.753906 L 74.324219 97.753906 L 74.324219 103.949219 " fill-opacity="1" fill-rule="nonzero"/><path fill="#02bbc6" d="M 82.511719 103.949219 L 76.316406 103.949219 L 76.316406 97.753906 L 82.511719 97.753906 L 82.511719 103.949219 " fill-opacity="1" fill-rule="nonzero"/><path fill="#02bbc6" d="M 90.703125 103.949219 L 84.503906 103.949219 L 84.503906 97.753906 L 90.703125 97.753906 L 90.703125 103.949219 " fill-opacity="1" fill-rule="nonzero"/><path fill="#02bbc6" d="M 99.992188 103.949219 L 92.695312 103.949219 L 92.695312 97.753906 L 99.992188 97.753906 L 99.992188 103.949219 " fill-opacity="1" fill-rule="nonzero"/><path fill="#02bbc6" d="M 80.71875 95.984375 L 74.519531 95.984375 L 74.519531 89.789062 L 80.71875 89.789062 L 80.71875 95.984375 " fill-opacity="1" fill-rule="nonzero"/><path fill="#02bbc6" d="M 99.992188 95.984375 L 82.484375 95.984375 L 82.484375 89.789062 L 99.992188 89.789062 L 99.992188 95.984375 " fill-opacity="1" fill-rule="nonzero"/><path fill="#02bbc6" d="M 29.832031 88.019531 L 23.636719 88.019531 L 23.636719 81.820312 L 29.832031 81.820312 L 29.832031 88.019531 " fill-opacity="1" fill-rule="nonzero"/><path fill="#02bbc6" d="M 37.84375 88.019531 L 31.644531 88.019531 L 31.644531 81.820312 L 37.84375 81.820312 L 37.84375 88.019531 " fill-opacity="1" fill-rule="nonzero"/><path fill="#02bbc6" d="M 45.859375 88.019531 L 39.660156 88.019531 L 39.660156 81.820312 L 45.859375 81.820312 L 45.859375 88.019531 " fill-opacity="1" fill-rule="nonzero"/><path fill="#02bbc6" d="M 53.871094 88.019531 L 47.671875 88.019531 L 47.671875 81.820312 L 53.871094 81.820312 L 53.871094 88.019531 " fill-opacity="1" fill-rule="nonzero"/><path fill="#02bbc6" d="M 61.882812 88.019531 L 55.683594 88.019531 L 55.683594 81.820312 L 61.882812 81.820312 L 61.882812 88.019531 " fill-opacity="1" fill-rule="nonzero"/><path fill="#02bbc6" d="M 69.894531 88.019531 L 63.691406 88.019531 L 63.691406 81.820312 L 69.894531 81.820312 L 69.894531 88.019531 " fill-opacity="1" fill-rule="nonzero"/><path fill="#02bbc6" d="M 77.902344 88.019531 L 71.707031 88.019531 L 71.707031 81.820312 L 77.902344 81.820312 L 77.902344 88.019531 " fill-opacity="1" fill-rule="nonzero"/><path fill="#02bbc6" d="M 85.917969 88.019531 L 79.71875 88.019531 L 79.71875 81.820312 L 85.917969 81.820312 L 85.917969 88.019531 " fill-opacity="1" fill-rule="nonzero"/><path fill="#02bbc6" d="M 99.992188 88.019531 L 87.730469 88.019531 L 87.730469 81.820312 L 99.992188 81.820312 L 99.992188 88.019531 " fill-opacity="1" fill-rule="nonzero"/><path fill="#02bbc6" d="M 28.613281 80.269531 L 22.417969 80.269531 L 22.417969 74.074219 L 28.613281 74.074219 L 28.613281 80.269531 " fill-opacity="1" fill-rule="nonzero"/><path fill="#02bbc6" d="M 36.96875 80.269531 L 30.773438 80.269531 L 30.773438 74.074219 L 36.96875 74.074219 L 36.96875 80.269531 " fill-opacity="1" fill-rule="nonzero"/><path fill="#02bbc6" d="M 45.328125 80.269531 L 39.128906 80.269531 L 39.128906 74.074219 L 45.328125 74.074219 L 45.328125 80.269531 " fill-opacity="1" fill-rule="nonzero"/><path fill="#02bbc6" d="M 53.675781 80.269531 L 47.480469 80.269531 L 47.480469 74.074219 L 53.675781 74.074219 L 53.675781 80.269531 " fill-opacity="1" fill-rule="nonzero"/><path fill="#02bbc6" d="M 62.03125 80.269531 L 55.832031 80.269531 L 55.832031 74.074219 L 62.03125 74.074219 L 62.03125 80.269531 " fill-opacity="1" fill-rule="nonzero"/><path fill="#02bbc6" d="M 70.386719 80.269531 L 64.1875 80.269531 L 64.1875 74.074219 L 70.386719 74.074219 L 70.386719 80.269531 " fill-opacity="1" fill-rule="nonzero"/><path fill="#02bbc6" d="M 78.742188 80.269531 L 72.546875 80.269531 L 72.546875 74.074219 L 78.742188 74.074219 L 78.742188 80.269531 " fill-opacity="1" fill-rule="nonzero"/><path fill="#02bbc6" d="M 87.097656 80.269531 L 80.898438 80.269531 L 80.898438 74.074219 L 87.097656 74.074219 L 87.097656 80.269531 " fill-opacity="1" fill-rule="nonzero"/><path fill="#02bbc6" d="M 99.992188 80.269531 L 89.253906 80.269531 L 89.253906 74.074219 L 99.992188 74.074219 L 99.992188 80.269531 " fill-opacity="1" fill-rule="nonzero"/><path fill="#02bbc6" d="M 20.871094 72.519531 L 14.675781 72.519531 L 14.675781 66.332031 L 20.871094 66.332031 L 20.871094 72.519531 " fill-opacity="1" fill-rule="nonzero"/><path fill="#02bbc6" d="M 28.074219 72.519531 L 21.867188 72.519531 L 21.867188 66.332031 L 28.074219 66.332031 L 28.074219 72.519531 " fill-opacity="1" fill-rule="nonzero"/><path fill="#02bbc6" d="M 35.261719 72.519531 L 29.0625 72.519531 L 29.0625 66.332031 L 35.261719 66.332031 L 35.261719 72.519531 " fill-opacity="1" fill-rule="nonzero"/><path fill="#02bbc6" d="M 42.453125 72.519531 L 36.257812 72.519531 L 36.257812 66.332031 L 42.453125 66.332031 L 42.453125 72.519531 " fill-opacity="1" fill-rule="nonzero"/><path fill="#02bbc6" d="M 49.652344 72.519531 L 43.449219 72.519531 L 43.449219 66.332031 L 49.652344 66.332031 L 49.652344 72.519531 " fill-opacity="1" fill-rule="nonzero"/><path fill="#02bbc6" d="M 56.839844 72.519531 L 50.644531 72.519531 L 50.644531 66.332031 L 56.839844 66.332031 L 56.839844 72.519531 " fill-opacity="1" fill-rule="nonzero"/><path fill="#02bbc6" d="M 64.03125 72.519531 L 57.835938 72.519531 L 57.835938 66.332031 L 64.03125 66.332031 L 64.03125 72.519531 " fill-opacity="1" fill-rule="nonzero"/><path fill="#02bbc6" d="M 71.226562 72.519531 L 65.027344 72.519531 L 65.027344 66.332031 L 71.226562 66.332031 L 71.226562 72.519531 " fill-opacity="1" fill-rule="nonzero"/><path fill="#02bbc6" d="M 78.417969 72.519531 L 72.222656 72.519531 L 72.222656 66.332031 L 78.417969 66.332031 L 78.417969 72.519531 " fill-opacity="1" fill-rule="nonzero"/><path fill="#02bbc6" d="M 85.609375 72.519531 L 79.414062 72.519531 L 79.414062 66.332031 L 85.609375 66.332031 L 85.609375 72.519531 " fill-opacity="1" fill-rule="nonzero"/><path fill="#02bbc6" d="M 92.804688 72.519531 L 86.609375 72.519531 L 86.609375 66.332031 L 92.804688 66.332031 L 92.804688 72.519531 " fill-opacity="1" fill-rule="nonzero"/><path fill="#02bbc6" d="M 99.992188 72.519531 L 93.796875 72.519531 L 93.796875 66.332031 L 99.992188 66.332031 L 99.992188 72.519531 " fill-opacity="1" fill-rule="nonzero"/><path fill="#02bbc6" d="M 107.746094 72.519531 L 101.542969 72.519531 L 101.542969 66.332031 L 107.746094 66.332031 L 107.746094 72.519531 " fill-opacity="1" fill-rule="nonzero"/><path fill="#02bbc6" d="M 107.746094 80.269531 L 101.542969 80.269531 L 101.542969 74.074219 L 107.746094 74.074219 L 107.746094 80.269531 " fill-opacity="1" fill-rule="nonzero"/><path fill="#02bbc6" d="M 107.746094 88.019531 L 101.542969 88.019531 L 101.542969 81.820312 L 107.746094 81.820312 L 107.746094 88.019531 " fill-opacity="1" fill-rule="nonzero"/><path fill="#02bbc6" d="M 107.746094 103.949219 L 101.542969 103.949219 L 101.542969 97.753906 L 107.746094 97.753906 L 107.746094 103.949219 " fill-opacity="1" fill-rule="nonzero"/><path fill="#02bbc6" d="M 115.488281 103.949219 L 109.289062 103.949219 L 109.289062 97.753906 L 115.488281 97.753906 L 115.488281 103.949219 " fill-opacity="1" fill-rule="nonzero"/><path fill="#02bbc6" d="M 115.488281 95.984375 L 109.289062 95.984375 L 109.289062 89.789062 L 115.488281 89.789062 L 115.488281 95.984375 " fill-opacity="1" fill-rule="nonzero"/><path fill="#02bbc6" d="M 123.230469 103.949219 L 117.035156 103.949219 L 117.035156 97.753906 L 123.230469 97.753906 L 123.230469 103.949219 " fill-opacity="1" fill-rule="nonzero"/><path fill="#02bbc6" d="M 115.488281 80.269531 L 109.289062 80.269531 L 109.289062 74.074219 L 115.488281 74.074219 L 115.488281 80.269531 " fill-opacity="1" fill-rule="nonzero"/><path fill="#02bbc6" d="M 115.488281 88.019531 L 109.289062 88.019531 L 109.289062 81.820312 L 115.488281 81.820312 L 115.488281 88.019531 " fill-opacity="1" fill-rule="nonzero"/><path fill="#02bbc6" d="M 123.230469 80.269531 L 117.035156 80.269531 L 117.035156 74.074219 L 123.230469 74.074219 L 123.230469 80.269531 " fill-opacity="1" fill-rule="nonzero"/><path fill="#02bbc6" d="M 130.980469 80.269531 L 124.78125 80.269531 L 124.78125 74.074219 L 130.980469 74.074219 L 130.980469 80.269531 " fill-opacity="1" fill-rule="nonzero"/><path fill="#02bbc6" d="M 138.726562 80.269531 L 132.527344 80.269531 L 132.527344 74.078125 L 138.726562 74.078125 L 138.726562 80.269531 " fill-opacity="1" fill-rule="nonzero"/><path fill="#02bbc6" d="M 130.980469 88.019531 L 124.78125 88.019531 L 124.78125 81.820312 L 130.980469 81.820312 L 130.980469 88.019531 " fill-opacity="1" fill-rule="nonzero"/><path fill="#02bbc6" d="M 138.726562 88.019531 L 132.527344 88.019531 L 132.527344 81.820312 L 138.726562 81.820312 L 138.726562 88.019531 " fill-opacity="1" fill-rule="nonzero"/><path fill="#02bbc6" d="M 130.980469 95.761719 L 124.78125 95.761719 L 124.78125 89.566406 L 130.980469 89.566406 L 130.980469 95.761719 " fill-opacity="1" fill-rule="nonzero"/><path fill="#02bbc6" d="M 138.726562 95.761719 L 132.527344 95.761719 L 132.527344 89.566406 L 138.726562 89.566406 L 138.726562 95.761719 " fill-opacity="1" fill-rule="nonzero"/><path fill="#02bbc6" d="M 130.980469 103.949219 L 124.78125 103.949219 L 124.78125 97.753906 L 130.980469 97.753906 L 130.980469 103.949219 " fill-opacity="1" fill-rule="nonzero"/><path fill="#02bbc6" d="M 138.726562 103.949219 L 132.527344 103.949219 L 132.527344 97.753906 L 138.726562 97.753906 L 138.726562 103.949219 " fill-opacity="1" fill-rule="nonzero"/><path fill="#02bbc6" d="M 123.230469 88.019531 L 117.035156 88.019531 L 117.035156 81.820312 L 123.230469 81.820312 L 123.230469 88.019531 " fill-opacity="1" fill-rule="nonzero"/><path fill="#02bbc6" d="M 115.488281 72.519531 L 109.289062 72.519531 L 109.289062 66.332031 L 115.488281 66.332031 L 115.488281 72.519531 " fill-opacity="1" fill-rule="nonzero"/><path fill="#02bbc6" d="M 123.230469 72.519531 L 117.035156 72.519531 L 117.035156 66.332031 L 123.230469 66.332031 L 123.230469 72.519531 " fill-opacity="1" fill-rule="nonzero"/><path fill="#02bbc6" d="M 130.980469 72.519531 L 124.78125 72.519531 L 124.78125 66.332031 L 130.980469 66.332031 L 130.980469 72.519531 " fill-opacity="1" fill-rule="nonzero"/><path fill="#02bbc6" d="M 138.726562 72.519531 L 132.527344 72.519531 L 132.527344 66.332031 L 138.726562 66.332031 L 138.726562 72.519531 " fill-opacity="1" fill-rule="nonzero"/><g clip-path="url(#0453131245)"><path fill="#03bfe8" d="M 40.210938 62.464844 C 40.128906 62.265625 38.3125 57.382812 41.613281 52.566406 C 45.648438 46.683594 55.292969 43.703125 70.265625 43.703125 C 79.78125 43.703125 85.753906 44.195312 90.316406 43.078125 C 95.609375 41.78125 98.863281 39.542969 101.230469 35.972656 C 102.367188 34.253906 104.039062 27.992188 104.351562 21.265625 C 104.835938 10.648438 104.855469 1.757812 104.863281 0.347656 L 106.457031 0.347656 C 106.457031 0.347656 106.011719 10.589844 105.601562 21.351562 C 105.320312 28.796875 103.789062 34.460938 102.320312 36.828125 C 100 40.570312 96.285156 43.285156 90.472656 44.601562 C 85.773438 45.664062 79.699219 45.09375 70.265625 45.09375 C 52.21875 45.09375 45.34375 49.589844 42.761719 53.355469 C 39.867188 57.570312 41.492188 61.921875 41.507812 61.96875 L 40.210938 62.464844 " fill-opacity="1" fill-rule="nonzero"/></g><g clip-path="url(#8a6e319d74)"><path fill="#03bfe8" d="M 173.074219 74.90625 L 171.726562 74.539062 C 171.738281 74.484375 172.546875 60.957031 169.007812 56.117188 C 165.292969 51.03125 158.375 48.90625 144.308594 45.96875 C 136.449219 44.332031 133.269531 38.769531 130.859375 31.152344 C 126.65625 17.84375 127.613281 0.441406 127.613281 0.34375 L 129 0.34375 C 129.007812 0.695312 128.386719 17.875 132.460938 30.726562 C 134.699219 37.789062 138.335938 43.660156 144.308594 44.488281 C 157.980469 46.382812 166.136719 49.75 170.121094 55.230469 C 174.0625 60.652344 173.136719 74.652344 173.074219 74.90625 " fill-opacity="1" fill-rule="nonzero"/></g></g></g></g><path fill="#00bedf" d="M 1184.191406 80.226562 C 1183.710938 80.226562 1183.324219 79.839844 1183.324219 79.359375 L 1183.324219 39.714844 L 1178.449219 39.714844 C 1177.972656 39.714844 1177.582031 39.328125 1177.582031 38.851562 C 1177.582031 38.371094 1177.972656 37.984375 1178.449219 37.984375 L 1184.191406 37.984375 C 1184.667969 37.984375 1185.054688 38.375 1185.054688 38.851562 L 1185.054688 79.359375 C 1185.054688 79.839844 1184.667969 80.226562 1184.191406 80.226562 " fill-opacity="1" fill-rule="nonzero"/><path fill="#00bedf" d="M 1196.867188 80.15625 C 1196.386719 80.15625 1196 79.769531 1196 79.289062 L 1196 51.535156 C 1196 51.058594 1196.386719 50.667969 1196.867188 50.667969 C 1197.34375 50.667969 1197.730469 51.058594 1197.730469 51.535156 L 1197.730469 79.289062 C 1197.730469 79.769531 1197.34375 80.15625 1196.867188 80.15625 " fill-opacity="1" fill-rule="nonzero"/><path fill="#00bedf" d="M 1173.941406 35.726562 C 1173.550781 35.726562 1173.171875 35.796875 1172.808594 35.941406 C 1172.03125 36.242188 1171.421875 36.832031 1171.085938 37.59375 C 1170.753906 38.359375 1170.734375 39.207031 1171.039062 39.984375 C 1171.648438 41.554688 1173.492188 42.378906 1175.082031 41.757812 C 1176.679688 41.132812 1177.476562 39.316406 1176.851562 37.714844 C 1176.589844 37.039062 1176.117188 36.492188 1175.480469 36.128906 C 1175.011719 35.867188 1174.480469 35.726562 1173.941406 35.726562 Z M 1173.945312 43.703125 C 1171.933594 43.703125 1170.15625 42.488281 1169.425781 40.613281 C 1168.953125 39.40625 1168.980469 38.085938 1169.5 36.898438 C 1170.019531 35.710938 1170.972656 34.796875 1172.179688 34.328125 C 1173.527344 33.800781 1175.070312 33.914062 1176.335938 34.621094 C 1177.324219 35.1875 1178.058594 36.039062 1178.464844 37.085938 C 1179.4375 39.578125 1178.203125 42.398438 1175.710938 43.371094 C 1175.140625 43.59375 1174.546875 43.703125 1173.945312 43.703125 " fill-opacity="1" fill-rule="nonzero"/><path fill="#00bedf" d="M 1205.316406 80.15625 C 1204.839844 80.15625 1204.453125 79.769531 1204.453125 79.289062 L 1204.453125 57.109375 C 1204.453125 56.632812 1204.839844 56.242188 1205.316406 56.242188 L 1222.714844 56.242188 C 1223.195312 56.242188 1223.582031 56.632812 1223.582031 57.109375 C 1223.582031 57.589844 1223.195312 57.976562 1222.714844 57.976562 L 1206.183594 57.976562 L 1206.183594 79.289062 C 1206.183594 79.769531 1205.792969 80.15625 1205.316406 80.15625 " fill-opacity="1" fill-rule="nonzero"/><path fill="#00bedf" d="M 1225.960938 55.101562 C 1225.617188 55.101562 1225.273438 55.195312 1224.96875 55.363281 C 1224.566406 55.59375 1224.265625 55.945312 1224.097656 56.378906 C 1223.691406 57.410156 1224.203125 58.574219 1225.230469 58.976562 C 1225.464844 59.070312 1225.710938 59.117188 1225.960938 59.117188 C 1226.792969 59.117188 1227.527344 58.617188 1227.828125 57.839844 C 1228.023438 57.339844 1228.015625 56.796875 1227.796875 56.304688 C 1227.582031 55.8125 1227.191406 55.4375 1226.691406 55.242188 C 1226.453125 55.152344 1226.210938 55.101562 1225.960938 55.101562 Z M 1225.960938 60.847656 C 1225.496094 60.847656 1225.039062 60.761719 1224.601562 60.589844 C 1222.683594 59.84375 1221.730469 57.671875 1222.480469 55.75 C 1222.789062 54.957031 1223.371094 54.28125 1224.117188 53.855469 C 1225.097656 53.308594 1226.285156 53.222656 1227.320312 53.628906 C 1228.25 53.992188 1228.980469 54.695312 1229.386719 55.609375 C 1229.785156 56.523438 1229.804688 57.539062 1229.441406 58.46875 C 1228.878906 59.914062 1227.511719 60.847656 1225.960938 60.847656 " fill-opacity="1" fill-rule="nonzero"/><path fill="#00bedf" d="M 1196.863281 44.421875 C 1196.472656 44.421875 1196.09375 44.496094 1195.730469 44.636719 C 1194.953125 44.941406 1194.34375 45.527344 1194.003906 46.289062 C 1193.671875 47.054688 1193.652344 47.902344 1193.957031 48.683594 C 1194.570312 50.25 1196.414062 51.074219 1198 50.453125 C 1199.601562 49.828125 1200.398438 48.015625 1199.773438 46.410156 C 1199.511719 45.734375 1199.035156 45.1875 1198.402344 44.828125 C 1197.933594 44.566406 1197.394531 44.421875 1196.863281 44.421875 Z M 1196.867188 52.402344 C 1194.851562 52.402344 1193.074219 51.1875 1192.34375 49.3125 C 1191.871094 48.101562 1191.898438 46.78125 1192.417969 45.597656 C 1192.941406 44.410156 1193.894531 43.496094 1195.101562 43.023438 C 1196.441406 42.5 1197.988281 42.609375 1199.253906 43.320312 C 1200.230469 43.871094 1200.984375 44.746094 1201.386719 45.78125 C 1202.359375 48.277344 1201.121094 51.09375 1198.628906 52.066406 C 1198.0625 52.289062 1197.46875 52.402344 1196.867188 52.402344 " fill-opacity="1" fill-rule="nonzero"/><path fill="#00bedf" d="M 1167.289062 151.089844 C 1166.808594 151.089844 1166.421875 150.703125 1166.421875 150.226562 L 1166.421875 73.523438 C 1166.421875 73.042969 1166.808594 72.65625 1167.289062 72.65625 C 1167.765625 72.65625 1168.152344 73.042969 1168.152344 73.523438 L 1168.152344 150.226562 C 1168.152344 150.703125 1167.765625 151.089844 1167.289062 151.089844 " fill-opacity="1" fill-rule="nonzero"/><path fill="#00bedf" d="M 1171.511719 151.089844 C 1171.035156 151.089844 1170.648438 150.703125 1170.648438 150.226562 L 1170.648438 73.523438 C 1170.648438 73.042969 1171.035156 72.65625 1171.511719 72.65625 C 1171.992188 72.65625 1172.378906 73.042969 1172.378906 73.523438 L 1172.378906 150.226562 C 1172.378906 150.703125 1171.992188 151.089844 1171.511719 151.089844 " fill-opacity="1" fill-rule="nonzero"/><path fill="#00bedf" d="M 1175.738281 151.089844 C 1175.261719 151.089844 1174.875 150.703125 1174.875 150.226562 L 1174.875 73.523438 C 1174.875 73.042969 1175.261719 72.65625 1175.738281 72.65625 C 1176.21875 72.65625 1176.605469 73.042969 1176.605469 73.523438 L 1176.605469 150.226562 C 1176.605469 150.703125 1176.21875 151.089844 1175.738281 151.089844 " fill-opacity="1" fill-rule="nonzero"/><path fill="#00bedf" d="M 1179.964844 151.089844 C 1179.484375 151.089844 1179.097656 150.703125 1179.097656 150.226562 L 1179.097656 73.523438 C 1179.097656 73.042969 1179.484375 72.65625 1179.964844 72.65625 C 1180.445312 72.65625 1180.832031 73.042969 1180.832031 73.523438 L 1180.832031 150.226562 C 1180.832031 150.703125 1180.445312 151.089844 1179.964844 151.089844 " fill-opacity="1" fill-rule="nonzero"/><path fill="#00bedf" d="M 1184.191406 151.089844 C 1183.710938 151.089844 1183.324219 150.703125 1183.324219 150.226562 L 1183.324219 73.523438 C 1183.324219 73.042969 1183.710938 72.65625 1184.191406 72.65625 C 1184.667969 72.65625 1185.054688 73.042969 1185.054688 73.523438 L 1185.054688 150.226562 C 1185.054688 150.703125 1184.667969 151.089844 1184.191406 151.089844 " fill-opacity="1" fill-rule="nonzero"/><path fill="#00bedf" d="M 1188.414062 151.089844 C 1187.9375 151.089844 1187.546875 150.703125 1187.546875 150.226562 L 1187.546875 73.523438 C 1187.546875 73.042969 1187.9375 72.65625 1188.414062 72.65625 C 1188.894531 72.65625 1189.277344 73.042969 1189.277344 73.523438 L 1189.277344 150.226562 C 1189.277344 150.703125 1188.894531 151.089844 1188.414062 151.089844 " fill-opacity="1" fill-rule="nonzero"/><path fill="#00bedf" d="M 1192.640625 151.089844 C 1192.160156 151.089844 1191.773438 150.703125 1191.773438 150.226562 L 1191.773438 73.523438 C 1191.773438 73.042969 1192.160156 72.65625 1192.640625 72.65625 C 1193.117188 72.65625 1193.503906 73.042969 1193.503906 73.523438 L 1193.503906 150.226562 C 1193.503906 150.703125 1193.117188 151.089844 1192.640625 151.089844 " fill-opacity="1" fill-rule="nonzero"/><path fill="#00bedf" d="M 1196.867188 151.089844 C 1196.386719 151.089844 1196 150.703125 1196 150.226562 L 1196 73.523438 C 1196 73.042969 1196.386719 72.65625 1196.867188 72.65625 C 1197.34375 72.65625 1197.730469 73.042969 1197.730469 73.523438 L 1197.730469 150.226562 C 1197.730469 150.703125 1197.34375 151.089844 1196.867188 151.089844 " fill-opacity="1" fill-rule="nonzero"/><path fill="#00bedf" d="M 1201.09375 151.089844 C 1200.613281 151.089844 1200.226562 150.703125 1200.226562 150.226562 L 1200.226562 73.523438 C 1200.226562 73.042969 1200.613281 72.65625 1201.09375 72.65625 C 1201.570312 72.65625 1201.957031 73.042969 1201.957031 73.523438 L 1201.957031 150.226562 C 1201.957031 150.703125 1201.570312 151.089844 1201.09375 151.089844 " fill-opacity="1" fill-rule="nonzero"/><path fill="#00bedf" d="M 1205.316406 151.089844 C 1204.839844 151.089844 1204.453125 150.703125 1204.453125 150.226562 L 1204.453125 73.523438 C 1204.453125 73.042969 1204.839844 72.65625 1205.316406 72.65625 C 1205.792969 72.65625 1206.183594 73.042969 1206.183594 73.523438 L 1206.183594 150.226562 C 1206.183594 150.703125 1205.792969 151.089844 1205.316406 151.089844 " fill-opacity="1" fill-rule="nonzero"/><path fill="#00bedf" d="M 1209.539062 151.089844 C 1209.0625 151.089844 1208.675781 150.703125 1208.675781 150.226562 L 1208.675781 73.523438 C 1208.675781 73.042969 1209.0625 72.65625 1209.539062 72.65625 C 1210.019531 72.65625 1210.40625 73.042969 1210.40625 73.523438 L 1210.40625 150.226562 C 1210.40625 150.703125 1210.019531 151.089844 1209.539062 151.089844 " fill-opacity="1" fill-rule="nonzero"/><path fill="#00bedf" d="M 1213.765625 151.089844 C 1213.289062 151.089844 1212.898438 150.703125 1212.898438 150.226562 L 1212.898438 73.523438 C 1212.898438 73.042969 1213.289062 72.65625 1213.765625 72.65625 C 1214.246094 72.65625 1214.632812 73.042969 1214.632812 73.523438 L 1214.632812 150.226562 C 1214.632812 150.703125 1214.246094 151.089844 1213.765625 151.089844 " fill-opacity="1" fill-rule="nonzero"/><path fill="#00bedf" d="M 1217.992188 151.089844 C 1217.511719 151.089844 1217.125 150.703125 1217.125 150.226562 L 1217.125 73.523438 C 1217.125 73.042969 1217.511719 72.65625 1217.992188 72.65625 C 1218.46875 72.65625 1218.855469 73.042969 1218.855469 73.523438 L 1218.855469 150.226562 C 1218.855469 150.703125 1218.46875 151.089844 1217.992188 151.089844 " fill-opacity="1" fill-rule="nonzero"/><path fill="#00bedf" d="M 1222.214844 151.089844 C 1221.738281 151.089844 1221.351562 150.703125 1221.351562 150.226562 L 1221.351562 73.523438 C 1221.351562 73.042969 1221.738281 72.65625 1222.214844 72.65625 C 1222.695312 72.65625 1223.082031 73.042969 1223.082031 73.523438 L 1223.082031 150.226562 C 1223.082031 150.703125 1222.695312 151.089844 1222.214844 151.089844 " fill-opacity="1" fill-rule="nonzero"/><path fill="#00bedf" d="M 1226.441406 151.089844 C 1225.960938 151.089844 1225.574219 150.703125 1225.574219 150.226562 L 1225.574219 73.523438 C 1225.574219 73.042969 1225.960938 72.65625 1226.441406 72.65625 C 1226.917969 72.65625 1227.304688 73.042969 1227.304688 73.523438 L 1227.304688 150.226562 C 1227.304688 150.703125 1226.917969 151.089844 1226.441406 151.089844 " fill-opacity="1" fill-rule="nonzero"/><path fill="#00bedf" d="M 1235.214844 142.316406 L 1158.515625 142.316406 C 1158.035156 142.316406 1157.648438 141.929688 1157.648438 141.449219 C 1157.648438 140.972656 1158.035156 140.585938 1158.515625 140.585938 L 1235.214844 140.585938 C 1235.695312 140.585938 1236.082031 140.972656 1236.082031 141.449219 C 1236.082031 141.929688 1235.695312 142.316406 1235.214844 142.316406 " fill-opacity="1" fill-rule="nonzero"/><path fill="#00bedf" d="M 1235.214844 138.089844 L 1158.515625 138.089844 C 1158.035156 138.089844 1157.648438 137.703125 1157.648438 137.226562 C 1157.648438 136.746094 1158.035156 136.359375 1158.515625 136.359375 L 1235.214844 136.359375 C 1235.695312 136.359375 1236.082031 136.746094 1236.082031 137.226562 C 1236.082031 137.703125 1235.695312 138.089844 1235.214844 138.089844 " fill-opacity="1" fill-rule="nonzero"/><path fill="#00bedf" d="M 1235.214844 133.863281 L 1158.515625 133.863281 C 1158.035156 133.863281 1157.648438 133.476562 1157.648438 133 C 1157.648438 132.519531 1158.035156 132.132812 1158.515625 132.132812 L 1235.214844 132.132812 C 1235.695312 132.132812 1236.082031 132.519531 1236.082031 133 C 1236.082031 133.476562 1235.695312 133.863281 1235.214844 133.863281 " fill-opacity="1" fill-rule="nonzero"/><path fill="#00bedf" d="M 1235.214844 129.640625 L 1158.515625 129.640625 C 1158.035156 129.640625 1157.648438 129.253906 1157.648438 128.777344 C 1157.648438 128.296875 1158.035156 127.90625 1158.515625 127.90625 L 1235.214844 127.90625 C 1235.695312 127.90625 1236.082031 128.296875 1236.082031 128.777344 C 1236.082031 129.253906 1235.695312 129.640625 1235.214844 129.640625 " fill-opacity="1" fill-rule="nonzero"/><path fill="#00bedf" d="M 1235.214844 125.417969 L 1158.515625 125.417969 C 1158.035156 125.417969 1157.648438 125.027344 1157.648438 124.550781 C 1157.648438 124.070312 1158.035156 123.683594 1158.515625 123.683594 L 1235.214844 123.683594 C 1235.695312 123.683594 1236.082031 124.070312 1236.082031 124.550781 C 1236.082031 125.027344 1235.695312 125.417969 1235.214844 125.417969 " fill-opacity="1" fill-rule="nonzero"/><path fill="#00bedf" d="M 1235.214844 121.191406 L 1158.515625 121.191406 C 1158.035156 121.191406 1157.648438 120.804688 1157.648438 120.324219 C 1157.648438 119.84375 1158.035156 119.460938 1158.515625 119.460938 L 1235.214844 119.460938 C 1235.695312 119.460938 1236.082031 119.84375 1236.082031 120.324219 C 1236.082031 120.804688 1235.695312 121.191406 1235.214844 121.191406 " fill-opacity="1" fill-rule="nonzero"/><path fill="#00bedf" d="M 1235.214844 116.96875 L 1158.515625 116.96875 C 1158.035156 116.96875 1157.648438 116.578125 1157.648438 116.097656 C 1157.648438 115.621094 1158.035156 115.234375 1158.515625 115.234375 L 1235.214844 115.234375 C 1235.695312 115.234375 1236.082031 115.621094 1236.082031 116.097656 C 1236.082031 116.578125 1235.695312 116.96875 1235.214844 116.96875 " fill-opacity="1" fill-rule="nonzero"/><path fill="#00bedf" d="M 1244.09375 112.742188 L 1158.515625 112.742188 C 1158.035156 112.742188 1157.648438 112.351562 1157.648438 111.875 C 1157.648438 111.394531 1158.035156 111.007812 1158.515625 111.007812 L 1244.09375 111.007812 C 1244.570312 111.007812 1244.960938 111.394531 1244.960938 111.875 C 1244.960938 112.351562 1244.570312 112.742188 1244.09375 112.742188 " fill-opacity="1" fill-rule="nonzero"/><path fill="#00bedf" d="M 1235.214844 108.515625 L 1158.515625 108.515625 C 1158.035156 108.515625 1157.648438 108.128906 1157.648438 107.648438 C 1157.648438 107.171875 1158.035156 106.78125 1158.515625 106.78125 L 1235.214844 106.78125 C 1235.695312 106.78125 1236.082031 107.171875 1236.082031 107.648438 C 1236.082031 108.128906 1235.695312 108.515625 1235.214844 108.515625 " fill-opacity="1" fill-rule="nonzero"/><path fill="#00bedf" d="M 1235.214844 104.289062 L 1158.515625 104.289062 C 1158.035156 104.289062 1157.648438 103.902344 1157.648438 103.425781 C 1157.648438 102.945312 1158.035156 102.558594 1158.515625 102.558594 L 1235.214844 102.558594 C 1235.695312 102.558594 1236.082031 102.945312 1236.082031 103.425781 C 1236.082031 103.902344 1235.695312 104.289062 1235.214844 104.289062 " fill-opacity="1" fill-rule="nonzero"/><path fill="#00bedf" d="M 1235.214844 100.066406 L 1158.515625 100.066406 C 1158.035156 100.066406 1157.648438 99.675781 1157.648438 99.199219 C 1157.648438 98.71875 1158.035156 98.332031 1158.515625 98.332031 L 1235.214844 98.332031 C 1235.695312 98.332031 1236.082031 98.71875 1236.082031 99.199219 C 1236.082031 99.675781 1235.695312 100.066406 1235.214844 100.066406 " fill-opacity="1" fill-rule="nonzero"/><path fill="#00bedf" d="M 1235.214844 95.839844 L 1158.515625 95.839844 C 1158.035156 95.839844 1157.648438 95.453125 1157.648438 94.972656 C 1157.648438 94.496094 1158.035156 94.105469 1158.515625 94.105469 L 1235.214844 94.105469 C 1235.695312 94.105469 1236.082031 94.496094 1236.082031 94.972656 C 1236.082031 95.453125 1235.695312 95.839844 1235.214844 95.839844 " fill-opacity="1" fill-rule="nonzero"/><path fill="#00bedf" d="M 1235.214844 91.613281 L 1158.515625 91.613281 C 1158.035156 91.613281 1157.648438 91.226562 1157.648438 90.75 C 1157.648438 90.269531 1158.035156 89.882812 1158.515625 89.882812 L 1235.214844 89.882812 C 1235.695312 89.882812 1236.082031 90.269531 1236.082031 90.75 C 1236.082031 91.226562 1235.695312 91.613281 1235.214844 91.613281 " fill-opacity="1" fill-rule="nonzero"/><path fill="#00bedf" d="M 1235.214844 87.390625 L 1158.515625 87.390625 C 1158.035156 87.390625 1157.648438 87.003906 1157.648438 86.523438 C 1157.648438 86.042969 1158.035156 85.660156 1158.515625 85.660156 L 1235.214844 85.660156 C 1235.695312 85.660156 1236.082031 86.042969 1236.082031 86.523438 C 1236.082031 87.003906 1235.695312 87.390625 1235.214844 87.390625 " fill-opacity="1" fill-rule="nonzero"/><path fill="#00bedf" d="M 1235.214844 83.164062 L 1158.515625 83.164062 C 1158.035156 83.164062 1157.648438 82.777344 1157.648438 82.296875 C 1157.648438 81.820312 1158.035156 81.433594 1158.515625 81.433594 L 1235.214844 81.433594 C 1235.695312 81.433594 1236.082031 81.820312 1236.082031 82.296875 C 1236.082031 82.777344 1235.695312 83.164062 1235.214844 83.164062 " fill-opacity="1" fill-rule="nonzero"/><path fill="#00caff" d="M 1167.851562 144.792969 C 1165.578125 144.792969 1163.726562 142.941406 1163.726562 140.667969 L 1163.726562 83.082031 C 1163.726562 80.808594 1165.578125 78.960938 1167.851562 78.960938 L 1225.878906 78.960938 C 1228.152344 78.960938 1230 80.808594 1230 83.082031 L 1230 140.667969 C 1230 142.941406 1228.152344 144.792969 1225.878906 144.792969 L 1167.851562 144.792969 " fill-opacity="1" fill-rule="nonzero"/><path fill="#00bedf" d="M 1225.878906 78.09375 L 1167.851562 78.09375 C 1165.101562 78.09375 1162.863281 80.332031 1162.863281 83.082031 L 1162.863281 140.667969 C 1162.863281 143.417969 1165.101562 145.65625 1167.851562 145.65625 L 1225.878906 145.65625 C 1228.632812 145.65625 1230.867188 143.417969 1230.867188 140.667969 L 1230.867188 83.082031 C 1230.867188 80.332031 1228.632812 78.09375 1225.878906 78.09375 Z M 1225.878906 79.824219 C 1227.675781 79.824219 1229.136719 81.28125 1229.136719 83.082031 L 1229.136719 140.667969 C 1229.136719 142.464844 1227.675781 143.925781 1225.878906 143.925781 L 1167.851562 143.925781 C 1166.050781 143.925781 1164.59375 142.464844 1164.59375 140.667969 L 1164.59375 83.082031 C 1164.59375 81.28125 1166.050781 79.824219 1167.851562 79.824219 L 1225.878906 79.824219 " fill-opacity="1" fill-rule="nonzero"/><path fill="#00bedf" d="M 1174.839844 137.070312 C 1173 137.070312 1171.503906 135.574219 1171.503906 133.730469 L 1171.503906 130.902344 C 1170.058594 130.523438 1169 129.222656 1169 127.675781 L 1169 96.070312 C 1169 94.519531 1170.0625 93.210938 1171.503906 92.84375 L 1171.503906 90.019531 C 1171.503906 88.175781 1173 86.679688 1174.839844 86.679688 L 1218.890625 86.679688 C 1220.730469 86.679688 1222.226562 88.175781 1222.226562 90.019531 L 1222.226562 92.84375 C 1223.671875 93.226562 1224.726562 94.527344 1224.726562 96.074219 L 1224.726562 127.675781 C 1224.726562 129.226562 1223.664062 130.535156 1222.226562 130.910156 L 1222.226562 133.730469 C 1222.226562 135.574219 1220.730469 137.070312 1218.890625 137.070312 L 1174.839844 137.070312 " fill-opacity="1" fill-rule="nonzero"/><path fill="#00bedf" d="M 1218.890625 85.8125 L 1174.839844 85.8125 C 1172.523438 85.8125 1170.636719 87.699219 1170.636719 90.019531 L 1170.636719 92.234375 C 1169.160156 92.890625 1168.132812 94.367188 1168.132812 96.070312 L 1168.132812 127.675781 C 1168.132812 129.386719 1169.164062 130.863281 1170.636719 131.519531 L 1170.636719 133.730469 C 1170.636719 136.050781 1172.523438 137.933594 1174.839844 137.933594 L 1218.890625 137.933594 C 1221.207031 137.933594 1223.09375 136.050781 1223.09375 133.730469 L 1223.09375 131.515625 C 1224.570312 130.859375 1225.59375 129.382812 1225.59375 127.675781 L 1225.59375 96.074219 C 1225.59375 94.363281 1224.566406 92.882812 1223.09375 92.230469 L 1223.09375 90.019531 C 1223.09375 87.699219 1221.207031 85.8125 1218.890625 85.8125 Z M 1218.890625 87.546875 C 1220.257812 87.546875 1221.363281 88.652344 1221.363281 90.019531 L 1221.363281 93.601562 L 1221.390625 93.601562 C 1222.753906 93.601562 1223.859375 94.707031 1223.859375 96.074219 L 1223.859375 127.675781 C 1223.859375 129.042969 1222.753906 130.148438 1221.390625 130.148438 L 1221.363281 130.148438 L 1221.363281 133.730469 C 1221.363281 135.097656 1220.257812 136.203125 1218.890625 136.203125 L 1174.839844 136.203125 C 1173.472656 136.203125 1172.371094 135.097656 1172.371094 133.730469 L 1172.371094 130.148438 L 1172.339844 130.148438 C 1170.976562 130.148438 1169.867188 129.042969 1169.867188 127.675781 L 1169.867188 96.070312 C 1169.867188 94.707031 1170.976562 93.601562 1172.339844 93.601562 L 1172.371094 93.601562 L 1172.371094 90.019531 C 1172.371094 88.652344 1173.472656 87.546875 1174.839844 87.546875 L 1218.890625 87.546875 " fill-opacity="1" fill-rule="nonzero"/><path fill="#00bedf" d="M 1184.429688 129.34375 C 1184.121094 129.34375 1183.839844 129.179688 1183.683594 128.914062 C 1183.523438 128.648438 1183.523438 128.320312 1183.675781 128.054688 C 1184.441406 126.695312 1184.425781 124.878906 1183.644531 123.539062 C 1183.164062 122.71875 1182.199219 121.738281 1180.316406 121.738281 C 1179.773438 121.738281 1179.261719 121.835938 1178.757812 122.035156 C 1178.65625 122.074219 1178.546875 122.09375 1178.441406 122.09375 C 1178.269531 122.09375 1178.101562 122.042969 1177.953125 121.945312 C 1177.714844 121.785156 1177.574219 121.515625 1177.574219 121.230469 L 1177.574219 102.621094 C 1177.574219 102.339844 1177.710938 102.078125 1177.941406 101.917969 C 1178.089844 101.8125 1178.261719 101.757812 1178.441406 101.757812 C 1178.539062 101.757812 1178.636719 101.773438 1178.730469 101.808594 C 1179.222656 101.980469 1179.675781 102.0625 1180.164062 102.0625 C 1182.058594 102.0625 1183.023438 101.074219 1183.5 100.242188 C 1184.285156 98.886719 1184.277344 97.0625 1183.488281 95.703125 C 1183.332031 95.4375 1183.332031 95.105469 1183.488281 94.839844 C 1183.640625 94.570312 1183.929688 94.402344 1184.234375 94.402344 L 1208.675781 94.402344 C 1208.984375 94.402344 1209.273438 94.570312 1209.425781 94.839844 C 1209.578125 95.105469 1209.578125 95.4375 1209.421875 95.703125 C 1208.636719 97.0625 1208.628906 98.886719 1209.410156 100.242188 C 1209.886719 101.074219 1210.855469 102.0625 1212.75 102.0625 C 1213.53125 102.0625 1214.214844 101.878906 1214.839844 101.5 C 1214.976562 101.414062 1215.132812 101.375 1215.289062 101.375 C 1215.4375 101.375 1215.582031 101.410156 1215.714844 101.484375 C 1215.984375 101.636719 1216.15625 101.925781 1216.15625 102.238281 L 1216.15625 120.125 C 1216.15625 120.40625 1216.019531 120.671875 1215.785156 120.835938 C 1215.640625 120.9375 1215.464844 120.992188 1215.289062 120.992188 C 1215.191406 120.992188 1215.089844 120.972656 1214.992188 120.9375 C 1214.488281 120.753906 1214.019531 120.667969 1213.511719 120.667969 C 1211.199219 120.667969 1210.269531 122.140625 1209.925781 123.015625 C 1209.261719 124.6875 1209.65625 126.71875 1210.859375 127.847656 C 1211.121094 128.089844 1211.203125 128.464844 1211.074219 128.796875 C 1210.941406 129.128906 1210.621094 129.34375 1210.269531 129.34375 L 1184.429688 129.34375 " fill-opacity="1" fill-rule="nonzero"/><path fill="#00bedf" d="M 1208.675781 93.539062 L 1184.234375 93.539062 C 1183.617188 93.539062 1183.046875 93.871094 1182.738281 94.40625 C 1182.429688 94.945312 1182.429688 95.605469 1182.742188 96.140625 C 1183.371094 97.222656 1183.375 98.730469 1182.75 99.8125 C 1182.222656 100.730469 1181.351562 101.195312 1180.164062 101.195312 C 1179.78125 101.195312 1179.414062 101.132812 1179.015625 100.992188 C 1178.832031 100.925781 1178.632812 100.890625 1178.441406 100.890625 C 1178.085938 100.890625 1177.734375 101 1177.441406 101.210938 C 1176.980469 101.535156 1176.707031 102.058594 1176.707031 102.621094 L 1176.707031 121.230469 C 1176.707031 121.800781 1176.992188 122.335938 1177.464844 122.660156 C 1177.757812 122.859375 1178.097656 122.960938 1178.441406 122.960938 C 1178.652344 122.960938 1178.871094 122.921875 1179.074219 122.839844 C 1179.476562 122.683594 1179.882812 122.605469 1180.316406 122.605469 C 1181.496094 122.605469 1182.363281 123.066406 1182.898438 123.972656 C 1183.519531 125.042969 1183.53125 126.546875 1182.917969 127.628906 C 1182.617188 128.164062 1182.625 128.820312 1182.9375 129.351562 C 1183.242188 129.886719 1183.8125 130.210938 1184.429688 130.210938 L 1210.269531 130.210938 C 1210.980469 130.210938 1211.617188 129.777344 1211.878906 129.113281 C 1212.140625 128.453125 1211.972656 127.699219 1211.453125 127.214844 C 1210.5 126.320312 1210.195312 124.6875 1210.730469 123.332031 C 1211.054688 122.515625 1211.800781 121.535156 1213.511719 121.535156 C 1213.914062 121.535156 1214.289062 121.605469 1214.695312 121.753906 C 1214.890625 121.824219 1215.089844 121.859375 1215.289062 121.859375 C 1215.640625 121.859375 1215.984375 121.75 1216.28125 121.542969 C 1216.746094 121.222656 1217.019531 120.6875 1217.019531 120.125 L 1217.019531 102.238281 C 1217.019531 101.613281 1216.683594 101.035156 1216.136719 100.726562 C 1215.875 100.582031 1215.582031 100.503906 1215.289062 100.503906 C 1214.976562 100.503906 1214.667969 100.589844 1214.390625 100.757812 C 1213.902344 101.054688 1213.367188 101.195312 1212.75 101.195312 C 1211.5625 101.195312 1210.691406 100.730469 1210.160156 99.8125 C 1209.539062 98.730469 1209.542969 97.222656 1210.171875 96.140625 C 1210.484375 95.605469 1210.484375 94.945312 1210.175781 94.40625 C 1209.867188 93.871094 1209.292969 93.539062 1208.675781 93.539062 Z M 1208.675781 95.269531 C 1206.976562 98.1875 1208.332031 102.929688 1212.75 102.929688 C 1213.761719 102.929688 1214.597656 102.660156 1215.289062 102.238281 L 1215.289062 120.125 C 1214.761719 119.933594 1214.179688 119.804688 1213.511719 119.804688 C 1208.523438 119.804688 1207.453125 125.839844 1210.269531 128.480469 L 1184.429688 128.480469 C 1186.074219 125.554688 1184.707031 120.875 1180.316406 120.875 C 1179.609375 120.875 1178.992188 121.011719 1178.441406 121.230469 L 1178.441406 102.621094 C 1178.957031 102.804688 1179.519531 102.929688 1180.164062 102.929688 C 1184.582031 102.929688 1185.9375 98.1875 1184.234375 95.269531 L 1208.675781 95.269531 " fill-opacity="1" fill-rule="nonzero"/><path fill="#00bedf" d="M 1211.058594 159.34375 L 1205.316406 159.34375 C 1204.839844 159.34375 1204.453125 158.957031 1204.453125 158.480469 L 1204.453125 146.285156 C 1204.453125 145.808594 1204.839844 145.421875 1205.316406 145.421875 C 1205.792969 145.421875 1206.183594 145.808594 1206.183594 146.285156 L 1206.183594 157.613281 L 1211.058594 157.613281 C 1211.535156 157.613281 1211.921875 158 1211.921875 158.480469 C 1211.921875 158.957031 1211.535156 159.34375 1211.058594 159.34375 " fill-opacity="1" fill-rule="nonzero"/><path fill="#00bedf" d="M 1215.5625 155.355469 C 1215.175781 155.355469 1214.792969 155.429688 1214.429688 155.570312 C 1213.648438 155.875 1213.039062 156.460938 1212.703125 157.222656 C 1212.367188 157.988281 1212.351562 158.835938 1212.652344 159.613281 C 1212.914062 160.28125 1213.402344 160.84375 1214.023438 161.199219 C 1214.832031 161.652344 1215.828125 161.726562 1216.695312 161.386719 C 1218.300781 160.761719 1219.097656 158.949219 1218.46875 157.34375 C 1218 156.136719 1216.859375 155.355469 1215.5625 155.355469 Z M 1215.5625 163.335938 C 1214.730469 163.335938 1213.898438 163.117188 1213.171875 162.703125 C 1212.199219 162.152344 1211.445312 161.28125 1211.042969 160.242188 C 1210.570312 159.035156 1210.597656 157.714844 1211.117188 156.527344 C 1211.636719 155.34375 1212.589844 154.429688 1213.796875 153.957031 C 1214.363281 153.734375 1214.957031 153.625 1215.5625 153.625 C 1217.578125 153.625 1219.351562 154.835938 1220.082031 156.714844 C 1220.554688 157.921875 1220.527344 159.242188 1220.007812 160.425781 C 1219.488281 161.617188 1218.535156 162.53125 1217.324219 163 C 1216.761719 163.222656 1216.167969 163.335938 1215.5625 163.335938 " fill-opacity="1" fill-rule="nonzero"/><path fill="#00bedf" d="M 1202.605469 178.523438 L 1196.867188 178.523438 C 1196.386719 178.523438 1196 178.136719 1196 177.65625 L 1196 145.453125 C 1196 144.972656 1196.386719 144.585938 1196.867188 144.585938 C 1197.34375 144.585938 1197.730469 144.972656 1197.730469 145.453125 L 1197.730469 176.792969 L 1202.605469 176.792969 C 1203.085938 176.792969 1203.472656 177.179688 1203.472656 177.65625 C 1203.472656 178.136719 1203.085938 178.523438 1202.605469 178.523438 " fill-opacity="1" fill-rule="nonzero"/><path fill="#00bedf" d="M 1207.109375 174.535156 C 1206.722656 174.535156 1206.34375 174.605469 1205.976562 174.75 C 1204.371094 175.375 1203.578125 177.191406 1204.203125 178.792969 C 1204.46875 179.46875 1204.941406 180.015625 1205.574219 180.378906 C 1206.378906 180.832031 1207.375 180.90625 1208.246094 180.566406 C 1209.847656 179.941406 1210.640625 178.125 1210.015625 176.523438 C 1209.546875 175.316406 1208.40625 174.535156 1207.109375 174.535156 Z M 1207.113281 182.511719 C 1206.277344 182.511719 1205.449219 182.292969 1204.71875 181.882812 C 1203.75 181.332031 1202.996094 180.460938 1202.589844 179.421875 C 1201.613281 176.929688 1202.851562 174.109375 1205.347656 173.136719 C 1205.914062 172.914062 1206.503906 172.804688 1207.109375 172.804688 C 1209.125 172.804688 1210.898438 174.015625 1211.632812 175.894531 C 1212.605469 178.386719 1211.367188 181.207031 1208.875 182.179688 C 1208.308594 182.398438 1207.714844 182.511719 1207.113281 182.511719 " fill-opacity="1" fill-rule="nonzero"/><path fill="#00bedf" d="M 1129.6875 126.933594 C 1129.210938 126.933594 1128.824219 126.546875 1128.824219 126.066406 L 1128.824219 120.324219 C 1128.824219 119.84375 1129.210938 119.460938 1129.6875 119.460938 L 1160.761719 119.460938 C 1161.238281 119.460938 1161.628906 119.84375 1161.628906 120.324219 C 1161.628906 120.804688 1161.238281 121.191406 1160.761719 121.191406 L 1130.558594 121.191406 L 1130.558594 126.066406 C 1130.558594 126.546875 1130.171875 126.933594 1129.6875 126.933594 " fill-opacity="1" fill-rule="nonzero"/><g clip-path="url(#807e4cacfb)"><path fill="#00bedf" d="M 1129.691406 127.449219 C 1129.304688 127.449219 1128.921875 127.519531 1128.554688 127.660156 C 1127.878906 127.925781 1127.332031 128.402344 1126.972656 129.03125 C 1126.511719 129.851562 1126.441406 130.828125 1126.78125 131.707031 C 1127.394531 133.273438 1129.238281 134.09375 1130.824219 133.476562 C 1131.601562 133.171875 1132.214844 132.585938 1132.550781 131.824219 C 1132.886719 131.058594 1132.902344 130.210938 1132.597656 129.4375 C 1132.128906 128.226562 1130.984375 127.449219 1129.691406 127.449219 Z M 1129.691406 135.421875 C 1127.675781 135.421875 1125.902344 134.210938 1125.167969 132.335938 C 1124.636719 130.972656 1124.742188 129.457031 1125.464844 128.179688 C 1126.015625 127.210938 1126.886719 126.453125 1127.925781 126.046875 C 1128.492188 125.828125 1129.089844 125.714844 1129.691406 125.714844 C 1131.703125 125.714844 1133.480469 126.925781 1134.210938 128.804688 C 1134.6875 130.011719 1134.660156 131.332031 1134.136719 132.519531 C 1133.617188 133.707031 1132.664062 134.617188 1131.457031 135.089844 C 1130.890625 135.3125 1130.296875 135.421875 1129.691406 135.421875 " fill-opacity="1" fill-rule="nonzero"/></g><path fill="#00bedf" d="M 1181.832031 174.074219 C 1181.355469 174.074219 1180.96875 173.6875 1180.96875 173.207031 L 1180.96875 160.21875 C 1180.96875 159.988281 1181.058594 159.765625 1181.222656 159.605469 C 1181.382812 159.441406 1181.605469 159.351562 1181.832031 159.351562 L 1181.835938 159.351562 L 1187.546875 159.375 L 1187.546875 146.601562 C 1187.546875 146.121094 1187.9375 145.734375 1188.414062 145.734375 C 1188.894531 145.734375 1189.277344 146.121094 1189.277344 146.601562 L 1189.277344 160.242188 C 1189.277344 160.472656 1189.1875 160.691406 1189.027344 160.855469 C 1188.859375 161.019531 1188.644531 161.109375 1188.414062 161.109375 L 1188.410156 161.109375 L 1182.699219 161.089844 L 1182.699219 173.207031 C 1182.699219 173.6875 1182.3125 174.074219 1181.832031 174.074219 " fill-opacity="1" fill-rule="nonzero"/><path fill="#00bedf" d="M 1181.832031 174.535156 C 1181.445312 174.535156 1181.0625 174.609375 1180.695312 174.75 C 1179.097656 175.375 1178.300781 177.191406 1178.925781 178.792969 C 1179.1875 179.46875 1179.660156 180.015625 1180.296875 180.378906 C 1181.101562 180.832031 1182.097656 180.90625 1182.96875 180.566406 C 1184.570312 179.941406 1185.367188 178.125 1184.742188 176.523438 C 1184.269531 175.316406 1183.128906 174.535156 1181.832031 174.535156 Z M 1181.835938 182.511719 C 1181.003906 182.511719 1180.175781 182.296875 1179.445312 181.886719 C 1178.46875 181.328125 1177.714844 180.453125 1177.3125 179.421875 C 1176.339844 176.929688 1177.578125 174.109375 1180.066406 173.136719 C 1180.632812 172.914062 1181.230469 172.804688 1181.832031 172.804688 C 1183.847656 172.804688 1185.621094 174.015625 1186.355469 175.894531 C 1187.328125 178.386719 1186.089844 181.207031 1183.597656 182.179688 C 1183.03125 182.398438 1182.4375 182.511719 1181.835938 182.511719 " fill-opacity="1" fill-rule="nonzero"/><path fill="#00bedf" d="M 1160.761719 100.125 L 1141.894531 100.125 C 1141.417969 100.125 1141.03125 99.738281 1141.03125 99.257812 C 1141.03125 98.78125 1141.417969 98.394531 1141.894531 98.394531 L 1160.761719 98.394531 C 1161.238281 98.394531 1161.628906 98.78125 1161.628906 99.257812 C 1161.628906 99.738281 1161.238281 100.125 1160.761719 100.125 " fill-opacity="1" fill-rule="nonzero"/><path fill="#00bedf" d="M 1137.90625 96.136719 C 1137.519531 96.136719 1137.136719 96.207031 1136.769531 96.351562 C 1136.09375 96.613281 1135.546875 97.085938 1135.1875 97.71875 C 1134.726562 98.542969 1134.65625 99.519531 1134.996094 100.394531 C 1135.609375 101.960938 1137.449219 102.78125 1139.042969 102.164062 C 1139.816406 101.863281 1140.429688 101.273438 1140.765625 100.511719 C 1141.101562 99.75 1141.117188 98.902344 1140.8125 98.121094 C 1140.34375 96.917969 1139.199219 96.136719 1137.90625 96.136719 Z M 1137.90625 104.113281 C 1135.890625 104.113281 1134.117188 102.902344 1133.382812 101.023438 C 1132.851562 99.664062 1132.960938 98.152344 1133.679688 96.867188 C 1134.234375 95.894531 1135.105469 95.140625 1136.140625 94.734375 C 1136.710938 94.515625 1137.300781 94.402344 1137.90625 94.402344 C 1139.917969 94.402344 1141.695312 95.617188 1142.425781 97.492188 C 1142.898438 98.703125 1142.871094 100.023438 1142.351562 101.207031 C 1141.828125 102.394531 1140.875 103.308594 1139.667969 103.777344 C 1139.101562 104 1138.511719 104.113281 1137.90625 104.113281 " fill-opacity="1" fill-rule="nonzero"/><path fill="#00bedf" d="M 1160.761719 112.738281 L 1149.835938 112.738281 C 1149.363281 112.738281 1148.972656 112.351562 1148.972656 111.871094 C 1148.972656 111.394531 1149.363281 111.007812 1149.835938 111.007812 L 1160.761719 111.007812 C 1161.238281 111.007812 1161.628906 111.394531 1161.628906 111.871094 C 1161.628906 112.351562 1161.238281 112.738281 1160.761719 112.738281 " fill-opacity="1" fill-rule="nonzero"/><path fill="#00bedf" d="M 1146.25 109.546875 C 1145.960938 109.546875 1145.675781 109.601562 1145.402344 109.707031 C 1144.898438 109.902344 1144.492188 110.257812 1144.222656 110.726562 C 1143.878906 111.339844 1143.824219 112.066406 1144.082031 112.71875 C 1144.539062 113.890625 1145.914062 114.503906 1147.09375 114.042969 C 1147.675781 113.816406 1148.132812 113.378906 1148.382812 112.808594 C 1148.628906 112.238281 1148.640625 111.605469 1148.414062 111.027344 C 1148.066406 110.125 1147.214844 109.546875 1146.25 109.546875 Z M 1146.25 115.933594 C 1144.5625 115.933594 1143.082031 114.921875 1142.46875 113.347656 C 1142.023438 112.214844 1142.113281 110.949219 1142.710938 109.875 C 1143.175781 109.0625 1143.90625 108.429688 1144.773438 108.09375 C 1146.824219 107.289062 1149.234375 108.355469 1150.027344 110.398438 C 1150.425781 111.40625 1150.402344 112.511719 1149.96875 113.503906 C 1149.53125 114.496094 1148.734375 115.261719 1147.722656 115.65625 C 1147.25 115.839844 1146.753906 115.933594 1146.25 115.933594 " fill-opacity="1" fill-rule="nonzero"/><path fill="#00bedf" d="M 1263.628906 104.277344 L 1232.554688 104.277344 C 1232.078125 104.277344 1231.6875 103.890625 1231.6875 103.410156 C 1231.6875 102.933594 1232.078125 102.546875 1232.554688 102.546875 L 1262.757812 102.546875 L 1262.757812 97.671875 C 1262.757812 97.191406 1263.144531 96.804688 1263.628906 96.804688 C 1264.101562 96.804688 1264.492188 97.191406 1264.492188 97.671875 L 1264.492188 103.410156 C 1264.492188 103.890625 1264.101562 104.277344 1263.628906 104.277344 " fill-opacity="1" fill-rule="nonzero"/><g clip-path="url(#b48615819b)"><path fill="#00bedf" d="M 1263.625 90.042969 C 1263.238281 90.042969 1262.855469 90.117188 1262.492188 90.257812 C 1261.714844 90.5625 1261.101562 91.148438 1260.765625 91.914062 C 1260.429688 92.675781 1260.414062 93.523438 1260.714844 94.296875 C 1261.328125 95.871094 1263.179688 96.691406 1264.761719 96.074219 C 1265.4375 95.808594 1265.984375 95.335938 1266.34375 94.703125 C 1266.804688 93.882812 1266.875 92.90625 1266.535156 92.03125 C 1266.0625 90.824219 1264.921875 90.042969 1263.625 90.042969 Z M 1263.625 98.019531 C 1261.609375 98.019531 1259.835938 96.808594 1259.101562 94.929688 C 1258.628906 93.722656 1258.660156 92.40625 1259.179688 91.214844 C 1259.699219 90.027344 1260.652344 89.117188 1261.863281 88.644531 C 1262.425781 88.425781 1263.019531 88.3125 1263.625 88.3125 C 1265.640625 88.3125 1267.414062 89.523438 1268.148438 91.402344 C 1268.679688 92.761719 1268.570312 94.277344 1267.851562 95.554688 C 1267.300781 96.523438 1266.425781 97.28125 1265.390625 97.6875 C 1264.824219 97.90625 1264.230469 98.019531 1263.625 98.019531 " fill-opacity="1" fill-rule="nonzero"/></g><path fill="#00bedf" d="M 1251.535156 125.417969 L 1232.667969 125.417969 C 1232.191406 125.417969 1231.804688 125.027344 1231.804688 124.550781 C 1231.804688 124.070312 1232.191406 123.683594 1232.667969 123.683594 L 1251.535156 123.683594 C 1252.011719 123.683594 1252.402344 124.070312 1252.402344 124.550781 C 1252.402344 125.027344 1252.011719 125.417969 1251.535156 125.417969 " fill-opacity="1" fill-rule="nonzero"/><path fill="#00bedf" d="M 1255.523438 121.429688 C 1255.136719 121.429688 1254.757812 121.5 1254.390625 121.640625 C 1253.613281 121.945312 1253 122.53125 1252.667969 123.296875 C 1252.328125 124.058594 1252.3125 124.910156 1252.617188 125.683594 C 1253.230469 127.253906 1255.074219 128.078125 1256.660156 127.457031 C 1257.335938 127.191406 1257.882812 126.71875 1258.246094 126.085938 C 1258.703125 125.265625 1258.773438 124.292969 1258.433594 123.417969 C 1257.964844 122.207031 1256.820312 121.429688 1255.523438 121.429688 Z M 1255.523438 129.40625 C 1253.511719 129.40625 1251.734375 128.191406 1251.003906 126.3125 C 1250.53125 125.105469 1250.558594 123.789062 1251.078125 122.601562 C 1251.601562 121.414062 1252.554688 120.5 1253.761719 120.027344 C 1254.328125 119.808594 1254.921875 119.695312 1255.523438 119.695312 C 1257.539062 119.695312 1259.316406 120.910156 1260.046875 122.785156 C 1260.578125 124.144531 1260.472656 125.660156 1259.753906 126.941406 C 1259.199219 127.914062 1258.324219 128.667969 1257.289062 129.070312 C 1256.722656 129.292969 1256.128906 129.40625 1255.523438 129.40625 " fill-opacity="1" fill-rule="nonzero"/><path fill="#00bedf" d="M 1247.503906 109.546875 C 1247.214844 109.546875 1246.929688 109.601562 1246.660156 109.707031 C 1246.082031 109.933594 1245.621094 110.371094 1245.371094 110.941406 C 1245.125 111.507812 1245.109375 112.140625 1245.335938 112.722656 C 1245.792969 113.894531 1247.171875 114.507812 1248.351562 114.042969 C 1248.855469 113.847656 1249.261719 113.492188 1249.53125 113.019531 C 1249.875 112.410156 1249.925781 111.683594 1249.671875 111.03125 C 1249.320312 110.128906 1248.46875 109.546875 1247.503906 109.546875 Z M 1247.503906 115.9375 C 1245.820312 115.9375 1244.335938 114.921875 1243.722656 113.351562 C 1243.332031 112.34375 1243.351562 111.238281 1243.785156 110.242188 C 1244.222656 109.25 1245.019531 108.488281 1246.03125 108.09375 C 1248.082031 107.289062 1250.488281 108.359375 1251.285156 110.398438 C 1251.730469 111.539062 1251.640625 112.800781 1251.039062 113.875 C 1250.574219 114.6875 1249.847656 115.320312 1248.980469 115.65625 C 1248.503906 115.839844 1248.011719 115.9375 1247.503906 115.9375 " fill-opacity="1" fill-rule="nonzero"/></g></g></g></svg>