<svg xmlns="http://www.w3.org/2000/svg" xmlns:xlink="http://www.w3.org/1999/xlink" width="1920" zoomAndPan="magnify" viewBox="0 0 1440 391.91998" height="513" preserveAspectRatio="xMidYMid meet" version="1.0"><defs><filter x="0%" y="0%" width="100%" height="100%" id="d8f5d4d2be"><feColorMatrix values="0 0 0 0 1 0 0 0 0 1 0 0 0 0 1 0 0 0 1 0" color-interpolation-filters="sRGB"/></filter><g/><clipPath id="b4a427aef3"><path d="M 0.148438 0 L 1439.851562 0 L 1439.851562 384.671875 L 0.148438 384.671875 Z M 0.148438 0 " clip-rule="nonzero"/></clipPath><mask id="f0e4595666"><g filter="url(#d8f5d4d2be)"><rect x="-144" width="1728" fill="#000000" y="-39.191998" height="470.303976" fill-opacity="0.75"/></g></mask><clipPath id="7707a4ff4b"><path d="M 0.148438 0 L 1439.648438 0 L 1439.648438 384.667969 L 0.148438 384.667969 Z M 0.148438 0 " clip-rule="nonzero"/></clipPath><clipPath id="304e06cdcc"><path d="M 75.132812 0 L 1364.230469 0 C 1405.644531 0 1439.214844 33.574219 1439.214844 74.984375 L 1439.214844 309.683594 C 1439.214844 351.097656 1405.644531 384.667969 1364.230469 384.667969 L 75.132812 384.667969 C 33.722656 384.667969 0.148438 351.097656 0.148438 309.683594 L 0.148438 74.984375 C 0.148438 33.574219 33.722656 0 75.132812 0 Z M 75.132812 0 " clip-rule="nonzero"/></clipPath><clipPath id="878bca6bf4"><path d="M 0.148438 0 L 1439.375 0 L 1439.375 384.667969 L 0.148438 384.667969 Z M 0.148438 0 " clip-rule="nonzero"/></clipPath><clipPath id="99f5d3d850"><path d="M 75.132812 0 L 1364.230469 0 C 1405.644531 0 1439.214844 33.574219 1439.214844 74.984375 L 1439.214844 309.683594 C 1439.214844 351.097656 1405.644531 384.667969 1364.230469 384.667969 L 75.132812 384.667969 C 33.722656 384.667969 0.148438 351.097656 0.148438 309.683594 L 0.148438 74.984375 C 0.148438 33.574219 33.722656 0 75.132812 0 Z M 75.132812 0 " clip-rule="nonzero"/></clipPath><clipPath id="79e0fcac31"><rect x="0" width="1440" y="0" height="385"/></clipPath><clipPath id="4ceaaf967f"><path d="M 0.148438 0 L 1439.105469 0 L 1439.105469 384.667969 L 0.148438 384.667969 Z M 0.148438 0 " clip-rule="nonzero"/></clipPath><clipPath id="62442ff0d0"><path d="M 75.132812 0 L 1364.226562 0 C 1405.640625 0 1439.210938 33.570312 1439.210938 74.984375 L 1439.210938 309.683594 C 1439.210938 351.09375 1405.640625 384.667969 1364.226562 384.667969 L 75.132812 384.667969 C 33.71875 384.667969 0.148438 351.09375 0.148438 309.683594 L 0.148438 74.984375 C 0.148438 33.570312 33.71875 0 75.132812 0 Z M 75.132812 0 " clip-rule="nonzero"/></clipPath><clipPath id="a9051a04a3"><rect x="0" width="1440" y="0" height="385"/></clipPath><clipPath id="0c267d9fba"><path d="M 1361 0 L 1439.851562 0 L 1439.851562 279 L 1361 279 Z M 1361 0 " clip-rule="nonzero"/></clipPath><mask id="b4255e4036"><g filter="url(#d8f5d4d2be)"><rect x="-144" width="1728" fill="#000000" y="-39.191998" height="470.303976" fill-opacity="0.04"/></g></mask><clipPath id="3635629e99"><path d="M 0.628906 0 L 78.851562 0 L 78.851562 278.519531 L 0.628906 278.519531 Z M 0.628906 0 " clip-rule="nonzero"/></clipPath><clipPath id="4f7e8841b7"><rect x="0" width="79" y="0" height="279"/></clipPath><mask id="9e75fcd68a"><g filter="url(#d8f5d4d2be)"><rect x="-144" width="1728" fill="#000000" y="-39.191998" height="470.303976" fill-opacity="0.4"/></g></mask><clipPath id="4ae8301fa6"><path d="M 1.320312 0.582031 L 320.757812 0.582031 L 320.757812 190.292969 L 1.320312 190.292969 Z M 1.320312 0.582031 " clip-rule="nonzero"/></clipPath><clipPath id="6806986dd0"><path d="M 1.320312 49.320312 L 1.320312 141.832031 C 1.320312 168.75 23.144531 190.574219 50.0625 190.574219 L 272.140625 190.574219 C 299.058594 190.574219 320.878906 168.75 320.878906 141.832031 L 320.878906 49.320312 C 320.878906 22.402344 299.058594 0.582031 272.140625 0.582031 L 50.0625 0.582031 C 23.144531 0.582031 1.320312 22.402344 1.320312 49.320312 Z M 1.320312 49.320312 " clip-rule="nonzero"/></clipPath><clipPath id="dded1ce074"><path d="M 0.4375 0.582031 L 319.757812 0.582031 L 319.757812 190.292969 L 0.4375 190.292969 Z M 0.4375 0.582031 " clip-rule="nonzero"/></clipPath><clipPath id="9b0e262892"><path d="M 0.320312 49.320312 L 0.320312 141.832031 C 0.320312 168.75 22.144531 190.574219 49.0625 190.574219 L 271.140625 190.574219 C 298.058594 190.574219 319.878906 168.75 319.878906 141.832031 L 319.878906 49.320312 C 319.878906 22.402344 298.058594 0.582031 271.140625 0.582031 L 49.0625 0.582031 C 22.144531 0.582031 0.320312 22.402344 0.320312 49.320312 Z M 0.320312 49.320312 " clip-rule="nonzero"/></clipPath><clipPath id="e44395cd2f"><rect x="0" width="320" y="0" height="191"/></clipPath><clipPath id="6e72d6dc3b"><rect x="0" width="321" y="0" height="191"/></clipPath><mask id="ab3d3f23ad"><g filter="url(#d8f5d4d2be)"><rect x="-144" width="1728" fill="#000000" y="-39.191998" height="470.303976" fill-opacity="0.48"/></g></mask><clipPath id="e971bcea3c"><path d="M 0.234375 0.21875 L 230.4375 0.21875 L 230.4375 163.527344 L 0.234375 163.527344 Z M 0.234375 0.21875 " clip-rule="nonzero"/></clipPath><clipPath id="37e1e75420"><rect x="0" width="231" y="0" height="164"/></clipPath><mask id="44dd2c8e51"><g filter="url(#d8f5d4d2be)"><rect x="-144" width="1728" fill="#000000" y="-39.191998" height="470.303976" fill-opacity="0.43"/></g></mask><clipPath id="83a5dee95b"><path d="M 225 126 L 263.441406 126 L 263.441406 161.738281 L 225 161.738281 Z M 225 126 " clip-rule="nonzero"/></clipPath><clipPath id="17d66bf7ad"><path d="M 1.074219 81 L 203 81 L 203 160 L 1.074219 160 Z M 1.074219 81 " clip-rule="nonzero"/></clipPath><clipPath id="ba171b539f"><path d="M 56 0.519531 L 151 0.519531 L 151 89 L 56 89 Z M 56 0.519531 " clip-rule="nonzero"/></clipPath><clipPath id="ca2ccc130e"><path d="M 180 0.519531 L 246 0.519531 L 246 106 L 180 106 Z M 180 0.519531 " clip-rule="nonzero"/></clipPath><clipPath id="790099def3"><rect x="0" width="264" y="0" height="162"/></clipPath><clipPath id="506e8dc838"><path d="M 1190 25.621094 L 1201 25.621094 L 1201 37 L 1190 37 Z M 1190 25.621094 " clip-rule="nonzero"/></clipPath><clipPath id="126f59104e"><path d="M 1225 171 L 1236 171 L 1236 181.589844 L 1225 181.589844 Z M 1225 171 " clip-rule="nonzero"/></clipPath><clipPath id="297978ef3c"><path d="M 1198 171 L 1209 171 L 1209 181.589844 L 1198 181.589844 Z M 1198 171 " clip-rule="nonzero"/></clipPath></defs><g clip-path="url(#b4a427aef3)"><g mask="url(#f0e4595666)"><g><g clip-path="url(#a9051a04a3)"><g clip-path="url(#7707a4ff4b)"><g clip-path="url(#304e06cdcc)"><g><g clip-path="url(#79e0fcac31)"><g clip-path="url(#878bca6bf4)"><g clip-path="url(#99f5d3d850)"><path fill="#00caff" d="M 0.148438 384.667969 L 0.148438 0 L 1439.648438 0 L 1439.648438 384.667969 Z M 0.148438 384.667969 " fill-opacity="1" fill-rule="nonzero"/></g></g></g></g></g></g><g clip-path="url(#4ceaaf967f)"><g clip-path="url(#62442ff0d0)"><path stroke-linecap="butt" transform="matrix(0, -0.749847, 0.749847, 0, 0.14931, 384.666786)" fill="none" stroke-linejoin="miter" d="M 512.993789 99.998421 L 512.993789 1819.141092 C 512.993789 1874.371119 468.224231 1919.140676 412.994205 1919.140676 L 99.998007 1919.140676 C 44.77319 1919.140676 -0.00157668 1874.371119 -0.00157668 1819.141092 L -0.00157668 99.998421 C -0.00157668 44.768394 44.77319 -0.00116308 99.998007 -0.00116308 L 412.994205 -0.00116308 C 468.224231 -0.00116308 512.993789 44.768394 512.993789 99.998421 Z M 512.993789 99.998421 " stroke="#ffffff" stroke-width="54" stroke-opacity="1" stroke-miterlimit="4"/></g></g></g></g></g></g><g clip-path="url(#0c267d9fba)"><g mask="url(#b4255e4036)"><g transform="matrix(1, 0, 0, 1, 1361, 0)"><g clip-path="url(#4f7e8841b7)"><g clip-path="url(#3635629e99)"><path fill="#231f20" d="M 0.695312 -9.210938 L 80.046875 -9.210938 L 80.046875 278.519531 Z M 0.695312 -9.210938 " fill-opacity="1" fill-rule="nonzero"/></g></g></g></g></g><g mask="url(#9e75fcd68a)"><g transform="matrix(1, 0, 0, 1, 20, 173)"><g clip-path="url(#6e72d6dc3b)"><g clip-path="url(#4ae8301fa6)"><g clip-path="url(#6806986dd0)"><g transform="matrix(1, 0, 0, 1, 1, 0)"><g clip-path="url(#e44395cd2f)"><g clip-path="url(#dded1ce074)"><g clip-path="url(#9b0e262892)"><path fill="#02bbc6" d="M 0.316406 0.652344 L 0.316406 190.515625 L 319.875 190.515625 Z M 0.316406 0.652344 " fill-opacity="1" fill-rule="nonzero"/></g></g></g></g></g></g></g></g></g><g mask="url(#ab3d3f23ad)"><g transform="matrix(1, 0, 0, 1, 380, 200)"><g clip-path="url(#37e1e75420)"><g clip-path="url(#e971bcea3c)"><path fill="#03bfe8" d="M 192.296875 144.3125 C 202.90625 144.3125 211.40625 135.71875 211.40625 125.105469 L 211.503906 19.472656 C 211.503906 8.859375 202.90625 0.265625 192.296875 0.265625 L 38.648438 0.265625 C 28.035156 0.265625 19.441406 8.859375 19.441406 19.472656 L 19.441406 125.105469 C 19.441406 135.71875 28.035156 144.3125 38.648438 144.3125 L 0.234375 144.3125 C 0.234375 154.921875 8.832031 163.519531 19.441406 163.519531 L 211.503906 163.519531 C 222.113281 163.519531 230.707031 154.921875 230.707031 144.3125 Z M 38.648438 19.472656 L 192.296875 19.472656 L 192.296875 125.105469 L 38.648438 125.105469 Z M 115.472656 153.914062 C 110.191406 153.914062 105.867188 149.59375 105.867188 144.3125 C 105.867188 139.03125 110.191406 134.707031 115.472656 134.707031 C 120.753906 134.707031 125.074219 139.03125 125.074219 144.3125 C 125.074219 149.59375 120.753906 153.914062 115.472656 153.914062 Z M 115.472656 153.914062 " fill-opacity="1" fill-rule="nonzero"/></g></g></g></g><g fill="#f7f7f7" fill-opacity="1"><g transform="translate(410.849589, 231.327759)"><g><path d="M 9.25 0 L 9.25 -73.5 L 24.84375 -73.5 L 24.84375 0 Z M 9.25 0 "/></g></g></g><g fill="#f7f7f7" fill-opacity="1"><g transform="translate(444.939967, 231.327759)"><g><path d="M 59.9375 0 L 44.59375 0 L 44.59375 -32.828125 C 44.59375 -36.890625 43.867188 -39.929688 42.421875 -41.953125 C 40.984375 -43.984375 38.691406 -45 35.546875 -45 C 31.253906 -45 28.148438 -43.566406 26.234375 -40.703125 C 24.328125 -37.835938 23.375 -33.085938 23.375 -26.453125 L 23.375 0 L 8.046875 0 L 8.046875 -56.203125 L 19.765625 -56.203125 L 21.828125 -49.015625 L 22.671875 -49.015625 C 24.378906 -51.734375 26.734375 -53.785156 29.734375 -55.171875 C 32.734375 -56.566406 36.144531 -57.265625 39.96875 -57.265625 C 46.507812 -57.265625 51.472656 -55.492188 54.859375 -51.953125 C 58.242188 -48.421875 59.9375 -43.320312 59.9375 -36.65625 Z M 59.9375 0 "/></g></g></g><g fill="#f7f7f7" fill-opacity="1"><g transform="translate(512.617915, 231.327759)"><g><path d="M 39.109375 -44.703125 L 25.84375 -44.703125 L 25.84375 0 L 10.515625 0 L 10.515625 -44.703125 L 2.0625 -44.703125 L 2.0625 -52.09375 L 10.515625 -56.203125 L 10.515625 -60.328125 C 10.515625 -66.734375 12.085938 -71.410156 15.234375 -74.359375 C 18.378906 -77.304688 23.425781 -78.78125 30.375 -78.78125 C 35.664062 -78.78125 40.375 -77.992188 44.5 -76.421875 L 40.578125 -65.15625 C 37.492188 -66.132812 34.644531 -66.625 32.03125 -66.625 C 29.851562 -66.625 28.273438 -65.976562 27.296875 -64.6875 C 26.328125 -63.394531 25.84375 -61.742188 25.84375 -59.734375 L 25.84375 -56.203125 L 39.109375 -56.203125 Z M 39.109375 -44.703125 "/></g></g></g><g fill="#f7f7f7" fill-opacity="1"><g transform="translate(552.490589, 231.327759)"><g><path d="M 20.265625 -28.203125 C 20.265625 -22.640625 21.175781 -18.429688 23 -15.578125 C 24.832031 -12.734375 27.804688 -11.3125 31.921875 -11.3125 C 36.015625 -11.3125 38.957031 -12.726562 40.75 -15.5625 C 42.539062 -18.394531 43.4375 -22.609375 43.4375 -28.203125 C 43.4375 -33.765625 42.53125 -37.9375 40.71875 -40.71875 C 38.914062 -43.5 35.953125 -44.890625 31.828125 -44.890625 C 27.734375 -44.890625 24.78125 -43.507812 22.96875 -40.75 C 21.164062 -37.988281 20.265625 -33.804688 20.265625 -28.203125 Z M 59.125 -28.203125 C 59.125 -19.054688 56.707031 -11.898438 51.875 -6.734375 C 47.050781 -1.578125 40.332031 1 31.71875 1 C 26.320312 1 21.5625 -0.175781 17.4375 -2.53125 C 13.320312 -4.894531 10.15625 -8.289062 7.9375 -12.71875 C 5.726562 -17.144531 4.625 -22.304688 4.625 -28.203125 C 4.625 -37.390625 7.019531 -44.53125 11.8125 -49.625 C 16.601562 -54.71875 23.34375 -57.265625 32.03125 -57.265625 C 37.425781 -57.265625 42.179688 -56.09375 46.296875 -53.75 C 50.421875 -51.40625 53.585938 -48.035156 55.796875 -43.640625 C 58.015625 -39.242188 59.125 -34.097656 59.125 -28.203125 Z M 59.125 -28.203125 "/></g></g></g><g fill="#f7f7f7" fill-opacity="1"><g transform="translate(616.246624, 231.327759)"><g><path d="M 39.421875 -57.265625 C 41.492188 -57.265625 43.21875 -57.113281 44.59375 -56.8125 L 43.4375 -42.4375 C 42.195312 -42.769531 40.691406 -42.9375 38.921875 -42.9375 C 34.023438 -42.9375 30.207031 -41.675781 27.46875 -39.15625 C 24.738281 -36.644531 23.375 -33.128906 23.375 -28.609375 L 23.375 0 L 8.046875 0 L 8.046875 -56.203125 L 19.65625 -56.203125 L 21.921875 -46.765625 L 22.671875 -46.765625 C 24.421875 -49.910156 26.773438 -52.445312 29.734375 -54.375 C 32.703125 -56.300781 35.929688 -57.265625 39.421875 -57.265625 Z M 39.421875 -57.265625 "/></g></g></g><g fill="#f7f7f7" fill-opacity="1"><g transform="translate(663.007773, 231.327759)"><g><path d="M 58.375 0 L 43.03125 0 L 43.03125 -32.828125 C 43.03125 -36.890625 42.351562 -39.929688 41 -41.953125 C 39.644531 -43.984375 37.507812 -45 34.59375 -45 C 30.664062 -45 27.8125 -43.554688 26.03125 -40.671875 C 24.257812 -37.785156 23.375 -33.046875 23.375 -26.453125 L 23.375 0 L 8.046875 0 L 8.046875 -56.203125 L 19.765625 -56.203125 L 21.828125 -49.015625 L 22.671875 -49.015625 C 24.179688 -51.597656 26.359375 -53.617188 29.203125 -55.078125 C 32.054688 -56.535156 35.328125 -57.265625 39.015625 -57.265625 C 47.429688 -57.265625 53.128906 -54.515625 56.109375 -49.015625 L 57.46875 -49.015625 C 58.976562 -51.628906 61.195312 -53.65625 64.125 -55.09375 C 67.0625 -56.539062 70.375 -57.265625 74.0625 -57.265625 C 80.425781 -57.265625 85.242188 -55.628906 88.515625 -52.359375 C 91.785156 -49.097656 93.421875 -43.863281 93.421875 -36.65625 L 93.421875 0 L 78.03125 0 L 78.03125 -32.828125 C 78.03125 -36.890625 77.347656 -39.929688 75.984375 -41.953125 C 74.628906 -43.984375 72.492188 -45 69.578125 -45 C 65.828125 -45 63.019531 -43.65625 61.15625 -40.96875 C 59.300781 -38.289062 58.375 -34.035156 58.375 -28.203125 Z M 58.375 0 "/></g></g></g><g fill="#f7f7f7" fill-opacity="1"><g transform="translate(764.122454, 231.327759)"><g><path d="M 43.734375 0 L 40.78125 -7.640625 L 40.375 -7.640625 C 37.789062 -4.390625 35.132812 -2.132812 32.40625 -0.875 C 29.675781 0.375 26.113281 1 21.71875 1 C 16.320312 1 12.070312 -0.539062 8.96875 -3.625 C 5.875 -6.707031 4.328125 -11.097656 4.328125 -16.796875 C 4.328125 -22.765625 6.410156 -27.160156 10.578125 -29.984375 C 14.753906 -32.816406 21.050781 -34.382812 29.46875 -34.6875 L 39.21875 -35 L 39.21875 -37.453125 C 39.21875 -43.148438 36.300781 -46 30.46875 -46 C 25.976562 -46 20.695312 -44.644531 14.625 -41.9375 L 9.546875 -52.28125 C 16.015625 -55.664062 23.191406 -57.359375 31.078125 -57.359375 C 38.617188 -57.359375 44.398438 -55.71875 48.421875 -52.4375 C 52.441406 -49.15625 54.453125 -44.160156 54.453125 -37.453125 L 54.453125 0 Z M 39.21875 -26.046875 L 33.28125 -25.84375 C 28.820312 -25.707031 25.503906 -24.898438 23.328125 -23.421875 C 21.148438 -21.953125 20.0625 -19.707031 20.0625 -16.6875 C 20.0625 -12.363281 22.539062 -10.203125 27.5 -10.203125 C 31.050781 -10.203125 33.890625 -11.222656 36.015625 -13.265625 C 38.148438 -15.316406 39.21875 -18.035156 39.21875 -21.421875 Z M 39.21875 -26.046875 "/></g></g></g><g fill="#f7f7f7" fill-opacity="1"><g transform="translate(826.319812, 231.327759)"><g><path d="M 31.71875 -11.21875 C 34.40625 -11.21875 37.625 -11.800781 41.375 -12.96875 L 41.375 -1.5625 C 37.550781 0.144531 32.859375 1 27.296875 1 C 21.160156 1 16.691406 -0.546875 13.890625 -3.640625 C 11.097656 -6.742188 9.703125 -11.394531 9.703125 -17.59375 L 9.703125 -44.703125 L 2.359375 -44.703125 L 2.359375 -51.1875 L 10.8125 -56.3125 L 15.234375 -68.171875 L 25.03125 -68.171875 L 25.03125 -56.203125 L 40.78125 -56.203125 L 40.78125 -44.703125 L 25.03125 -44.703125 L 25.03125 -17.59375 C 25.03125 -15.414062 25.640625 -13.804688 26.859375 -12.765625 C 28.085938 -11.734375 29.707031 -11.21875 31.71875 -11.21875 Z M 31.71875 -11.21875 "/></g></g></g><g fill="#f7f7f7" fill-opacity="1"><g transform="translate(871.019409, 231.327759)"><g><path d="M 7.390625 -70.734375 C 7.390625 -75.734375 10.171875 -78.234375 15.734375 -78.234375 C 21.296875 -78.234375 24.078125 -75.734375 24.078125 -70.734375 C 24.078125 -68.359375 23.378906 -66.507812 21.984375 -65.1875 C 20.597656 -63.863281 18.515625 -63.203125 15.734375 -63.203125 C 10.171875 -63.203125 7.390625 -65.710938 7.390625 -70.734375 Z M 23.375 0 L 8.046875 0 L 8.046875 -56.203125 L 23.375 -56.203125 Z M 23.375 0 "/></g></g></g><g fill="#f7f7f7" fill-opacity="1"><g transform="translate(902.444922, 231.327759)"><g><path d="M 22.78125 -30.5625 L 29.46875 -39.109375 L 45.203125 -56.203125 L 62.5 -56.203125 L 40.171875 -31.828125 L 63.859375 0 L 46.15625 0 L 29.96875 -22.78125 L 23.375 -17.5 L 23.375 0 L 8.046875 0 L 8.046875 -78.234375 L 23.375 -78.234375 L 23.375 -43.34375 L 22.578125 -30.5625 Z M 22.78125 -30.5625 "/></g></g></g><g fill="#f7f7f7" fill-opacity="1"><g transform="translate(966.301541, 231.327759)"><g><path d="M 43.734375 0 L 40.78125 -7.640625 L 40.375 -7.640625 C 37.789062 -4.390625 35.132812 -2.132812 32.40625 -0.875 C 29.675781 0.375 26.113281 1 21.71875 1 C 16.320312 1 12.070312 -0.539062 8.96875 -3.625 C 5.875 -6.707031 4.328125 -11.097656 4.328125 -16.796875 C 4.328125 -22.765625 6.410156 -27.160156 10.578125 -29.984375 C 14.753906 -32.816406 21.050781 -34.382812 29.46875 -34.6875 L 39.21875 -35 L 39.21875 -37.453125 C 39.21875 -43.148438 36.300781 -46 30.46875 -46 C 25.976562 -46 20.695312 -44.644531 14.625 -41.9375 L 9.546875 -52.28125 C 16.015625 -55.664062 23.191406 -57.359375 31.078125 -57.359375 C 38.617188 -57.359375 44.398438 -55.71875 48.421875 -52.4375 C 52.441406 -49.15625 54.453125 -44.160156 54.453125 -37.453125 L 54.453125 0 Z M 39.21875 -26.046875 L 33.28125 -25.84375 C 28.820312 -25.707031 25.503906 -24.898438 23.328125 -23.421875 C 21.148438 -21.953125 20.0625 -19.707031 20.0625 -16.6875 C 20.0625 -12.363281 22.539062 -10.203125 27.5 -10.203125 C 31.050781 -10.203125 33.890625 -11.222656 36.015625 -13.265625 C 38.148438 -15.316406 39.21875 -18.035156 39.21875 -21.421875 Z M 39.21875 -26.046875 "/></g></g></g><g mask="url(#44dd2c8e51)"><g transform="matrix(1, 0, 0, 1, 649, 202)"><g clip-path="url(#790099def3)"><g clip-path="url(#83a5dee95b)"><path fill="#d8d5ff" d="M 262.113281 126.683594 C 256.097656 143.09375 250.230469 140.230469 245.042969 140.304688 C 236.386719 140.417969 229.574219 133.558594 226.96875 126.683594 C 226.777344 128.351562 226.570312 129.960938 226.289062 131.359375 C 223.355469 145.816406 234.394531 161.316406 244.53125 161.5625 C 254.675781 161.316406 265.722656 145.816406 262.789062 131.359375 C 262.496094 129.960938 262.300781 128.359375 262.113281 126.683594 " fill-opacity="1" fill-rule="nonzero"/></g><path fill="#03bfe8" d="M 262.113281 126.683594 C 261.472656 120.941406 261.085938 114.1875 258.757812 110.480469 C 255.421875 105.175781 249.871094 104.460938 244.53125 104.441406 C 239.203125 104.460938 233.640625 105.175781 230.320312 110.480469 C 227.988281 114.1875 227.605469 120.941406 226.964844 126.683594 C 229.539062 133.46875 232.675781 148.8125 244.699219 148.8125 C 254.917969 148.8125 259.40625 136.777344 262.113281 126.683594 " fill-opacity="1" fill-rule="nonzero"/><path fill="#d8d5ff" d="M 248.539062 119.8125 C 248.539062 126.535156 246.742188 131.984375 244.535156 131.984375 C 242.324219 131.984375 240.53125 126.535156 240.53125 119.8125 C 240.53125 113.097656 242.324219 107.648438 244.535156 107.648438 C 246.742188 107.648438 248.539062 113.097656 248.539062 119.8125 " fill-opacity="1" fill-rule="nonzero"/><path fill="#02bbc6" d="M 246.390625 123.445312 C 246.390625 124.464844 245.558594 125.292969 244.53125 125.292969 C 243.507812 125.292969 242.679688 124.464844 242.679688 123.445312 L 242.679688 116.191406 C 242.679688 115.167969 243.507812 114.347656 244.53125 114.347656 C 245.558594 114.347656 246.390625 115.167969 246.390625 116.191406 L 246.390625 123.445312 " fill-opacity="1" fill-rule="nonzero"/><g clip-path="url(#17d66bf7ad)"><path fill="#03bfe8" d="M 1.128906 159.265625 L 202.949219 159.265625 L 202.949219 81.660156 L 1.128906 81.660156 L 1.128906 159.265625 " fill-opacity="1" fill-rule="nonzero"/></g><path fill="#02bbc6" d="M 16.921875 102.609375 L 8.15625 102.609375 L 8.15625 93.855469 L 16.921875 93.855469 L 16.921875 102.609375 " fill-opacity="1" fill-rule="nonzero"/><path fill="#02bbc6" d="M 16.921875 113.574219 L 8.15625 113.574219 L 8.15625 104.8125 L 16.921875 104.8125 L 16.921875 113.574219 " fill-opacity="1" fill-rule="nonzero"/><path fill="#02bbc6" d="M 19.976562 124.535156 L 8.15625 124.535156 L 8.15625 115.765625 L 19.976562 115.765625 L 19.976562 124.535156 " fill-opacity="1" fill-rule="nonzero"/><path fill="#02bbc6" d="M 23.523438 135.804688 L 8.15625 135.804688 L 8.15625 127.035156 L 23.523438 127.035156 L 23.523438 135.804688 " fill-opacity="1" fill-rule="nonzero"/><path fill="#02bbc6" d="M 20.839844 147.066406 L 8.15625 147.066406 L 8.15625 138.304688 L 20.839844 138.304688 L 20.839844 147.066406 " fill-opacity="1" fill-rule="nonzero"/><path fill="#02bbc6" d="M 30.945312 124.535156 L 22.175781 124.535156 L 22.175781 115.765625 L 30.945312 115.765625 L 30.945312 124.535156 " fill-opacity="1" fill-rule="nonzero"/><path fill="#02bbc6" d="M 35.398438 135.804688 L 26.628906 135.804688 L 26.628906 127.035156 L 35.398438 127.035156 L 35.398438 135.804688 " fill-opacity="1" fill-rule="nonzero"/><path fill="#02bbc6" d="M 33.042969 147.066406 L 24.277344 147.066406 L 24.277344 138.304688 L 33.042969 138.304688 L 33.042969 147.066406 " fill-opacity="1" fill-rule="nonzero"/><path fill="#02bbc6" d="M 44.167969 147.066406 L 35.398438 147.066406 L 35.398438 138.304688 L 44.167969 138.304688 L 44.167969 147.066406 " fill-opacity="1" fill-rule="nonzero"/><path fill="#02bbc6" d="M 94.226562 147.066406 L 46.515625 147.066406 L 46.515625 138.304688 L 94.226562 138.304688 L 94.226562 147.066406 " fill-opacity="1" fill-rule="nonzero"/><path fill="#02bbc6" d="M 46.664062 135.804688 L 37.894531 135.804688 L 37.894531 127.035156 L 46.664062 127.035156 L 46.664062 135.804688 " fill-opacity="1" fill-rule="nonzero"/><path fill="#02bbc6" d="M 57.925781 135.804688 L 49.167969 135.804688 L 49.167969 127.035156 L 57.925781 127.035156 L 57.925781 135.804688 " fill-opacity="1" fill-rule="nonzero"/><path fill="#02bbc6" d="M 69.195312 135.804688 L 60.425781 135.804688 L 60.425781 127.035156 L 69.195312 127.035156 L 69.195312 135.804688 " fill-opacity="1" fill-rule="nonzero"/><path fill="#02bbc6" d="M 80.453125 135.804688 L 71.691406 135.804688 L 71.691406 127.035156 L 80.453125 127.035156 L 80.453125 135.804688 " fill-opacity="1" fill-rule="nonzero"/><path fill="#02bbc6" d="M 91.71875 135.804688 L 82.957031 135.804688 L 82.957031 127.035156 L 91.71875 127.035156 L 91.71875 135.804688 " fill-opacity="1" fill-rule="nonzero"/><path fill="#02bbc6" d="M 102.992188 135.804688 L 94.226562 135.804688 L 94.226562 127.035156 L 102.992188 127.035156 L 102.992188 135.804688 " fill-opacity="1" fill-rule="nonzero"/><path fill="#02bbc6" d="M 105.207031 147.066406 L 96.4375 147.066406 L 96.4375 138.304688 L 105.207031 138.304688 L 105.207031 147.066406 " fill-opacity="1" fill-rule="nonzero"/><path fill="#02bbc6" d="M 116.792969 147.066406 L 108.027344 147.066406 L 108.027344 138.304688 L 116.792969 138.304688 L 116.792969 147.066406 " fill-opacity="1" fill-rule="nonzero"/><path fill="#02bbc6" d="M 128.378906 147.066406 L 119.613281 147.066406 L 119.613281 138.304688 L 128.378906 138.304688 L 128.378906 147.066406 " fill-opacity="1" fill-rule="nonzero"/><path fill="#02bbc6" d="M 141.523438 147.066406 L 131.195312 147.066406 L 131.195312 138.304688 L 141.523438 138.304688 L 141.523438 147.066406 " fill-opacity="1" fill-rule="nonzero"/><path fill="#02bbc6" d="M 114.257812 135.804688 L 105.488281 135.804688 L 105.488281 127.035156 L 114.257812 127.035156 L 114.257812 135.804688 " fill-opacity="1" fill-rule="nonzero"/><path fill="#02bbc6" d="M 141.523438 135.804688 L 116.753906 135.804688 L 116.753906 127.035156 L 141.523438 127.035156 L 141.523438 135.804688 " fill-opacity="1" fill-rule="nonzero"/><path fill="#02bbc6" d="M 42.277344 124.535156 L 33.511719 124.535156 L 33.511719 115.765625 L 42.277344 115.765625 L 42.277344 124.535156 " fill-opacity="1" fill-rule="nonzero"/><path fill="#02bbc6" d="M 53.609375 124.535156 L 44.839844 124.535156 L 44.839844 115.765625 L 53.609375 115.765625 L 53.609375 124.535156 " fill-opacity="1" fill-rule="nonzero"/><path fill="#02bbc6" d="M 64.945312 124.535156 L 56.179688 124.535156 L 56.179688 115.765625 L 64.945312 115.765625 L 64.945312 124.535156 " fill-opacity="1" fill-rule="nonzero"/><path fill="#02bbc6" d="M 76.28125 124.535156 L 67.511719 124.535156 L 67.511719 115.765625 L 76.28125 115.765625 L 76.28125 124.535156 " fill-opacity="1" fill-rule="nonzero"/><path fill="#02bbc6" d="M 87.613281 124.535156 L 78.84375 124.535156 L 78.84375 115.765625 L 87.613281 115.765625 L 87.613281 124.535156 " fill-opacity="1" fill-rule="nonzero"/><path fill="#02bbc6" d="M 98.945312 124.535156 L 90.171875 124.535156 L 90.171875 115.765625 L 98.945312 115.765625 L 98.945312 124.535156 " fill-opacity="1" fill-rule="nonzero"/><path fill="#02bbc6" d="M 110.273438 124.535156 L 101.507812 124.535156 L 101.507812 115.765625 L 110.273438 115.765625 L 110.273438 124.535156 " fill-opacity="1" fill-rule="nonzero"/><path fill="#02bbc6" d="M 121.609375 124.535156 L 112.839844 124.535156 L 112.839844 115.765625 L 121.609375 115.765625 L 121.609375 124.535156 " fill-opacity="1" fill-rule="nonzero"/><path fill="#02bbc6" d="M 141.523438 124.535156 L 124.171875 124.535156 L 124.171875 115.765625 L 141.523438 115.765625 L 141.523438 124.535156 " fill-opacity="1" fill-rule="nonzero"/><path fill="#02bbc6" d="M 40.554688 113.574219 L 31.789062 113.574219 L 31.789062 104.8125 L 40.554688 104.8125 L 40.554688 113.574219 " fill-opacity="1" fill-rule="nonzero"/><path fill="#02bbc6" d="M 52.371094 113.574219 L 43.609375 113.574219 L 43.609375 104.8125 L 52.371094 104.8125 L 52.371094 113.574219 " fill-opacity="1" fill-rule="nonzero"/><path fill="#02bbc6" d="M 64.191406 113.574219 L 55.429688 113.574219 L 55.429688 104.8125 L 64.191406 104.8125 L 64.191406 113.574219 " fill-opacity="1" fill-rule="nonzero"/><path fill="#02bbc6" d="M 76.003906 113.574219 L 67.242188 113.574219 L 67.242188 104.8125 L 76.003906 104.8125 L 76.003906 113.574219 " fill-opacity="1" fill-rule="nonzero"/><path fill="#02bbc6" d="M 87.820312 113.574219 L 79.054688 113.574219 L 79.054688 104.8125 L 87.820312 104.8125 L 87.820312 113.574219 " fill-opacity="1" fill-rule="nonzero"/><path fill="#02bbc6" d="M 99.644531 113.574219 L 90.871094 113.574219 L 90.871094 104.8125 L 99.644531 104.8125 L 99.644531 113.574219 " fill-opacity="1" fill-rule="nonzero"/><path fill="#02bbc6" d="M 111.457031 113.574219 L 102.695312 113.574219 L 102.695312 104.8125 L 111.457031 104.8125 L 111.457031 113.574219 " fill-opacity="1" fill-rule="nonzero"/><path fill="#02bbc6" d="M 123.277344 113.574219 L 114.507812 113.574219 L 114.507812 104.8125 L 123.277344 104.8125 L 123.277344 113.574219 " fill-opacity="1" fill-rule="nonzero"/><path fill="#02bbc6" d="M 141.523438 113.574219 L 126.328125 113.574219 L 126.328125 104.8125 L 141.523438 104.8125 L 141.523438 113.574219 " fill-opacity="1" fill-rule="nonzero"/><path fill="#02bbc6" d="M 29.601562 102.609375 L 20.839844 102.609375 L 20.839844 93.855469 L 29.601562 93.855469 L 29.601562 102.609375 " fill-opacity="1" fill-rule="nonzero"/><path fill="#02bbc6" d="M 39.785156 102.609375 L 31.011719 102.609375 L 31.011719 93.855469 L 39.785156 93.855469 L 39.785156 102.609375 " fill-opacity="1" fill-rule="nonzero"/><path fill="#02bbc6" d="M 49.957031 102.609375 L 41.183594 102.609375 L 41.183594 93.855469 L 49.957031 93.855469 L 49.957031 102.609375 " fill-opacity="1" fill-rule="nonzero"/><path fill="#02bbc6" d="M 60.128906 102.609375 L 51.363281 102.609375 L 51.363281 93.855469 L 60.128906 93.855469 L 60.128906 102.609375 " fill-opacity="1" fill-rule="nonzero"/><path fill="#02bbc6" d="M 70.308594 102.609375 L 61.539062 102.609375 L 61.539062 93.855469 L 70.308594 93.855469 L 70.308594 102.609375 " fill-opacity="1" fill-rule="nonzero"/><path fill="#02bbc6" d="M 80.476562 102.609375 L 71.714844 102.609375 L 71.714844 93.855469 L 80.476562 93.855469 L 80.476562 102.609375 " fill-opacity="1" fill-rule="nonzero"/><path fill="#02bbc6" d="M 90.652344 102.609375 L 81.886719 102.609375 L 81.886719 93.855469 L 90.652344 93.855469 L 90.652344 102.609375 " fill-opacity="1" fill-rule="nonzero"/><path fill="#02bbc6" d="M 100.832031 102.609375 L 92.0625 102.609375 L 92.0625 93.855469 L 100.832031 93.855469 L 100.832031 102.609375 " fill-opacity="1" fill-rule="nonzero"/><path fill="#02bbc6" d="M 111 102.609375 L 102.238281 102.609375 L 102.238281 93.855469 L 111 93.855469 L 111 102.609375 " fill-opacity="1" fill-rule="nonzero"/><path fill="#02bbc6" d="M 121.175781 102.609375 L 112.410156 102.609375 L 112.410156 93.855469 L 121.175781 93.855469 L 121.175781 102.609375 " fill-opacity="1" fill-rule="nonzero"/><path fill="#02bbc6" d="M 131.355469 102.609375 L 122.589844 102.609375 L 122.589844 93.855469 L 131.355469 93.855469 L 131.355469 102.609375 " fill-opacity="1" fill-rule="nonzero"/><path fill="#02bbc6" d="M 141.523438 102.609375 L 132.757812 102.609375 L 132.757812 93.855469 L 141.523438 93.855469 L 141.523438 102.609375 " fill-opacity="1" fill-rule="nonzero"/><path fill="#02bbc6" d="M 152.484375 102.609375 L 143.714844 102.609375 L 143.714844 93.855469 L 152.484375 93.855469 L 152.484375 102.609375 " fill-opacity="1" fill-rule="nonzero"/><path fill="#02bbc6" d="M 152.484375 113.574219 L 143.714844 113.574219 L 143.714844 104.8125 L 152.484375 104.8125 L 152.484375 113.574219 " fill-opacity="1" fill-rule="nonzero"/><path fill="#02bbc6" d="M 152.484375 124.535156 L 143.714844 124.535156 L 143.714844 115.765625 L 152.484375 115.765625 L 152.484375 124.535156 " fill-opacity="1" fill-rule="nonzero"/><path fill="#02bbc6" d="M 152.484375 147.066406 L 143.714844 147.066406 L 143.714844 138.304688 L 152.484375 138.304688 L 152.484375 147.066406 " fill-opacity="1" fill-rule="nonzero"/><path fill="#02bbc6" d="M 163.4375 147.066406 L 154.671875 147.066406 L 154.671875 138.304688 L 163.4375 138.304688 L 163.4375 147.066406 " fill-opacity="1" fill-rule="nonzero"/><path fill="#02bbc6" d="M 163.4375 135.804688 L 154.671875 135.804688 L 154.671875 127.035156 L 163.4375 127.035156 L 163.4375 135.804688 " fill-opacity="1" fill-rule="nonzero"/><path fill="#02bbc6" d="M 174.386719 147.066406 L 165.625 147.066406 L 165.625 138.304688 L 174.386719 138.304688 L 174.386719 147.066406 " fill-opacity="1" fill-rule="nonzero"/><path fill="#02bbc6" d="M 163.4375 113.574219 L 154.671875 113.574219 L 154.671875 104.8125 L 163.4375 104.8125 L 163.4375 113.574219 " fill-opacity="1" fill-rule="nonzero"/><path fill="#02bbc6" d="M 163.4375 124.535156 L 154.671875 124.535156 L 154.671875 115.765625 L 163.4375 115.765625 L 163.4375 124.535156 " fill-opacity="1" fill-rule="nonzero"/><path fill="#02bbc6" d="M 174.386719 113.574219 L 165.625 113.574219 L 165.625 104.8125 L 174.386719 104.8125 L 174.386719 113.574219 " fill-opacity="1" fill-rule="nonzero"/><path fill="#02bbc6" d="M 185.351562 113.574219 L 176.582031 113.574219 L 176.582031 104.8125 L 185.351562 104.8125 L 185.351562 113.574219 " fill-opacity="1" fill-rule="nonzero"/><path fill="#02bbc6" d="M 196.308594 113.574219 L 187.539062 113.574219 L 187.539062 104.8125 L 196.308594 104.8125 L 196.308594 113.574219 " fill-opacity="1" fill-rule="nonzero"/><path fill="#02bbc6" d="M 185.351562 124.535156 L 176.582031 124.535156 L 176.582031 115.765625 L 185.351562 115.765625 L 185.351562 124.535156 " fill-opacity="1" fill-rule="nonzero"/><path fill="#02bbc6" d="M 196.308594 124.535156 L 187.539062 124.535156 L 187.539062 115.765625 L 196.308594 115.765625 L 196.308594 124.535156 " fill-opacity="1" fill-rule="nonzero"/><path fill="#02bbc6" d="M 185.351562 135.488281 L 176.582031 135.488281 L 176.582031 126.722656 L 185.351562 126.722656 L 185.351562 135.488281 " fill-opacity="1" fill-rule="nonzero"/><path fill="#02bbc6" d="M 196.308594 135.488281 L 187.539062 135.488281 L 187.539062 126.722656 L 196.308594 126.722656 L 196.308594 135.488281 " fill-opacity="1" fill-rule="nonzero"/><path fill="#02bbc6" d="M 185.351562 147.066406 L 176.582031 147.066406 L 176.582031 138.304688 L 185.351562 138.304688 L 185.351562 147.066406 " fill-opacity="1" fill-rule="nonzero"/><path fill="#02bbc6" d="M 196.308594 147.066406 L 187.539062 147.066406 L 187.539062 138.304688 L 196.308594 138.304688 L 196.308594 147.066406 " fill-opacity="1" fill-rule="nonzero"/><path fill="#02bbc6" d="M 174.386719 124.535156 L 165.625 124.535156 L 165.625 115.765625 L 174.386719 115.765625 L 174.386719 124.535156 " fill-opacity="1" fill-rule="nonzero"/><path fill="#02bbc6" d="M 163.4375 102.609375 L 154.671875 102.609375 L 154.671875 93.855469 L 163.4375 93.855469 L 163.4375 102.609375 " fill-opacity="1" fill-rule="nonzero"/><path fill="#02bbc6" d="M 174.386719 102.609375 L 165.625 102.609375 L 165.625 93.855469 L 174.386719 93.855469 L 174.386719 102.609375 " fill-opacity="1" fill-rule="nonzero"/><path fill="#02bbc6" d="M 185.351562 102.609375 L 176.582031 102.609375 L 176.582031 93.855469 L 185.351562 93.855469 L 185.351562 102.609375 " fill-opacity="1" fill-rule="nonzero"/><path fill="#02bbc6" d="M 196.308594 102.609375 L 187.539062 102.609375 L 187.539062 93.855469 L 196.308594 93.855469 L 196.308594 102.609375 " fill-opacity="1" fill-rule="nonzero"/><g clip-path="url(#ba171b539f)"><path fill="#03bfe8" d="M 56.957031 88.390625 C 56.84375 88.101562 54.269531 81.199219 58.945312 74.386719 C 64.652344 66.0625 78.289062 61.847656 99.472656 61.847656 C 112.929688 61.847656 121.382812 62.542969 127.832031 60.964844 C 135.320312 59.132812 139.921875 55.964844 143.269531 50.910156 C 144.878906 48.480469 147.246094 39.625 147.683594 30.109375 C 148.371094 15.089844 148.398438 2.511719 148.410156 0.519531 L 150.664062 0.519531 C 150.664062 0.519531 150.03125 15.011719 149.453125 30.226562 C 149.054688 40.761719 146.886719 48.773438 144.8125 52.125 C 141.53125 57.417969 136.277344 61.257812 128.050781 63.121094 C 121.40625 64.621094 112.816406 63.816406 99.472656 63.816406 C 73.941406 63.816406 64.21875 70.171875 60.566406 75.5 C 56.46875 81.464844 58.769531 87.621094 58.789062 87.683594 L 56.957031 88.390625 " fill-opacity="1" fill-rule="nonzero"/></g><g clip-path="url(#ca2ccc130e)"><path fill="#03bfe8" d="M 244.898438 105.984375 L 242.992188 105.464844 C 243.007812 105.386719 244.148438 86.253906 239.144531 79.410156 C 233.890625 72.214844 224.101562 69.207031 204.207031 65.054688 C 193.089844 62.734375 188.59375 54.867188 185.183594 44.09375 C 179.238281 25.269531 180.589844 0.65625 180.589844 0.515625 L 182.554688 0.515625 C 182.5625 1.015625 181.683594 25.3125 187.445312 43.488281 C 190.613281 53.480469 195.757812 61.789062 204.207031 62.957031 C 223.546875 65.636719 235.082031 70.402344 240.714844 78.15625 C 246.296875 85.820312 244.980469 105.628906 244.898438 105.984375 " fill-opacity="1" fill-rule="nonzero"/></g></g></g></g><path fill="#00bedf" d="M 1206.28125 74.40625 C 1205.777344 74.40625 1205.371094 74 1205.371094 73.496094 L 1205.371094 31.90625 L 1200.257812 31.90625 C 1199.753906 31.90625 1199.347656 31.496094 1199.347656 30.996094 C 1199.347656 30.496094 1199.753906 30.085938 1200.257812 30.085938 L 1206.28125 30.089844 C 1206.78125 30.089844 1207.191406 30.496094 1207.191406 30.996094 L 1207.191406 73.496094 C 1207.191406 74 1206.78125 74.40625 1206.28125 74.40625 " fill-opacity="1" fill-rule="nonzero"/><path fill="#00bedf" d="M 1219.578125 74.335938 C 1219.074219 74.335938 1218.671875 73.925781 1218.671875 73.425781 L 1218.671875 44.304688 C 1218.671875 43.804688 1219.074219 43.398438 1219.578125 43.398438 C 1220.082031 43.398438 1220.484375 43.804688 1220.484375 44.304688 L 1220.484375 73.425781 C 1220.484375 73.925781 1220.082031 74.335938 1219.578125 74.335938 " fill-opacity="1" fill-rule="nonzero"/><g clip-path="url(#506e8dc838)"><path fill="#00bedf" d="M 1195.527344 27.71875 C 1195.117188 27.71875 1194.71875 27.792969 1194.339844 27.941406 C 1193.523438 28.261719 1192.882812 28.878906 1192.53125 29.679688 C 1192.183594 30.480469 1192.164062 31.367188 1192.480469 32.183594 C 1193.121094 33.832031 1195.054688 34.699219 1196.722656 34.046875 C 1198.402344 33.390625 1199.238281 31.488281 1198.578125 29.804688 C 1198.308594 29.097656 1197.808594 28.523438 1197.144531 28.140625 C 1196.652344 27.867188 1196.09375 27.71875 1195.527344 27.71875 Z M 1195.53125 36.089844 C 1193.417969 36.089844 1191.554688 34.816406 1190.789062 32.84375 C 1190.292969 31.578125 1190.320312 30.195312 1190.867188 28.949219 C 1191.414062 27.703125 1192.414062 26.746094 1193.679688 26.25 C 1195.089844 25.699219 1196.710938 25.816406 1198.039062 26.558594 C 1199.074219 27.152344 1199.847656 28.046875 1200.273438 29.144531 C 1201.292969 31.757812 1199.996094 34.71875 1197.382812 35.738281 C 1196.789062 35.972656 1196.164062 36.089844 1195.53125 36.089844 " fill-opacity="1" fill-rule="nonzero"/></g><path fill="#00bedf" d="M 1228.445312 74.335938 C 1227.945312 74.335938 1227.539062 73.925781 1227.539062 73.425781 L 1227.539062 50.152344 C 1227.539062 49.652344 1227.945312 49.246094 1228.445312 49.246094 L 1246.703125 49.246094 C 1247.203125 49.246094 1247.609375 49.652344 1247.609375 50.152344 C 1247.609375 50.65625 1247.203125 51.066406 1246.703125 51.066406 L 1229.355469 51.066406 L 1229.355469 73.425781 C 1229.355469 73.925781 1228.945312 74.335938 1228.445312 74.335938 " fill-opacity="1" fill-rule="nonzero"/><path fill="#00bedf" d="M 1250.105469 48.046875 C 1249.746094 48.046875 1249.386719 48.144531 1249.0625 48.324219 C 1248.644531 48.5625 1248.324219 48.933594 1248.148438 49.386719 C 1247.726562 50.46875 1248.261719 51.691406 1249.339844 52.113281 C 1249.585938 52.210938 1249.84375 52.257812 1250.105469 52.257812 C 1250.980469 52.257812 1251.746094 51.734375 1252.066406 50.917969 C 1252.269531 50.394531 1252.261719 49.824219 1252.035156 49.308594 C 1251.808594 48.792969 1251.394531 48.398438 1250.871094 48.195312 C 1250.625 48.097656 1250.367188 48.046875 1250.105469 48.046875 Z M 1250.105469 54.078125 C 1249.617188 54.078125 1249.136719 53.984375 1248.679688 53.804688 C 1246.667969 53.019531 1245.667969 50.742188 1246.453125 48.730469 C 1246.777344 47.894531 1247.386719 47.1875 1248.171875 46.742188 C 1249.199219 46.164062 1250.445312 46.074219 1251.53125 46.503906 C 1252.503906 46.882812 1253.273438 47.617188 1253.699219 48.578125 C 1254.117188 49.539062 1254.140625 50.605469 1253.757812 51.582031 C 1253.167969 53.097656 1251.734375 54.078125 1250.105469 54.078125 " fill-opacity="1" fill-rule="nonzero"/><path fill="#00bedf" d="M 1219.574219 36.84375 C 1219.167969 36.84375 1218.769531 36.917969 1218.386719 37.066406 C 1217.574219 37.386719 1216.929688 38.003906 1216.578125 38.800781 C 1216.226562 39.605469 1216.207031 40.496094 1216.527344 41.3125 C 1217.171875 42.957031 1219.105469 43.820312 1220.769531 43.171875 C 1222.453125 42.515625 1223.285156 40.609375 1222.628906 38.929688 C 1222.355469 38.21875 1221.855469 37.644531 1221.191406 37.265625 C 1220.699219 36.992188 1220.136719 36.84375 1219.574219 36.84375 Z M 1219.578125 45.214844 C 1217.464844 45.214844 1215.601562 43.941406 1214.835938 41.972656 C 1214.339844 40.703125 1214.367188 39.320312 1214.914062 38.074219 C 1215.460938 36.828125 1216.460938 35.871094 1217.726562 35.375 C 1219.136719 34.824219 1220.757812 34.941406 1222.085938 35.683594 C 1223.109375 36.265625 1223.898438 37.183594 1224.320312 38.269531 C 1225.34375 40.886719 1224.042969 43.84375 1221.429688 44.863281 C 1220.835938 45.09375 1220.210938 45.214844 1219.578125 45.214844 " fill-opacity="1" fill-rule="nonzero"/><path fill="#00bedf" d="M 1188.546875 148.757812 C 1188.042969 148.757812 1187.640625 148.351562 1187.640625 147.847656 L 1187.640625 67.375 C 1187.640625 66.871094 1188.042969 66.464844 1188.546875 66.464844 C 1189.046875 66.464844 1189.457031 66.871094 1189.457031 67.375 L 1189.457031 147.847656 C 1189.457031 148.351562 1189.046875 148.757812 1188.546875 148.757812 " fill-opacity="1" fill-rule="nonzero"/><path fill="#00bedf" d="M 1192.976562 148.757812 C 1192.480469 148.757812 1192.070312 148.351562 1192.070312 147.847656 L 1192.070312 67.375 C 1192.070312 66.871094 1192.480469 66.464844 1192.976562 66.464844 C 1193.480469 66.464844 1193.890625 66.871094 1193.890625 67.375 L 1193.890625 147.847656 C 1193.890625 148.351562 1193.480469 148.757812 1192.976562 148.757812 " fill-opacity="1" fill-rule="nonzero"/><path fill="#00bedf" d="M 1197.414062 148.757812 C 1196.910156 148.757812 1196.503906 148.351562 1196.503906 147.847656 L 1196.503906 67.375 C 1196.503906 66.871094 1196.910156 66.464844 1197.414062 66.464844 C 1197.914062 66.464844 1198.324219 66.871094 1198.324219 67.375 L 1198.324219 147.847656 C 1198.324219 148.351562 1197.914062 148.757812 1197.414062 148.757812 " fill-opacity="1" fill-rule="nonzero"/><path fill="#00bedf" d="M 1201.847656 148.757812 C 1201.34375 148.757812 1200.9375 148.351562 1200.9375 147.847656 L 1200.9375 67.375 C 1200.9375 66.871094 1201.34375 66.464844 1201.847656 66.464844 C 1202.351562 66.464844 1202.757812 66.871094 1202.757812 67.375 L 1202.757812 147.847656 C 1202.757812 148.351562 1202.351562 148.757812 1201.847656 148.757812 " fill-opacity="1" fill-rule="nonzero"/><path fill="#00bedf" d="M 1206.28125 148.757812 C 1205.777344 148.757812 1205.371094 148.351562 1205.371094 147.847656 L 1205.371094 67.375 C 1205.371094 66.871094 1205.777344 66.464844 1206.28125 66.464844 C 1206.78125 66.464844 1207.191406 66.871094 1207.191406 67.375 L 1207.191406 147.847656 C 1207.191406 148.351562 1206.78125 148.757812 1206.28125 148.757812 " fill-opacity="1" fill-rule="nonzero"/><path fill="#00bedf" d="M 1210.710938 148.757812 C 1210.210938 148.757812 1209.804688 148.351562 1209.804688 147.847656 L 1209.804688 67.375 C 1209.804688 66.871094 1210.210938 66.464844 1210.710938 66.464844 C 1211.214844 66.464844 1211.621094 66.871094 1211.621094 67.375 L 1211.621094 147.847656 C 1211.621094 148.351562 1211.214844 148.757812 1210.710938 148.757812 " fill-opacity="1" fill-rule="nonzero"/><path fill="#00bedf" d="M 1215.144531 148.757812 C 1214.644531 148.757812 1214.234375 148.351562 1214.234375 147.847656 L 1214.234375 67.375 C 1214.234375 66.871094 1214.644531 66.464844 1215.144531 66.464844 C 1215.648438 66.464844 1216.054688 66.871094 1216.054688 67.375 L 1216.054688 147.847656 C 1216.054688 148.351562 1215.648438 148.757812 1215.144531 148.757812 " fill-opacity="1" fill-rule="nonzero"/><path fill="#00bedf" d="M 1219.578125 148.757812 C 1219.074219 148.757812 1218.671875 148.351562 1218.671875 147.847656 L 1218.671875 67.375 C 1218.671875 66.871094 1219.074219 66.464844 1219.578125 66.464844 C 1220.082031 66.464844 1220.488281 66.871094 1220.488281 67.375 L 1220.488281 147.847656 C 1220.488281 148.351562 1220.082031 148.757812 1219.578125 148.757812 " fill-opacity="1" fill-rule="nonzero"/><path fill="#00bedf" d="M 1224.015625 148.757812 C 1223.511719 148.757812 1223.105469 148.351562 1223.105469 147.847656 L 1223.105469 67.375 C 1223.105469 66.871094 1223.511719 66.464844 1224.015625 66.464844 C 1224.515625 66.464844 1224.921875 66.871094 1224.921875 67.375 L 1224.921875 147.847656 C 1224.921875 148.351562 1224.515625 148.757812 1224.015625 148.757812 " fill-opacity="1" fill-rule="nonzero"/><path fill="#00bedf" d="M 1228.445312 148.757812 C 1227.945312 148.757812 1227.539062 148.351562 1227.539062 147.847656 L 1227.539062 67.375 C 1227.539062 66.871094 1227.945312 66.464844 1228.445312 66.464844 C 1228.945312 66.464844 1229.355469 66.871094 1229.355469 67.375 L 1229.355469 147.847656 C 1229.355469 148.351562 1228.945312 148.757812 1228.445312 148.757812 " fill-opacity="1" fill-rule="nonzero"/><path fill="#00bedf" d="M 1232.878906 148.757812 C 1232.375 148.757812 1231.96875 148.351562 1231.96875 147.847656 L 1231.96875 67.375 C 1231.96875 66.871094 1232.375 66.464844 1232.878906 66.464844 C 1233.382812 66.464844 1233.785156 66.871094 1233.785156 67.375 L 1233.785156 147.847656 C 1233.785156 148.351562 1233.382812 148.757812 1232.878906 148.757812 " fill-opacity="1" fill-rule="nonzero"/><path fill="#00bedf" d="M 1237.3125 148.757812 C 1236.808594 148.757812 1236.402344 148.351562 1236.402344 147.847656 L 1236.402344 67.375 C 1236.402344 66.871094 1236.808594 66.464844 1237.3125 66.464844 C 1237.8125 66.464844 1238.21875 66.871094 1238.21875 67.375 L 1238.21875 147.847656 C 1238.21875 148.351562 1237.8125 148.757812 1237.3125 148.757812 " fill-opacity="1" fill-rule="nonzero"/><path fill="#00bedf" d="M 1241.742188 148.757812 C 1241.242188 148.757812 1240.835938 148.351562 1240.835938 147.847656 L 1240.835938 67.375 C 1240.835938 66.871094 1241.242188 66.464844 1241.742188 66.464844 C 1242.246094 66.464844 1242.652344 66.871094 1242.652344 67.375 L 1242.652344 147.847656 C 1242.652344 148.351562 1242.246094 148.757812 1241.742188 148.757812 " fill-opacity="1" fill-rule="nonzero"/><path fill="#00bedf" d="M 1246.175781 148.757812 C 1245.675781 148.757812 1245.269531 148.351562 1245.269531 147.847656 L 1245.269531 67.375 C 1245.269531 66.871094 1245.675781 66.464844 1246.175781 66.464844 C 1246.675781 66.464844 1247.085938 66.871094 1247.085938 67.375 L 1247.085938 147.847656 C 1247.085938 148.351562 1246.675781 148.757812 1246.175781 148.757812 " fill-opacity="1" fill-rule="nonzero"/><path fill="#00bedf" d="M 1250.609375 148.757812 C 1250.105469 148.757812 1249.703125 148.351562 1249.703125 147.847656 L 1249.703125 67.375 C 1249.703125 66.871094 1250.105469 66.464844 1250.609375 66.464844 C 1251.113281 66.464844 1251.515625 66.871094 1251.515625 67.375 L 1251.515625 147.847656 C 1251.515625 148.351562 1251.113281 148.757812 1250.609375 148.757812 " fill-opacity="1" fill-rule="nonzero"/><path fill="#00bedf" d="M 1259.816406 139.550781 L 1179.34375 139.550781 C 1178.835938 139.550781 1178.433594 139.144531 1178.433594 138.644531 C 1178.433594 138.140625 1178.835938 137.734375 1179.34375 137.734375 L 1259.816406 137.734375 C 1260.320312 137.734375 1260.726562 138.140625 1260.726562 138.644531 C 1260.726562 139.144531 1260.320312 139.550781 1259.816406 139.550781 " fill-opacity="1" fill-rule="nonzero"/><path fill="#00bedf" d="M 1259.816406 135.117188 L 1179.34375 135.117188 C 1178.835938 135.117188 1178.433594 134.710938 1178.433594 134.210938 C 1178.433594 133.707031 1178.835938 133.300781 1179.34375 133.300781 L 1259.816406 133.300781 C 1260.320312 133.300781 1260.726562 133.707031 1260.726562 134.210938 C 1260.726562 134.710938 1260.320312 135.117188 1259.816406 135.117188 " fill-opacity="1" fill-rule="nonzero"/><path fill="#00bedf" d="M 1259.816406 130.683594 L 1179.34375 130.683594 C 1178.835938 130.683594 1178.433594 130.277344 1178.433594 129.777344 C 1178.433594 129.273438 1178.835938 128.867188 1179.34375 128.867188 L 1259.816406 128.867188 C 1260.320312 128.867188 1260.726562 129.273438 1260.726562 129.777344 C 1260.726562 130.277344 1260.320312 130.683594 1259.816406 130.683594 " fill-opacity="1" fill-rule="nonzero"/><path fill="#00bedf" d="M 1259.816406 126.253906 L 1179.34375 126.253906 C 1178.835938 126.253906 1178.433594 125.847656 1178.433594 125.34375 C 1178.433594 124.84375 1178.835938 124.433594 1179.34375 124.433594 L 1259.816406 124.433594 C 1260.320312 124.433594 1260.726562 124.84375 1260.726562 125.34375 C 1260.726562 125.847656 1260.320312 126.253906 1259.816406 126.253906 " fill-opacity="1" fill-rule="nonzero"/><path fill="#00bedf" d="M 1259.816406 121.820312 L 1179.34375 121.820312 C 1178.835938 121.820312 1178.433594 121.414062 1178.433594 120.910156 C 1178.433594 120.410156 1178.835938 120.003906 1179.34375 120.003906 L 1259.816406 120.003906 C 1260.320312 120.003906 1260.726562 120.410156 1260.726562 120.910156 C 1260.726562 121.414062 1260.320312 121.820312 1259.816406 121.820312 " fill-opacity="1" fill-rule="nonzero"/><path fill="#00bedf" d="M 1259.816406 117.386719 L 1179.34375 117.386719 C 1178.835938 117.386719 1178.433594 116.980469 1178.433594 116.480469 C 1178.433594 115.976562 1178.835938 115.570312 1179.34375 115.570312 L 1259.816406 115.570312 C 1260.320312 115.570312 1260.726562 115.976562 1260.726562 116.480469 C 1260.726562 116.980469 1260.320312 117.386719 1259.816406 117.386719 " fill-opacity="1" fill-rule="nonzero"/><path fill="#00bedf" d="M 1259.816406 112.957031 L 1179.34375 112.957031 C 1178.835938 112.957031 1178.433594 112.546875 1178.433594 112.042969 C 1178.433594 111.542969 1178.835938 111.136719 1179.34375 111.136719 L 1259.816406 111.136719 C 1260.320312 111.136719 1260.726562 111.542969 1260.726562 112.042969 C 1260.726562 112.546875 1260.320312 112.957031 1259.816406 112.957031 " fill-opacity="1" fill-rule="nonzero"/><path fill="#00bedf" d="M 1269.132812 108.523438 L 1179.34375 108.523438 C 1178.835938 108.523438 1178.433594 108.113281 1178.433594 107.613281 C 1178.433594 107.109375 1178.835938 106.703125 1179.34375 106.703125 L 1269.132812 106.703125 C 1269.632812 106.703125 1270.039062 107.109375 1270.039062 107.613281 C 1270.039062 108.113281 1269.632812 108.523438 1269.132812 108.523438 " fill-opacity="1" fill-rule="nonzero"/><path fill="#00bedf" d="M 1259.816406 104.089844 L 1179.34375 104.089844 C 1178.835938 104.089844 1178.433594 103.683594 1178.433594 103.179688 C 1178.433594 102.675781 1178.835938 102.269531 1179.34375 102.269531 L 1259.816406 102.269531 C 1260.320312 102.269531 1260.726562 102.675781 1260.726562 103.179688 C 1260.726562 103.683594 1260.320312 104.089844 1259.816406 104.089844 " fill-opacity="1" fill-rule="nonzero"/><path fill="#00bedf" d="M 1259.816406 99.65625 L 1179.34375 99.65625 C 1178.835938 99.65625 1178.433594 99.25 1178.433594 98.746094 C 1178.433594 98.246094 1178.835938 97.835938 1179.34375 97.835938 L 1259.816406 97.835938 C 1260.320312 97.835938 1260.726562 98.246094 1260.726562 98.746094 C 1260.726562 99.25 1260.320312 99.65625 1259.816406 99.65625 " fill-opacity="1" fill-rule="nonzero"/><path fill="#00bedf" d="M 1259.816406 95.222656 L 1179.34375 95.222656 C 1178.835938 95.222656 1178.433594 94.816406 1178.433594 94.3125 C 1178.433594 93.8125 1178.835938 93.40625 1179.34375 93.40625 L 1259.816406 93.40625 C 1260.320312 93.40625 1260.726562 93.8125 1260.726562 94.3125 C 1260.726562 94.816406 1260.320312 95.222656 1259.816406 95.222656 " fill-opacity="1" fill-rule="nonzero"/><path fill="#00bedf" d="M 1259.816406 90.789062 L 1179.34375 90.789062 C 1178.835938 90.789062 1178.433594 90.382812 1178.433594 89.878906 C 1178.433594 89.378906 1178.835938 88.972656 1179.34375 88.972656 L 1259.816406 88.972656 C 1260.320312 88.972656 1260.726562 89.378906 1260.726562 89.878906 C 1260.726562 90.382812 1260.320312 90.789062 1259.816406 90.789062 " fill-opacity="1" fill-rule="nonzero"/><path fill="#00bedf" d="M 1259.816406 86.355469 L 1179.34375 86.355469 C 1178.835938 86.355469 1178.433594 85.949219 1178.433594 85.449219 C 1178.433594 84.945312 1178.835938 84.539062 1179.34375 84.539062 L 1259.816406 84.539062 C 1260.320312 84.539062 1260.726562 84.945312 1260.726562 85.449219 C 1260.726562 85.949219 1260.320312 86.355469 1259.816406 86.355469 " fill-opacity="1" fill-rule="nonzero"/><path fill="#00bedf" d="M 1259.816406 81.921875 L 1179.34375 81.921875 C 1178.835938 81.921875 1178.433594 81.515625 1178.433594 81.015625 C 1178.433594 80.511719 1178.835938 80.105469 1179.34375 80.105469 L 1259.816406 80.105469 C 1260.320312 80.105469 1260.726562 80.511719 1260.726562 81.015625 C 1260.726562 81.515625 1260.320312 81.921875 1259.816406 81.921875 " fill-opacity="1" fill-rule="nonzero"/><path fill="#00bedf" d="M 1259.816406 77.492188 L 1179.34375 77.492188 C 1178.835938 77.492188 1178.433594 77.082031 1178.433594 76.578125 C 1178.433594 76.078125 1178.835938 75.671875 1179.34375 75.671875 L 1259.816406 75.671875 C 1260.320312 75.671875 1260.726562 76.078125 1260.726562 76.578125 C 1260.726562 77.082031 1260.320312 77.492188 1259.816406 77.492188 " fill-opacity="1" fill-rule="nonzero"/><path fill="#00caff" d="M 1189.140625 142.148438 C 1186.753906 142.148438 1184.8125 140.207031 1184.8125 137.820312 L 1184.8125 77.402344 C 1184.8125 75.019531 1186.753906 73.078125 1189.140625 73.078125 L 1250.019531 73.078125 C 1252.402344 73.078125 1254.34375 75.019531 1254.34375 77.402344 L 1254.34375 137.820312 C 1254.34375 140.207031 1252.402344 142.148438 1250.019531 142.148438 L 1189.140625 142.148438 " fill-opacity="1" fill-rule="nonzero"/><path fill="#00bedf" d="M 1250.019531 72.167969 L 1189.140625 72.167969 C 1186.253906 72.167969 1183.902344 74.515625 1183.902344 77.402344 L 1183.902344 137.820312 C 1183.902344 140.707031 1186.253906 143.054688 1189.140625 143.054688 L 1250.019531 143.054688 C 1252.90625 143.054688 1255.253906 140.707031 1255.253906 137.820312 L 1255.253906 77.402344 C 1255.253906 74.515625 1252.90625 72.167969 1250.019531 72.167969 Z M 1250.019531 73.984375 C 1251.90625 73.984375 1253.4375 75.515625 1253.4375 77.402344 L 1253.4375 137.820312 C 1253.4375 139.707031 1251.90625 141.238281 1250.019531 141.238281 L 1189.140625 141.238281 C 1187.25 141.238281 1185.71875 139.707031 1185.71875 137.820312 L 1185.71875 77.402344 C 1185.71875 75.515625 1187.25 73.984375 1189.140625 73.984375 L 1250.019531 73.984375 " fill-opacity="1" fill-rule="nonzero"/><path fill="#00bedf" d="M 1196.46875 134.046875 C 1194.539062 134.046875 1192.96875 132.476562 1192.96875 130.542969 L 1192.96875 127.574219 C 1191.453125 127.179688 1190.34375 125.8125 1190.34375 124.191406 L 1190.34375 91.03125 C 1190.34375 89.40625 1191.460938 88.03125 1192.96875 87.644531 L 1192.96875 84.679688 C 1192.96875 82.75 1194.539062 81.179688 1196.46875 81.179688 L 1242.6875 81.179688 C 1244.617188 81.179688 1246.1875 82.75 1246.1875 84.679688 L 1246.1875 87.648438 C 1247.703125 88.046875 1248.8125 89.410156 1248.8125 91.035156 L 1248.8125 124.191406 C 1248.8125 125.820312 1247.695312 127.191406 1246.1875 127.582031 L 1246.1875 130.542969 C 1246.1875 132.476562 1244.617188 134.046875 1242.6875 134.046875 L 1196.46875 134.046875 " fill-opacity="1" fill-rule="nonzero"/><path fill="#00bedf" d="M 1242.6875 80.269531 L 1196.46875 80.269531 C 1194.039062 80.269531 1192.0625 82.246094 1192.0625 84.679688 L 1192.0625 87.003906 C 1190.511719 87.695312 1189.433594 89.242188 1189.433594 91.03125 L 1189.433594 124.191406 C 1189.433594 125.988281 1190.515625 127.535156 1192.0625 128.222656 L 1192.0625 130.542969 C 1192.0625 132.976562 1194.039062 134.953125 1196.46875 134.953125 L 1242.6875 134.953125 C 1245.121094 134.953125 1247.097656 132.976562 1247.097656 130.542969 L 1247.097656 128.21875 C 1248.648438 127.53125 1249.722656 125.984375 1249.722656 124.191406 L 1249.722656 91.035156 C 1249.722656 89.238281 1248.640625 87.6875 1247.097656 87.003906 L 1247.097656 84.679688 C 1247.097656 82.246094 1245.121094 80.269531 1242.6875 80.269531 Z M 1242.6875 82.085938 C 1244.121094 82.085938 1245.28125 83.246094 1245.28125 84.679688 L 1245.28125 88.441406 L 1245.308594 88.441406 C 1246.742188 88.441406 1247.902344 89.601562 1247.902344 91.035156 L 1247.902344 124.191406 C 1247.902344 125.625 1246.742188 126.785156 1245.308594 126.785156 L 1245.28125 126.785156 L 1245.28125 130.542969 C 1245.28125 131.976562 1244.121094 133.136719 1242.6875 133.136719 L 1196.46875 133.136719 C 1195.039062 133.136719 1193.878906 131.976562 1193.878906 130.542969 L 1193.878906 126.785156 L 1193.847656 126.785156 C 1192.417969 126.785156 1191.253906 125.625 1191.253906 124.191406 L 1191.253906 91.03125 C 1191.253906 89.601562 1192.417969 88.441406 1193.847656 88.441406 L 1193.878906 88.441406 L 1193.878906 84.679688 C 1193.878906 83.246094 1195.039062 82.085938 1196.46875 82.085938 L 1242.6875 82.085938 " fill-opacity="1" fill-rule="nonzero"/><path fill="#00bedf" d="M 1206.53125 125.941406 C 1206.207031 125.941406 1205.910156 125.769531 1205.746094 125.492188 C 1205.582031 125.210938 1205.578125 124.867188 1205.742188 124.585938 C 1206.542969 123.160156 1206.53125 121.257812 1205.707031 119.847656 C 1205.203125 118.988281 1204.191406 117.964844 1202.21875 117.964844 C 1201.644531 117.964844 1201.109375 118.0625 1200.582031 118.273438 C 1200.476562 118.316406 1200.359375 118.335938 1200.25 118.335938 C 1200.066406 118.335938 1199.890625 118.28125 1199.734375 118.175781 C 1199.488281 118.007812 1199.339844 117.726562 1199.339844 117.425781 L 1199.339844 97.90625 C 1199.339844 97.609375 1199.480469 97.335938 1199.722656 97.164062 C 1199.878906 97.054688 1200.0625 96.996094 1200.25 96.996094 C 1200.347656 96.996094 1200.453125 97.015625 1200.550781 97.050781 C 1201.070312 97.234375 1201.546875 97.316406 1202.058594 97.316406 C 1204.042969 97.316406 1205.058594 96.28125 1205.558594 95.410156 C 1206.378906 93.984375 1206.371094 92.070312 1205.546875 90.648438 C 1205.382812 90.367188 1205.382812 90.019531 1205.542969 89.738281 C 1205.707031 89.457031 1206.007812 89.28125 1206.328125 89.28125 L 1231.96875 89.28125 C 1232.296875 89.28125 1232.59375 89.457031 1232.757812 89.738281 C 1232.917969 90.019531 1232.917969 90.367188 1232.753906 90.648438 C 1231.929688 92.070312 1231.921875 93.984375 1232.742188 95.410156 C 1233.242188 96.28125 1234.257812 97.316406 1236.246094 97.316406 C 1237.0625 97.316406 1237.78125 97.125 1238.4375 96.726562 C 1238.582031 96.640625 1238.746094 96.59375 1238.910156 96.59375 C 1239.0625 96.59375 1239.21875 96.632812 1239.355469 96.710938 C 1239.640625 96.871094 1239.816406 97.171875 1239.816406 97.503906 L 1239.816406 116.269531 C 1239.816406 116.566406 1239.675781 116.84375 1239.429688 117.011719 C 1239.277344 117.121094 1239.09375 117.175781 1238.910156 117.175781 C 1238.804688 117.175781 1238.699219 117.160156 1238.597656 117.121094 C 1238.066406 116.929688 1237.574219 116.839844 1237.042969 116.839844 C 1234.617188 116.839844 1233.644531 118.382812 1233.28125 119.300781 C 1232.585938 121.054688 1233 123.1875 1234.261719 124.371094 C 1234.535156 124.625 1234.625 125.019531 1234.488281 125.367188 C 1234.347656 125.714844 1234.011719 125.941406 1233.640625 125.941406 L 1206.53125 125.941406 " fill-opacity="1" fill-rule="nonzero"/><path fill="#00bedf" d="M 1231.96875 88.375 L 1206.328125 88.375 C 1205.679688 88.375 1205.082031 88.722656 1204.757812 89.285156 C 1204.429688 89.851562 1204.429688 90.542969 1204.757812 91.105469 C 1205.417969 92.238281 1205.421875 93.820312 1204.769531 94.957031 C 1204.21875 95.917969 1203.304688 96.410156 1202.058594 96.410156 C 1201.65625 96.410156 1201.269531 96.339844 1200.851562 96.191406 C 1200.65625 96.125 1200.449219 96.089844 1200.25 96.089844 C 1199.875 96.089844 1199.507812 96.203125 1199.199219 96.421875 C 1198.71875 96.761719 1198.429688 97.316406 1198.429688 97.90625 L 1198.429688 117.425781 C 1198.429688 118.027344 1198.730469 118.589844 1199.226562 118.929688 C 1199.53125 119.136719 1199.886719 119.246094 1200.25 119.246094 C 1200.472656 119.246094 1200.699219 119.203125 1200.914062 119.117188 C 1201.335938 118.953125 1201.761719 118.871094 1202.21875 118.871094 C 1203.453125 118.871094 1204.363281 119.355469 1204.921875 120.304688 C 1205.578125 121.425781 1205.589844 123.003906 1204.949219 124.140625 C 1204.628906 124.703125 1204.636719 125.394531 1204.964844 125.949219 C 1205.285156 126.507812 1205.886719 126.847656 1206.53125 126.847656 L 1233.640625 126.847656 C 1234.386719 126.847656 1235.058594 126.394531 1235.332031 125.699219 C 1235.605469 125.007812 1235.429688 124.21875 1234.882812 123.707031 C 1233.882812 122.769531 1233.5625 121.058594 1234.128906 119.636719 C 1234.46875 118.777344 1235.25 117.746094 1237.042969 117.746094 C 1237.464844 117.746094 1237.859375 117.820312 1238.285156 117.976562 C 1238.488281 118.050781 1238.699219 118.085938 1238.910156 118.085938 C 1239.277344 118.085938 1239.640625 117.972656 1239.953125 117.757812 C 1240.4375 117.417969 1240.726562 116.859375 1240.726562 116.269531 L 1240.726562 97.503906 C 1240.726562 96.847656 1240.371094 96.242188 1239.800781 95.917969 C 1239.523438 95.761719 1239.21875 95.683594 1238.910156 95.683594 C 1238.582031 95.683594 1238.253906 95.773438 1237.964844 95.949219 C 1237.457031 96.257812 1236.894531 96.410156 1236.246094 96.410156 C 1234.996094 96.410156 1234.085938 95.917969 1233.527344 94.957031 C 1232.878906 93.820312 1232.882812 92.238281 1233.542969 91.105469 C 1233.867188 90.542969 1233.871094 89.851562 1233.546875 89.285156 C 1233.21875 88.722656 1232.621094 88.375 1231.96875 88.375 Z M 1231.96875 90.191406 C 1230.1875 93.253906 1231.609375 98.226562 1236.246094 98.226562 C 1237.308594 98.226562 1238.183594 97.945312 1238.910156 97.503906 L 1238.910156 116.269531 C 1238.355469 116.066406 1237.746094 115.929688 1237.042969 115.929688 C 1231.808594 115.929688 1230.6875 122.265625 1233.640625 125.035156 L 1206.53125 125.035156 C 1208.257812 121.964844 1206.824219 117.054688 1202.21875 117.054688 C 1201.472656 117.054688 1200.824219 117.199219 1200.25 117.425781 L 1200.25 97.90625 C 1200.789062 98.097656 1201.378906 98.226562 1202.058594 98.226562 C 1206.695312 98.226562 1208.113281 93.253906 1206.328125 90.191406 L 1231.96875 90.191406 " fill-opacity="1" fill-rule="nonzero"/><path fill="#00bedf" d="M 1234.46875 157.417969 L 1228.445312 157.417969 C 1227.945312 157.417969 1227.539062 157.011719 1227.539062 156.507812 L 1227.539062 143.71875 C 1227.539062 143.214844 1227.945312 142.808594 1228.445312 142.808594 C 1228.945312 142.808594 1229.355469 143.214844 1229.355469 143.71875 L 1229.355469 155.601562 L 1234.46875 155.601562 C 1234.972656 155.601562 1235.378906 156.007812 1235.378906 156.507812 C 1235.378906 157.011719 1234.972656 157.417969 1234.46875 157.417969 " fill-opacity="1" fill-rule="nonzero"/><path fill="#00bedf" d="M 1239.199219 153.230469 C 1238.789062 153.230469 1238.386719 153.308594 1238.007812 153.457031 C 1237.1875 153.777344 1236.546875 154.390625 1236.195312 155.191406 C 1235.84375 155.992188 1235.824219 156.882812 1236.144531 157.699219 C 1236.417969 158.398438 1236.929688 158.988281 1237.582031 159.359375 C 1238.429688 159.835938 1239.472656 159.917969 1240.386719 159.558594 C 1242.070312 158.902344 1242.902344 157 1242.246094 155.316406 C 1241.75 154.050781 1240.554688 153.230469 1239.199219 153.230469 Z M 1239.199219 161.601562 C 1238.320312 161.601562 1237.453125 161.375 1236.6875 160.941406 C 1235.664062 160.363281 1234.875 159.449219 1234.453125 158.359375 C 1233.957031 157.089844 1233.984375 155.707031 1234.53125 154.460938 C 1235.078125 153.21875 1236.078125 152.257812 1237.34375 151.765625 C 1237.9375 151.53125 1238.5625 151.414062 1239.199219 151.414062 C 1241.3125 151.414062 1243.171875 152.6875 1243.941406 154.65625 C 1244.433594 155.925781 1244.40625 157.308594 1243.859375 158.554688 C 1243.3125 159.800781 1242.3125 160.757812 1241.046875 161.253906 C 1240.453125 161.484375 1239.832031 161.601562 1239.199219 161.601562 " fill-opacity="1" fill-rule="nonzero"/><path fill="#00bedf" d="M 1225.601562 177.539062 L 1219.578125 177.539062 C 1219.074219 177.539062 1218.671875 177.132812 1218.671875 176.632812 L 1218.671875 142.839844 C 1218.671875 142.339844 1219.074219 141.933594 1219.578125 141.933594 C 1220.082031 141.933594 1220.484375 142.339844 1220.484375 142.839844 L 1220.484375 175.722656 L 1225.601562 175.722656 C 1226.105469 175.722656 1226.511719 176.128906 1226.511719 176.632812 C 1226.511719 177.132812 1226.105469 177.539062 1225.601562 177.539062 " fill-opacity="1" fill-rule="nonzero"/><g clip-path="url(#126f59104e)"><path fill="#00bedf" d="M 1230.328125 173.355469 C 1229.921875 173.355469 1229.523438 173.429688 1229.136719 173.578125 C 1227.457031 174.238281 1226.621094 176.140625 1227.277344 177.824219 C 1227.554688 178.53125 1228.050781 179.105469 1228.714844 179.484375 C 1229.5625 179.960938 1230.605469 180.039062 1231.519531 179.683594 C 1233.199219 179.027344 1234.035156 177.125 1233.378906 175.441406 C 1232.886719 174.171875 1231.6875 173.355469 1230.328125 173.355469 Z M 1230.328125 181.726562 C 1229.453125 181.726562 1228.585938 181.496094 1227.820312 181.066406 C 1226.800781 180.484375 1226.011719 179.570312 1225.585938 178.484375 C 1224.5625 175.867188 1225.859375 172.910156 1228.476562 171.886719 C 1229.074219 171.65625 1229.695312 171.539062 1230.328125 171.539062 C 1232.441406 171.539062 1234.300781 172.808594 1235.070312 174.78125 C 1236.09375 177.398438 1234.796875 180.355469 1232.179688 181.375 C 1231.585938 181.605469 1230.964844 181.726562 1230.328125 181.726562 " fill-opacity="1" fill-rule="nonzero"/></g><path fill="#00bedf" d="M 1149.097656 123.410156 C 1148.597656 123.410156 1148.191406 123.003906 1148.191406 122.503906 L 1148.191406 116.480469 C 1148.191406 115.976562 1148.597656 115.570312 1149.097656 115.570312 L 1181.699219 115.570312 C 1182.199219 115.570312 1182.609375 115.976562 1182.609375 116.480469 C 1182.609375 116.980469 1182.199219 117.386719 1181.699219 117.386719 L 1150.007812 117.386719 L 1150.007812 122.503906 C 1150.007812 123.003906 1149.605469 123.410156 1149.097656 123.410156 " fill-opacity="1" fill-rule="nonzero"/><path fill="#00bedf" d="M 1149.101562 123.953125 C 1148.695312 123.953125 1148.292969 124.027344 1147.910156 124.175781 C 1147.199219 124.453125 1146.625 124.953125 1146.25 125.613281 C 1145.761719 126.476562 1145.691406 127.5 1146.050781 128.417969 C 1146.691406 130.0625 1148.625 130.925781 1150.292969 130.277344 C 1151.105469 129.957031 1151.746094 129.34375 1152.101562 128.542969 C 1152.453125 127.742188 1152.472656 126.851562 1152.152344 126.039062 C 1151.65625 124.769531 1150.460938 123.953125 1149.101562 123.953125 Z M 1149.101562 132.320312 C 1146.988281 132.320312 1145.125 131.046875 1144.355469 129.078125 C 1143.796875 127.648438 1143.910156 126.058594 1144.667969 124.71875 C 1145.242188 123.703125 1146.160156 122.910156 1147.25 122.484375 C 1147.84375 122.25 1148.46875 122.132812 1149.101562 122.132812 C 1151.214844 122.132812 1153.074219 123.40625 1153.84375 125.375 C 1154.34375 126.644531 1154.3125 128.027344 1153.761719 129.273438 C 1153.21875 130.519531 1152.21875 131.476562 1150.953125 131.972656 C 1150.359375 132.203125 1149.734375 132.320312 1149.101562 132.320312 " fill-opacity="1" fill-rule="nonzero"/><path fill="#00bedf" d="M 1203.808594 172.871094 C 1203.308594 172.871094 1202.898438 172.464844 1202.898438 171.960938 L 1202.898438 158.335938 C 1202.898438 158.09375 1202.996094 157.859375 1203.167969 157.691406 C 1203.335938 157.519531 1203.570312 157.425781 1203.808594 157.425781 L 1209.804688 157.449219 L 1209.804688 144.046875 C 1209.804688 143.542969 1210.210938 143.136719 1210.710938 143.136719 C 1211.214844 143.136719 1211.621094 143.542969 1211.621094 144.046875 L 1211.621094 158.359375 C 1211.621094 158.601562 1211.523438 158.832031 1211.355469 159 C 1211.179688 159.171875 1210.953125 159.265625 1210.710938 159.265625 L 1204.71875 159.246094 L 1204.71875 171.960938 C 1204.71875 172.464844 1204.308594 172.871094 1203.808594 172.871094 " fill-opacity="1" fill-rule="nonzero"/><g clip-path="url(#297978ef3c)"><path fill="#00bedf" d="M 1203.808594 173.355469 C 1203.402344 173.355469 1203 173.433594 1202.617188 173.582031 C 1200.9375 174.238281 1200.101562 176.140625 1200.757812 177.824219 C 1201.03125 178.53125 1201.53125 179.105469 1202.195312 179.488281 C 1203.039062 179.960938 1204.085938 180.039062 1205 179.683594 C 1206.679688 179.027344 1207.515625 177.125 1206.859375 175.441406 C 1206.367188 174.171875 1205.167969 173.355469 1203.808594 173.355469 Z M 1203.808594 181.726562 C 1202.9375 181.726562 1202.070312 181.5 1201.300781 181.066406 C 1200.277344 180.484375 1199.484375 179.566406 1199.0625 178.480469 C 1198.042969 175.867188 1199.34375 172.90625 1201.957031 171.886719 C 1202.550781 171.65625 1203.175781 171.539062 1203.808594 171.539062 C 1205.921875 171.539062 1207.785156 172.808594 1208.550781 174.78125 C 1209.574219 177.398438 1208.273438 180.355469 1205.660156 181.375 C 1205.066406 181.605469 1204.441406 181.726562 1203.808594 181.726562 " fill-opacity="1" fill-rule="nonzero"/></g><path fill="#00bedf" d="M 1181.699219 95.285156 L 1161.90625 95.285156 C 1161.402344 95.285156 1160.996094 94.878906 1160.996094 94.375 C 1160.996094 93.875 1161.402344 93.46875 1161.90625 93.46875 L 1181.699219 93.46875 C 1182.199219 93.46875 1182.609375 93.875 1182.609375 94.375 C 1182.609375 94.878906 1182.199219 95.285156 1181.699219 95.285156 " fill-opacity="1" fill-rule="nonzero"/><path fill="#00bedf" d="M 1157.71875 91.097656 C 1157.3125 91.097656 1156.914062 91.175781 1156.527344 91.324219 C 1155.820312 91.601562 1155.246094 92.097656 1154.867188 92.761719 C 1154.382812 93.625 1154.3125 94.648438 1154.667969 95.566406 C 1155.308594 97.210938 1157.242188 98.074219 1158.910156 97.425781 C 1159.726562 97.109375 1160.367188 96.492188 1160.71875 95.691406 C 1161.070312 94.890625 1161.089844 94 1160.769531 93.183594 C 1160.277344 91.917969 1159.078125 91.097656 1157.71875 91.097656 Z M 1157.71875 99.46875 C 1155.605469 99.46875 1153.742188 98.195312 1152.972656 96.226562 C 1152.417969 94.800781 1152.53125 93.214844 1153.285156 91.867188 C 1153.867188 90.847656 1154.78125 90.054688 1155.867188 89.632812 C 1156.464844 89.402344 1157.085938 89.28125 1157.71875 89.28125 C 1159.832031 89.28125 1161.695312 90.554688 1162.464844 92.523438 C 1162.960938 93.792969 1162.929688 95.175781 1162.382812 96.421875 C 1161.835938 97.664062 1160.835938 98.625 1159.570312 99.117188 C 1158.972656 99.351562 1158.355469 99.46875 1157.71875 99.46875 " fill-opacity="1" fill-rule="nonzero"/><path fill="#00bedf" d="M 1181.699219 108.519531 L 1170.238281 108.519531 C 1169.738281 108.519531 1169.332031 108.113281 1169.332031 107.609375 C 1169.332031 107.105469 1169.738281 106.703125 1170.238281 106.703125 L 1181.699219 106.703125 C 1182.199219 106.703125 1182.609375 107.105469 1182.609375 107.609375 C 1182.609375 108.113281 1182.199219 108.519531 1181.699219 108.519531 " fill-opacity="1" fill-rule="nonzero"/><path fill="#00bedf" d="M 1166.476562 105.167969 C 1166.171875 105.167969 1165.871094 105.226562 1165.585938 105.339844 C 1165.054688 105.542969 1164.628906 105.914062 1164.347656 106.410156 C 1163.988281 107.050781 1163.929688 107.816406 1164.199219 108.496094 C 1164.679688 109.726562 1166.121094 110.371094 1167.359375 109.886719 C 1167.96875 109.648438 1168.449219 109.1875 1168.710938 108.589844 C 1168.972656 107.996094 1168.984375 107.332031 1168.746094 106.722656 C 1168.378906 105.777344 1167.488281 105.167969 1166.476562 105.167969 Z M 1166.476562 111.871094 C 1164.707031 111.871094 1163.148438 110.808594 1162.507812 109.160156 C 1162.042969 107.96875 1162.132812 106.640625 1162.761719 105.515625 C 1163.25 104.660156 1164.015625 104 1164.925781 103.644531 C 1167.074219 102.800781 1169.605469 103.917969 1170.4375 106.0625 C 1170.855469 107.121094 1170.832031 108.28125 1170.375 109.320312 C 1169.917969 110.363281 1169.082031 111.164062 1168.019531 111.578125 C 1167.523438 111.773438 1167.003906 111.871094 1166.476562 111.871094 " fill-opacity="1" fill-rule="nonzero"/><path fill="#00bedf" d="M 1289.625 99.640625 L 1257.023438 99.640625 C 1256.523438 99.640625 1256.117188 99.238281 1256.117188 98.734375 C 1256.117188 98.230469 1256.523438 97.824219 1257.023438 97.824219 L 1288.714844 97.824219 L 1288.714844 92.710938 C 1288.714844 92.207031 1289.121094 91.800781 1289.625 91.800781 C 1290.125 91.800781 1290.535156 92.207031 1290.535156 92.710938 L 1290.535156 98.734375 C 1290.535156 99.238281 1290.125 99.640625 1289.625 99.640625 " fill-opacity="1" fill-rule="nonzero"/><path fill="#00bedf" d="M 1289.621094 84.707031 C 1289.21875 84.707031 1288.816406 84.785156 1288.433594 84.933594 C 1287.617188 85.25 1286.976562 85.867188 1286.621094 86.667969 C 1286.269531 87.46875 1286.253906 88.359375 1286.570312 89.171875 C 1287.214844 90.820312 1289.15625 91.679688 1290.8125 91.035156 C 1291.523438 90.757812 1292.097656 90.261719 1292.476562 89.597656 C 1292.960938 88.734375 1293.03125 87.710938 1292.675781 86.792969 C 1292.179688 85.527344 1290.980469 84.707031 1289.621094 84.707031 Z M 1289.621094 93.078125 C 1287.507812 93.078125 1285.648438 91.804688 1284.878906 89.832031 C 1284.382812 88.566406 1284.414062 87.183594 1284.957031 85.9375 C 1285.503906 84.691406 1286.503906 83.734375 1287.773438 83.242188 C 1288.367188 83.007812 1288.988281 82.890625 1289.621094 82.890625 C 1291.734375 82.890625 1293.597656 84.164062 1294.367188 86.132812 C 1294.925781 87.5625 1294.8125 89.148438 1294.054688 90.492188 C 1293.480469 91.507812 1292.5625 92.300781 1291.476562 92.726562 C 1290.878906 92.957031 1290.257812 93.078125 1289.621094 93.078125 " fill-opacity="1" fill-rule="nonzero"/><path fill="#00bedf" d="M 1276.941406 121.820312 L 1257.140625 121.820312 C 1256.644531 121.820312 1256.234375 121.414062 1256.234375 120.910156 C 1256.234375 120.410156 1256.644531 120.003906 1257.140625 120.003906 L 1276.941406 120.003906 C 1277.441406 120.003906 1277.847656 120.410156 1277.847656 120.910156 C 1277.847656 121.414062 1277.441406 121.820312 1276.941406 121.820312 " fill-opacity="1" fill-rule="nonzero"/><path fill="#00bedf" d="M 1281.125 117.636719 C 1280.714844 117.636719 1280.316406 117.710938 1279.933594 117.859375 C 1279.121094 118.179688 1278.476562 118.792969 1278.125 119.59375 C 1277.769531 120.398438 1277.753906 121.289062 1278.070312 122.101562 C 1278.714844 123.75 1280.652344 124.613281 1282.3125 123.960938 C 1283.023438 123.683594 1283.597656 123.1875 1283.976562 122.523438 C 1284.460938 121.660156 1284.535156 120.640625 1284.175781 119.722656 C 1283.683594 118.453125 1282.484375 117.636719 1281.125 117.636719 Z M 1281.121094 126.003906 C 1279.011719 126.003906 1277.144531 124.730469 1276.378906 122.761719 C 1275.882812 121.496094 1275.914062 120.113281 1276.457031 118.867188 C 1277.007812 117.621094 1278.007812 116.660156 1279.273438 116.167969 C 1279.867188 115.933594 1280.492188 115.816406 1281.125 115.816406 C 1283.238281 115.816406 1285.101562 117.089844 1285.867188 119.058594 C 1286.425781 120.488281 1286.3125 122.078125 1285.558594 123.417969 C 1284.976562 124.441406 1284.058594 125.234375 1282.972656 125.65625 C 1282.378906 125.886719 1281.753906 126.003906 1281.121094 126.003906 " fill-opacity="1" fill-rule="nonzero"/><path fill="#00bedf" d="M 1272.707031 105.167969 C 1272.40625 105.167969 1272.109375 105.226562 1271.824219 105.339844 C 1271.214844 105.574219 1270.734375 106.035156 1270.472656 106.632812 C 1270.210938 107.230469 1270.199219 107.894531 1270.433594 108.5 C 1270.914062 109.730469 1272.359375 110.375 1273.597656 109.886719 C 1274.125 109.679688 1274.550781 109.3125 1274.835938 108.816406 C 1275.195312 108.171875 1275.25 107.410156 1274.984375 106.726562 C 1274.613281 105.78125 1273.722656 105.167969 1272.707031 105.167969 Z M 1272.707031 111.875 C 1270.941406 111.875 1269.382812 110.808594 1268.742188 109.160156 C 1268.328125 108.101562 1268.351562 106.945312 1268.808594 105.902344 C 1269.265625 104.859375 1270.101562 104.058594 1271.160156 103.644531 C 1273.3125 102.800781 1275.839844 103.921875 1276.675781 106.066406 C 1277.144531 107.257812 1277.046875 108.585938 1276.417969 109.710938 C 1275.929688 110.5625 1275.167969 111.226562 1274.257812 111.582031 C 1273.757812 111.773438 1273.238281 111.875 1272.707031 111.875 " fill-opacity="1" fill-rule="nonzero"/></svg>