<svg xmlns="http://www.w3.org/2000/svg" xmlns:xlink="http://www.w3.org/1999/xlink" width="1920" zoomAndPan="magnify" viewBox="0 0 1440 384.749986" height="513" preserveAspectRatio="xMidYMid meet" version="1.0"><defs><filter x="0%" y="0%" width="100%" height="100%" id="f78eeeb7ac"><feColorMatrix values="0 0 0 0 1 0 0 0 0 1 0 0 0 0 1 0 0 0 1 0" color-interpolation-filters="sRGB"/></filter><g/><clipPath id="bf81426174"><path d="M 0.46875 0 L 1439.53125 0 L 1439.53125 384.5 L 0.46875 384.5 Z M 0.46875 0 " clip-rule="nonzero"/></clipPath><clipPath id="5a80414971"><path d="M 0.46875 0 L 1439.53125 0 L 1439.53125 384.5 L 0.46875 384.5 Z M 0.46875 0 " clip-rule="nonzero"/></clipPath><linearGradient x1="0.00332642" gradientTransform="matrix(0, 1.004232, -1.004232, 0, 1439.532021, -0.00297452)" y1="716.5" x2="382.882645" gradientUnits="userSpaceOnUse" y2="716.5" id="8758b235a1"><stop stop-opacity="1" stop-color="rgb(12.939453%, 12.939453%, 16.079712%)" offset="0"/><stop stop-opacity="1" stop-color="rgb(12.869263%, 12.85553%, 16.221619%)" offset="0.015625"/><stop stop-opacity="1" stop-color="rgb(12.731934%, 12.689209%, 16.508484%)" offset="0.03125"/><stop stop-opacity="1" stop-color="rgb(12.593079%, 12.522888%, 16.793823%)" offset="0.046875"/><stop stop-opacity="1" stop-color="rgb(12.454224%, 12.358093%, 17.079163%)" offset="0.0625"/><stop stop-opacity="1" stop-color="rgb(12.316895%, 12.191772%, 17.366028%)" offset="0.078125"/><stop stop-opacity="1" stop-color="rgb(12.17804%, 12.025452%, 17.651367%)" offset="0.09375"/><stop stop-opacity="1" stop-color="rgb(12.04071%, 11.859131%, 17.936707%)" offset="0.109375"/><stop stop-opacity="1" stop-color="rgb(11.901855%, 11.694336%, 18.223572%)" offset="0.125"/><stop stop-opacity="1" stop-color="rgb(11.763%, 11.528015%, 18.508911%)" offset="0.140625"/><stop stop-opacity="1" stop-color="rgb(11.625671%, 11.361694%, 18.79425%)" offset="0.15625"/><stop stop-opacity="1" stop-color="rgb(11.486816%, 11.195374%, 19.081116%)" offset="0.171875"/><stop stop-opacity="1" stop-color="rgb(11.349487%, 11.029053%, 19.366455%)" offset="0.1875"/><stop stop-opacity="1" stop-color="rgb(11.210632%, 10.864258%, 19.65332%)" offset="0.203125"/><stop stop-opacity="1" stop-color="rgb(11.071777%, 10.697937%, 19.93866%)" offset="0.21875"/><stop stop-opacity="1" stop-color="rgb(10.934448%, 10.531616%, 20.223999%)" offset="0.234375"/><stop stop-opacity="1" stop-color="rgb(10.795593%, 10.365295%, 20.510864%)" offset="0.25"/><stop stop-opacity="1" stop-color="rgb(10.658264%, 10.198975%, 20.796204%)" offset="0.265625"/><stop stop-opacity="1" stop-color="rgb(10.519409%, 10.03418%, 21.081543%)" offset="0.28125"/><stop stop-opacity="1" stop-color="rgb(10.380554%, 9.867859%, 21.368408%)" offset="0.296875"/><stop stop-opacity="1" stop-color="rgb(10.243225%, 9.701538%, 21.653748%)" offset="0.3125"/><stop stop-opacity="1" stop-color="rgb(10.10437%, 9.535217%, 21.939087%)" offset="0.328125"/><stop stop-opacity="1" stop-color="rgb(9.967041%, 9.370422%, 22.225952%)" offset="0.34375"/><stop stop-opacity="1" stop-color="rgb(9.828186%, 9.204102%, 22.511292%)" offset="0.359375"/><stop stop-opacity="1" stop-color="rgb(9.689331%, 9.037781%, 22.798157%)" offset="0.375"/><stop stop-opacity="1" stop-color="rgb(9.552002%, 8.87146%, 23.083496%)" offset="0.390625"/><stop stop-opacity="1" stop-color="rgb(9.413147%, 8.705139%, 23.368835%)" offset="0.40625"/><stop stop-opacity="1" stop-color="rgb(9.275818%, 8.540344%, 23.655701%)" offset="0.421875"/><stop stop-opacity="1" stop-color="rgb(9.136963%, 8.374023%, 23.94104%)" offset="0.4375"/><stop stop-opacity="1" stop-color="rgb(8.998108%, 8.207703%, 24.226379%)" offset="0.453125"/><stop stop-opacity="1" stop-color="rgb(8.860779%, 8.041382%, 24.513245%)" offset="0.46875"/><stop stop-opacity="1" stop-color="rgb(8.721924%, 7.876587%, 24.798584%)" offset="0.484375"/><stop stop-opacity="1" stop-color="rgb(8.584595%, 7.710266%, 25.085449%)" offset="0.5"/><stop stop-opacity="1" stop-color="rgb(8.44574%, 7.543945%, 25.370789%)" offset="0.515625"/><stop stop-opacity="1" stop-color="rgb(8.306885%, 7.377625%, 25.656128%)" offset="0.53125"/><stop stop-opacity="1" stop-color="rgb(8.169556%, 7.211304%, 25.942993%)" offset="0.546875"/><stop stop-opacity="1" stop-color="rgb(8.030701%, 7.046509%, 26.228333%)" offset="0.5625"/><stop stop-opacity="1" stop-color="rgb(7.893372%, 6.880188%, 26.513672%)" offset="0.578125"/><stop stop-opacity="1" stop-color="rgb(7.754517%, 6.713867%, 26.800537%)" offset="0.59375"/><stop stop-opacity="1" stop-color="rgb(7.615662%, 6.547546%, 27.085876%)" offset="0.609375"/><stop stop-opacity="1" stop-color="rgb(7.478333%, 6.381226%, 27.371216%)" offset="0.625"/><stop stop-opacity="1" stop-color="rgb(7.339478%, 6.216431%, 27.658081%)" offset="0.640625"/><stop stop-opacity="1" stop-color="rgb(7.202148%, 6.05011%, 27.94342%)" offset="0.65625"/><stop stop-opacity="1" stop-color="rgb(7.199097%, 5.94635%, 28.28064%)" offset="0.671875"/><stop stop-opacity="1" stop-color="rgb(7.376099%, 5.950928%, 28.601074%)" offset="0.679688"/><stop stop-opacity="1" stop-color="rgb(7.595825%, 6.001282%, 28.85437%)" offset="0.6875"/><stop stop-opacity="1" stop-color="rgb(7.817078%, 6.053162%, 29.107666%)" offset="0.695312"/><stop stop-opacity="1" stop-color="rgb(8.036804%, 6.103516%, 29.359436%)" offset="0.703125"/><stop stop-opacity="1" stop-color="rgb(8.258057%, 6.15387%, 29.612732%)" offset="0.710938"/><stop stop-opacity="1" stop-color="rgb(8.477783%, 6.204224%, 29.866028%)" offset="0.71875"/><stop stop-opacity="1" stop-color="rgb(8.699036%, 6.254578%, 30.117798%)" offset="0.726562"/><stop stop-opacity="1" stop-color="rgb(8.920288%, 6.306458%, 30.371094%)" offset="0.734375"/><stop stop-opacity="1" stop-color="rgb(9.140015%, 6.356812%, 30.622864%)" offset="0.742188"/><stop stop-opacity="1" stop-color="rgb(9.361267%, 6.407166%, 30.87616%)" offset="0.75"/><stop stop-opacity="1" stop-color="rgb(9.580994%, 6.45752%, 31.129456%)" offset="0.757812"/><stop stop-opacity="1" stop-color="rgb(9.802246%, 6.507874%, 31.381226%)" offset="0.765625"/><stop stop-opacity="1" stop-color="rgb(10.021973%, 6.558228%, 31.634521%)" offset="0.773438"/><stop stop-opacity="1" stop-color="rgb(10.243225%, 6.610107%, 31.886292%)" offset="0.78125"/><stop stop-opacity="1" stop-color="rgb(10.462952%, 6.660461%, 32.139587%)" offset="0.789062"/><stop stop-opacity="1" stop-color="rgb(10.684204%, 6.710815%, 32.392883%)" offset="0.796875"/><stop stop-opacity="1" stop-color="rgb(10.905457%, 6.761169%, 32.644653%)" offset="0.804688"/><stop stop-opacity="1" stop-color="rgb(11.125183%, 6.811523%, 32.897949%)" offset="0.8125"/><stop stop-opacity="1" stop-color="rgb(11.346436%, 6.863403%, 33.149719%)" offset="0.820312"/><stop stop-opacity="1" stop-color="rgb(11.566162%, 6.913757%, 33.403015%)" offset="0.828125"/><stop stop-opacity="1" stop-color="rgb(11.787415%, 6.964111%, 33.656311%)" offset="0.835938"/><stop stop-opacity="1" stop-color="rgb(12.007141%, 7.014465%, 33.908081%)" offset="0.84375"/><stop stop-opacity="1" stop-color="rgb(12.228394%, 7.064819%, 34.161377%)" offset="0.851562"/><stop stop-opacity="1" stop-color="rgb(12.449646%, 7.115173%, 34.413147%)" offset="0.859375"/><stop stop-opacity="1" stop-color="rgb(12.669373%, 7.167053%, 34.666443%)" offset="0.867187"/><stop stop-opacity="1" stop-color="rgb(12.890625%, 7.217407%, 34.919739%)" offset="0.875"/><stop stop-opacity="1" stop-color="rgb(13.110352%, 7.267761%, 35.171509%)" offset="0.882813"/><stop stop-opacity="1" stop-color="rgb(13.331604%, 7.318115%, 35.424805%)" offset="0.890625"/><stop stop-opacity="1" stop-color="rgb(13.551331%, 7.368469%, 35.676575%)" offset="0.898438"/><stop stop-opacity="1" stop-color="rgb(13.772583%, 7.420349%, 35.929871%)" offset="0.90625"/><stop stop-opacity="1" stop-color="rgb(13.99231%, 7.470703%, 36.183167%)" offset="0.914062"/><stop stop-opacity="1" stop-color="rgb(14.213562%, 7.521057%, 36.434937%)" offset="0.921875"/><stop stop-opacity="1" stop-color="rgb(14.434814%, 7.571411%, 36.688232%)" offset="0.929688"/><stop stop-opacity="1" stop-color="rgb(14.654541%, 7.621765%, 36.940002%)" offset="0.9375"/><stop stop-opacity="1" stop-color="rgb(14.875793%, 7.672119%, 37.193298%)" offset="0.945312"/><stop stop-opacity="1" stop-color="rgb(15.09552%, 7.723999%, 37.446594%)" offset="0.953125"/><stop stop-opacity="1" stop-color="rgb(15.316772%, 7.774353%, 37.698364%)" offset="0.960938"/><stop stop-opacity="1" stop-color="rgb(15.536499%, 7.824707%, 37.95166%)" offset="0.96875"/><stop stop-opacity="1" stop-color="rgb(15.757751%, 7.875061%, 38.20343%)" offset="0.976562"/><stop stop-opacity="1" stop-color="rgb(15.977478%, 7.925415%, 38.456726%)" offset="0.984375"/><stop stop-opacity="1" stop-color="rgb(16.19873%, 7.977295%, 38.710022%)" offset="0.992188"/><stop stop-opacity="1" stop-color="rgb(16.419983%, 8.027649%, 38.961792%)" offset="1"/></linearGradient><clipPath id="9c657b796c"><rect x="0" width="1440" y="0" height="385"/></clipPath><mask id="c40b2a9c06"><g filter="url(#f78eeeb7ac)"><rect x="-144" width="1728" fill="#000000" y="-38.474999" height="461.699983" fill-opacity="0.75"/></g></mask><clipPath id="fa438a20aa"><path d="M 0.46875 0 L 1439.53125 0 L 1439.53125 384.5 L 0.46875 384.5 Z M 0.46875 0 " clip-rule="nonzero"/></clipPath><clipPath id="e60b1cd865"><path d="M 14.703125 0 L 1425.289062 0 C 1429.066406 0 1432.6875 1.5 1435.359375 4.171875 C 1438.027344 6.839844 1439.527344 10.464844 1439.527344 14.242188 L 1439.527344 370.425781 C 1439.527344 374.203125 1438.027344 377.824219 1435.359375 380.496094 C 1432.6875 383.167969 1429.066406 384.667969 1425.289062 384.667969 L 14.703125 384.667969 C 10.929688 384.667969 7.304688 383.167969 4.636719 380.496094 C 1.964844 377.824219 0.464844 374.203125 0.464844 370.425781 L 0.464844 14.242188 C 0.464844 10.464844 1.964844 6.839844 4.636719 4.171875 C 7.304688 1.5 10.929688 0 14.703125 0 Z M 14.703125 0 " clip-rule="nonzero"/></clipPath><clipPath id="ea3a1cb0b4"><path d="M 0.46875 0 L 1439.53125 0 L 1439.53125 384.5 L 0.46875 384.5 Z M 0.46875 0 " clip-rule="nonzero"/></clipPath><clipPath id="79a6cb2625"><path d="M 14.703125 0 L 1425.289062 0 C 1429.066406 0 1432.6875 1.5 1435.359375 4.171875 C 1438.027344 6.839844 1439.527344 10.464844 1439.527344 14.242188 L 1439.527344 370.425781 C 1439.527344 374.203125 1438.027344 377.824219 1435.359375 380.496094 C 1432.6875 383.167969 1429.066406 384.667969 1425.289062 384.667969 L 14.703125 384.667969 C 10.929688 384.667969 7.304688 383.167969 4.636719 380.496094 C 1.964844 377.824219 0.464844 374.203125 0.464844 370.425781 L 0.464844 14.242188 C 0.464844 10.464844 1.964844 6.839844 4.636719 4.171875 C 7.304688 1.5 10.929688 0 14.703125 0 Z M 14.703125 0 " clip-rule="nonzero"/></clipPath><clipPath id="5a5b155c12"><rect x="0" width="1440" y="0" height="385"/></clipPath><clipPath id="fd74672a79"><path d="M 0.472656 0.167969 L 1439.527344 0.167969 L 1439.527344 384.5 L 0.472656 384.5 Z M 0.472656 0.167969 " clip-rule="nonzero"/></clipPath><clipPath id="efcd8b70db"><path d="M 14.710938 0.00390625 L 1425.28125 0.00390625 C 1429.058594 0.00390625 1432.679688 1.503906 1435.351562 4.175781 C 1438.023438 6.84375 1439.523438 10.46875 1439.523438 14.242188 L 1439.523438 370.425781 C 1439.523438 374.203125 1438.023438 377.824219 1435.351562 380.496094 C 1432.679688 383.167969 1429.058594 384.667969 1425.28125 384.667969 L 14.710938 384.667969 C 10.933594 384.667969 7.3125 383.167969 4.640625 380.496094 C 1.972656 377.824219 0.472656 374.203125 0.472656 370.425781 L 0.472656 14.242188 C 0.472656 10.46875 1.972656 6.84375 4.640625 4.175781 C 7.3125 1.503906 10.933594 0.00390625 14.710938 0.00390625 Z M 14.710938 0.00390625 " clip-rule="nonzero"/></clipPath><clipPath id="b582cca2cf"><rect x="0" width="1440" y="0" height="385"/></clipPath><clipPath id="5d5137cf48"><path d="M 0.46875 271.792969 L 1439.53125 271.792969 L 1439.53125 384.5 L 0.46875 384.5 Z M 0.46875 271.792969 " clip-rule="nonzero"/></clipPath><clipPath id="177e0b822d"><path d="M 0.46875 0.792969 L 1439.53125 0.792969 L 1439.53125 113.5 L 0.46875 113.5 Z M 0.46875 0.792969 " clip-rule="nonzero"/></clipPath><clipPath id="9b6a81dd63"><rect x="0" width="1440" y="0" height="114"/></clipPath><clipPath id="972e5798a9"><path d="M 0.492188 271.796875 L 1439.503906 271.796875 L 1439.503906 384.5 L 0.492188 384.5 Z M 0.492188 271.796875 " clip-rule="nonzero"/></clipPath><mask id="62c8540b51"><g filter="url(#f78eeeb7ac)"><rect x="-144" width="1728" fill="#000000" y="-38.474999" height="461.699983" fill-opacity="0.04"/></g></mask><clipPath id="b08d789020"><path d="M 0.3125 0.269531 L 77.515625 0.269531 L 77.515625 279.835938 L 0.3125 279.835938 Z M 0.3125 0.269531 " clip-rule="nonzero"/></clipPath><clipPath id="ede8a6db47"><rect x="0" width="78" y="0" height="280"/></clipPath><mask id="8d513ec0b3"><g filter="url(#f78eeeb7ac)"><rect x="-144" width="1728" fill="#000000" y="-38.474999" height="461.699983" fill-opacity="0.4"/></g></mask><clipPath id="d63e2b3ddc"><path d="M 0.851562 1.105469 L 207.71875 1.105469 L 207.71875 124.027344 L 0.851562 124.027344 Z M 0.851562 1.105469 " clip-rule="nonzero"/></clipPath><clipPath id="fedd138018"><path d="M 0.933594 0.105469 L 207.71875 0.105469 L 207.71875 123.027344 L 0.933594 123.027344 Z M 0.933594 0.105469 " clip-rule="nonzero"/></clipPath><clipPath id="abb5623abc"><rect x="0" width="208" y="0" height="124"/></clipPath><clipPath id="d5513b8349"><rect x="0" width="209" y="0" height="125"/></clipPath><clipPath id="a097b86496"><path d="M 869 82 L 1323 82 L 1323 384.5 L 869 384.5 Z M 869 82 " clip-rule="nonzero"/></clipPath><mask id="b1d1efd50d"><g filter="url(#f78eeeb7ac)"><rect x="-144" width="1728" fill="#000000" y="-38.474999" height="461.699983" fill-opacity="0.35"/></g></mask><clipPath id="1f8f664565"><path d="M 11 57 L 440 57 L 440 196 L 11 196 Z M 11 57 " clip-rule="nonzero"/></clipPath><clipPath id="0104a403e1"><path d="M 337.800781 394.816406 L 0.566406 196.457031 L 115.703125 0.707031 L 452.9375 199.066406 Z M 337.800781 394.816406 " clip-rule="nonzero"/></clipPath><clipPath id="f64ee7e9ef"><path d="M 337.800781 394.816406 L 0.566406 196.457031 L 115.703125 0.707031 L 452.9375 199.066406 Z M 337.800781 394.816406 " clip-rule="nonzero"/></clipPath><clipPath id="689d2fdcb2"><path d="M 0.664062 53 L 453 53 L 453 200 L 0.664062 200 Z M 0.664062 53 " clip-rule="nonzero"/></clipPath><clipPath id="1ef0dd9710"><path d="M 337.800781 394.816406 L 0.566406 196.457031 L 115.703125 0.707031 L 452.9375 199.066406 Z M 337.800781 394.816406 " clip-rule="nonzero"/></clipPath><clipPath id="b24c95be11"><path d="M 337.800781 394.816406 L 0.566406 196.457031 L 115.703125 0.707031 L 452.9375 199.066406 Z M 337.800781 394.816406 " clip-rule="nonzero"/></clipPath><clipPath id="752a5de862"><rect x="0" width="454" y="0" height="303"/></clipPath><mask id="b31e37946c"><g filter="url(#f78eeeb7ac)"><rect x="-144" width="1728" fill="#000000" y="-38.474999" height="461.699983" fill-opacity="0.48"/></g></mask><clipPath id="43f72274d9"><path d="M 0.839844 1.046875 L 150.730469 1.046875 L 150.730469 107.339844 L 0.839844 107.339844 Z M 0.839844 1.046875 " clip-rule="nonzero"/></clipPath><clipPath id="53f303914e"><rect x="0" width="151" y="0" height="108"/></clipPath><mask id="bdac774c5b"><g filter="url(#f78eeeb7ac)"><rect x="-144" width="1728" fill="#000000" y="-38.474999" height="461.699983" fill-opacity="0.43"/></g></mask><clipPath id="14a025f12c"><path d="M 159 89 L 186.148438 89 L 186.148438 114.273438 L 159 114.273438 Z M 159 89 " clip-rule="nonzero"/></clipPath><clipPath id="4116f23282"><path d="M 0.710938 57 L 144 57 L 144 113 L 0.710938 113 Z M 0.710938 57 " clip-rule="nonzero"/></clipPath><clipPath id="b8bca436bd"><path d="M 39 0.347656 L 107 0.347656 L 107 63 L 39 63 Z M 39 0.347656 " clip-rule="nonzero"/></clipPath><clipPath id="36557bac06"><path d="M 127 0.347656 L 174 0.347656 L 174 75 L 127 75 Z M 127 0.347656 " clip-rule="nonzero"/></clipPath><clipPath id="a7d018c601"><rect x="0" width="187" y="0" height="115"/></clipPath><clipPath id="6108fffac5"><path d="M 1169 33.714844 L 1179 33.714844 L 1179 44 L 1169 44 Z M 1169 33.714844 " clip-rule="nonzero"/></clipPath><clipPath id="59baa0d819"><path d="M 1202 172 L 1212 172 L 1212 182.867188 L 1202 182.867188 Z M 1202 172 " clip-rule="nonzero"/></clipPath><clipPath id="6c7c7fd1b8"><path d="M 1124.636719 125 L 1135 125 L 1135 136 L 1124.636719 136 Z M 1124.636719 125 " clip-rule="nonzero"/></clipPath><clipPath id="a5ababa49e"><path d="M 1176 172 L 1187 172 L 1187 182.867188 L 1176 182.867188 Z M 1176 172 " clip-rule="nonzero"/></clipPath><clipPath id="378235e1a1"><path d="M 1258 88 L 1268.542969 88 L 1268.542969 99 L 1258 99 Z M 1258 88 " clip-rule="nonzero"/></clipPath></defs><g clip-path="url(#bf81426174)"><path fill="#ffffff" d="M 0.46875 0 L 1439.53125 0 L 1439.53125 384.5 L 0.46875 384.5 Z M 0.46875 0 " fill-opacity="1" fill-rule="nonzero"/><path fill="#ffffff" d="M 0.46875 0 L 1439.53125 0 L 1439.53125 384.5 L 0.46875 384.5 Z M 0.46875 0 " fill-opacity="1" fill-rule="nonzero"/><g><g clip-path="url(#9c657b796c)"><g clip-path="url(#5a80414971)"><path fill="url(#8758b235a1)" d="M 1439.53125 0 L 0.46875 0 L 0.46875 384.5 L 1439.53125 384.5 Z M 1439.53125 0 " fill-rule="nonzero"/></g></g></g><g mask="url(#c40b2a9c06)"><g><g clip-path="url(#b582cca2cf)"><g clip-path="url(#fa438a20aa)"><g clip-path="url(#e60b1cd865)"><g><g clip-path="url(#5a5b155c12)"><g clip-path="url(#ea3a1cb0b4)"><g clip-path="url(#79a6cb2625)"><path fill="#00caff" d="M 0.464844 384.667969 L 0.464844 0 L 1439.960938 0 L 1439.960938 384.667969 Z M 0.464844 384.667969 " fill-opacity="1" fill-rule="nonzero"/></g></g></g></g></g></g><g clip-path="url(#fd74672a79)"><g clip-path="url(#efcd8b70db)"><path stroke-linecap="butt" transform="matrix(0, -0.749513, 0.749513, 0, 0.470824, 384.667572)" fill="none" stroke-linejoin="miter" d="M 513.218154 18.999155 L 513.218154 1900.981666 C 513.218154 1906.021397 511.216854 1910.85266 507.652039 1914.417474 C 504.092436 1917.982289 499.255962 1919.983589 494.221443 1919.983589 L 19.001393 1919.983589 C 13.961662 1919.983589 9.1304 1917.982289 5.565585 1914.417474 C 2.00077 1910.85266 -0.000529457 1906.021397 -0.000529457 1900.981666 L -0.000529457 18.999155 C -0.000529457 13.959424 2.00077 9.128162 5.565585 5.563347 C 9.1304 2.003744 13.961662 0.00244398 19.001393 0.00244398 L 494.221443 0.00244398 C 499.255962 0.00244398 504.092436 2.003744 507.652039 5.563347 C 511.216854 9.128162 513.218154 13.959424 513.218154 18.999155 Z M 513.218154 18.999155 " stroke="#000000" stroke-width="10" stroke-opacity="1" stroke-miterlimit="4"/></g></g></g></g></g></g><g clip-path="url(#5d5137cf48)"><g transform="matrix(1, 0, 0, 1, 0, 271)"><g clip-path="url(#9b6a81dd63)"><g clip-path="url(#177e0b822d)"><path fill="#f7f7f7" d="M 0.464844 113.667969 L 0.464844 0.792969 L 1439.636719 0.792969 L 1439.636719 113.667969 Z M 0.464844 113.667969 " fill-opacity="1" fill-rule="nonzero"/></g></g></g></g><g clip-path="url(#972e5798a9)"><path stroke-linecap="butt" transform="matrix(0, -0.749513, 0.749513, 0, 0.491538, 384.668479)" fill="none" stroke-linejoin="miter" d="M 0.000680143 0.000866038 L 150.593271 0.000866038 L 150.593271 1919.930017 L 0.000680143 1919.930017 Z M 0.000680143 0.000866038 " stroke="#000000" stroke-width="10" stroke-opacity="1" stroke-miterlimit="4"/></g><g mask="url(#62c8540b51)"><g transform="matrix(1, 0, 0, 1, 1351, 0)"><g clip-path="url(#ede8a6db47)"><g clip-path="url(#b08d789020)"><path fill="#231f20" d="M 0.375 -0.0234375 L 77.554688 -0.0234375 L 77.554688 279.835938 Z M 0.375 -0.0234375 " fill-opacity="1" fill-rule="nonzero"/></g></g></g></g><g mask="url(#8d513ec0b3)"><g transform="matrix(1, 0, 0, 1, 4, 147)"><g clip-path="url(#d5513b8349)"><g clip-path="url(#d63e2b3ddc)"><g transform="matrix(1, 0, 0, 1, -0.000000000000000888, 1)"><g clip-path="url(#abb5623abc)"><g clip-path="url(#fedd138018)"><path fill="#02bbc6" d="M 0.847656 0.152344 L 0.847656 123.113281 L 207.800781 123.113281 Z M 0.847656 0.152344 " fill-opacity="1" fill-rule="nonzero"/></g></g></g></g></g></g></g><g fill="#f7f7f7" fill-opacity="1"><g transform="translate(393.256807, 181.52256)"><g><path d="M 9.78125 0 L 9.78125 -77.78125 L 26.28125 -77.78125 L 26.28125 0 Z M 9.78125 0 "/></g></g></g><g fill="#f7f7f7" fill-opacity="1"><g transform="translate(429.324795, 181.52256)"><g><path d="M 63.421875 0 L 47.1875 0 L 47.1875 -34.734375 C 47.1875 -39.023438 46.421875 -42.242188 44.890625 -44.390625 C 43.367188 -46.535156 40.941406 -47.609375 37.609375 -47.609375 C 33.066406 -47.609375 29.785156 -46.09375 27.765625 -43.0625 C 25.742188 -40.03125 24.734375 -35.003906 24.734375 -27.984375 L 24.734375 0 L 8.515625 0 L 8.515625 -59.484375 L 20.90625 -59.484375 L 23.09375 -51.875 L 24 -51.875 C 25.800781 -54.738281 28.289062 -56.90625 31.46875 -58.375 C 34.644531 -59.851562 38.253906 -60.59375 42.296875 -60.59375 C 49.210938 -60.59375 54.460938 -58.722656 58.046875 -54.984375 C 61.628906 -51.242188 63.421875 -45.84375 63.421875 -38.78125 Z M 63.421875 0 "/></g></g></g><g fill="#f7f7f7" fill-opacity="1"><g transform="translate(500.928794, 181.52256)"><g><path d="M 41.390625 -47.296875 L 27.34375 -47.296875 L 27.34375 0 L 11.125 0 L 11.125 -47.296875 L 2.1875 -47.296875 L 2.1875 -55.109375 L 11.125 -59.484375 L 11.125 -63.84375 C 11.125 -70.613281 12.789062 -75.554688 16.125 -78.671875 C 19.457031 -81.796875 24.789062 -83.359375 32.125 -83.359375 C 37.726562 -83.359375 42.710938 -82.523438 47.078125 -80.859375 L 42.9375 -68.953125 C 39.664062 -69.972656 36.648438 -70.484375 33.890625 -70.484375 C 31.585938 -70.484375 29.921875 -69.800781 28.890625 -68.4375 C 27.859375 -67.070312 27.34375 -65.328125 27.34375 -63.203125 L 27.34375 -59.484375 L 41.390625 -59.484375 Z M 41.390625 -47.296875 "/></g></g></g><g fill="#f7f7f7" fill-opacity="1"><g transform="translate(543.114515, 181.52256)"><g><path d="M 21.4375 -29.84375 C 21.4375 -23.957031 22.398438 -19.503906 24.328125 -16.484375 C 26.265625 -13.472656 29.414062 -11.96875 33.78125 -11.96875 C 38.101562 -11.96875 41.210938 -13.460938 43.109375 -16.453125 C 45.015625 -19.453125 45.96875 -23.914062 45.96875 -29.84375 C 45.96875 -35.726562 45.007812 -40.140625 43.09375 -43.078125 C 41.175781 -46.023438 38.035156 -47.5 33.671875 -47.5 C 29.347656 -47.5 26.226562 -46.035156 24.3125 -43.109375 C 22.394531 -40.191406 21.4375 -35.769531 21.4375 -29.84375 Z M 62.5625 -29.84375 C 62.5625 -20.164062 60.003906 -12.59375 54.890625 -7.125 C 49.785156 -1.664062 42.675781 1.0625 33.5625 1.0625 C 27.851562 1.0625 22.816406 -0.1875 18.453125 -2.6875 C 14.097656 -5.1875 10.75 -8.773438 8.40625 -13.453125 C 6.0625 -18.140625 4.890625 -23.601562 4.890625 -29.84375 C 4.890625 -39.5625 7.425781 -47.113281 12.5 -52.5 C 17.570312 -57.894531 24.703125 -60.59375 33.890625 -60.59375 C 39.597656 -60.59375 44.632812 -59.347656 49 -56.859375 C 53.363281 -54.378906 56.710938 -50.816406 59.046875 -46.171875 C 61.390625 -41.523438 62.5625 -36.082031 62.5625 -29.84375 Z M 62.5625 -29.84375 "/></g></g></g><g fill="#f7f7f7" fill-opacity="1"><g transform="translate(610.5691, 181.52256)"><g><path d="M 41.703125 -60.59375 C 43.898438 -60.59375 45.726562 -60.429688 47.1875 -60.109375 L 45.96875 -44.90625 C 44.65625 -45.257812 43.054688 -45.4375 41.171875 -45.4375 C 35.992188 -45.4375 31.957031 -44.101562 29.0625 -41.4375 C 26.175781 -38.78125 24.734375 -35.054688 24.734375 -30.265625 L 24.734375 0 L 8.515625 0 L 8.515625 -59.484375 L 20.796875 -59.484375 L 23.1875 -49.46875 L 24 -49.46875 C 25.84375 -52.8125 28.332031 -55.5 31.46875 -57.53125 C 34.601562 -59.570312 38.015625 -60.59375 41.703125 -60.59375 Z M 41.703125 -60.59375 "/></g></g></g><g fill="#f7f7f7" fill-opacity="1"><g transform="translate(660.042877, 181.52256)"><g><path d="M 61.765625 0 L 45.53125 0 L 45.53125 -34.734375 C 45.53125 -39.023438 44.8125 -42.242188 43.375 -44.390625 C 41.945312 -46.535156 39.6875 -47.609375 36.59375 -47.609375 C 32.445312 -47.609375 29.429688 -46.082031 27.546875 -43.03125 C 25.671875 -39.988281 24.734375 -34.972656 24.734375 -27.984375 L 24.734375 0 L 8.515625 0 L 8.515625 -59.484375 L 20.90625 -59.484375 L 23.09375 -51.875 L 24 -51.875 C 25.59375 -54.601562 27.894531 -56.738281 30.90625 -58.28125 C 33.925781 -59.820312 37.382812 -60.59375 41.28125 -60.59375 C 50.1875 -60.59375 56.21875 -57.6875 59.375 -51.875 L 60.8125 -51.875 C 62.40625 -54.632812 64.753906 -56.773438 67.859375 -58.296875 C 70.960938 -59.828125 74.460938 -60.59375 78.359375 -60.59375 C 85.097656 -60.59375 90.195312 -58.863281 93.65625 -55.40625 C 97.113281 -51.945312 98.84375 -46.40625 98.84375 -38.78125 L 98.84375 0 L 82.5625 0 L 82.5625 -34.734375 C 82.5625 -39.023438 81.84375 -42.242188 80.40625 -44.390625 C 78.96875 -46.535156 76.707031 -47.609375 73.625 -47.609375 C 69.65625 -47.609375 66.6875 -46.191406 64.71875 -43.359375 C 62.75 -40.523438 61.765625 -36.019531 61.765625 -29.84375 Z M 61.765625 0 "/></g></g></g><g fill="#f7f7f7" fill-opacity="1"><g transform="translate(767.023313, 181.52256)"><g><path d="M 46.28125 0 L 43.140625 -8.09375 L 42.71875 -8.09375 C 39.988281 -4.644531 37.175781 -2.253906 34.28125 -0.921875 C 31.394531 0.398438 27.628906 1.0625 22.984375 1.0625 C 17.273438 1.0625 12.78125 -0.566406 9.5 -3.828125 C 6.21875 -7.085938 4.578125 -11.734375 4.578125 -17.765625 C 4.578125 -24.078125 6.785156 -28.734375 11.203125 -31.734375 C 15.617188 -34.734375 22.273438 -36.390625 31.171875 -36.703125 L 41.5 -37.03125 L 41.5 -39.640625 C 41.5 -45.660156 38.410156 -48.671875 32.234375 -48.671875 C 27.484375 -48.671875 21.898438 -47.238281 15.484375 -44.375 L 10.109375 -55.328125 C 16.953125 -58.910156 24.539062 -60.703125 32.875 -60.703125 C 40.851562 -60.703125 46.96875 -58.960938 51.21875 -55.484375 C 55.476562 -52.015625 57.609375 -46.734375 57.609375 -39.640625 L 57.609375 0 Z M 41.5 -27.5625 L 35.21875 -27.34375 C 30.5 -27.195312 26.988281 -26.34375 24.6875 -24.78125 C 22.382812 -23.226562 21.234375 -20.851562 21.234375 -17.65625 C 21.234375 -13.082031 23.851562 -10.796875 29.09375 -10.796875 C 32.851562 -10.796875 35.859375 -11.878906 38.109375 -14.046875 C 40.367188 -16.210938 41.5 -19.082031 41.5 -22.65625 Z M 41.5 -27.5625 "/></g></g></g><g fill="#f7f7f7" fill-opacity="1"><g transform="translate(832.828754, 181.52256)"><g><path d="M 33.5625 -11.859375 C 36.40625 -11.859375 39.8125 -12.476562 43.78125 -13.71875 L 43.78125 -1.65625 C 39.738281 0.15625 34.773438 1.0625 28.890625 1.0625 C 22.398438 1.0625 17.671875 -0.578125 14.703125 -3.859375 C 11.742188 -7.140625 10.265625 -12.0625 10.265625 -18.625 L 10.265625 -47.296875 L 2.5 -47.296875 L 2.5 -54.15625 L 11.4375 -59.578125 L 16.125 -72.140625 L 26.5 -72.140625 L 26.5 -59.484375 L 43.140625 -59.484375 L 43.140625 -47.296875 L 26.5 -47.296875 L 26.5 -18.625 C 26.5 -16.3125 27.144531 -14.601562 28.4375 -13.5 C 29.726562 -12.40625 31.4375 -11.859375 33.5625 -11.859375 Z M 33.5625 -11.859375 "/></g></g></g><g fill="#f7f7f7" fill-opacity="1"><g transform="translate(880.121446, 181.52256)"><g><path d="M 7.828125 -74.859375 C 7.828125 -80.140625 10.769531 -82.78125 16.65625 -82.78125 C 22.539062 -82.78125 25.484375 -80.140625 25.484375 -74.859375 C 25.484375 -72.335938 24.742188 -70.375 23.265625 -68.96875 C 21.796875 -67.570312 19.59375 -66.875 16.65625 -66.875 C 10.769531 -66.875 7.828125 -69.535156 7.828125 -74.859375 Z M 24.734375 0 L 8.515625 0 L 8.515625 -59.484375 L 24.734375 -59.484375 Z M 24.734375 0 "/></g></g></g><g fill="#f7f7f7" fill-opacity="1"><g transform="translate(913.370011, 181.52256)"><g><path d="M 24.09375 -32.34375 L 31.171875 -41.390625 L 47.828125 -59.484375 L 66.125 -59.484375 L 42.5 -33.671875 L 67.5625 0 L 48.84375 0 L 31.703125 -24.09375 L 24.734375 -18.515625 L 24.734375 0 L 8.515625 0 L 8.515625 -82.78125 L 24.734375 -82.78125 L 24.734375 -45.859375 L 23.890625 -32.34375 Z M 24.09375 -32.34375 "/></g></g></g><g fill="#f7f7f7" fill-opacity="1"><g transform="translate(980.930981, 181.52256)"><g><path d="M 46.28125 0 L 43.140625 -8.09375 L 42.71875 -8.09375 C 39.988281 -4.644531 37.175781 -2.253906 34.28125 -0.921875 C 31.394531 0.398438 27.628906 1.0625 22.984375 1.0625 C 17.273438 1.0625 12.78125 -0.566406 9.5 -3.828125 C 6.21875 -7.085938 4.578125 -11.734375 4.578125 -17.765625 C 4.578125 -24.078125 6.785156 -28.734375 11.203125 -31.734375 C 15.617188 -34.734375 22.273438 -36.390625 31.171875 -36.703125 L 41.5 -37.03125 L 41.5 -39.640625 C 41.5 -45.660156 38.410156 -48.671875 32.234375 -48.671875 C 27.484375 -48.671875 21.898438 -47.238281 15.484375 -44.375 L 10.109375 -55.328125 C 16.953125 -58.910156 24.539062 -60.703125 32.875 -60.703125 C 40.851562 -60.703125 46.96875 -58.960938 51.21875 -55.484375 C 55.476562 -52.015625 57.609375 -46.734375 57.609375 -39.640625 L 57.609375 0 Z M 41.5 -27.5625 L 35.21875 -27.34375 C 30.5 -27.195312 26.988281 -26.34375 24.6875 -24.78125 C 22.382812 -23.226562 21.234375 -20.851562 21.234375 -17.65625 C 21.234375 -13.082031 23.851562 -10.796875 29.09375 -10.796875 C 32.851562 -10.796875 35.859375 -11.878906 38.109375 -14.046875 C 40.367188 -16.210938 41.5 -19.082031 41.5 -22.65625 Z M 41.5 -27.5625 "/></g></g></g><g clip-path="url(#a097b86496)"><g mask="url(#b1d1efd50d)"><g transform="matrix(1, 0, 0, 1, 869, 82)"><g clip-path="url(#752a5de862)"><g clip-path="url(#1f8f664565)"><g clip-path="url(#0104a403e1)"><g clip-path="url(#f64ee7e9ef)"><path fill="#13aad1" d="M 439.464844 195.53125 L 11.960938 193.09375 L 204.796875 57.5 Z M 439.464844 195.53125 " fill-opacity="1" fill-rule="nonzero"/></g></g></g><g clip-path="url(#689d2fdcb2)"><g clip-path="url(#1ef0dd9710)"><g clip-path="url(#b24c95be11)"><path fill="#00caff" d="M 204.667969 53.25 L 452.675781 199.128906 L 0.753906 196.570312 Z M 426.226562 191.824219 L 204.96875 61.679688 L 23.09375 189.578125 Z M 426.226562 191.824219 " fill-opacity="1" fill-rule="nonzero"/></g></g></g></g></g></g></g><g mask="url(#b31e37946c)"><g transform="matrix(1, 0, 0, 1, 304, 168)"><g clip-path="url(#53f303914e)"><g clip-path="url(#43f72274d9)"><path fill="#03bfe8" d="M 125.640625 94.675781 C 132.535156 94.675781 138.058594 89.09375 138.058594 82.195312 L 138.121094 13.554688 C 138.121094 6.660156 132.535156 1.074219 125.640625 1.074219 L 25.800781 1.074219 C 18.90625 1.074219 13.320312 6.660156 13.320312 13.554688 L 13.320312 82.195312 C 13.320312 89.09375 18.90625 94.675781 25.800781 94.675781 L 0.839844 94.675781 C 0.839844 101.574219 6.425781 107.15625 13.320312 107.15625 L 138.121094 107.15625 C 145.015625 107.15625 150.601562 101.574219 150.601562 94.675781 Z M 25.800781 13.554688 L 125.640625 13.554688 L 125.640625 82.195312 L 25.800781 82.195312 Z M 75.71875 100.917969 C 72.289062 100.917969 69.480469 98.109375 69.480469 94.675781 C 69.480469 91.246094 72.289062 88.4375 75.71875 88.4375 C 79.152344 88.4375 81.960938 91.246094 81.960938 94.675781 C 81.960938 98.109375 79.152344 100.917969 75.71875 100.917969 Z M 75.71875 100.917969 " fill-opacity="1" fill-rule="nonzero"/></g></g></g></g><g mask="url(#bdac774c5b)"><g transform="matrix(1, 0, 0, 1, 554, 161)"><g clip-path="url(#a7d018c601)"><g clip-path="url(#14a025f12c)"><path fill="#d8d5ff" d="M 185.242188 89.535156 C 180.988281 101.136719 176.84375 99.113281 173.175781 99.164062 C 167.054688 99.242188 162.242188 94.394531 160.398438 89.535156 C 160.261719 90.714844 160.113281 91.851562 159.917969 92.839844 C 157.84375 103.058594 165.644531 114.019531 172.8125 114.191406 C 179.984375 114.019531 187.792969 103.058594 185.722656 92.839844 C 185.515625 91.851562 185.375 90.722656 185.242188 89.535156 " fill-opacity="1" fill-rule="nonzero"/></g><path fill="#03bfe8" d="M 185.242188 89.535156 C 184.789062 85.476562 184.515625 80.703125 182.871094 78.082031 C 180.511719 74.332031 176.585938 73.828125 172.8125 73.8125 C 169.046875 73.828125 165.113281 74.332031 162.765625 78.082031 C 161.121094 80.703125 160.847656 85.476562 160.394531 89.535156 C 162.214844 94.332031 164.429688 105.179688 172.933594 105.179688 C 180.15625 105.179688 183.328125 96.671875 185.242188 89.535156 " fill-opacity="1" fill-rule="nonzero"/><path fill="#d8d5ff" d="M 175.648438 84.679688 C 175.648438 89.429688 174.378906 93.285156 172.816406 93.285156 C 171.253906 93.285156 169.984375 89.429688 169.984375 84.679688 C 169.984375 79.933594 171.253906 76.078125 172.816406 76.078125 C 174.378906 76.078125 175.648438 79.933594 175.648438 84.679688 " fill-opacity="1" fill-rule="nonzero"/><path fill="#02bbc6" d="M 174.128906 87.246094 C 174.128906 87.96875 173.539062 88.554688 172.8125 88.554688 C 172.089844 88.554688 171.503906 87.96875 171.503906 87.246094 L 171.503906 82.121094 C 171.503906 81.394531 172.089844 80.8125 172.8125 80.8125 C 173.539062 80.8125 174.128906 81.394531 174.128906 82.121094 L 174.128906 87.246094 " fill-opacity="1" fill-rule="nonzero"/><g clip-path="url(#4116f23282)"><path fill="#03bfe8" d="M 0.746094 112.566406 L 143.417969 112.566406 L 143.417969 57.707031 L 0.746094 57.707031 L 0.746094 112.566406 " fill-opacity="1" fill-rule="nonzero"/></g><path fill="#02bbc6" d="M 11.910156 72.519531 L 5.714844 72.519531 L 5.714844 66.328125 L 11.910156 66.328125 L 11.910156 72.519531 " fill-opacity="1" fill-rule="nonzero"/><path fill="#02bbc6" d="M 11.910156 80.265625 L 5.714844 80.265625 L 5.714844 74.074219 L 11.910156 74.074219 L 11.910156 80.265625 " fill-opacity="1" fill-rule="nonzero"/><path fill="#02bbc6" d="M 14.070312 88.015625 L 5.714844 88.015625 L 5.714844 81.816406 L 14.070312 81.816406 L 14.070312 88.015625 " fill-opacity="1" fill-rule="nonzero"/><path fill="#02bbc6" d="M 16.578125 95.984375 L 5.714844 95.984375 L 5.714844 89.785156 L 16.578125 89.785156 L 16.578125 95.984375 " fill-opacity="1" fill-rule="nonzero"/><path fill="#02bbc6" d="M 14.679688 103.945312 L 5.714844 103.945312 L 5.714844 97.75 L 14.679688 97.75 L 14.679688 103.945312 " fill-opacity="1" fill-rule="nonzero"/><path fill="#02bbc6" d="M 21.824219 88.015625 L 15.625 88.015625 L 15.625 81.816406 L 21.824219 81.816406 L 21.824219 88.015625 " fill-opacity="1" fill-rule="nonzero"/><path fill="#02bbc6" d="M 24.972656 95.984375 L 18.773438 95.984375 L 18.773438 89.785156 L 24.972656 89.785156 L 24.972656 95.984375 " fill-opacity="1" fill-rule="nonzero"/><path fill="#02bbc6" d="M 23.308594 103.945312 L 17.113281 103.945312 L 17.113281 97.75 L 23.308594 97.75 L 23.308594 103.945312 " fill-opacity="1" fill-rule="nonzero"/><path fill="#02bbc6" d="M 31.171875 103.945312 L 24.972656 103.945312 L 24.972656 97.75 L 31.171875 97.75 L 31.171875 103.945312 " fill-opacity="1" fill-rule="nonzero"/><path fill="#02bbc6" d="M 66.558594 103.945312 L 32.832031 103.945312 L 32.832031 97.75 L 66.558594 97.75 L 66.558594 103.945312 " fill-opacity="1" fill-rule="nonzero"/><path fill="#02bbc6" d="M 32.9375 95.984375 L 26.738281 95.984375 L 26.738281 89.785156 L 32.9375 89.785156 L 32.9375 95.984375 " fill-opacity="1" fill-rule="nonzero"/><path fill="#02bbc6" d="M 40.898438 95.984375 L 34.707031 95.984375 L 34.707031 89.785156 L 40.898438 89.785156 L 40.898438 95.984375 " fill-opacity="1" fill-rule="nonzero"/><path fill="#02bbc6" d="M 48.863281 95.984375 L 42.664062 95.984375 L 42.664062 89.785156 L 48.863281 89.785156 L 48.863281 95.984375 " fill-opacity="1" fill-rule="nonzero"/><path fill="#02bbc6" d="M 56.824219 95.984375 L 50.628906 95.984375 L 50.628906 89.785156 L 56.824219 89.785156 L 56.824219 95.984375 " fill-opacity="1" fill-rule="nonzero"/><path fill="#02bbc6" d="M 64.789062 95.984375 L 58.59375 95.984375 L 58.59375 89.785156 L 64.789062 89.785156 L 64.789062 95.984375 " fill-opacity="1" fill-rule="nonzero"/><path fill="#02bbc6" d="M 72.757812 95.984375 L 66.558594 95.984375 L 66.558594 89.785156 L 72.757812 89.785156 L 72.757812 95.984375 " fill-opacity="1" fill-rule="nonzero"/><path fill="#02bbc6" d="M 74.324219 103.945312 L 68.121094 103.945312 L 68.121094 97.75 L 74.324219 97.75 L 74.324219 103.945312 " fill-opacity="1" fill-rule="nonzero"/><path fill="#02bbc6" d="M 82.511719 103.945312 L 76.316406 103.945312 L 76.316406 97.75 L 82.511719 97.75 L 82.511719 103.945312 " fill-opacity="1" fill-rule="nonzero"/><path fill="#02bbc6" d="M 90.703125 103.945312 L 84.503906 103.945312 L 84.503906 97.75 L 90.703125 97.75 L 90.703125 103.945312 " fill-opacity="1" fill-rule="nonzero"/><path fill="#02bbc6" d="M 99.992188 103.945312 L 92.695312 103.945312 L 92.695312 97.75 L 99.992188 97.75 L 99.992188 103.945312 " fill-opacity="1" fill-rule="nonzero"/><path fill="#02bbc6" d="M 80.71875 95.984375 L 74.519531 95.984375 L 74.519531 89.785156 L 80.71875 89.785156 L 80.71875 95.984375 " fill-opacity="1" fill-rule="nonzero"/><path fill="#02bbc6" d="M 99.992188 95.984375 L 82.484375 95.984375 L 82.484375 89.785156 L 99.992188 89.785156 L 99.992188 95.984375 " fill-opacity="1" fill-rule="nonzero"/><path fill="#02bbc6" d="M 29.835938 88.015625 L 23.640625 88.015625 L 23.640625 81.816406 L 29.835938 81.816406 L 29.835938 88.015625 " fill-opacity="1" fill-rule="nonzero"/><path fill="#02bbc6" d="M 37.847656 88.015625 L 31.648438 88.015625 L 31.648438 81.816406 L 37.847656 81.816406 L 37.847656 88.015625 " fill-opacity="1" fill-rule="nonzero"/><path fill="#02bbc6" d="M 45.859375 88.015625 L 39.664062 88.015625 L 39.664062 81.816406 L 45.859375 81.816406 L 45.859375 88.015625 " fill-opacity="1" fill-rule="nonzero"/><path fill="#02bbc6" d="M 53.875 88.015625 L 47.671875 88.015625 L 47.671875 81.816406 L 53.875 81.816406 L 53.875 88.015625 " fill-opacity="1" fill-rule="nonzero"/><path fill="#02bbc6" d="M 61.882812 88.015625 L 55.683594 88.015625 L 55.683594 81.816406 L 61.882812 81.816406 L 61.882812 88.015625 " fill-opacity="1" fill-rule="nonzero"/><path fill="#02bbc6" d="M 69.894531 88.015625 L 63.691406 88.015625 L 63.691406 81.816406 L 69.894531 81.816406 L 69.894531 88.015625 " fill-opacity="1" fill-rule="nonzero"/><path fill="#02bbc6" d="M 77.902344 88.015625 L 71.707031 88.015625 L 71.707031 81.816406 L 77.902344 81.816406 L 77.902344 88.015625 " fill-opacity="1" fill-rule="nonzero"/><path fill="#02bbc6" d="M 85.917969 88.015625 L 79.71875 88.015625 L 79.71875 81.816406 L 85.917969 81.816406 L 85.917969 88.015625 " fill-opacity="1" fill-rule="nonzero"/><path fill="#02bbc6" d="M 99.992188 88.015625 L 87.730469 88.015625 L 87.730469 81.816406 L 99.992188 81.816406 L 99.992188 88.015625 " fill-opacity="1" fill-rule="nonzero"/><path fill="#02bbc6" d="M 28.617188 80.265625 L 22.421875 80.265625 L 22.421875 74.074219 L 28.617188 74.074219 L 28.617188 80.265625 " fill-opacity="1" fill-rule="nonzero"/><path fill="#02bbc6" d="M 36.972656 80.265625 L 30.777344 80.265625 L 30.777344 74.074219 L 36.972656 74.074219 L 36.972656 80.265625 " fill-opacity="1" fill-rule="nonzero"/><path fill="#02bbc6" d="M 45.328125 80.265625 L 39.132812 80.265625 L 39.132812 74.074219 L 45.328125 74.074219 L 45.328125 80.265625 " fill-opacity="1" fill-rule="nonzero"/><path fill="#02bbc6" d="M 53.679688 80.265625 L 47.484375 80.265625 L 47.484375 74.074219 L 53.679688 74.074219 L 53.679688 80.265625 " fill-opacity="1" fill-rule="nonzero"/><path fill="#02bbc6" d="M 62.03125 80.265625 L 55.835938 80.265625 L 55.835938 74.074219 L 62.03125 74.074219 L 62.03125 80.265625 " fill-opacity="1" fill-rule="nonzero"/><path fill="#02bbc6" d="M 70.390625 80.265625 L 64.1875 80.265625 L 64.1875 74.074219 L 70.390625 74.074219 L 70.390625 80.265625 " fill-opacity="1" fill-rule="nonzero"/><path fill="#02bbc6" d="M 78.742188 80.265625 L 72.546875 80.265625 L 72.546875 74.074219 L 78.742188 74.074219 L 78.742188 80.265625 " fill-opacity="1" fill-rule="nonzero"/><path fill="#02bbc6" d="M 87.097656 80.265625 L 80.898438 80.265625 L 80.898438 74.074219 L 87.097656 74.074219 L 87.097656 80.265625 " fill-opacity="1" fill-rule="nonzero"/><path fill="#02bbc6" d="M 99.992188 80.265625 L 89.253906 80.265625 L 89.253906 74.074219 L 99.992188 74.074219 L 99.992188 80.265625 " fill-opacity="1" fill-rule="nonzero"/><path fill="#02bbc6" d="M 20.875 72.519531 L 14.679688 72.519531 L 14.679688 66.328125 L 20.875 66.328125 L 20.875 72.519531 " fill-opacity="1" fill-rule="nonzero"/><path fill="#02bbc6" d="M 28.074219 72.519531 L 21.871094 72.519531 L 21.871094 66.328125 L 28.074219 66.328125 L 28.074219 72.519531 " fill-opacity="1" fill-rule="nonzero"/><path fill="#02bbc6" d="M 35.261719 72.519531 L 29.0625 72.519531 L 29.0625 66.328125 L 35.261719 66.328125 L 35.261719 72.519531 " fill-opacity="1" fill-rule="nonzero"/><path fill="#02bbc6" d="M 42.457031 72.519531 L 36.257812 72.519531 L 36.257812 66.328125 L 42.457031 66.328125 L 42.457031 72.519531 " fill-opacity="1" fill-rule="nonzero"/><path fill="#02bbc6" d="M 49.652344 72.519531 L 43.453125 72.519531 L 43.453125 66.328125 L 49.652344 66.328125 L 49.652344 72.519531 " fill-opacity="1" fill-rule="nonzero"/><path fill="#02bbc6" d="M 56.839844 72.519531 L 50.644531 72.519531 L 50.644531 66.328125 L 56.839844 66.328125 L 56.839844 72.519531 " fill-opacity="1" fill-rule="nonzero"/><path fill="#02bbc6" d="M 64.03125 72.519531 L 57.835938 72.519531 L 57.835938 66.328125 L 64.03125 66.328125 L 64.03125 72.519531 " fill-opacity="1" fill-rule="nonzero"/><path fill="#02bbc6" d="M 71.226562 72.519531 L 65.03125 72.519531 L 65.03125 66.328125 L 71.226562 66.328125 L 71.226562 72.519531 " fill-opacity="1" fill-rule="nonzero"/><path fill="#02bbc6" d="M 78.417969 72.519531 L 72.222656 72.519531 L 72.222656 66.328125 L 78.417969 66.328125 L 78.417969 72.519531 " fill-opacity="1" fill-rule="nonzero"/><path fill="#02bbc6" d="M 85.609375 72.519531 L 79.414062 72.519531 L 79.414062 66.328125 L 85.609375 66.328125 L 85.609375 72.519531 " fill-opacity="1" fill-rule="nonzero"/><path fill="#02bbc6" d="M 92.804688 72.519531 L 86.609375 72.519531 L 86.609375 66.328125 L 92.804688 66.328125 L 92.804688 72.519531 " fill-opacity="1" fill-rule="nonzero"/><path fill="#02bbc6" d="M 99.992188 72.519531 L 93.796875 72.519531 L 93.796875 66.328125 L 99.992188 66.328125 L 99.992188 72.519531 " fill-opacity="1" fill-rule="nonzero"/><path fill="#02bbc6" d="M 107.742188 72.519531 L 101.542969 72.519531 L 101.542969 66.328125 L 107.742188 66.328125 L 107.742188 72.519531 " fill-opacity="1" fill-rule="nonzero"/><path fill="#02bbc6" d="M 107.742188 80.265625 L 101.542969 80.265625 L 101.542969 74.074219 L 107.742188 74.074219 L 107.742188 80.265625 " fill-opacity="1" fill-rule="nonzero"/><path fill="#02bbc6" d="M 107.742188 88.015625 L 101.542969 88.015625 L 101.542969 81.816406 L 107.742188 81.816406 L 107.742188 88.015625 " fill-opacity="1" fill-rule="nonzero"/><path fill="#02bbc6" d="M 107.742188 103.945312 L 101.542969 103.945312 L 101.542969 97.75 L 107.742188 97.75 L 107.742188 103.945312 " fill-opacity="1" fill-rule="nonzero"/><path fill="#02bbc6" d="M 115.488281 103.945312 L 109.289062 103.945312 L 109.289062 97.75 L 115.488281 97.75 L 115.488281 103.945312 " fill-opacity="1" fill-rule="nonzero"/><path fill="#02bbc6" d="M 115.488281 95.984375 L 109.289062 95.984375 L 109.289062 89.785156 L 115.488281 89.785156 L 115.488281 95.984375 " fill-opacity="1" fill-rule="nonzero"/><path fill="#02bbc6" d="M 123.226562 103.945312 L 117.03125 103.945312 L 117.03125 97.75 L 123.226562 97.75 L 123.226562 103.945312 " fill-opacity="1" fill-rule="nonzero"/><path fill="#02bbc6" d="M 115.488281 80.265625 L 109.289062 80.265625 L 109.289062 74.074219 L 115.488281 74.074219 L 115.488281 80.265625 " fill-opacity="1" fill-rule="nonzero"/><path fill="#02bbc6" d="M 115.488281 88.015625 L 109.289062 88.015625 L 109.289062 81.816406 L 115.488281 81.816406 L 115.488281 88.015625 " fill-opacity="1" fill-rule="nonzero"/><path fill="#02bbc6" d="M 123.226562 80.265625 L 117.03125 80.265625 L 117.03125 74.074219 L 123.226562 74.074219 L 123.226562 80.265625 " fill-opacity="1" fill-rule="nonzero"/><path fill="#02bbc6" d="M 130.980469 80.265625 L 124.777344 80.265625 L 124.777344 74.074219 L 130.980469 74.074219 L 130.980469 80.265625 " fill-opacity="1" fill-rule="nonzero"/><path fill="#02bbc6" d="M 138.722656 80.265625 L 132.523438 80.265625 L 132.523438 74.074219 L 138.722656 74.074219 L 138.722656 80.265625 " fill-opacity="1" fill-rule="nonzero"/><path fill="#02bbc6" d="M 130.980469 88.015625 L 124.777344 88.015625 L 124.777344 81.816406 L 130.980469 81.816406 L 130.980469 88.015625 " fill-opacity="1" fill-rule="nonzero"/><path fill="#02bbc6" d="M 138.722656 88.015625 L 132.523438 88.015625 L 132.523438 81.816406 L 138.722656 81.816406 L 138.722656 88.015625 " fill-opacity="1" fill-rule="nonzero"/><path fill="#02bbc6" d="M 130.980469 95.757812 L 124.777344 95.757812 L 124.777344 89.5625 L 130.980469 89.5625 L 130.980469 95.757812 " fill-opacity="1" fill-rule="nonzero"/><path fill="#02bbc6" d="M 138.722656 95.757812 L 132.523438 95.757812 L 132.523438 89.5625 L 138.722656 89.5625 L 138.722656 95.757812 " fill-opacity="1" fill-rule="nonzero"/><path fill="#02bbc6" d="M 130.980469 103.945312 L 124.777344 103.945312 L 124.777344 97.75 L 130.980469 97.75 L 130.980469 103.945312 " fill-opacity="1" fill-rule="nonzero"/><path fill="#02bbc6" d="M 138.722656 103.945312 L 132.523438 103.945312 L 132.523438 97.75 L 138.722656 97.75 L 138.722656 103.945312 " fill-opacity="1" fill-rule="nonzero"/><path fill="#02bbc6" d="M 123.226562 88.015625 L 117.03125 88.015625 L 117.03125 81.816406 L 123.226562 81.816406 L 123.226562 88.015625 " fill-opacity="1" fill-rule="nonzero"/><path fill="#02bbc6" d="M 115.488281 72.519531 L 109.289062 72.519531 L 109.289062 66.328125 L 115.488281 66.328125 L 115.488281 72.519531 " fill-opacity="1" fill-rule="nonzero"/><path fill="#02bbc6" d="M 123.226562 72.519531 L 117.03125 72.519531 L 117.03125 66.328125 L 123.226562 66.328125 L 123.226562 72.519531 " fill-opacity="1" fill-rule="nonzero"/><path fill="#02bbc6" d="M 130.980469 72.519531 L 124.777344 72.519531 L 124.777344 66.328125 L 130.980469 66.328125 L 130.980469 72.519531 " fill-opacity="1" fill-rule="nonzero"/><path fill="#02bbc6" d="M 138.722656 72.519531 L 132.523438 72.519531 L 132.523438 66.328125 L 138.722656 66.328125 L 138.722656 72.519531 " fill-opacity="1" fill-rule="nonzero"/><g clip-path="url(#b8bca436bd)"><path fill="#03bfe8" d="M 40.210938 62.464844 C 40.132812 62.261719 38.3125 57.382812 41.617188 52.566406 C 45.652344 46.683594 55.292969 43.703125 70.265625 43.703125 C 79.78125 43.703125 85.757812 44.195312 90.316406 43.078125 C 95.609375 41.78125 98.859375 39.542969 101.230469 35.972656 C 102.367188 34.25 104.039062 27.992188 104.351562 21.265625 C 104.835938 10.648438 104.855469 1.757812 104.863281 0.347656 L 106.457031 0.347656 C 106.457031 0.347656 106.011719 10.589844 105.597656 21.347656 C 105.320312 28.796875 103.785156 34.460938 102.320312 36.828125 C 100 40.570312 96.285156 43.285156 90.472656 44.601562 C 85.773438 45.664062 79.703125 45.09375 70.265625 45.09375 C 52.21875 45.09375 45.347656 49.585938 42.765625 53.351562 C 39.867188 57.566406 41.492188 61.921875 41.507812 61.964844 L 40.210938 62.464844 " fill-opacity="1" fill-rule="nonzero"/></g><g clip-path="url(#36557bac06)"><path fill="#03bfe8" d="M 173.074219 74.902344 L 171.722656 74.535156 C 171.734375 74.480469 172.542969 60.957031 169.003906 56.117188 C 165.289062 51.03125 158.371094 48.902344 144.308594 45.96875 C 136.449219 44.328125 133.269531 38.769531 130.859375 31.152344 C 126.65625 17.84375 127.613281 0.441406 127.613281 0.34375 L 129 0.34375 C 129.007812 0.695312 128.386719 17.875 132.457031 30.722656 C 134.695312 37.789062 138.332031 43.660156 144.308594 44.484375 C 157.980469 46.378906 166.132812 49.75 170.117188 55.230469 C 174.0625 60.648438 173.132812 74.652344 173.074219 74.902344 " fill-opacity="1" fill-rule="nonzero"/></g></g></g></g><path fill="#00bedf" d="M 1184.195312 80.21875 C 1183.714844 80.21875 1183.328125 79.832031 1183.328125 79.351562 L 1183.328125 39.707031 L 1178.457031 39.707031 C 1177.976562 39.707031 1177.589844 39.316406 1177.589844 38.839844 C 1177.589844 38.359375 1177.976562 37.972656 1178.457031 37.972656 L 1184.195312 37.972656 C 1184.671875 37.972656 1185.0625 38.363281 1185.0625 38.839844 L 1185.0625 79.351562 C 1185.0625 79.832031 1184.671875 80.21875 1184.195312 80.21875 " fill-opacity="1" fill-rule="nonzero"/><path fill="#00bedf" d="M 1196.871094 80.148438 C 1196.394531 80.148438 1196.007812 79.761719 1196.007812 79.28125 L 1196.007812 51.527344 C 1196.007812 51.046875 1196.394531 50.660156 1196.871094 50.660156 C 1197.351562 50.660156 1197.738281 51.046875 1197.738281 51.527344 L 1197.738281 79.28125 C 1197.738281 79.761719 1197.351562 80.148438 1196.871094 80.148438 " fill-opacity="1" fill-rule="nonzero"/><g clip-path="url(#6108fffac5)"><path fill="#00bedf" d="M 1173.945312 35.714844 C 1173.558594 35.714844 1173.175781 35.785156 1172.8125 35.929688 C 1172.035156 36.230469 1171.425781 36.820312 1171.089844 37.582031 C 1170.757812 38.347656 1170.738281 39.195312 1171.042969 39.972656 C 1171.652344 41.542969 1173.496094 42.367188 1175.085938 41.746094 C 1176.6875 41.121094 1177.484375 39.304688 1176.855469 37.703125 C 1176.59375 37.027344 1176.121094 36.480469 1175.488281 36.117188 C 1175.015625 35.855469 1174.484375 35.714844 1173.945312 35.714844 Z M 1173.949219 43.691406 C 1171.9375 43.691406 1170.160156 42.480469 1169.429688 40.601562 C 1168.957031 39.394531 1168.984375 38.074219 1169.503906 36.886719 C 1170.023438 35.699219 1170.980469 34.785156 1172.183594 34.316406 C 1173.53125 33.789062 1175.074219 33.902344 1176.339844 34.609375 C 1177.328125 35.175781 1178.066406 36.027344 1178.46875 37.074219 C 1179.441406 39.566406 1178.207031 42.386719 1175.714844 43.359375 C 1175.148438 43.582031 1174.554688 43.691406 1173.949219 43.691406 " fill-opacity="1" fill-rule="nonzero"/></g><path fill="#00bedf" d="M 1205.324219 80.148438 C 1204.847656 80.148438 1204.460938 79.761719 1204.460938 79.28125 L 1204.460938 57.101562 C 1204.460938 56.621094 1204.847656 56.234375 1205.324219 56.234375 L 1222.726562 56.234375 C 1223.207031 56.234375 1223.589844 56.621094 1223.589844 57.101562 C 1223.589844 57.582031 1223.207031 57.96875 1222.726562 57.96875 L 1206.191406 57.96875 L 1206.191406 79.28125 C 1206.191406 79.761719 1205.800781 80.148438 1205.324219 80.148438 " fill-opacity="1" fill-rule="nonzero"/><path fill="#00bedf" d="M 1225.972656 55.09375 C 1225.628906 55.09375 1225.285156 55.183594 1224.976562 55.355469 C 1224.578125 55.582031 1224.273438 55.933594 1224.105469 56.371094 C 1223.703125 57.402344 1224.214844 58.566406 1225.242188 58.96875 C 1225.476562 59.0625 1225.722656 59.109375 1225.96875 59.109375 L 1225.972656 59.109375 C 1226.804688 59.109375 1227.535156 58.605469 1227.839844 57.828125 C 1228.035156 57.332031 1228.023438 56.785156 1227.808594 56.296875 C 1227.59375 55.804688 1227.199219 55.425781 1226.699219 55.234375 C 1226.464844 55.140625 1226.21875 55.09375 1225.972656 55.09375 Z M 1225.972656 60.839844 L 1225.96875 60.839844 C 1225.503906 60.839844 1225.046875 60.753906 1224.613281 60.582031 C 1222.691406 59.832031 1221.742188 57.660156 1222.492188 55.742188 C 1222.796875 54.945312 1223.378906 54.269531 1224.125 53.847656 C 1225.109375 53.296875 1226.296875 53.214844 1227.332031 53.621094 C 1228.257812 53.984375 1228.992188 54.683594 1229.394531 55.601562 C 1229.792969 56.511719 1229.816406 57.53125 1229.453125 58.460938 C 1228.890625 59.90625 1227.523438 60.839844 1225.972656 60.839844 " fill-opacity="1" fill-rule="nonzero"/><path fill="#00bedf" d="M 1196.867188 44.410156 C 1196.480469 44.410156 1196.101562 44.484375 1195.738281 44.625 C 1194.960938 44.929688 1194.347656 45.515625 1194.011719 46.28125 C 1193.675781 47.042969 1193.660156 47.894531 1193.964844 48.671875 C 1194.578125 50.242188 1196.421875 51.0625 1198.007812 50.445312 C 1199.609375 49.816406 1200.40625 48.003906 1199.78125 46.398438 C 1199.519531 45.726562 1199.042969 45.175781 1198.410156 44.816406 C 1197.941406 44.554688 1197.402344 44.410156 1196.867188 44.410156 Z M 1196.871094 52.390625 C 1194.859375 52.390625 1193.082031 51.179688 1192.351562 49.300781 C 1191.878906 48.09375 1191.90625 46.773438 1192.425781 45.585938 C 1192.949219 44.398438 1193.902344 43.484375 1195.109375 43.011719 C 1196.449219 42.488281 1197.996094 42.601562 1199.261719 43.308594 C 1200.238281 43.863281 1200.992188 44.738281 1201.394531 45.769531 C 1202.367188 48.265625 1201.128906 51.085938 1198.636719 52.058594 C 1198.070312 52.277344 1197.476562 52.390625 1196.871094 52.390625 " fill-opacity="1" fill-rule="nonzero"/><path fill="#00bedf" d="M 1167.292969 151.089844 C 1166.8125 151.089844 1166.425781 150.703125 1166.425781 150.226562 L 1166.425781 73.515625 C 1166.425781 73.035156 1166.8125 72.648438 1167.292969 72.648438 C 1167.769531 72.648438 1168.15625 73.035156 1168.15625 73.515625 L 1168.15625 150.226562 C 1168.15625 150.703125 1167.769531 151.089844 1167.292969 151.089844 " fill-opacity="1" fill-rule="nonzero"/><path fill="#00bedf" d="M 1171.515625 151.089844 C 1171.039062 151.089844 1170.652344 150.703125 1170.652344 150.226562 L 1170.652344 73.515625 C 1170.652344 73.035156 1171.039062 72.648438 1171.515625 72.648438 C 1171.996094 72.648438 1172.382812 73.035156 1172.382812 73.515625 L 1172.382812 150.226562 C 1172.382812 150.703125 1171.996094 151.089844 1171.515625 151.089844 " fill-opacity="1" fill-rule="nonzero"/><path fill="#00bedf" d="M 1175.746094 151.089844 C 1175.265625 151.089844 1174.878906 150.703125 1174.878906 150.226562 L 1174.878906 73.515625 C 1174.878906 73.035156 1175.265625 72.648438 1175.746094 72.648438 C 1176.222656 72.648438 1176.609375 73.035156 1176.609375 73.515625 L 1176.609375 150.226562 C 1176.609375 150.703125 1176.222656 151.089844 1175.746094 151.089844 " fill-opacity="1" fill-rule="nonzero"/><path fill="#00bedf" d="M 1179.96875 151.089844 C 1179.492188 151.089844 1179.105469 150.703125 1179.105469 150.226562 L 1179.105469 73.515625 C 1179.105469 73.035156 1179.492188 72.648438 1179.96875 72.648438 C 1180.449219 72.648438 1180.835938 73.035156 1180.835938 73.515625 L 1180.835938 150.226562 C 1180.835938 150.703125 1180.449219 151.089844 1179.96875 151.089844 " fill-opacity="1" fill-rule="nonzero"/><path fill="#00bedf" d="M 1184.195312 151.089844 C 1183.714844 151.089844 1183.328125 150.703125 1183.328125 150.226562 L 1183.328125 73.515625 C 1183.328125 73.035156 1183.714844 72.648438 1184.195312 72.648438 C 1184.671875 72.648438 1185.0625 73.035156 1185.0625 73.515625 L 1185.0625 150.226562 C 1185.0625 150.703125 1184.671875 151.089844 1184.195312 151.089844 " fill-opacity="1" fill-rule="nonzero"/><path fill="#00bedf" d="M 1188.421875 151.089844 C 1187.941406 151.089844 1187.554688 150.703125 1187.554688 150.226562 L 1187.554688 73.515625 C 1187.554688 73.035156 1187.941406 72.648438 1188.421875 72.648438 C 1188.898438 72.648438 1189.285156 73.035156 1189.285156 73.515625 L 1189.285156 150.226562 C 1189.285156 150.703125 1188.898438 151.089844 1188.421875 151.089844 " fill-opacity="1" fill-rule="nonzero"/><path fill="#00bedf" d="M 1192.644531 151.089844 C 1192.167969 151.089844 1191.78125 150.703125 1191.78125 150.226562 L 1191.78125 73.515625 C 1191.78125 73.035156 1192.167969 72.648438 1192.644531 72.648438 C 1193.125 72.648438 1193.511719 73.035156 1193.511719 73.515625 L 1193.511719 150.226562 C 1193.511719 150.703125 1193.125 151.089844 1192.644531 151.089844 " fill-opacity="1" fill-rule="nonzero"/><path fill="#00bedf" d="M 1196.871094 151.089844 C 1196.394531 151.089844 1196.007812 150.703125 1196.007812 150.226562 L 1196.007812 73.515625 C 1196.007812 73.035156 1196.394531 72.648438 1196.871094 72.648438 C 1197.351562 72.648438 1197.738281 73.035156 1197.738281 73.515625 L 1197.738281 150.226562 C 1197.738281 150.703125 1197.351562 151.089844 1196.871094 151.089844 " fill-opacity="1" fill-rule="nonzero"/><path fill="#00bedf" d="M 1201.101562 151.089844 C 1200.621094 151.089844 1200.234375 150.703125 1200.234375 150.226562 L 1200.234375 73.515625 C 1200.234375 73.035156 1200.621094 72.648438 1201.101562 72.648438 C 1201.578125 72.648438 1201.964844 73.035156 1201.964844 73.515625 L 1201.964844 150.226562 C 1201.964844 150.703125 1201.578125 151.089844 1201.101562 151.089844 " fill-opacity="1" fill-rule="nonzero"/><path fill="#00bedf" d="M 1205.324219 151.089844 C 1204.847656 151.089844 1204.460938 150.703125 1204.460938 150.226562 L 1204.460938 73.515625 C 1204.460938 73.035156 1204.847656 72.648438 1205.324219 72.648438 C 1205.800781 72.648438 1206.191406 73.035156 1206.191406 73.515625 L 1206.191406 150.226562 C 1206.191406 150.703125 1205.800781 151.089844 1205.324219 151.089844 " fill-opacity="1" fill-rule="nonzero"/><path fill="#00bedf" d="M 1209.550781 151.089844 C 1209.070312 151.089844 1208.683594 150.703125 1208.683594 150.226562 L 1208.683594 73.515625 C 1208.683594 73.035156 1209.070312 72.648438 1209.550781 72.648438 C 1210.027344 72.648438 1210.414062 73.035156 1210.414062 73.515625 L 1210.414062 150.226562 C 1210.414062 150.703125 1210.027344 151.089844 1209.550781 151.089844 " fill-opacity="1" fill-rule="nonzero"/><path fill="#00bedf" d="M 1213.777344 151.089844 C 1213.296875 151.089844 1212.910156 150.703125 1212.910156 150.226562 L 1212.910156 73.515625 C 1212.910156 73.035156 1213.296875 72.648438 1213.777344 72.648438 C 1214.253906 72.648438 1214.640625 73.035156 1214.640625 73.515625 L 1214.640625 150.226562 C 1214.640625 150.703125 1214.253906 151.089844 1213.777344 151.089844 " fill-opacity="1" fill-rule="nonzero"/><path fill="#00bedf" d="M 1218 151.089844 C 1217.523438 151.089844 1217.136719 150.703125 1217.136719 150.226562 L 1217.136719 73.515625 C 1217.136719 73.035156 1217.523438 72.648438 1218 72.648438 C 1218.476562 72.648438 1218.863281 73.035156 1218.863281 73.515625 L 1218.863281 150.226562 C 1218.863281 150.703125 1218.476562 151.089844 1218 151.089844 " fill-opacity="1" fill-rule="nonzero"/><path fill="#00bedf" d="M 1222.226562 151.089844 C 1221.746094 151.089844 1221.359375 150.703125 1221.359375 150.226562 L 1221.359375 73.515625 C 1221.359375 73.035156 1221.746094 72.648438 1222.226562 72.648438 C 1222.703125 72.648438 1223.089844 73.035156 1223.089844 73.515625 L 1223.089844 150.226562 C 1223.089844 150.703125 1222.703125 151.089844 1222.226562 151.089844 " fill-opacity="1" fill-rule="nonzero"/><path fill="#00bedf" d="M 1226.453125 151.089844 C 1225.972656 151.089844 1225.585938 150.703125 1225.585938 150.226562 L 1225.585938 73.515625 C 1225.585938 73.035156 1225.972656 72.648438 1226.453125 72.648438 C 1226.929688 72.648438 1227.316406 73.035156 1227.316406 73.515625 L 1227.316406 150.226562 C 1227.316406 150.703125 1226.929688 151.089844 1226.453125 151.089844 " fill-opacity="1" fill-rule="nonzero"/><path fill="#00bedf" d="M 1235.226562 142.316406 L 1158.519531 142.316406 C 1158.035156 142.316406 1157.652344 141.929688 1157.652344 141.449219 C 1157.652344 140.96875 1158.035156 140.582031 1158.519531 140.582031 L 1235.226562 140.582031 C 1235.707031 140.582031 1236.09375 140.96875 1236.09375 141.449219 C 1236.09375 141.929688 1235.707031 142.316406 1235.226562 142.316406 " fill-opacity="1" fill-rule="nonzero"/><path fill="#00bedf" d="M 1235.226562 138.089844 L 1158.519531 138.089844 C 1158.035156 138.089844 1157.652344 137.703125 1157.652344 137.222656 C 1157.652344 136.746094 1158.035156 136.355469 1158.519531 136.355469 L 1235.226562 136.355469 C 1235.707031 136.355469 1236.09375 136.746094 1236.09375 137.222656 C 1236.09375 137.703125 1235.707031 138.089844 1235.226562 138.089844 " fill-opacity="1" fill-rule="nonzero"/><path fill="#00bedf" d="M 1235.226562 133.863281 L 1158.519531 133.863281 C 1158.035156 133.863281 1157.652344 133.476562 1157.652344 133 C 1157.652344 132.519531 1158.035156 132.128906 1158.519531 132.128906 L 1235.226562 132.128906 C 1235.707031 132.128906 1236.09375 132.519531 1236.09375 133 C 1236.09375 133.476562 1235.707031 133.863281 1235.226562 133.863281 " fill-opacity="1" fill-rule="nonzero"/><path fill="#00bedf" d="M 1235.226562 129.636719 L 1158.519531 129.636719 C 1158.035156 129.636719 1157.652344 129.25 1157.652344 128.773438 C 1157.652344 128.292969 1158.035156 127.90625 1158.519531 127.90625 L 1235.226562 127.90625 C 1235.707031 127.90625 1236.09375 128.292969 1236.09375 128.773438 C 1236.09375 129.25 1235.707031 129.636719 1235.226562 129.636719 " fill-opacity="1" fill-rule="nonzero"/><path fill="#00bedf" d="M 1235.226562 125.414062 L 1158.519531 125.414062 C 1158.035156 125.414062 1157.652344 125.023438 1157.652344 124.546875 C 1157.652344 124.070312 1158.035156 123.679688 1158.519531 123.679688 L 1235.226562 123.679688 C 1235.707031 123.679688 1236.09375 124.070312 1236.09375 124.546875 C 1236.09375 125.023438 1235.707031 125.414062 1235.226562 125.414062 " fill-opacity="1" fill-rule="nonzero"/><path fill="#00bedf" d="M 1235.226562 121.1875 L 1158.519531 121.1875 C 1158.035156 121.1875 1157.652344 120.800781 1157.652344 120.324219 C 1157.652344 119.84375 1158.035156 119.457031 1158.519531 119.457031 L 1235.226562 119.457031 C 1235.707031 119.457031 1236.09375 119.84375 1236.09375 120.324219 C 1236.09375 120.800781 1235.707031 121.1875 1235.226562 121.1875 " fill-opacity="1" fill-rule="nonzero"/><path fill="#00bedf" d="M 1235.226562 116.964844 L 1158.519531 116.964844 C 1158.035156 116.964844 1157.652344 116.574219 1157.652344 116.097656 C 1157.652344 115.617188 1158.035156 115.230469 1158.519531 115.230469 L 1235.226562 115.230469 C 1235.707031 115.230469 1236.09375 115.617188 1236.09375 116.097656 C 1236.09375 116.574219 1235.707031 116.964844 1235.226562 116.964844 " fill-opacity="1" fill-rule="nonzero"/><path fill="#00bedf" d="M 1244.105469 112.738281 L 1158.519531 112.738281 C 1158.035156 112.738281 1157.652344 112.347656 1157.652344 111.871094 C 1157.652344 111.390625 1158.035156 111.003906 1158.519531 111.003906 L 1244.105469 111.003906 C 1244.582031 111.003906 1244.972656 111.390625 1244.972656 111.871094 C 1244.972656 112.347656 1244.582031 112.738281 1244.105469 112.738281 " fill-opacity="1" fill-rule="nonzero"/><path fill="#00bedf" d="M 1235.226562 108.511719 L 1158.519531 108.511719 C 1158.035156 108.511719 1157.652344 108.125 1157.652344 107.644531 C 1157.652344 107.167969 1158.035156 106.777344 1158.519531 106.777344 L 1235.226562 106.777344 C 1235.707031 106.777344 1236.09375 107.167969 1236.09375 107.644531 C 1236.09375 108.125 1235.707031 108.511719 1235.226562 108.511719 " fill-opacity="1" fill-rule="nonzero"/><path fill="#00bedf" d="M 1235.226562 104.285156 L 1158.519531 104.285156 C 1158.035156 104.285156 1157.652344 103.898438 1157.652344 103.417969 C 1157.652344 102.941406 1158.035156 102.554688 1158.519531 102.554688 L 1235.226562 102.554688 C 1235.707031 102.554688 1236.09375 102.941406 1236.09375 103.417969 C 1236.09375 103.898438 1235.707031 104.285156 1235.226562 104.285156 " fill-opacity="1" fill-rule="nonzero"/><path fill="#00bedf" d="M 1235.226562 100.0625 L 1158.519531 100.0625 C 1158.035156 100.0625 1157.652344 99.671875 1157.652344 99.195312 C 1157.652344 98.714844 1158.035156 98.328125 1158.519531 98.328125 L 1235.226562 98.328125 C 1235.707031 98.328125 1236.09375 98.714844 1236.09375 99.195312 C 1236.09375 99.671875 1235.707031 100.0625 1235.226562 100.0625 " fill-opacity="1" fill-rule="nonzero"/><path fill="#00bedf" d="M 1235.226562 95.835938 L 1158.519531 95.835938 C 1158.035156 95.835938 1157.652344 95.445312 1157.652344 94.96875 C 1157.652344 94.488281 1158.035156 94.101562 1158.519531 94.101562 L 1235.226562 94.101562 C 1235.707031 94.101562 1236.09375 94.488281 1236.09375 94.96875 C 1236.09375 95.445312 1235.707031 95.835938 1235.226562 95.835938 " fill-opacity="1" fill-rule="nonzero"/><path fill="#00bedf" d="M 1235.226562 91.609375 L 1158.519531 91.609375 C 1158.035156 91.609375 1157.652344 91.222656 1157.652344 90.742188 C 1157.652344 90.261719 1158.035156 89.875 1158.519531 89.875 L 1235.226562 89.875 C 1235.707031 89.875 1236.09375 90.261719 1236.09375 90.742188 C 1236.09375 91.222656 1235.707031 91.609375 1235.226562 91.609375 " fill-opacity="1" fill-rule="nonzero"/><path fill="#00bedf" d="M 1235.226562 87.382812 L 1158.519531 87.382812 C 1158.035156 87.382812 1157.652344 86.996094 1157.652344 86.515625 C 1157.652344 86.039062 1158.035156 85.652344 1158.519531 85.652344 L 1235.226562 85.652344 C 1235.707031 85.652344 1236.09375 86.039062 1236.09375 86.515625 C 1236.09375 86.996094 1235.707031 87.382812 1235.226562 87.382812 " fill-opacity="1" fill-rule="nonzero"/><path fill="#00bedf" d="M 1235.226562 83.15625 L 1158.519531 83.15625 C 1158.035156 83.15625 1157.652344 82.769531 1157.652344 82.289062 C 1157.652344 81.8125 1158.035156 81.425781 1158.519531 81.425781 L 1235.226562 81.425781 C 1235.707031 81.425781 1236.09375 81.8125 1236.09375 82.289062 C 1236.09375 82.769531 1235.707031 83.15625 1235.226562 83.15625 " fill-opacity="1" fill-rule="nonzero"/><path fill="#00caff" d="M 1167.859375 144.792969 C 1165.582031 144.792969 1163.730469 142.941406 1163.730469 140.667969 L 1163.730469 83.074219 C 1163.730469 80.800781 1165.582031 78.953125 1167.859375 78.953125 L 1225.890625 78.953125 C 1228.160156 78.953125 1230.011719 80.800781 1230.011719 83.074219 L 1230.011719 140.667969 C 1230.011719 142.941406 1228.160156 144.792969 1225.890625 144.792969 L 1167.859375 144.792969 " fill-opacity="1" fill-rule="nonzero"/><path fill="#00bedf" d="M 1225.890625 78.085938 L 1167.859375 78.085938 C 1165.105469 78.085938 1162.867188 80.324219 1162.867188 83.074219 L 1162.867188 140.667969 C 1162.867188 143.417969 1165.105469 145.65625 1167.859375 145.65625 L 1225.890625 145.65625 C 1228.640625 145.65625 1230.878906 143.417969 1230.878906 140.667969 L 1230.878906 83.074219 C 1230.878906 80.324219 1228.640625 78.085938 1225.890625 78.085938 Z M 1225.890625 79.816406 C 1227.6875 79.816406 1229.144531 81.277344 1229.144531 83.074219 L 1229.144531 140.667969 C 1229.144531 142.464844 1227.6875 143.925781 1225.890625 143.925781 L 1167.859375 143.925781 C 1166.054688 143.925781 1164.597656 142.464844 1164.597656 140.667969 L 1164.597656 83.074219 C 1164.597656 81.277344 1166.054688 79.816406 1167.859375 79.816406 L 1225.890625 79.816406 " fill-opacity="1" fill-rule="nonzero"/><path fill="#00bedf" d="M 1174.84375 137.070312 C 1173.003906 137.070312 1171.507812 135.570312 1171.507812 133.730469 L 1171.507812 130.898438 C 1170.0625 130.523438 1169.003906 129.21875 1169.003906 127.671875 L 1169.003906 96.066406 C 1169.003906 94.515625 1170.066406 93.207031 1171.507812 92.835938 L 1171.507812 90.011719 C 1171.507812 88.171875 1173.003906 86.671875 1174.84375 86.671875 L 1218.898438 86.671875 C 1220.742188 86.671875 1222.238281 88.171875 1222.238281 90.011719 L 1222.238281 92.839844 C 1223.679688 93.21875 1224.738281 94.523438 1224.738281 96.066406 L 1224.738281 127.671875 C 1224.738281 129.226562 1223.671875 130.535156 1222.238281 130.90625 L 1222.238281 133.730469 C 1222.238281 135.570312 1220.742188 137.070312 1218.898438 137.070312 L 1174.84375 137.070312 " fill-opacity="1" fill-rule="nonzero"/><path fill="#00bedf" d="M 1218.898438 85.804688 L 1174.84375 85.804688 C 1172.527344 85.804688 1170.644531 87.691406 1170.644531 90.011719 L 1170.644531 92.226562 C 1169.164062 92.886719 1168.136719 94.359375 1168.136719 96.066406 L 1168.136719 127.671875 C 1168.136719 129.386719 1169.167969 130.863281 1170.644531 131.515625 L 1170.644531 133.730469 C 1170.644531 136.046875 1172.527344 137.933594 1174.84375 137.933594 L 1218.898438 137.933594 C 1221.21875 137.933594 1223.105469 136.046875 1223.105469 133.730469 L 1223.105469 131.511719 C 1224.582031 130.855469 1225.605469 129.382812 1225.605469 127.671875 L 1225.605469 96.066406 C 1225.605469 94.355469 1224.574219 92.878906 1223.105469 92.222656 L 1223.105469 90.011719 C 1223.105469 87.691406 1221.21875 85.804688 1218.898438 85.804688 Z M 1218.898438 87.539062 C 1220.265625 87.539062 1221.371094 88.644531 1221.371094 90.011719 L 1221.371094 93.59375 L 1221.398438 93.59375 C 1222.765625 93.59375 1223.871094 94.699219 1223.871094 96.066406 L 1223.871094 127.671875 C 1223.871094 129.039062 1222.765625 130.148438 1221.398438 130.148438 L 1221.371094 130.148438 L 1221.371094 133.730469 C 1221.371094 135.09375 1220.265625 136.203125 1218.898438 136.203125 L 1174.84375 136.203125 C 1173.480469 136.203125 1172.375 135.09375 1172.375 133.730469 L 1172.375 130.144531 L 1172.34375 130.144531 C 1170.980469 130.144531 1169.875 129.039062 1169.875 127.671875 L 1169.875 96.066406 C 1169.875 94.699219 1170.980469 93.59375 1172.34375 93.59375 L 1172.375 93.59375 L 1172.375 90.011719 C 1172.375 88.644531 1173.480469 87.539062 1174.84375 87.539062 L 1218.898438 87.539062 " fill-opacity="1" fill-rule="nonzero"/><path fill="#00bedf" d="M 1184.4375 129.34375 C 1184.128906 129.34375 1183.84375 129.179688 1183.6875 128.914062 C 1183.53125 128.648438 1183.527344 128.320312 1183.679688 128.050781 C 1184.449219 126.691406 1184.433594 124.878906 1183.648438 123.535156 C 1183.171875 122.714844 1182.207031 121.738281 1180.324219 121.738281 C 1179.777344 121.738281 1179.269531 121.832031 1178.765625 122.03125 C 1178.664062 122.074219 1178.554688 122.09375 1178.445312 122.09375 C 1178.273438 122.09375 1178.105469 122.042969 1177.957031 121.941406 C 1177.71875 121.78125 1177.578125 121.511719 1177.578125 121.226562 L 1177.578125 102.617188 C 1177.578125 102.335938 1177.714844 102.074219 1177.945312 101.910156 C 1178.09375 101.804688 1178.269531 101.75 1178.445312 101.75 C 1178.542969 101.75 1178.640625 101.769531 1178.734375 101.800781 C 1179.230469 101.976562 1179.683594 102.058594 1180.171875 102.058594 C 1182.066406 102.058594 1183.03125 101.070312 1183.507812 100.238281 C 1184.289062 98.878906 1184.285156 97.058594 1183.496094 95.699219 C 1183.339844 95.433594 1183.339844 95.101562 1183.492188 94.832031 C 1183.648438 94.5625 1183.933594 94.398438 1184.242188 94.398438 L 1208.683594 94.398438 C 1208.992188 94.398438 1209.28125 94.5625 1209.433594 94.832031 C 1209.585938 95.101562 1209.585938 95.433594 1209.429688 95.699219 C 1208.644531 97.054688 1208.636719 98.878906 1209.417969 100.238281 C 1209.898438 101.066406 1210.863281 102.058594 1212.757812 102.058594 C 1213.539062 102.058594 1214.222656 101.875 1214.847656 101.492188 C 1214.988281 101.410156 1215.144531 101.367188 1215.300781 101.367188 C 1215.445312 101.367188 1215.59375 101.40625 1215.722656 101.480469 C 1215.996094 101.632812 1216.164062 101.921875 1216.164062 102.234375 L 1216.164062 120.121094 C 1216.164062 120.40625 1216.027344 120.667969 1215.792969 120.832031 C 1215.648438 120.9375 1215.472656 120.988281 1215.300781 120.988281 C 1215.199219 120.988281 1215.097656 120.972656 1215.003906 120.9375 C 1214.496094 120.75 1214.027344 120.664062 1213.519531 120.664062 C 1211.207031 120.664062 1210.277344 122.136719 1209.933594 123.011719 C 1209.269531 124.683594 1209.667969 126.714844 1210.867188 127.84375 C 1211.128906 128.085938 1211.214844 128.464844 1211.082031 128.792969 C 1210.953125 129.125 1210.632812 129.34375 1210.277344 129.34375 L 1184.4375 129.34375 " fill-opacity="1" fill-rule="nonzero"/><path fill="#00bedf" d="M 1208.683594 93.53125 L 1184.242188 93.53125 C 1183.625 93.53125 1183.050781 93.863281 1182.742188 94.402344 C 1182.433594 94.941406 1182.433594 95.601562 1182.746094 96.136719 C 1183.375 97.214844 1183.378906 98.726562 1182.757812 99.804688 C 1182.230469 100.726562 1181.359375 101.191406 1180.171875 101.191406 C 1179.785156 101.191406 1179.421875 101.125 1179.023438 100.984375 C 1178.835938 100.921875 1178.640625 100.886719 1178.445312 100.886719 C 1178.089844 100.886719 1177.742188 100.996094 1177.445312 101.203125 C 1176.988281 101.527344 1176.714844 102.054688 1176.714844 102.617188 L 1176.714844 121.226562 C 1176.714844 121.796875 1176.996094 122.335938 1177.46875 122.65625 C 1177.765625 122.855469 1178.101562 122.957031 1178.445312 122.957031 C 1178.660156 122.957031 1178.875 122.917969 1179.082031 122.839844 C 1179.484375 122.679688 1179.890625 122.601562 1180.324219 122.601562 C 1181.503906 122.601562 1182.371094 123.0625 1182.902344 123.972656 C 1183.527344 125.039062 1183.539062 126.542969 1182.925781 127.625 C 1182.625 128.164062 1182.628906 128.820312 1182.941406 129.351562 C 1183.25 129.882812 1183.820312 130.207031 1184.4375 130.207031 L 1210.277344 130.207031 C 1210.988281 130.207031 1211.625 129.777344 1211.886719 129.113281 C 1212.148438 128.453125 1211.980469 127.699219 1211.460938 127.210938 C 1210.507812 126.320312 1210.203125 124.6875 1210.742188 123.332031 C 1211.0625 122.511719 1211.808594 121.53125 1213.519531 121.53125 C 1213.921875 121.53125 1214.296875 121.601562 1214.703125 121.75 C 1214.898438 121.820312 1215.097656 121.855469 1215.300781 121.855469 C 1215.648438 121.855469 1215.996094 121.746094 1216.292969 121.542969 C 1216.757812 121.21875 1217.03125 120.6875 1217.03125 120.121094 L 1217.03125 102.234375 C 1217.03125 101.609375 1216.691406 101.03125 1216.144531 100.722656 C 1215.882812 100.574219 1215.59375 100.5 1215.300781 100.5 C 1214.988281 100.5 1214.675781 100.585938 1214.398438 100.753906 C 1213.914062 101.046875 1213.375 101.191406 1212.757812 101.191406 C 1211.570312 101.191406 1210.699219 100.726562 1210.167969 99.804688 C 1209.550781 98.726562 1209.550781 97.214844 1210.183594 96.136719 C 1210.492188 95.601562 1210.496094 94.941406 1210.183594 94.402344 C 1209.875 93.863281 1209.304688 93.53125 1208.683594 93.53125 Z M 1208.683594 95.265625 C 1206.984375 98.183594 1208.339844 102.925781 1212.757812 102.925781 C 1213.773438 102.925781 1214.605469 102.65625 1215.300781 102.234375 L 1215.300781 120.121094 C 1214.769531 119.929688 1214.191406 119.800781 1213.519531 119.800781 C 1208.53125 119.800781 1207.464844 125.835938 1210.277344 128.476562 L 1184.4375 128.476562 C 1186.082031 125.550781 1184.714844 120.871094 1180.324219 120.871094 C 1179.613281 120.871094 1178.996094 121.007812 1178.445312 121.226562 L 1178.445312 102.617188 C 1178.960938 102.800781 1179.523438 102.925781 1180.171875 102.925781 C 1184.589844 102.925781 1185.941406 98.183594 1184.242188 95.265625 L 1208.683594 95.265625 " fill-opacity="1" fill-rule="nonzero"/><path fill="#00bedf" d="M 1211.066406 159.347656 L 1205.324219 159.347656 C 1204.847656 159.347656 1204.460938 158.960938 1204.460938 158.480469 L 1204.460938 146.285156 C 1204.460938 145.808594 1204.847656 145.421875 1205.324219 145.421875 C 1205.800781 145.421875 1206.191406 145.808594 1206.191406 146.285156 L 1206.191406 157.613281 L 1211.066406 157.613281 C 1211.546875 157.613281 1211.933594 158 1211.933594 158.480469 C 1211.933594 158.960938 1211.546875 159.347656 1211.066406 159.347656 " fill-opacity="1" fill-rule="nonzero"/><path fill="#00bedf" d="M 1215.574219 155.355469 C 1215.183594 155.355469 1214.800781 155.429688 1214.4375 155.570312 C 1213.65625 155.875 1213.046875 156.460938 1212.710938 157.226562 C 1212.375 157.988281 1212.359375 158.835938 1212.664062 159.613281 C 1212.921875 160.28125 1213.410156 160.84375 1214.03125 161.199219 C 1214.839844 161.652344 1215.835938 161.730469 1216.707031 161.386719 C 1218.308594 160.761719 1219.105469 158.949219 1218.476562 157.34375 C 1218.007812 156.136719 1216.867188 155.355469 1215.574219 155.355469 Z M 1215.574219 163.335938 C 1214.738281 163.335938 1213.910156 163.121094 1213.179688 162.707031 C 1212.207031 162.15625 1211.453125 161.28125 1211.050781 160.246094 C 1210.578125 159.035156 1210.605469 157.71875 1211.125 156.527344 C 1211.644531 155.34375 1212.597656 154.429688 1213.808594 153.957031 C 1214.375 153.738281 1214.96875 153.625 1215.574219 153.625 C 1217.585938 153.625 1219.363281 154.835938 1220.09375 156.714844 C 1220.566406 157.925781 1220.535156 159.242188 1220.015625 160.429688 C 1219.496094 161.617188 1218.542969 162.53125 1217.335938 163 C 1216.769531 163.222656 1216.175781 163.335938 1215.574219 163.335938 " fill-opacity="1" fill-rule="nonzero"/><path fill="#00bedf" d="M 1202.613281 178.527344 L 1196.871094 178.527344 C 1196.394531 178.527344 1196.007812 178.140625 1196.007812 177.660156 L 1196.007812 145.453125 C 1196.007812 144.972656 1196.394531 144.585938 1196.871094 144.585938 C 1197.351562 144.585938 1197.738281 144.972656 1197.738281 145.453125 L 1197.738281 176.792969 L 1202.613281 176.792969 C 1203.09375 176.792969 1203.480469 177.183594 1203.480469 177.660156 C 1203.480469 178.140625 1203.09375 178.527344 1202.613281 178.527344 " fill-opacity="1" fill-rule="nonzero"/><g clip-path="url(#59baa0d819)"><path fill="#00bedf" d="M 1207.117188 174.539062 C 1206.730469 174.539062 1206.351562 174.609375 1205.984375 174.75 C 1204.378906 175.378906 1203.585938 177.191406 1204.210938 178.796875 C 1204.476562 179.472656 1204.949219 180.019531 1205.582031 180.378906 C 1206.386719 180.835938 1207.382812 180.910156 1208.253906 180.570312 C 1209.855469 179.941406 1210.652344 178.128906 1210.023438 176.523438 C 1209.554688 175.316406 1208.414062 174.539062 1207.117188 174.539062 Z M 1207.121094 182.515625 C 1206.285156 182.515625 1205.457031 182.296875 1204.726562 181.886719 C 1203.757812 181.335938 1203.003906 180.464844 1202.597656 179.425781 C 1201.621094 176.933594 1202.859375 174.113281 1205.355469 173.136719 C 1205.921875 172.917969 1206.515625 172.804688 1207.117188 172.804688 C 1209.132812 172.804688 1210.90625 174.015625 1211.640625 175.894531 C 1212.613281 178.390625 1211.375 181.210938 1208.882812 182.183594 C 1208.320312 182.402344 1207.726562 182.515625 1207.121094 182.515625 " fill-opacity="1" fill-rule="nonzero"/></g><path fill="#00bedf" d="M 1129.691406 126.929688 C 1129.210938 126.929688 1128.824219 126.542969 1128.824219 126.0625 L 1128.824219 120.324219 C 1128.824219 119.84375 1129.210938 119.457031 1129.691406 119.457031 L 1160.765625 119.457031 C 1161.242188 119.457031 1161.632812 119.84375 1161.632812 120.324219 C 1161.632812 120.800781 1161.242188 121.1875 1160.765625 121.1875 L 1130.558594 121.1875 L 1130.558594 126.0625 C 1130.558594 126.542969 1130.171875 126.929688 1129.691406 126.929688 " fill-opacity="1" fill-rule="nonzero"/><g clip-path="url(#6c7c7fd1b8)"><path fill="#00bedf" d="M 1129.691406 127.445312 C 1129.304688 127.445312 1128.921875 127.515625 1128.554688 127.660156 C 1127.878906 127.925781 1127.332031 128.398438 1126.972656 129.03125 C 1126.511719 129.851562 1126.441406 130.828125 1126.78125 131.703125 C 1127.394531 133.269531 1129.238281 134.09375 1130.828125 133.476562 C 1131.601562 133.171875 1132.214844 132.582031 1132.550781 131.820312 C 1132.886719 131.058594 1132.902344 130.210938 1132.601562 129.433594 C 1132.128906 128.226562 1130.988281 127.445312 1129.691406 127.445312 Z M 1129.691406 135.421875 C 1127.675781 135.421875 1125.902344 134.210938 1125.167969 132.332031 C 1124.636719 130.96875 1124.742188 129.457031 1125.464844 128.179688 C 1126.015625 127.207031 1126.886719 126.453125 1127.925781 126.046875 C 1128.496094 125.824219 1129.089844 125.710938 1129.691406 125.710938 C 1131.707031 125.710938 1133.480469 126.925781 1134.214844 128.804688 C 1134.6875 130.011719 1134.660156 131.328125 1134.136719 132.515625 C 1133.617188 133.707031 1132.664062 134.617188 1131.457031 135.089844 C 1130.890625 135.308594 1130.296875 135.421875 1129.691406 135.421875 " fill-opacity="1" fill-rule="nonzero"/></g><path fill="#00bedf" d="M 1181.839844 174.078125 C 1181.363281 174.078125 1180.972656 173.6875 1180.972656 173.210938 L 1180.972656 160.21875 C 1180.972656 159.988281 1181.066406 159.769531 1181.226562 159.605469 C 1181.386719 159.441406 1181.609375 159.351562 1181.839844 159.351562 L 1187.554688 159.375 L 1187.554688 146.601562 C 1187.554688 146.121094 1187.941406 145.734375 1188.421875 145.734375 C 1188.898438 145.734375 1189.285156 146.121094 1189.285156 146.601562 L 1189.285156 160.242188 C 1189.285156 160.472656 1189.195312 160.691406 1189.03125 160.855469 C 1188.867188 161.019531 1188.648438 161.109375 1188.421875 161.109375 L 1188.417969 161.109375 L 1182.707031 161.089844 L 1182.707031 173.210938 C 1182.707031 173.6875 1182.316406 174.078125 1181.839844 174.078125 " fill-opacity="1" fill-rule="nonzero"/><g clip-path="url(#a5ababa49e)"><path fill="#00bedf" d="M 1181.839844 174.539062 C 1181.453125 174.539062 1181.070312 174.609375 1180.703125 174.753906 C 1179.101562 175.378906 1178.304688 177.191406 1178.929688 178.796875 C 1179.191406 179.472656 1179.667969 180.019531 1180.300781 180.382812 C 1181.105469 180.835938 1182.105469 180.910156 1182.976562 180.570312 C 1184.578125 179.945312 1185.375 178.128906 1184.75 176.523438 C 1184.277344 175.316406 1183.136719 174.539062 1181.839844 174.539062 Z M 1181.839844 182.515625 C 1181.007812 182.515625 1180.183594 182.300781 1179.449219 181.886719 C 1178.472656 181.332031 1177.71875 180.457031 1177.316406 179.425781 C 1176.347656 176.933594 1177.582031 174.109375 1180.074219 173.136719 C 1180.640625 172.917969 1181.234375 172.804688 1181.839844 172.804688 C 1183.855469 172.804688 1185.628906 174.015625 1186.363281 175.894531 C 1187.335938 178.390625 1186.097656 181.210938 1183.605469 182.183594 C 1183.039062 182.402344 1182.445312 182.515625 1181.839844 182.515625 " fill-opacity="1" fill-rule="nonzero"/></g><path fill="#00bedf" d="M 1160.765625 100.121094 L 1141.898438 100.121094 C 1141.417969 100.121094 1141.03125 99.730469 1141.03125 99.253906 C 1141.03125 98.773438 1141.417969 98.386719 1141.898438 98.386719 L 1160.765625 98.386719 C 1161.242188 98.386719 1161.632812 98.773438 1161.632812 99.253906 C 1161.632812 99.730469 1161.242188 100.121094 1160.765625 100.121094 " fill-opacity="1" fill-rule="nonzero"/><path fill="#00bedf" d="M 1137.90625 96.128906 C 1137.519531 96.128906 1137.136719 96.203125 1136.773438 96.347656 C 1136.09375 96.609375 1135.550781 97.082031 1135.1875 97.714844 C 1134.726562 98.539062 1134.65625 99.515625 1134.996094 100.386719 C 1135.609375 101.957031 1137.453125 102.777344 1139.042969 102.160156 C 1139.820312 101.859375 1140.429688 101.269531 1140.765625 100.507812 C 1141.101562 99.746094 1141.121094 98.894531 1140.816406 98.117188 C 1140.34375 96.910156 1139.203125 96.128906 1137.90625 96.128906 Z M 1137.90625 104.109375 C 1135.890625 104.109375 1134.117188 102.894531 1133.382812 101.015625 C 1132.851562 99.660156 1132.960938 98.144531 1133.679688 96.863281 C 1134.234375 95.890625 1135.105469 95.136719 1136.144531 94.730469 C 1136.710938 94.511719 1137.304688 94.398438 1137.90625 94.398438 C 1139.921875 94.398438 1141.695312 95.609375 1142.429688 97.488281 C 1142.902344 98.695312 1142.875 100.015625 1142.355469 101.203125 C 1141.832031 102.390625 1140.878906 103.304688 1139.671875 103.773438 C 1139.101562 103.996094 1138.511719 104.109375 1137.90625 104.109375 " fill-opacity="1" fill-rule="nonzero"/><path fill="#00bedf" d="M 1160.765625 112.734375 L 1149.839844 112.734375 C 1149.363281 112.734375 1148.976562 112.347656 1148.976562 111.867188 C 1148.976562 111.390625 1149.363281 111.003906 1149.839844 111.003906 L 1160.765625 111.003906 C 1161.242188 111.003906 1161.632812 111.390625 1161.632812 111.867188 C 1161.632812 112.347656 1161.242188 112.734375 1160.765625 112.734375 " fill-opacity="1" fill-rule="nonzero"/><path fill="#00bedf" d="M 1146.253906 109.542969 C 1145.964844 109.542969 1145.679688 109.597656 1145.40625 109.703125 C 1144.898438 109.898438 1144.492188 110.253906 1144.226562 110.722656 C 1143.882812 111.335938 1143.828125 112.0625 1144.082031 112.714844 C 1144.539062 113.886719 1145.914062 114.5 1147.097656 114.039062 C 1147.675781 113.8125 1148.132812 113.375 1148.382812 112.804688 C 1148.632812 112.234375 1148.644531 111.601562 1148.417969 111.023438 C 1148.066406 110.121094 1147.21875 109.542969 1146.253906 109.542969 Z M 1146.253906 115.929688 C 1144.566406 115.929688 1143.082031 114.917969 1142.46875 113.34375 C 1142.027344 112.210938 1142.113281 110.945312 1142.714844 109.871094 C 1143.179688 109.058594 1143.910156 108.425781 1144.777344 108.089844 C 1146.824219 107.285156 1149.238281 108.351562 1150.03125 110.394531 C 1150.425781 111.402344 1150.40625 112.507812 1149.96875 113.5 C 1149.535156 114.492188 1148.738281 115.257812 1147.726562 115.652344 C 1147.253906 115.835938 1146.757812 115.929688 1146.253906 115.929688 " fill-opacity="1" fill-rule="nonzero"/><path fill="#00bedf" d="M 1263.640625 104.273438 L 1232.5625 104.273438 C 1232.089844 104.273438 1231.699219 103.886719 1231.699219 103.40625 C 1231.699219 102.929688 1232.089844 102.539062 1232.5625 102.539062 L 1262.773438 102.539062 L 1262.773438 97.664062 C 1262.773438 97.1875 1263.160156 96.800781 1263.640625 96.800781 C 1264.117188 96.800781 1264.507812 97.1875 1264.507812 97.664062 L 1264.507812 103.40625 C 1264.507812 103.886719 1264.117188 104.273438 1263.640625 104.273438 " fill-opacity="1" fill-rule="nonzero"/><g clip-path="url(#378235e1a1)"><path fill="#00bedf" d="M 1263.640625 90.039062 C 1263.253906 90.039062 1262.871094 90.109375 1262.503906 90.253906 C 1261.726562 90.554688 1261.117188 91.140625 1260.777344 91.90625 C 1260.441406 92.671875 1260.425781 93.519531 1260.730469 94.292969 C 1261.34375 95.863281 1263.191406 96.683594 1264.773438 96.066406 C 1265.449219 95.804688 1266 95.328125 1266.359375 94.699219 C 1266.820312 93.875 1266.890625 92.902344 1266.546875 92.027344 C 1266.078125 90.820312 1264.933594 90.039062 1263.640625 90.039062 Z M 1263.640625 98.015625 C 1261.625 98.015625 1259.851562 96.800781 1259.117188 94.925781 C 1258.644531 93.714844 1258.671875 92.398438 1259.191406 91.210938 C 1259.714844 90.023438 1260.664062 89.109375 1261.875 88.640625 C 1262.441406 88.417969 1263.035156 88.304688 1263.640625 88.304688 C 1265.652344 88.304688 1267.429688 89.519531 1268.160156 91.398438 C 1268.695312 92.757812 1268.585938 94.273438 1267.863281 95.550781 C 1267.316406 96.519531 1266.441406 97.277344 1265.40625 97.679688 C 1264.835938 97.902344 1264.242188 98.015625 1263.640625 98.015625 " fill-opacity="1" fill-rule="nonzero"/></g><path fill="#00bedf" d="M 1251.550781 125.414062 L 1232.679688 125.414062 C 1232.203125 125.414062 1231.8125 125.023438 1231.8125 124.546875 C 1231.8125 124.070312 1232.203125 123.679688 1232.679688 123.679688 L 1251.550781 123.679688 C 1252.027344 123.679688 1252.417969 124.070312 1252.417969 124.546875 C 1252.417969 125.023438 1252.027344 125.414062 1251.550781 125.414062 " fill-opacity="1" fill-rule="nonzero"/><path fill="#00bedf" d="M 1255.539062 121.425781 C 1255.148438 121.425781 1254.769531 121.496094 1254.402344 121.636719 C 1253.628906 121.941406 1253.015625 122.53125 1252.679688 123.292969 C 1252.34375 124.058594 1252.328125 124.90625 1252.628906 125.683594 C 1253.242188 127.25 1255.085938 128.074219 1256.671875 127.453125 C 1257.347656 127.191406 1257.894531 126.71875 1258.257812 126.085938 C 1258.71875 125.261719 1258.789062 124.289062 1258.445312 123.414062 C 1257.976562 122.203125 1256.835938 121.425781 1255.539062 121.425781 Z M 1255.535156 129.402344 C 1253.523438 129.402344 1251.746094 128.1875 1251.015625 126.3125 C 1250.542969 125.105469 1250.570312 123.785156 1251.089844 122.597656 C 1251.613281 121.410156 1252.566406 120.496094 1253.773438 120.023438 C 1254.339844 119.804688 1254.933594 119.691406 1255.539062 119.691406 C 1257.554688 119.691406 1259.328125 120.90625 1260.0625 122.78125 C 1260.59375 124.144531 1260.484375 125.65625 1259.765625 126.9375 C 1259.210938 127.910156 1258.335938 128.667969 1257.300781 129.070312 C 1256.734375 129.289062 1256.140625 129.402344 1255.535156 129.402344 " fill-opacity="1" fill-rule="nonzero"/><path fill="#00bedf" d="M 1247.515625 109.542969 C 1247.226562 109.542969 1246.945312 109.597656 1246.671875 109.703125 C 1246.09375 109.929688 1245.632812 110.367188 1245.386719 110.9375 C 1245.136719 111.503906 1245.121094 112.136719 1245.351562 112.71875 C 1245.804688 113.890625 1247.183594 114.503906 1248.363281 114.039062 C 1248.867188 113.84375 1249.273438 113.488281 1249.542969 113.015625 C 1249.886719 112.40625 1249.941406 111.679688 1249.683594 111.027344 C 1249.332031 110.125 1248.480469 109.542969 1247.515625 109.542969 Z M 1247.515625 115.933594 C 1245.832031 115.933594 1244.347656 114.917969 1243.734375 113.347656 C 1243.34375 112.339844 1243.363281 111.234375 1243.796875 110.238281 C 1244.234375 109.246094 1245.03125 108.484375 1246.042969 108.089844 C 1248.09375 107.285156 1250.503906 108.355469 1251.296875 110.394531 C 1251.742188 111.535156 1251.652344 112.796875 1251.050781 113.871094 C 1250.589844 114.683594 1249.859375 115.316406 1248.992188 115.652344 C 1248.519531 115.835938 1248.023438 115.933594 1247.515625 115.933594 " fill-opacity="1" fill-rule="nonzero"/></svg>