<svg xmlns="http://www.w3.org/2000/svg" xmlns:xlink="http://www.w3.org/1999/xlink" width="1920" zoomAndPan="magnify" viewBox="0 0 1440 384.749986" height="513" preserveAspectRatio="xMidYMid meet" version="1.0"><defs><g/><clipPath id="7376bac640"><path d="M 0.46875 0 L 1439.53125 0 L 1439.53125 384.5 L 0.46875 384.5 Z M 0.46875 0 " clip-rule="nonzero"/></clipPath><clipPath id="3c9389e12c"><path d="M 0.46875 0.00390625 L 1439.53125 0.00390625 L 1439.53125 384.5 L 0.46875 384.5 Z M 0.46875 0.00390625 " clip-rule="nonzero"/></clipPath><clipPath id="c451c16ef3"><path d="M 14.707031 0.00390625 L 1425.292969 0.00390625 C 1429.070312 0.00390625 1432.691406 1.503906 1435.363281 4.175781 C 1438.03125 6.84375 1439.53125 10.46875 1439.53125 14.242188 L 1439.53125 370.257812 C 1439.53125 374.035156 1438.03125 377.660156 1435.363281 380.328125 C 1432.691406 383 1429.070312 384.5 1425.292969 384.5 L 14.707031 384.5 C 10.929688 384.5 7.308594 383 4.636719 380.328125 C 1.96875 377.660156 0.46875 374.035156 0.46875 370.257812 L 0.46875 14.242188 C 0.46875 10.46875 1.96875 6.84375 4.636719 4.175781 C 7.308594 1.503906 10.929688 0.00390625 14.707031 0.00390625 Z M 14.707031 0.00390625 " clip-rule="nonzero"/></clipPath><clipPath id="5b7a5edd25"><path d="M 0.46875 0.00390625 L 1439.53125 0.00390625 L 1439.53125 384.5 L 0.46875 384.5 Z M 0.46875 0.00390625 " clip-rule="nonzero"/></clipPath><clipPath id="2797e79b66"><path d="M 14.707031 0.00390625 L 1425.292969 0.00390625 C 1429.070312 0.00390625 1432.691406 1.503906 1435.363281 4.175781 C 1438.03125 6.84375 1439.53125 10.46875 1439.53125 14.242188 L 1439.53125 370.257812 C 1439.53125 374.035156 1438.03125 377.660156 1435.363281 380.328125 C 1432.691406 383 1429.070312 384.5 1425.292969 384.5 L 14.707031 384.5 C 10.929688 384.5 7.308594 383 4.636719 380.328125 C 1.96875 377.660156 0.46875 374.035156 0.46875 370.257812 L 0.46875 14.242188 C 0.46875 10.46875 1.96875 6.84375 4.636719 4.175781 C 7.308594 1.503906 10.929688 0.00390625 14.707031 0.00390625 Z M 14.707031 0.00390625 " clip-rule="nonzero"/></clipPath><clipPath id="fb65470864"><rect x="0" width="1440" y="0" height="385"/></clipPath><clipPath id="c2b1d71255"><path d="M 0.46875 0 L 1439.53125 0 L 1439.53125 384.5 L 0.46875 384.5 Z M 0.46875 0 " clip-rule="nonzero"/></clipPath><clipPath id="242379978b"><path d="M 14.707031 0 L 1425.292969 0 C 1429.070312 0 1432.691406 1.503906 1435.363281 4.171875 C 1438.03125 6.84375 1439.53125 10.464844 1439.53125 14.242188 L 1439.53125 370.257812 C 1439.53125 374.035156 1438.03125 377.65625 1435.363281 380.328125 C 1432.691406 383 1429.070312 384.5 1425.292969 384.5 L 14.707031 384.5 C 10.929688 384.5 7.308594 383 4.636719 380.328125 C 1.96875 377.65625 0.46875 374.035156 0.46875 370.257812 L 0.46875 14.242188 C 0.46875 10.464844 1.96875 6.84375 4.636719 4.171875 C 7.308594 1.503906 10.929688 0 14.707031 0 Z M 14.707031 0 " clip-rule="nonzero"/></clipPath><clipPath id="623139b387"><path d="M 0.46875 275.058594 L 1439.527344 275.058594 L 1439.527344 384.496094 L 0.46875 384.496094 Z M 0.46875 275.058594 " clip-rule="nonzero"/></clipPath><clipPath id="a249e76760"><path d="M 0.46875 0.0585938 L 1439.527344 0.0585938 L 1439.527344 109.496094 L 0.46875 109.496094 Z M 0.46875 0.0585938 " clip-rule="nonzero"/></clipPath><clipPath id="1a15f17e11"><rect x="0" width="1440" y="0" height="110"/></clipPath><clipPath id="fd7fed530b"><path d="M 0.523438 275.066406 L 1439.464844 275.066406 L 1439.464844 384.496094 L 0.523438 384.496094 Z M 0.523438 275.066406 " clip-rule="nonzero"/></clipPath><clipPath id="abe756a61a"><path d="M 1187 164 L 1217 164 L 1217 183 L 1187 183 Z M 1187 164 " clip-rule="nonzero"/></clipPath><clipPath id="9a50879e69"><path d="M 1156.546875 210.421875 L 1171.074219 39.398438 L 1352.550781 54.8125 L 1338.023438 225.835938 Z M 1156.546875 210.421875 " clip-rule="nonzero"/></clipPath><clipPath id="eca3b5506f"><path d="M 1156.546875 210.421875 L 1171.074219 39.398438 L 1352.550781 54.8125 L 1338.023438 225.835938 Z M 1156.546875 210.421875 " clip-rule="nonzero"/></clipPath><clipPath id="896df900eb"><path d="M 1197 142 L 1226 142 L 1226 156 L 1197 156 Z M 1197 142 " clip-rule="nonzero"/></clipPath><clipPath id="1a5d20b2a8"><path d="M 1156.546875 210.421875 L 1171.074219 39.398438 L 1352.550781 54.8125 L 1338.023438 225.835938 Z M 1156.546875 210.421875 " clip-rule="nonzero"/></clipPath><clipPath id="4ea7e139a8"><path d="M 1156.546875 210.421875 L 1171.074219 39.398438 L 1352.550781 54.8125 L 1338.023438 225.835938 Z M 1156.546875 210.421875 " clip-rule="nonzero"/></clipPath><clipPath id="5540724a9c"><path d="M 1186 146 L 1228 146 L 1228 179 L 1186 179 Z M 1186 146 " clip-rule="nonzero"/></clipPath><clipPath id="4c5d364ffd"><path d="M 1156.546875 210.421875 L 1171.074219 39.398438 L 1352.550781 54.8125 L 1338.023438 225.835938 Z M 1156.546875 210.421875 " clip-rule="nonzero"/></clipPath><clipPath id="86a6549441"><path d="M 1156.546875 210.421875 L 1171.074219 39.398438 L 1352.550781 54.8125 L 1338.023438 225.835938 Z M 1156.546875 210.421875 " clip-rule="nonzero"/></clipPath><clipPath id="3f9a269546"><path d="M 1173 45 L 1336 45 L 1336 223 L 1173 223 Z M 1173 45 " clip-rule="nonzero"/></clipPath><clipPath id="18d39717f4"><path d="M 1156.546875 210.421875 L 1171.074219 39.398438 L 1352.550781 54.8125 L 1338.023438 225.835938 Z M 1156.546875 210.421875 " clip-rule="nonzero"/></clipPath><clipPath id="069a48970c"><path d="M 1156.546875 210.421875 L 1171.074219 39.398438 L 1352.550781 54.8125 L 1338.023438 225.835938 Z M 1156.546875 210.421875 " clip-rule="nonzero"/></clipPath><clipPath id="02df57a123"><path d="M 1180 50 L 1224 50 L 1224 81 L 1180 81 Z M 1180 50 " clip-rule="nonzero"/></clipPath><clipPath id="58fbb1e912"><path d="M 1156.546875 210.421875 L 1171.074219 39.398438 L 1352.550781 54.8125 L 1338.023438 225.835938 Z M 1156.546875 210.421875 " clip-rule="nonzero"/></clipPath><clipPath id="c59b868aa9"><path d="M 1156.546875 210.421875 L 1171.074219 39.398438 L 1352.550781 54.8125 L 1338.023438 225.835938 Z M 1156.546875 210.421875 " clip-rule="nonzero"/></clipPath><clipPath id="a4d13add2d"><path d="M 1224 79 L 1234 79 L 1234 94 L 1224 94 Z M 1224 79 " clip-rule="nonzero"/></clipPath><clipPath id="44e6016f6b"><path d="M 1156.546875 210.421875 L 1171.074219 39.398438 L 1352.550781 54.8125 L 1338.023438 225.835938 Z M 1156.546875 210.421875 " clip-rule="nonzero"/></clipPath><clipPath id="8fc07dad5b"><path d="M 1156.546875 210.421875 L 1171.074219 39.398438 L 1352.550781 54.8125 L 1338.023438 225.835938 Z M 1156.546875 210.421875 " clip-rule="nonzero"/></clipPath><clipPath id="68e60ba7f6"><path d="M 1172 44 L 1337 44 L 1337 224 L 1172 224 Z M 1172 44 " clip-rule="nonzero"/></clipPath><clipPath id="f4393ea39b"><path d="M 1156.546875 210.421875 L 1171.074219 39.398438 L 1352.550781 54.8125 L 1338.023438 225.835938 Z M 1156.546875 210.421875 " clip-rule="nonzero"/></clipPath><clipPath id="9ef68f16e9"><path d="M 1156.546875 210.421875 L 1171.074219 39.398438 L 1352.550781 54.8125 L 1338.023438 225.835938 Z M 1156.546875 210.421875 " clip-rule="nonzero"/></clipPath><clipPath id="753e8abf84"><path d="M 1313 199 L 1322 199 L 1322 209 L 1313 209 Z M 1313 199 " clip-rule="nonzero"/></clipPath><clipPath id="45035cf150"><path d="M 1156.546875 210.421875 L 1171.074219 39.398438 L 1352.550781 54.8125 L 1338.023438 225.835938 Z M 1156.546875 210.421875 " clip-rule="nonzero"/></clipPath><clipPath id="1984160a19"><path d="M 1156.546875 210.421875 L 1171.074219 39.398438 L 1352.550781 54.8125 L 1338.023438 225.835938 Z M 1156.546875 210.421875 " clip-rule="nonzero"/></clipPath><clipPath id="c41af1fd31"><path d="M 1185 140 L 1229 140 L 1229 184 L 1185 184 Z M 1185 140 " clip-rule="nonzero"/></clipPath><clipPath id="4ff1f52611"><path d="M 1156.546875 210.421875 L 1171.074219 39.398438 L 1352.550781 54.8125 L 1338.023438 225.835938 Z M 1156.546875 210.421875 " clip-rule="nonzero"/></clipPath><clipPath id="72db345bfc"><path d="M 1156.546875 210.421875 L 1171.074219 39.398438 L 1352.550781 54.8125 L 1338.023438 225.835938 Z M 1156.546875 210.421875 " clip-rule="nonzero"/></clipPath><clipPath id="40b0ede45e"><path d="M 47 1 L 318 1 L 318 89 L 47 89 Z M 47 1 " clip-rule="nonzero"/></clipPath><clipPath id="3fed076cca"><path d="M 111.03125 -124.03125 L 324.074219 0.140625 L 251.984375 123.824219 L 38.941406 -0.347656 Z M 111.03125 -124.03125 " clip-rule="nonzero"/></clipPath><clipPath id="dc78e71bde"><path d="M 111.03125 -124.03125 L 324.074219 0.140625 L 251.984375 123.824219 L 38.941406 -0.347656 Z M 111.03125 -124.03125 " clip-rule="nonzero"/></clipPath><clipPath id="8df6887295"><path d="M 39 0 L 325 0 L 325 92 L 39 92 Z M 39 0 " clip-rule="nonzero"/></clipPath><clipPath id="57e91f3e5a"><path d="M 111.03125 -124.03125 L 324.074219 0.140625 L 251.984375 123.824219 L 38.941406 -0.347656 Z M 111.03125 -124.03125 " clip-rule="nonzero"/></clipPath><clipPath id="a59bd402a2"><path d="M 111.03125 -124.03125 L 324.074219 0.140625 L 251.984375 123.824219 L 38.941406 -0.347656 Z M 111.03125 -124.03125 " clip-rule="nonzero"/></clipPath><clipPath id="87819c0645"><path d="M 1154 208 L 1354 208 L 1354 273 L 1154 273 Z M 1154 208 " clip-rule="nonzero"/></clipPath><clipPath id="6c23003d13"><path d="M 1307.046875 365.714844 L 1149.273438 274.714844 L 1202.074219 183.171875 L 1359.847656 274.167969 Z M 1307.046875 365.714844 " clip-rule="nonzero"/></clipPath><clipPath id="76d97409ba"><path d="M 1307.046875 365.714844 L 1149.273438 274.714844 L 1202.074219 183.171875 L 1359.847656 274.167969 Z M 1307.046875 365.714844 " clip-rule="nonzero"/></clipPath><clipPath id="9c5332c49c"><path d="M 1149 206 L 1360 206 L 1360 275 L 1149 275 Z M 1149 206 " clip-rule="nonzero"/></clipPath><clipPath id="3bee9bf120"><path d="M 1307.046875 365.714844 L 1149.273438 274.714844 L 1202.074219 183.171875 L 1359.847656 274.167969 Z M 1307.046875 365.714844 " clip-rule="nonzero"/></clipPath><clipPath id="2bd3d65e3b"><path d="M 1307.046875 365.714844 L 1149.273438 274.714844 L 1202.074219 183.171875 L 1359.847656 274.167969 Z M 1307.046875 365.714844 " clip-rule="nonzero"/></clipPath><clipPath id="382491192b"><path d="M 318 204 L 539 204 L 539 276 L 318 276 Z M 318 204 " clip-rule="nonzero"/></clipPath><clipPath id="d0be60e6fc"><path d="M 486.953125 377.867188 L 312.285156 277.167969 L 370.679688 175.875 L 545.351562 276.574219 Z M 486.953125 377.867188 " clip-rule="nonzero"/></clipPath><clipPath id="cbf1dc5472"><path d="M 486.953125 377.867188 L 312.285156 277.167969 L 370.679688 175.875 L 545.351562 276.574219 Z M 486.953125 377.867188 " clip-rule="nonzero"/></clipPath><clipPath id="5411f2b6bc"><path d="M 312 202 L 546 202 L 546 278 L 312 278 Z M 312 202 " clip-rule="nonzero"/></clipPath><clipPath id="5ec2911653"><path d="M 486.953125 377.867188 L 312.285156 277.167969 L 370.679688 175.875 L 545.351562 276.574219 Z M 486.953125 377.867188 " clip-rule="nonzero"/></clipPath><clipPath id="fea42e6f5c"><path d="M 486.953125 377.867188 L 312.285156 277.167969 L 370.679688 175.875 L 545.351562 276.574219 Z M 486.953125 377.867188 " clip-rule="nonzero"/></clipPath><clipPath id="26a2570ba0"><path d="M 145 95 L 337 95 L 337 233 L 145 233 Z M 145 95 " clip-rule="nonzero"/></clipPath><clipPath id="ab84c913b4"><path d="M 231.640625 48.003906 L 365.347656 150.773438 L 270.339844 274.378906 L 136.632812 171.609375 Z M 231.640625 48.003906 " clip-rule="nonzero"/></clipPath><clipPath id="95f6519b96"><path d="M 231.640625 48.003906 L 365.347656 150.773438 L 270.339844 274.378906 L 136.632812 171.609375 Z M 231.640625 48.003906 " clip-rule="nonzero"/></clipPath><clipPath id="d5bbf7b1c0"><path d="M 209 152 L 254 152 L 254 193 L 209 193 Z M 209 152 " clip-rule="nonzero"/></clipPath><clipPath id="09749461d2"><path d="M 231.640625 48.003906 L 365.347656 150.773438 L 270.339844 274.378906 L 136.632812 171.609375 Z M 231.640625 48.003906 " clip-rule="nonzero"/></clipPath><clipPath id="1c7046c5ca"><path d="M 231.640625 48.003906 L 365.347656 150.773438 L 270.339844 274.378906 L 136.632812 171.609375 Z M 231.640625 48.003906 " clip-rule="nonzero"/></clipPath><clipPath id="6b5eb36c03"><path d="M 239 176 L 286 176 L 286 220 L 239 220 Z M 239 176 " clip-rule="nonzero"/></clipPath><clipPath id="0e6e2878af"><path d="M 231.640625 48.003906 L 365.347656 150.773438 L 270.339844 274.378906 L 136.632812 171.609375 Z M 231.640625 48.003906 " clip-rule="nonzero"/></clipPath><clipPath id="3e5f0cbb59"><path d="M 231.640625 48.003906 L 365.347656 150.773438 L 270.339844 274.378906 L 136.632812 171.609375 Z M 231.640625 48.003906 " clip-rule="nonzero"/></clipPath><clipPath id="58be8d2bb0"><path d="M 269 112 L 316 112 L 316 159 L 269 159 Z M 269 112 " clip-rule="nonzero"/></clipPath><clipPath id="5f3a6f5bf7"><path d="M 231.640625 48.003906 L 365.347656 150.773438 L 270.339844 274.378906 L 136.632812 171.609375 Z M 231.640625 48.003906 " clip-rule="nonzero"/></clipPath><clipPath id="96e21c14f8"><path d="M 231.640625 48.003906 L 365.347656 150.773438 L 270.339844 274.378906 L 136.632812 171.609375 Z M 231.640625 48.003906 " clip-rule="nonzero"/></clipPath><clipPath id="fed0e0d951"><path d="M 275 155 L 324 155 L 324 201 L 275 201 Z M 275 155 " clip-rule="nonzero"/></clipPath><clipPath id="79301d47f0"><path d="M 231.640625 48.003906 L 365.347656 150.773438 L 270.339844 274.378906 L 136.632812 171.609375 Z M 231.640625 48.003906 " clip-rule="nonzero"/></clipPath><clipPath id="6addb6c524"><path d="M 231.640625 48.003906 L 365.347656 150.773438 L 270.339844 274.378906 L 136.632812 171.609375 Z M 231.640625 48.003906 " clip-rule="nonzero"/></clipPath><clipPath id="2647cde760"><path d="M 223 109 L 270 109 L 270 157 L 223 157 Z M 223 109 " clip-rule="nonzero"/></clipPath><clipPath id="cb970b2e1a"><path d="M 231.640625 48.003906 L 365.347656 150.773438 L 270.339844 274.378906 L 136.632812 171.609375 Z M 231.640625 48.003906 " clip-rule="nonzero"/></clipPath><clipPath id="813b86c3fb"><path d="M 231.640625 48.003906 L 365.347656 150.773438 L 270.339844 274.378906 L 136.632812 171.609375 Z M 231.640625 48.003906 " clip-rule="nonzero"/></clipPath><clipPath id="031f89b49b"><path d="M 303 165 L 324 165 L 324 201 L 303 201 Z M 303 165 " clip-rule="nonzero"/></clipPath><clipPath id="736d2afe0f"><path d="M 231.640625 48.003906 L 365.347656 150.773438 L 270.339844 274.378906 L 136.632812 171.609375 Z M 231.640625 48.003906 " clip-rule="nonzero"/></clipPath><clipPath id="aa1c01d36c"><path d="M 231.640625 48.003906 L 365.347656 150.773438 L 270.339844 274.378906 L 136.632812 171.609375 Z M 231.640625 48.003906 " clip-rule="nonzero"/></clipPath><clipPath id="78a3eb6cbd"><path d="M 239 199 L 285 199 L 285 220 L 239 220 Z M 239 199 " clip-rule="nonzero"/></clipPath><clipPath id="dd8d55eea4"><path d="M 231.640625 48.003906 L 365.347656 150.773438 L 270.339844 274.378906 L 136.632812 171.609375 Z M 231.640625 48.003906 " clip-rule="nonzero"/></clipPath><clipPath id="7fb16dba2e"><path d="M 231.640625 48.003906 L 365.347656 150.773438 L 270.339844 274.378906 L 136.632812 171.609375 Z M 231.640625 48.003906 " clip-rule="nonzero"/></clipPath><clipPath id="218b814f1c"><path d="M 209 157 L 229 157 L 229 193 L 209 193 Z M 209 157 " clip-rule="nonzero"/></clipPath><clipPath id="eb8e3f3520"><path d="M 231.640625 48.003906 L 365.347656 150.773438 L 270.339844 274.378906 L 136.632812 171.609375 Z M 231.640625 48.003906 " clip-rule="nonzero"/></clipPath><clipPath id="9b19cdd7be"><path d="M 231.640625 48.003906 L 365.347656 150.773438 L 270.339844 274.378906 L 136.632812 171.609375 Z M 231.640625 48.003906 " clip-rule="nonzero"/></clipPath><clipPath id="1b2169972f"><path d="M 152 101 L 331 101 L 331 226 L 152 226 Z M 152 101 " clip-rule="nonzero"/></clipPath><clipPath id="475c4e86eb"><path d="M 231.640625 48.003906 L 365.347656 150.773438 L 270.339844 274.378906 L 136.632812 171.609375 Z M 231.640625 48.003906 " clip-rule="nonzero"/></clipPath><clipPath id="e2cdfad5cd"><path d="M 231.640625 48.003906 L 365.347656 150.773438 L 270.339844 274.378906 L 136.632812 171.609375 Z M 231.640625 48.003906 " clip-rule="nonzero"/></clipPath><clipPath id="ff99b0df5a"><path d="M 163 174 L 203 174 L 203 185 L 163 185 Z M 163 174 " clip-rule="nonzero"/></clipPath><clipPath id="9a8704a2e8"><path d="M 231.640625 48.003906 L 365.347656 150.773438 L 270.339844 274.378906 L 136.632812 171.609375 Z M 231.640625 48.003906 " clip-rule="nonzero"/></clipPath><clipPath id="407e1bc662"><path d="M 231.640625 48.003906 L 365.347656 150.773438 L 270.339844 274.378906 L 136.632812 171.609375 Z M 231.640625 48.003906 " clip-rule="nonzero"/></clipPath></defs><g clip-path="url(#7376bac640)"><path fill="#ffffff" d="M 0.46875 0 L 1439.53125 0 L 1439.53125 384.5 L 0.46875 384.5 Z M 0.46875 0 " fill-opacity="1" fill-rule="nonzero"/><path fill="#ffffff" d="M 0.46875 0 L 1439.53125 0 L 1439.53125 384.5 L 0.46875 384.5 Z M 0.46875 0 " fill-opacity="1" fill-rule="nonzero"/></g><g clip-path="url(#3c9389e12c)"><g clip-path="url(#c451c16ef3)"><g><g clip-path="url(#fb65470864)"><g clip-path="url(#5b7a5edd25)"><g clip-path="url(#2797e79b66)"><path fill="#028c4c" d="M 0.46875 384.5 L 0.46875 0.00390625 L 1439.328125 0.00390625 L 1439.328125 384.5 Z M 0.46875 384.5 " fill-opacity="1" fill-rule="nonzero"/></g></g></g></g></g></g><g clip-path="url(#c2b1d71255)"><g clip-path="url(#242379978b)"><path stroke-linecap="butt" transform="matrix(0, -0.749513, 0.749513, 0, 0.467559, 384.498463)" fill="none" stroke-linejoin="miter" d="M 512.99774 18.998299 L 512.99774 1901.001658 C 512.99774 1906.041389 510.991229 1910.872651 507.431626 1914.437466 C 503.866811 1917.997069 499.035548 1919.998369 493.995817 1919.998369 L 18.999871 1919.998369 C 13.96014 1919.998369 9.128878 1917.997069 5.564063 1914.437466 C 1.999248 1910.872651 -0.00205118 1906.041389 -0.00205118 1901.001658 L -0.00205118 18.998299 C -0.00205118 13.958568 1.999248 9.127306 5.564063 5.562491 C 9.128878 2.002888 13.96014 0.0015885 18.999871 0.0015885 L 493.995817 0.0015885 C 499.035548 0.0015885 503.866811 2.002888 507.431626 5.562491 C 510.991229 9.127306 512.99774 13.958568 512.99774 18.998299 Z M 512.99774 18.998299 " stroke="#000000" stroke-width="10" stroke-opacity="1" stroke-miterlimit="4"/></g></g><g clip-path="url(#623139b387)"><g transform="matrix(1, 0, 0, 1, 0, 275)"><g clip-path="url(#1a15f17e11)"><g clip-path="url(#a249e76760)"><path fill="#f7f7f7" d="M 0.460938 109.496094 L 0.460938 0.0585938 L 1439.40625 0.0585938 L 1439.40625 109.496094 Z M 0.460938 109.496094 " fill-opacity="1" fill-rule="nonzero"/></g></g></g></g><g clip-path="url(#fd7fed530b)"><path stroke-linecap="butt" transform="matrix(0, -0.749513, 0.749513, 0, 0.524003, 384.494949)" fill="none" stroke-linejoin="miter" d="M -0.00152747 -0.000754999 L 145.99954 -0.000754999 L 145.99954 1919.834585 L -0.00152747 1919.834585 Z M -0.00152747 -0.000754999 " stroke="#000000" stroke-width="10" stroke-opacity="1" stroke-miterlimit="4"/></g><g clip-path="url(#abe756a61a)"><g clip-path="url(#9a50879e69)"><g clip-path="url(#eca3b5506f)"><path fill="#c5921e" d="M 1212.054688 178.175781 C 1211.441406 178.671875 1209.945312 179.429688 1209.820312 177.878906 C 1209.726562 176.679688 1210.417969 175.421875 1211.21875 174.535156 C 1209.449219 172.714844 1207.496094 171.125 1205.351562 169.765625 C 1204.828125 170.289062 1204.277344 170.78125 1203.699219 171.246094 C 1203.085938 171.742188 1201.589844 172.503906 1201.464844 170.949219 C 1201.445312 169.925781 1201.753906 169.007812 1202.378906 168.199219 C 1199.933594 167.054688 1197.386719 166.210938 1194.742188 165.664062 C 1194.472656 166.191406 1194.203125 166.695312 1193.894531 167.207031 C 1193.476562 167.886719 1192.332031 169.097656 1191.703125 167.679688 C 1191.382812 166.855469 1191.335938 166.011719 1191.558594 165.15625 C 1190.09375 164.992188 1188.628906 164.914062 1187.15625 164.921875 C 1187.265625 165.710938 1187.417969 166.488281 1187.617188 167.257812 C 1187.820312 168.027344 1188.0625 168.78125 1188.355469 169.523438 C 1188.644531 170.261719 1188.976562 170.984375 1189.351562 171.683594 C 1189.726562 172.386719 1190.144531 173.0625 1190.597656 173.710938 C 1191.054688 174.363281 1191.546875 174.984375 1192.078125 175.578125 C 1192.605469 176.171875 1193.167969 176.730469 1193.765625 177.257812 C 1194.363281 177.78125 1194.988281 178.269531 1195.640625 178.722656 C 1196.296875 179.175781 1196.972656 179.585938 1197.675781 179.957031 C 1198.378906 180.328125 1199.101562 180.65625 1199.84375 180.941406 C 1200.585938 181.226562 1201.34375 181.464844 1202.113281 181.660156 C 1202.882812 181.855469 1203.664062 182.003906 1204.453125 182.105469 C 1205.238281 182.210938 1206.03125 182.265625 1206.828125 182.273438 C 1207.621094 182.28125 1208.414062 182.242188 1209.203125 182.15625 C 1209.996094 182.070312 1210.777344 181.941406 1211.550781 181.761719 C 1212.324219 181.582031 1213.085938 181.359375 1213.835938 181.089844 C 1214.582031 180.820312 1215.3125 180.507812 1216.023438 180.152344 C 1215.203125 179.058594 1214.355469 177.976562 1213.460938 176.945312 C 1212.996094 177.371094 1212.535156 177.789062 1212.054688 178.175781 Z M 1212.054688 178.175781 " fill-opacity="1" fill-rule="nonzero"/></g></g></g><g clip-path="url(#896df900eb)"><g clip-path="url(#1a5d20b2a8)"><g clip-path="url(#4ea7e139a8)"><path fill="#c5921e" d="M 1200.03125 147.804688 C 1200.132812 147.648438 1200.226562 147.496094 1200.324219 147.351562 C 1200.636719 146.875 1202.097656 145.054688 1202.882812 146.273438 C 1203.199219 146.761719 1203.085938 147.578125 1202.996094 148.03125 C 1202.871094 148.609375 1202.667969 149.152344 1202.382812 149.667969 C 1204.820312 151.402344 1207.453125 152.75 1210.285156 153.707031 L 1210.445312 153.382812 C 1210.699219 152.875 1211.941406 150.898438 1212.859375 152.015625 C 1213.226562 152.460938 1213.214844 153.289062 1213.179688 153.75 C 1213.148438 154.003906 1213.101562 154.257812 1213.035156 154.511719 C 1215.195312 155.035156 1217.382812 155.339844 1219.605469 155.425781 L 1219.542969 154.945312 C 1219.476562 154.382812 1219.433594 152.050781 1220.828125 152.480469 C 1221.378906 152.652344 1221.832031 153.351562 1222.046875 153.757812 C 1222.328125 154.277344 1222.527344 154.828125 1222.648438 155.410156 C 1223.730469 155.359375 1224.785156 155.234375 1225.855469 155.085938 C 1225.601562 154.40625 1225.3125 153.742188 1224.984375 153.09375 C 1224.65625 152.445312 1224.296875 151.816406 1223.902344 151.207031 C 1223.507812 150.597656 1223.078125 150.007812 1222.621094 149.445312 C 1222.160156 148.882812 1221.671875 148.347656 1221.15625 147.835938 C 1220.636719 147.328125 1220.09375 146.84375 1219.527344 146.394531 C 1218.957031 145.945312 1218.363281 145.523438 1217.75 145.136719 C 1217.132812 144.75 1216.5 144.398438 1215.847656 144.082031 C 1215.195312 143.761719 1214.523438 143.480469 1213.839844 143.234375 C 1213.15625 142.992188 1212.460938 142.785156 1211.757812 142.613281 C 1211.050781 142.445312 1210.335938 142.3125 1209.617188 142.222656 C 1208.894531 142.128906 1208.171875 142.078125 1207.445312 142.0625 C 1206.71875 142.050781 1205.992188 142.074219 1205.269531 142.140625 C 1204.546875 142.207031 1203.828125 142.308594 1203.117188 142.453125 C 1202.40625 142.597656 1201.703125 142.777344 1201.007812 142.996094 C 1200.316406 143.21875 1199.636719 143.472656 1198.972656 143.765625 C 1198.308594 144.058594 1197.664062 144.386719 1197.035156 144.75 C 1197.960938 145.839844 1198.960938 146.855469 1200.03125 147.804688 Z M 1200.03125 147.804688 " fill-opacity="1" fill-rule="nonzero"/></g></g></g><g clip-path="url(#5540724a9c)"><g clip-path="url(#4c5d364ffd)"><g clip-path="url(#86a6549441)"><path fill="#c5921e" d="M 1222.886719 160.320312 C 1222.84375 161.105469 1222.394531 162.722656 1221.164062 161.769531 C 1220.277344 161.082031 1219.808594 159.859375 1219.65625 158.722656 C 1216.921875 158.738281 1214.226562 158.429688 1211.566406 157.792969 C 1211.175781 158.457031 1210.75 159.101562 1210.289062 159.71875 C 1209.820312 160.347656 1208.558594 161.457031 1208.050781 159.984375 C 1207.714844 159.003906 1207.9375 157.824219 1208.359375 156.851562 C 1205.464844 155.835938 1202.777344 154.425781 1200.296875 152.617188 C 1200.015625 152.953125 1199.734375 153.304688 1199.429688 153.621094 C 1198.890625 154.195312 1197.507812 155.144531 1197.179688 153.625 C 1196.964844 152.632812 1197.300781 151.519531 1197.820312 150.605469 C 1196.507812 149.410156 1195.300781 148.109375 1194.207031 146.710938 C 1193.589844 147.226562 1193.007812 147.773438 1192.453125 148.355469 C 1190.753906 150.152344 1189.429688 152.195312 1188.484375 154.480469 C 1187.539062 156.765625 1187.035156 159.148438 1186.976562 161.621094 C 1189.007812 161.546875 1191.03125 161.636719 1193.046875 161.886719 L 1193.050781 161.84375 C 1193.203125 161.539062 1193.324219 161.210938 1193.445312 160.894531 C 1193.648438 160.367188 1194.699219 158.285156 1195.730469 159.296875 C 1196.136719 159.6875 1196.199219 160.53125 1196.210938 160.992188 C 1196.210938 161.457031 1196.160156 161.917969 1196.054688 162.371094 C 1198.894531 162.96875 1201.628906 163.882812 1204.261719 165.109375 C 1204.542969 165.234375 1204.8125 165.382812 1205.082031 165.535156 L 1205.414062 165.148438 C 1205.785156 164.71875 1207.476562 163.113281 1208.09375 164.425781 C 1208.339844 164.949219 1208.121094 165.742188 1207.972656 166.183594 C 1207.867188 166.460938 1207.742188 166.726562 1207.59375 166.984375 C 1209.828125 168.476562 1211.871094 170.195312 1213.726562 172.132812 L 1213.769531 172.082031 C 1214.140625 171.648438 1215.832031 170.042969 1216.449219 171.355469 C 1216.691406 171.878906 1216.472656 172.675781 1216.328125 173.113281 C 1216.175781 173.542969 1215.976562 173.949219 1215.730469 174.335938 C 1216.859375 175.636719 1217.902344 177.007812 1218.910156 178.386719 C 1219.890625 177.675781 1220.800781 176.878906 1221.636719 176 C 1222.761719 174.820312 1223.726562 173.519531 1224.53125 172.101562 C 1225.335938 170.683594 1225.960938 169.191406 1226.402344 167.621094 C 1226.84375 166.050781 1227.089844 164.449219 1227.144531 162.820312 C 1227.195312 161.191406 1227.050781 159.578125 1226.710938 157.984375 C 1225.453125 158.238281 1224.1875 158.425781 1222.914062 158.546875 C 1222.917969 159.148438 1222.921875 159.738281 1222.886719 160.320312 Z M 1222.886719 160.320312 " fill-opacity="1" fill-rule="nonzero"/></g></g></g><g clip-path="url(#3f9a269546)"><g clip-path="url(#18d39717f4)"><g clip-path="url(#069a48970c)"><path fill="#e1af33" d="M 1181.242188 51.199219 C 1180.640625 51.730469 1180.066406 52.285156 1179.519531 52.875 C 1178.976562 53.460938 1178.460938 54.074219 1177.976562 54.710938 C 1177.496094 55.351562 1177.046875 56.011719 1176.628906 56.695312 C 1176.214844 57.378906 1175.832031 58.082031 1175.488281 58.804688 C 1175.144531 59.53125 1174.835938 60.269531 1174.566406 61.023438 C 1174.296875 61.777344 1174.066406 62.542969 1173.875 63.320312 C 1173.683594 64.097656 1173.53125 64.882812 1173.421875 65.675781 C 1173.308594 66.46875 1173.238281 67.265625 1173.207031 68.066406 C 1173.175781 68.863281 1173.183594 69.664062 1173.234375 70.464844 C 1173.285156 71.261719 1173.375 72.058594 1173.503906 72.847656 C 1173.636719 73.636719 1173.804688 74.417969 1174.015625 75.191406 C 1174.226562 75.964844 1174.476562 76.726562 1174.761719 77.472656 C 1175.050781 78.21875 1175.375 78.949219 1175.734375 79.664062 C 1176.097656 80.378906 1176.492188 81.074219 1176.925781 81.75 C 1177.355469 82.421875 1177.820312 83.074219 1178.320312 83.699219 C 1178.816406 84.328125 1179.347656 84.929688 1179.90625 85.503906 L 1310.582031 207.523438 C 1310.5 207.949219 1310.4375 208.378906 1310.402344 208.808594 C 1310.363281 209.238281 1310.347656 209.671875 1310.355469 210.105469 C 1310.359375 210.539062 1310.390625 210.96875 1310.441406 211.398438 C 1310.492188 211.828125 1310.566406 212.253906 1310.664062 212.675781 C 1310.757812 213.097656 1310.875 213.515625 1311.015625 213.925781 C 1311.152344 214.335938 1311.3125 214.738281 1311.496094 215.128906 C 1311.675781 215.523438 1311.875 215.90625 1312.097656 216.28125 C 1312.316406 216.652344 1312.554688 217.011719 1312.8125 217.359375 C 1313.074219 217.707031 1313.347656 218.042969 1313.640625 218.359375 C 1313.933594 218.679688 1314.242188 218.980469 1314.566406 219.269531 C 1314.890625 219.554688 1315.226562 219.824219 1315.578125 220.078125 C 1315.933594 220.328125 1316.296875 220.5625 1316.671875 220.777344 C 1317.046875 220.992188 1317.433594 221.183594 1317.832031 221.359375 C 1318.226562 221.53125 1318.632812 221.6875 1319.042969 221.816406 C 1319.457031 221.949219 1319.875 222.058594 1320.300781 222.148438 C 1320.722656 222.238281 1321.148438 222.304688 1321.582031 222.347656 C 1322.011719 222.390625 1322.441406 222.414062 1322.875 222.414062 C 1323.308594 222.410156 1323.742188 222.386719 1324.171875 222.34375 C 1324.601562 222.296875 1325.027344 222.230469 1325.453125 222.140625 C 1325.875 222.050781 1326.292969 221.9375 1326.707031 221.804688 C 1327.117188 221.671875 1327.519531 221.515625 1327.917969 221.339844 C 1328.3125 221.164062 1328.699219 220.96875 1329.074219 220.753906 C 1329.449219 220.539062 1329.8125 220.304688 1330.164062 220.050781 C 1330.515625 219.800781 1330.851562 219.527344 1331.175781 219.238281 C 1331.5 218.953125 1331.804688 218.648438 1332.097656 218.328125 C 1332.390625 218.007812 1332.664062 217.671875 1332.921875 217.324219 C 1333.175781 216.976562 1333.414062 216.613281 1333.632812 216.242188 C 1333.855469 215.867188 1334.054688 215.484375 1334.230469 215.089844 C 1334.410156 214.695312 1334.570312 214.292969 1334.707031 213.882812 C 1334.84375 213.472656 1334.960938 213.058594 1335.054688 212.632812 C 1335.148438 212.210938 1335.222656 211.785156 1335.273438 211.355469 C 1335.324219 210.925781 1335.351562 210.492188 1335.355469 210.0625 C 1335.359375 209.628906 1335.34375 209.195312 1335.304688 208.765625 C 1335.265625 208.332031 1335.203125 207.90625 1335.117188 207.480469 C 1335.035156 207.054688 1334.929688 206.636719 1334.800781 206.222656 C 1334.671875 205.808594 1334.523438 205.402344 1334.355469 205.003906 C 1334.183594 204.605469 1333.992188 204.21875 1333.785156 203.839844 C 1333.574219 203.460938 1333.34375 203.09375 1333.097656 202.742188 C 1332.847656 202.386719 1332.582031 202.046875 1332.296875 201.71875 C 1332.015625 201.390625 1331.714844 201.078125 1331.398438 200.785156 C 1331.082031 200.488281 1330.75 200.210938 1330.40625 199.949219 C 1330.0625 199.6875 1329.703125 199.441406 1329.332031 199.21875 C 1328.964844 198.996094 1328.582031 198.789062 1328.191406 198.605469 C 1327.800781 198.417969 1327.398438 198.253906 1326.992188 198.113281 C 1326.582031 197.96875 1326.167969 197.847656 1325.746094 197.746094 C 1325.324219 197.648438 1324.898438 197.570312 1324.46875 197.511719 C 1324.042969 197.457031 1323.609375 197.421875 1323.175781 197.414062 C 1322.746094 197.402344 1322.3125 197.414062 1321.878906 197.445312 L 1215.320312 54.179688 C 1214.820312 53.554688 1214.292969 52.960938 1213.734375 52.390625 C 1213.175781 51.824219 1212.589844 51.285156 1211.976562 50.777344 C 1211.363281 50.265625 1210.726562 49.789062 1210.0625 49.34375 C 1209.402344 48.898438 1208.71875 48.488281 1208.015625 48.113281 C 1207.3125 47.738281 1206.59375 47.398438 1205.855469 47.09375 C 1205.117188 46.792969 1204.367188 46.527344 1203.605469 46.300781 C 1202.839844 46.070312 1202.066406 45.882812 1201.28125 45.734375 C 1200.5 45.585938 1199.710938 45.476562 1198.917969 45.40625 C 1198.121094 45.335938 1197.328125 45.308594 1196.53125 45.320312 C 1195.734375 45.332031 1194.9375 45.382812 1194.144531 45.472656 C 1193.355469 45.5625 1192.570312 45.695312 1191.789062 45.867188 C 1191.011719 46.035156 1190.242188 46.246094 1189.484375 46.496094 C 1188.726562 46.742188 1187.984375 47.027344 1187.257812 47.351562 C 1186.527344 47.675781 1185.816406 48.035156 1185.125 48.429688 C 1184.433594 48.824219 1183.761719 49.253906 1183.113281 49.71875 C 1182.464844 50.179688 1181.839844 50.675781 1181.242188 51.199219 Z M 1181.242188 51.199219 " fill-opacity="1" fill-rule="nonzero"/></g></g></g><g clip-path="url(#02df57a123)"><g clip-path="url(#58fbb1e912)"><g clip-path="url(#c59b868aa9)"><path fill="#d47300" d="M 1182.007812 61.058594 C 1197.523438 50.714844 1210.800781 68.167969 1218.945312 79.902344 C 1220.394531 81.988281 1224.78125 75.542969 1223.425781 73.574219 C 1217.789062 65.449219 1211.554688 56.867188 1202.410156 52.429688 C 1194.90625 48.8125 1189.203125 50.523438 1182.570312 54.933594 C 1180.734375 56.160156 1178.453125 63.417969 1182.011719 61.050781 Z M 1182.007812 61.058594 " fill-opacity="1" fill-rule="nonzero"/></g></g></g><g clip-path="url(#a4d13add2d)"><g clip-path="url(#44e6016f6b)"><g clip-path="url(#8fc07dad5b)"><path fill="#d47300" d="M 1233.820312 86.585938 C 1232.578125 83.878906 1230.816406 81.570312 1228.527344 79.664062 C 1227.558594 78.863281 1223.15625 85.367188 1224.726562 86.679688 C 1226.84375 88.429688 1228.46875 90.558594 1229.609375 93.058594 C 1230.167969 94.277344 1231.9375 91.683594 1232.191406 91.289062 C 1232.824219 90.324219 1234.40625 87.871094 1233.816406 86.585938 Z M 1233.820312 86.585938 " fill-opacity="1" fill-rule="nonzero"/></g></g></g><g clip-path="url(#68e60ba7f6)"><g clip-path="url(#f4393ea39b)"><g clip-path="url(#9ef68f16e9)"><path fill="#e29500" d="M 1181.683594 49.96875 C 1169.25 60.882812 1170.191406 78.421875 1181.808594 89.285156 L 1212.777344 118.1875 L 1298.886719 198.59375 C 1301.898438 201.410156 1306.132812 204.226562 1308.519531 207.597656 C 1309.945312 209.601562 1308.941406 207.691406 1309.550781 210.410156 C 1311.117188 217.328125 1313.480469 223.691406 1322.15625 223.695312 C 1331.835938 223.703125 1338.925781 212.214844 1334.964844 203.492188 C 1334.289062 202.007812 1333.363281 200.703125 1332.1875 199.574219 C 1331.007812 198.449219 1329.664062 197.582031 1328.152344 196.972656 C 1326.839844 196.453125 1323.515625 196.699219 1322.496094 196.035156 C 1321.792969 195.582031 1321.152344 194.234375 1320.664062 193.574219 L 1258.308594 109.699219 L 1223.195312 62.507812 C 1220.851562 59.363281 1218.628906 56.0625 1216.140625 53.027344 C 1207.324219 42.269531 1192.261719 41.375 1181.683594 49.96875 Z M 1214.664062 55.585938 C 1216.222656 57.511719 1217.621094 59.558594 1219.085938 61.53125 L 1244.125 95.183594 L 1309.246094 182.757812 L 1318.5 195.199219 C 1321.945312 199.832031 1320.585938 197.167969 1326.730469 199.605469 C 1339.597656 204.703125 1333.28125 224.285156 1320.136719 220.597656 C 1319.253906 220.347656 1318.410156 220.003906 1317.601562 219.570312 C 1316.792969 219.132812 1316.042969 218.613281 1315.351562 218.011719 C 1314.660156 217.40625 1314.042969 216.738281 1313.496094 216 C 1312.953125 215.261719 1312.496094 214.472656 1312.125 213.632812 C 1311.183594 211.460938 1312.21875 207.777344 1311.246094 206.1875 C 1310.171875 204.425781 1307.671875 202.847656 1306.175781 201.453125 L 1233.40625 133.488281 L 1192.746094 95.523438 C 1189.222656 92.230469 1185.648438 88.984375 1182.167969 85.644531 C 1173.089844 76.9375 1169.972656 61.925781 1180.800781 52.429688 C 1191.214844 43.96875 1206.078125 45.101562 1214.664062 55.585938 Z M 1214.664062 55.585938 " fill-opacity="1" fill-rule="nonzero"/></g></g></g><g clip-path="url(#753e8abf84)"><g clip-path="url(#45035cf150)"><g clip-path="url(#1984160a19)"><path fill="#e29500" d="M 1319.492188 201.976562 C 1319.054688 203.578125 1316.09375 204.867188 1314.695312 205.378906 C 1313.609375 205.78125 1312.296875 209.421875 1313.863281 208.84375 C 1317.40625 207.539062 1320.804688 204.699219 1321.828125 200.953125 C 1322.003906 200.296875 1321.882812 199.523438 1321.078125 199.730469 C 1320.269531 199.9375 1319.679688 201.277344 1319.492188 201.976562 Z M 1319.492188 201.976562 " fill-opacity="1" fill-rule="nonzero"/></g></g></g><g clip-path="url(#c41af1fd31)"><g clip-path="url(#4ff1f52611)"><g clip-path="url(#72db345bfc)"><path fill="#e29500" d="M 1190.738281 148.710938 C 1183.78125 157.382812 1184.03125 170.492188 1192.257812 178.277344 C 1200.820312 186.367188 1214.410156 185.40625 1222.265625 176.882812 C 1222.75 176.367188 1223.207031 175.828125 1223.640625 175.269531 C 1224.070312 174.707031 1224.476562 174.128906 1224.851562 173.53125 C 1225.230469 172.933594 1225.578125 172.316406 1225.894531 171.6875 C 1226.214844 171.054688 1226.5 170.410156 1226.757812 169.75 C 1227.011719 169.089844 1227.238281 168.421875 1227.429688 167.738281 C 1227.621094 167.058594 1227.78125 166.371094 1227.910156 165.675781 C 1228.035156 164.980469 1228.128906 164.28125 1228.1875 163.574219 C 1228.25 162.871094 1228.273438 162.164062 1228.265625 161.457031 C 1228.257812 160.75 1228.21875 160.042969 1228.144531 159.339844 C 1228.066406 158.636719 1227.960938 157.941406 1227.816406 157.246094 C 1227.675781 156.554688 1227.503906 155.871094 1227.296875 155.195312 C 1227.089844 154.515625 1226.847656 153.851562 1226.578125 153.199219 C 1226.308594 152.546875 1226.007812 151.90625 1225.675781 151.28125 C 1225.34375 150.65625 1224.984375 150.050781 1224.59375 149.460938 C 1224.203125 148.871094 1223.789062 148.300781 1223.34375 147.75 C 1222.898438 147.199219 1222.429688 146.671875 1221.9375 146.164062 C 1221.894531 146.125 1221.851562 146.085938 1221.804688 146.054688 C 1221.78125 146.03125 1221.757812 146.003906 1221.734375 145.980469 C 1212.410156 137.835938 1198.53125 138.996094 1190.738281 148.710938 Z M 1194.222656 175.222656 C 1192.773438 173.84375 1191.566406 172.277344 1190.605469 170.523438 C 1189.644531 168.769531 1188.976562 166.910156 1188.597656 164.945312 C 1189.578125 164.980469 1190.554688 165.042969 1191.527344 165.15625 C 1191.308594 166.011719 1191.355469 166.851562 1191.671875 167.675781 C 1192.316406 169.097656 1193.449219 167.875 1193.863281 167.203125 C 1194.164062 166.707031 1194.4375 166.175781 1194.710938 165.664062 C 1197.359375 166.207031 1199.90625 167.046875 1202.351562 168.191406 C 1201.722656 169 1201.417969 169.917969 1201.4375 170.941406 C 1201.5625 172.492188 1203.058594 171.734375 1203.671875 171.238281 C 1204.28125 170.742188 1204.796875 170.277344 1205.324219 169.757812 C 1207.476562 171.117188 1209.441406 172.710938 1211.214844 174.535156 C 1210.425781 175.417969 1209.722656 176.679688 1209.816406 177.878906 C 1209.941406 179.433594 1211.4375 178.671875 1212.050781 178.175781 C 1212.53125 177.789062 1212.992188 177.371094 1213.441406 176.941406 C 1214.039062 177.632812 1214.613281 178.347656 1215.171875 179.070312 C 1214.304688 179.429688 1213.414062 179.722656 1212.503906 179.953125 C 1211.59375 180.183594 1210.671875 180.351562 1209.738281 180.449219 C 1208.804688 180.546875 1207.867188 180.578125 1206.929688 180.542969 C 1205.992188 180.507812 1205.0625 180.402344 1204.136719 180.234375 C 1203.214844 180.066406 1202.308594 179.828125 1201.417969 179.53125 C 1200.527344 179.230469 1199.664062 178.867188 1198.824219 178.441406 C 1197.988281 178.019531 1197.183594 177.539062 1196.414062 176.996094 C 1195.648438 176.457031 1194.921875 175.867188 1194.238281 175.222656 Z M 1220.121094 175.929688 C 1219.515625 176.472656 1218.875 176.96875 1218.203125 177.421875 C 1217.417969 176.371094 1216.585938 175.332031 1215.734375 174.34375 C 1215.980469 173.960938 1216.179688 173.554688 1216.328125 173.125 C 1216.472656 172.6875 1216.691406 171.886719 1216.449219 171.367188 C 1215.84375 170.054688 1214.140625 171.660156 1213.773438 172.09375 C 1213.753906 172.109375 1213.742188 172.125 1213.726562 172.144531 C 1211.875 170.203125 1209.832031 168.488281 1207.597656 166.996094 C 1207.742188 166.738281 1207.871094 166.472656 1207.972656 166.195312 C 1208.121094 165.753906 1208.339844 164.960938 1208.09375 164.4375 C 1207.488281 163.125 1205.785156 164.730469 1205.417969 165.160156 L 1205.085938 165.546875 C 1204.816406 165.40625 1204.542969 165.257812 1204.265625 165.117188 C 1201.632812 163.894531 1198.898438 162.980469 1196.054688 162.382812 C 1196.160156 161.929688 1196.214844 161.46875 1196.210938 161.003906 C 1196.203125 160.539062 1196.140625 159.714844 1195.734375 159.308594 C 1194.707031 158.28125 1193.660156 160.363281 1193.445312 160.90625 C 1193.324219 161.222656 1193.203125 161.550781 1193.054688 161.855469 L 1193.050781 161.898438 C 1191.472656 161.695312 1189.886719 161.59375 1188.296875 161.59375 C 1188.273438 160.253906 1188.40625 158.925781 1188.691406 157.617188 C 1188.976562 156.304688 1189.410156 155.042969 1189.992188 153.835938 C 1190.570312 152.625 1191.28125 151.5 1192.125 150.457031 C 1192.96875 149.414062 1193.921875 148.480469 1194.984375 147.660156 C 1195.871094 148.707031 1196.820312 149.6875 1197.832031 150.609375 C 1197.316406 151.523438 1196.976562 152.636719 1197.195312 153.628906 C 1197.523438 155.148438 1198.90625 154.199219 1199.445312 153.625 C 1199.75 153.292969 1200.027344 152.957031 1200.3125 152.621094 C 1202.789062 154.429688 1205.476562 155.84375 1208.375 156.855469 C 1207.929688 157.835938 1207.726562 159.011719 1208.0625 159.988281 C 1208.574219 161.464844 1209.824219 160.351562 1210.304688 159.722656 C 1210.761719 159.105469 1211.1875 158.460938 1211.582031 157.800781 C 1214.238281 158.433594 1216.9375 158.746094 1219.671875 158.726562 C 1219.824219 159.855469 1220.292969 161.089844 1221.175781 161.773438 C 1222.40625 162.726562 1222.855469 161.109375 1222.902344 160.324219 C 1222.953125 159.742188 1222.9375 159.15625 1222.925781 158.570312 C 1223.671875 158.496094 1224.417969 158.402344 1225.164062 158.28125 C 1226.824219 164.445312 1225.511719 171.144531 1220.136719 175.929688 Z M 1219.84375 149.042969 C 1221.617188 150.875 1223.027344 152.957031 1224.066406 155.285156 C 1223.585938 155.332031 1223.101562 155.367188 1222.625 155.398438 C 1222.503906 154.816406 1222.300781 154.265625 1222.023438 153.742188 C 1221.796875 153.335938 1221.355469 152.640625 1220.804688 152.46875 C 1219.40625 152.035156 1219.46875 154.371094 1219.519531 154.933594 L 1219.578125 155.414062 C 1217.359375 155.328125 1215.171875 155.023438 1213.011719 154.496094 C 1213.078125 154.246094 1213.125 153.992188 1213.15625 153.734375 C 1213.195312 153.277344 1213.203125 152.449219 1212.835938 152.003906 C 1211.917969 150.882812 1210.671875 152.863281 1210.421875 153.371094 L 1210.261719 153.695312 C 1207.429688 152.734375 1204.796875 151.390625 1202.359375 149.65625 C 1202.644531 149.140625 1202.847656 148.59375 1202.972656 148.019531 C 1203.0625 147.566406 1203.171875 146.746094 1202.859375 146.261719 C 1202.074219 145.042969 1200.609375 146.863281 1200.300781 147.339844 C 1200.203125 147.484375 1200.109375 147.636719 1200.007812 147.789062 C 1199.28125 147.152344 1198.582031 146.472656 1197.910156 145.753906 C 1205.117188 142.085938 1213.671875 143.734375 1219.859375 149.042969 Z M 1219.84375 149.042969 " fill-opacity="1" fill-rule="nonzero"/></g></g></g><g fill="#f7f7f7" fill-opacity="1"><g transform="translate(448.236073, 179.664916)"><g><path d="M 41.125 1.0625 C 34.144531 1.0625 28.671875 -1.46875 24.703125 -6.53125 L 23.859375 -6.53125 C 24.421875 -1.570312 24.703125 1.296875 24.703125 2.078125 L 24.703125 26.140625 L 8.5 26.140625 L 8.5 -59.40625 L 21.671875 -59.40625 L 23.96875 -51.703125 L 24.703125 -51.703125 C 28.492188 -57.578125 34.109375 -60.515625 41.546875 -60.515625 C 48.554688 -60.515625 54.046875 -57.804688 58.015625 -52.390625 C 61.984375 -46.972656 63.96875 -39.445312 63.96875 -29.8125 C 63.96875 -23.46875 63.035156 -17.957031 61.171875 -13.28125 C 59.316406 -8.601562 56.671875 -5.039062 53.234375 -2.59375 C 49.796875 -0.15625 45.757812 1.0625 41.125 1.0625 Z M 36.34375 -47.546875 C 32.34375 -47.546875 29.421875 -46.316406 27.578125 -43.859375 C 25.734375 -41.398438 24.773438 -37.335938 24.703125 -31.671875 L 24.703125 -29.90625 C 24.703125 -23.53125 25.648438 -18.960938 27.546875 -16.203125 C 29.441406 -13.441406 32.441406 -12.0625 36.546875 -12.0625 C 43.816406 -12.0625 47.453125 -18.046875 47.453125 -30.015625 C 47.453125 -35.859375 46.554688 -40.238281 44.765625 -43.15625 C 42.972656 -46.082031 40.164062 -47.546875 36.34375 -47.546875 Z M 36.34375 -47.546875 "/></g></g></g><g fill="#f7f7f7" fill-opacity="1"><g transform="translate(517.09126, 179.664916)"><g><path d="M 33.09375 -48.984375 C 29.664062 -48.984375 26.976562 -47.894531 25.03125 -45.71875 C 23.082031 -43.539062 21.960938 -40.453125 21.671875 -36.453125 L 44.421875 -36.453125 C 44.347656 -40.453125 43.300781 -43.539062 41.28125 -45.71875 C 39.257812 -47.894531 36.53125 -48.984375 33.09375 -48.984375 Z M 35.390625 1.0625 C 25.828125 1.0625 18.351562 -1.570312 12.96875 -6.84375 C 7.582031 -12.125 4.890625 -19.601562 4.890625 -29.28125 C 4.890625 -39.226562 7.375 -46.921875 12.34375 -52.359375 C 17.320312 -57.796875 24.207031 -60.515625 33 -60.515625 C 41.394531 -60.515625 47.925781 -58.125 52.59375 -53.34375 C 57.269531 -48.5625 59.609375 -41.957031 59.609375 -33.53125 L 59.609375 -25.65625 L 21.3125 -25.65625 C 21.488281 -21.050781 22.847656 -17.457031 25.390625 -14.875 C 27.941406 -12.289062 31.519531 -11 36.125 -11 C 39.707031 -11 43.09375 -11.367188 46.28125 -12.109375 C 49.46875 -12.859375 52.796875 -14.046875 56.265625 -15.671875 L 56.265625 -3.140625 C 53.429688 -1.722656 50.398438 -0.671875 47.171875 0.015625 C 43.953125 0.710938 40.023438 1.0625 35.390625 1.0625 Z M 35.390625 1.0625 "/></g></g></g><g fill="#f7f7f7" fill-opacity="1"><g transform="translate(581.377354, 179.664916)"><g><path d="M 63.328125 0 L 47.125 0 L 47.125 -34.6875 C 47.125 -38.976562 46.363281 -42.191406 44.84375 -44.328125 C 43.320312 -46.472656 40.894531 -47.546875 37.5625 -47.546875 C 33.03125 -47.546875 29.753906 -46.03125 27.734375 -43 C 25.710938 -39.976562 24.703125 -34.960938 24.703125 -27.953125 L 24.703125 0 L 8.5 0 L 8.5 -59.40625 L 20.875 -59.40625 L 23.0625 -51.796875 L 23.96875 -51.796875 C 25.769531 -54.671875 28.253906 -56.84375 31.421875 -58.3125 C 34.597656 -59.78125 38.203125 -60.515625 42.234375 -60.515625 C 49.140625 -60.515625 54.378906 -58.644531 57.953125 -54.90625 C 61.535156 -51.175781 63.328125 -45.785156 63.328125 -38.734375 Z M 63.328125 0 "/></g></g></g><g fill="#f7f7f7" fill-opacity="1"><g transform="translate(652.888991, 179.664916)"><g><path d="M 3.71875 26.140625 C -0.425781 26.140625 -3.984375 25.695312 -6.953125 24.8125 L -6.953125 12.0625 C -4.472656 12.726562 -1.941406 13.0625 0.640625 13.0625 C 3.367188 13.0625 5.359375 12.300781 6.609375 10.78125 C 7.867188 9.257812 8.5 7.007812 8.5 4.03125 L 8.5 -59.40625 L 24.703125 -59.40625 L 24.703125 6.421875 C 24.703125 12.734375 22.878906 17.597656 19.234375 21.015625 C 15.585938 24.429688 10.414062 26.140625 3.71875 26.140625 Z M 7.8125 -74.75 C 7.8125 -80.03125 10.75 -82.671875 16.625 -82.671875 C 22.507812 -82.671875 25.453125 -80.03125 25.453125 -74.75 C 25.453125 -72.238281 24.71875 -70.28125 23.25 -68.875 C 21.78125 -67.476562 19.570312 -66.78125 16.625 -66.78125 C 10.75 -66.78125 7.8125 -69.4375 7.8125 -74.75 Z M 7.8125 -74.75 "/></g></g></g><g fill="#f7f7f7" fill-opacity="1"><g transform="translate(686.094623, 179.664916)"><g><path d="M 46.21875 0 L 43.09375 -8.078125 L 42.671875 -8.078125 C 39.941406 -4.640625 37.128906 -2.253906 34.234375 -0.921875 C 31.347656 0.398438 27.585938 1.0625 22.953125 1.0625 C 17.253906 1.0625 12.765625 -0.566406 9.484375 -3.828125 C 6.203125 -7.085938 4.5625 -11.726562 4.5625 -17.75 C 4.5625 -24.050781 6.765625 -28.695312 11.171875 -31.6875 C 15.585938 -34.6875 22.242188 -36.34375 31.140625 -36.65625 L 41.4375 -36.984375 L 41.4375 -39.578125 C 41.4375 -45.597656 38.359375 -48.609375 32.203125 -48.609375 C 27.453125 -48.609375 21.875 -47.175781 15.46875 -44.3125 L 10.09375 -55.25 C 16.925781 -58.832031 24.503906 -60.625 32.828125 -60.625 C 40.804688 -60.625 46.921875 -58.882812 51.171875 -55.40625 C 55.421875 -51.9375 57.546875 -46.660156 57.546875 -39.578125 L 57.546875 0 Z M 41.4375 -27.515625 L 35.171875 -27.3125 C 30.460938 -27.164062 26.957031 -26.3125 24.65625 -24.75 C 22.351562 -23.195312 21.203125 -20.828125 21.203125 -17.640625 C 21.203125 -13.066406 23.820312 -10.78125 29.0625 -10.78125 C 32.8125 -10.78125 35.8125 -11.859375 38.0625 -14.015625 C 40.3125 -16.179688 41.4375 -19.054688 41.4375 -22.640625 Z M 41.4375 -27.515625 "/></g></g></g><g fill="#f7f7f7" fill-opacity="1"><g transform="translate(751.815205, 179.664916)"><g><path d="M 49.9375 -17.640625 C 49.9375 -11.546875 47.820312 -6.90625 43.59375 -3.71875 C 39.363281 -0.53125 33.03125 1.0625 24.59375 1.0625 C 20.28125 1.0625 16.597656 0.769531 13.546875 0.1875 C 10.503906 -0.394531 7.65625 -1.253906 5 -2.390625 L 5 -15.78125 C 8.007812 -14.363281 11.398438 -13.175781 15.171875 -12.21875 C 18.941406 -11.257812 22.257812 -10.78125 25.125 -10.78125 C 31.007812 -10.78125 33.953125 -12.484375 33.953125 -15.890625 C 33.953125 -17.160156 33.5625 -18.191406 32.78125 -18.984375 C 32 -19.785156 30.648438 -20.691406 28.734375 -21.703125 C 26.828125 -22.710938 24.28125 -23.890625 21.09375 -25.234375 C 16.519531 -27.148438 13.160156 -28.921875 11.015625 -30.546875 C 8.878906 -32.179688 7.320312 -34.050781 6.34375 -36.15625 C 5.375 -38.257812 4.890625 -40.851562 4.890625 -43.9375 C 4.890625 -49.21875 6.929688 -53.300781 11.015625 -56.1875 C 15.109375 -59.070312 20.910156 -60.515625 28.421875 -60.515625 C 35.578125 -60.515625 42.539062 -58.957031 49.3125 -55.84375 L 44.421875 -44.15625 C 41.441406 -45.425781 38.660156 -46.46875 36.078125 -47.28125 C 33.492188 -48.101562 30.851562 -48.515625 28.15625 -48.515625 C 23.375 -48.515625 20.984375 -47.21875 20.984375 -44.625 C 20.984375 -43.175781 21.753906 -41.921875 23.296875 -40.859375 C 24.835938 -39.796875 28.210938 -38.21875 33.421875 -36.125 C 38.054688 -34.25 41.453125 -32.492188 43.609375 -30.859375 C 45.773438 -29.234375 47.367188 -27.359375 48.390625 -25.234375 C 49.421875 -23.109375 49.9375 -20.578125 49.9375 -17.640625 Z M 49.9375 -17.640625 "/></g></g></g><g fill="#f7f7f7" fill-opacity="1"><g transform="translate(805.900541, 179.664916)"><g><path d="M 24.0625 -32.296875 L 31.140625 -41.34375 L 47.765625 -59.40625 L 66.046875 -59.40625 L 42.453125 -33.625 L 67.46875 0 L 48.78125 0 L 31.671875 -24.0625 L 24.703125 -18.484375 L 24.703125 0 L 8.5 0 L 8.5 -82.671875 L 24.703125 -82.671875 L 24.703125 -45.796875 L 23.859375 -32.296875 Z M 24.0625 -32.296875 "/></g></g></g><g fill="#f7f7f7" fill-opacity="1"><g transform="translate(873.374363, 179.664916)"><g><path d="M 33.09375 -48.984375 C 29.664062 -48.984375 26.976562 -47.894531 25.03125 -45.71875 C 23.082031 -43.539062 21.960938 -40.453125 21.671875 -36.453125 L 44.421875 -36.453125 C 44.347656 -40.453125 43.300781 -43.539062 41.28125 -45.71875 C 39.257812 -47.894531 36.53125 -48.984375 33.09375 -48.984375 Z M 35.390625 1.0625 C 25.828125 1.0625 18.351562 -1.570312 12.96875 -6.84375 C 7.582031 -12.125 4.890625 -19.601562 4.890625 -29.28125 C 4.890625 -39.226562 7.375 -46.921875 12.34375 -52.359375 C 17.320312 -57.796875 24.207031 -60.515625 33 -60.515625 C 41.394531 -60.515625 47.925781 -58.125 52.59375 -53.34375 C 57.269531 -48.5625 59.609375 -41.957031 59.609375 -33.53125 L 59.609375 -25.65625 L 21.3125 -25.65625 C 21.488281 -21.050781 22.847656 -17.457031 25.390625 -14.875 C 27.941406 -12.289062 31.519531 -11 36.125 -11 C 39.707031 -11 43.09375 -11.367188 46.28125 -12.109375 C 49.46875 -12.859375 52.796875 -14.046875 56.265625 -15.671875 L 56.265625 -3.140625 C 53.429688 -1.722656 50.398438 -0.671875 47.171875 0.015625 C 43.953125 0.710938 40.023438 1.0625 35.390625 1.0625 Z M 35.390625 1.0625 "/></g></g></g><g fill="#f7f7f7" fill-opacity="1"><g transform="translate(937.660468, 179.664916)"><g><path d="M 49.9375 -17.640625 C 49.9375 -11.546875 47.820312 -6.90625 43.59375 -3.71875 C 39.363281 -0.53125 33.03125 1.0625 24.59375 1.0625 C 20.28125 1.0625 16.597656 0.769531 13.546875 0.1875 C 10.503906 -0.394531 7.65625 -1.253906 5 -2.390625 L 5 -15.78125 C 8.007812 -14.363281 11.398438 -13.175781 15.171875 -12.21875 C 18.941406 -11.257812 22.257812 -10.78125 25.125 -10.78125 C 31.007812 -10.78125 33.953125 -12.484375 33.953125 -15.890625 C 33.953125 -17.160156 33.5625 -18.191406 32.78125 -18.984375 C 32 -19.785156 30.648438 -20.691406 28.734375 -21.703125 C 26.828125 -22.710938 24.28125 -23.890625 21.09375 -25.234375 C 16.519531 -27.148438 13.160156 -28.921875 11.015625 -30.546875 C 8.878906 -32.179688 7.320312 -34.050781 6.34375 -36.15625 C 5.375 -38.257812 4.890625 -40.851562 4.890625 -43.9375 C 4.890625 -49.21875 6.929688 -53.300781 11.015625 -56.1875 C 15.109375 -59.070312 20.910156 -60.515625 28.421875 -60.515625 C 35.578125 -60.515625 42.539062 -58.957031 49.3125 -55.84375 L 44.421875 -44.15625 C 41.441406 -45.425781 38.660156 -46.46875 36.078125 -47.28125 C 33.492188 -48.101562 30.851562 -48.515625 28.15625 -48.515625 C 23.375 -48.515625 20.984375 -47.21875 20.984375 -44.625 C 20.984375 -43.175781 21.753906 -41.921875 23.296875 -40.859375 C 24.835938 -39.796875 28.210938 -38.21875 33.421875 -36.125 C 38.054688 -34.25 41.453125 -32.492188 43.609375 -30.859375 C 45.773438 -29.234375 47.367188 -27.359375 48.390625 -25.234375 C 49.421875 -23.109375 49.9375 -20.578125 49.9375 -17.640625 Z M 49.9375 -17.640625 "/></g></g></g><g clip-path="url(#40b0ede45e)"><g clip-path="url(#3fed076cca)"><g clip-path="url(#dc78e71bde)"><path fill="#e1af33" d="M 47.375 1.996094 L 317.175781 2.457031 L 195.816406 88.515625 Z M 47.375 1.996094 " fill-opacity="1" fill-rule="nonzero"/></g></g></g><g clip-path="url(#8df6887295)"><g clip-path="url(#57e91f3e5a)"><g clip-path="url(#a59bd402a2)"><path fill="#e29500" d="M 195.910156 91.195312 L 39.03125 -0.242188 L 324.234375 0.238281 Z M 55.738281 4.300781 L 195.699219 85.875 L 310.15625 4.703125 Z M 55.738281 4.300781 " fill-opacity="1" fill-rule="nonzero"/></g></g></g><g clip-path="url(#87819c0645)"><g clip-path="url(#6c23003d13)"><g clip-path="url(#76d97409ba)"><path fill="#e1af33" d="M 1353.664062 272.363281 L 1154.273438 272.929688 L 1243.671875 208.921875 Z M 1353.664062 272.363281 " fill-opacity="1" fill-rule="nonzero"/></g></g></g><g clip-path="url(#9c5332c49c)"><g clip-path="url(#3bee9bf120)"><g clip-path="url(#2bd3d65e3b)"><path fill="#e29500" d="M 1243.59375 206.941406 L 1359.839844 273.988281 L 1149.0625 274.59375 Z M 1347.476562 270.6875 L 1243.769531 210.871094 L 1159.453125 271.242188 Z M 1347.476562 270.6875 " fill-opacity="1" fill-rule="nonzero"/></g></g></g><g clip-path="url(#382491192b)"><g clip-path="url(#d0be60e6fc)"><g clip-path="url(#cbf1dc5472)"><path fill="#e1af33" d="M 538.351562 274.890625 L 318.417969 275.554688 L 417.011719 204.9375 Z M 538.351562 274.890625 " fill-opacity="1" fill-rule="nonzero"/></g></g></g><g clip-path="url(#5411f2b6bc)"><g clip-path="url(#5ec2911653)"><g clip-path="url(#fea42e6f5c)"><path fill="#d47300" d="M 416.925781 202.75 L 545.164062 276.679688 L 312.671875 277.394531 Z M 531.527344 273.042969 L 417.121094 207.085938 L 324.132812 273.695312 Z M 531.527344 273.042969 " fill-opacity="1" fill-rule="nonzero"/></g></g></g><g clip-path="url(#26a2570ba0)"><g clip-path="url(#ab84c913b4)"><g clip-path="url(#95f6519b96)"><path fill="#d47300" d="M 327.015625 199.019531 C 332.765625 189.324219 336.050781 178.242188 336.515625 166.96875 C 337.191406 150.492188 331.949219 134.328125 321.746094 121.464844 C 318.273438 117.089844 314.238281 113.121094 309.742188 109.667969 C 305.242188 106.207031 300.375 103.332031 295.285156 101.125 C 280.230469 94.570312 263.253906 93.65625 247.5 98.554688 C 236.710938 101.917969 226.847656 107.941406 219.007812 115.953125 C 217.082031 117.898438 215.238281 120.019531 213.515625 122.257812 C 207.832031 129.65625 203.6875 138.207031 201.394531 147.226562 L 154.421875 153.371094 C 151.839844 153.707031 149.539062 155.035156 147.953125 157.101562 C 146.363281 159.167969 145.671875 161.726562 146.011719 164.308594 C 146.347656 166.890625 147.675781 169.191406 149.742188 170.777344 C 151.808594 172.367188 154.367188 173.054688 156.949219 172.71875 L 162.773438 171.957031 C 160.851562 172.585938 159.164062 173.769531 157.902344 175.410156 C 156.25 177.558594 155.535156 180.222656 155.886719 182.90625 C 156.238281 185.589844 157.617188 187.980469 159.761719 189.628906 C 161.90625 191.277344 164.570312 191.992188 167.253906 191.640625 L 185.761719 189.222656 C 184.039062 189.847656 182.527344 190.941406 181.386719 192.429688 C 179.796875 194.496094 179.109375 197.058594 179.445312 199.640625 C 179.785156 202.222656 181.109375 204.519531 183.175781 206.109375 C 185.242188 207.695312 187.804688 208.386719 190.386719 208.046875 L 212.894531 205.101562 C 216.652344 210.148438 221.078125 214.644531 226.101562 218.503906 C 232.832031 223.679688 240.328125 227.511719 248.371094 229.890625 C 258.128906 232.792969 268.636719 233.476562 278.773438 231.863281 C 296.15625 229.085938 311.632812 219.867188 322.355469 205.914062 C 324.082031 203.671875 325.65625 201.34375 327.015625 199.019531 Z M 327.015625 199.019531 " fill-opacity="1" fill-rule="nonzero"/></g></g></g><g clip-path="url(#d5bbf7b1c0)"><g clip-path="url(#09749461d2)"><g clip-path="url(#1c7046c5ca)"><path fill="#e1af33" d="M 213.796875 176.917969 C 214.960938 182.367188 216.734375 186.839844 219.851562 192.101562 L 222.914062 184.960938 L 228.539062 185.46875 L 242.648438 186.746094 L 253.570312 175.179688 L 249.707031 158.207031 L 234.953125 152.054688 L 217.761719 162.3125 L 216.324219 161.054688 L 212.375 157.609375 C 211.835938 158.472656 210.96875 159.074219 209.941406 159.222656 C 209.941406 159.222656 209.695312 159.257812 209.242188 159.316406 C 209.242188 159.316406 209.238281 159.316406 209.238281 159.316406 C 208.949219 162.898438 208.984375 166.492188 209.347656 170.054688 C 209.5 171.511719 209.707031 172.964844 209.964844 174.410156 C 211.710938 174.050781 213.421875 175.167969 213.796875 176.917969 Z M 213.796875 176.917969 " fill-opacity="1" fill-rule="nonzero"/></g></g></g><g clip-path="url(#6b5eb36c03)"><g clip-path="url(#0e6e2878af)"><g clip-path="url(#3e5f0cbb59)"><path fill="#e1af33" d="M 281.476562 214.976562 L 284.351562 202.457031 L 285.914062 195.664062 L 273.804688 179.058594 L 273.515625 178.453125 L 254.769531 176.753906 L 243.957031 188.207031 L 246.425781 199.058594 L 248.265625 207.140625 L 239.894531 212.132812 C 250.890625 218.617188 264.078125 221.046875 276.722656 219.023438 C 279.53125 218.574219 282.277344 217.910156 284.941406 217.054688 Z M 281.476562 214.976562 " fill-opacity="1" fill-rule="nonzero"/></g></g></g><g clip-path="url(#58be8d2bb0)"><g clip-path="url(#5f3a6f5bf7)"><g clip-path="url(#96e21c14f8)"><path fill="#e1af33" d="M 303.898438 153.625 L 311.625 135.597656 L 315.953125 135.988281 C 314.644531 133.75 313.183594 131.589844 311.558594 129.542969 C 305.816406 122.320312 298.183594 116.476562 289.777344 112.914062 L 290.042969 118.875 L 271.699219 125.757812 L 269.625 147.847656 L 281.933594 158.613281 Z M 303.898438 153.625 " fill-opacity="1" fill-rule="nonzero"/></g></g></g><g clip-path="url(#fed0e0d951)"><g clip-path="url(#79301d47f0)"><g clip-path="url(#6addb6c524)"><path fill="#e1af33" d="M 282.363281 160.527344 L 275.152344 177.363281 L 275.480469 178.054688 L 287.519531 194.5625 L 303.246094 193.171875 L 306.867188 192.851562 L 310.082031 200.386719 C 312.214844 197.929688 314.207031 195.152344 315.824219 192.398438 C 320.585938 184.359375 323.285156 175.144531 323.527344 165.804688 L 322.195312 166.597656 L 319.097656 168.445312 L 304.335938 155.53125 Z M 282.363281 160.527344 " fill-opacity="1" fill-rule="nonzero"/></g></g></g><g clip-path="url(#2647cde760)"><g clip-path="url(#cb970b2e1a)"><g clip-path="url(#813b86c3fb)"><path fill="#e1af33" d="M 257.570312 109.917969 L 257.929688 109.367188 C 246.726562 111.363281 236.1875 116.964844 228.261719 125.085938 C 226.570312 126.800781 224.929688 128.683594 223.460938 130.671875 L 231.011719 131.355469 L 235.273438 150.082031 L 249.730469 156.109375 L 267.164062 145.710938 L 267.804688 146.265625 L 269.78125 125.230469 Z M 257.570312 109.917969 " fill-opacity="1" fill-rule="nonzero"/></g></g></g><g clip-path="url(#031f89b49b)"><g clip-path="url(#736d2afe0f)"><g clip-path="url(#aa1c01d36c)"><path fill="#e1af33" d="M 313.554688 182.921875 C 310.515625 186.875 307.035156 190.289062 303.25 193.167969 L 306.871094 192.847656 L 310.082031 200.382812 C 312.214844 197.925781 314.210938 195.148438 315.824219 192.394531 C 320.585938 184.355469 323.289062 175.140625 323.53125 165.800781 L 322.199219 166.59375 C 320.980469 170.304688 319.347656 173.929688 317.292969 177.394531 C 316.175781 179.296875 314.929688 181.136719 313.554688 182.921875 Z M 313.554688 182.921875 " fill-opacity="1" fill-rule="nonzero"/></g></g></g><g clip-path="url(#78a3eb6cbd)"><g clip-path="url(#dd8d55eea4)"><g clip-path="url(#7fb16dba2e)"><path fill="#e1af33" d="M 281.476562 214.976562 L 284.351562 202.457031 C 282.480469 202.964844 280.589844 203.378906 278.675781 203.683594 C 270.632812 204.972656 262.308594 204.480469 254.355469 202.109375 C 251.660156 201.3125 249.007812 200.285156 246.421875 199.050781 L 248.261719 207.132812 L 239.890625 212.125 C 250.886719 218.609375 264.074219 221.039062 276.71875 219.015625 C 279.527344 218.566406 282.273438 217.898438 284.9375 217.046875 Z M 281.476562 214.976562 " fill-opacity="1" fill-rule="nonzero"/></g></g></g><g clip-path="url(#218b814f1c)"><g clip-path="url(#eb8e3f3520)"><g clip-path="url(#9b19cdd7be)"><path fill="#e1af33" d="M 213.796875 176.917969 C 214.960938 182.367188 216.734375 186.839844 219.851562 192.101562 L 222.914062 184.960938 L 228.539062 185.46875 C 226.519531 183.148438 224.710938 180.695312 223.136719 178.117188 C 221.058594 174.726562 219.375 171.136719 218.09375 167.425781 C 217.371094 165.335938 216.785156 163.214844 216.320312 161.058594 L 212.375 157.609375 C 211.835938 158.472656 210.96875 159.074219 209.941406 159.222656 C 209.941406 159.222656 209.695312 159.257812 209.242188 159.316406 C 208.957031 162.898438 208.984375 166.492188 209.347656 170.054688 C 209.496094 171.515625 209.707031 172.964844 209.964844 174.410156 C 211.710938 174.050781 213.421875 175.167969 213.796875 176.917969 Z M 213.796875 176.917969 " fill-opacity="1" fill-rule="nonzero"/></g></g></g><g clip-path="url(#1b2169972f)"><g clip-path="url(#475c4e86eb)"><g clip-path="url(#e2cdfad5cd)"><path fill="#c5921e" d="M 321.421875 195.703125 C 340.644531 164.929688 326.210938 120.710938 292.6875 107.085938 C 257.53125 90.648438 212.609375 114.722656 206.773438 153.082031 L 155.257812 159.820312 C 151.082031 160.304688 151.914062 166.878906 156.101562 166.269531 C 156.101562 166.269531 202.933594 160.144531 209.234375 159.320312 C 209.234375 159.320312 209.238281 159.320312 209.238281 159.320312 C 209.691406 159.257812 209.941406 159.226562 209.941406 159.226562 C 210.96875 159.078125 211.835938 158.472656 212.371094 157.613281 L 216.316406 161.0625 L 217.753906 162.320312 L 234.945312 152.066406 L 249.699219 158.21875 L 253.5625 175.1875 L 242.640625 186.753906 L 228.53125 185.480469 L 222.90625 184.96875 L 219.84375 192.113281 C 216.726562 186.851562 214.949219 182.375 213.789062 176.925781 C 213.414062 175.175781 211.707031 174.066406 209.957031 174.417969 C 209.953125 174.417969 209.941406 174.417969 209.933594 174.421875 C 203.78125 176.421875 210.859375 188 212.378906 192.0625 L 188.6875 195.160156 C 185.871094 195.429688 184.863281 199.347656 187.128906 200.964844 C 187.625 202.882812 214.582031 197.929688 215.953125 198.15625 C 239.621094 236.242188 299.566406 234.863281 321.421875 195.703125 Z M 239.894531 212.132812 L 248.261719 207.136719 L 246.421875 199.054688 L 243.953125 188.203125 L 254.769531 176.75 L 273.511719 178.449219 L 273.800781 179.054688 L 285.910156 195.660156 L 284.347656 202.453125 L 281.472656 214.972656 L 284.933594 217.050781 C 282.265625 217.902344 279.523438 218.570312 276.71875 219.019531 C 264.074219 221.046875 250.886719 218.613281 239.894531 212.132812 Z M 322.199219 166.59375 L 323.53125 165.800781 C 323.285156 175.144531 320.582031 184.351562 315.824219 192.394531 C 314.210938 195.148438 312.222656 197.925781 310.082031 200.382812 L 306.871094 192.847656 L 303.25 193.167969 L 287.519531 194.5625 L 275.484375 178.050781 L 275.15625 177.359375 L 282.367188 160.527344 L 304.339844 155.527344 L 319.101562 168.441406 Z M 267.167969 145.710938 L 249.734375 156.113281 L 235.277344 150.085938 L 231.015625 131.355469 L 223.464844 130.671875 C 224.933594 128.6875 226.578125 126.804688 228.261719 125.085938 C 236.191406 116.96875 246.730469 111.371094 257.933594 109.371094 L 257.570312 109.917969 L 269.789062 125.234375 L 267.8125 146.273438 Z M 269.621094 147.855469 L 271.691406 125.765625 L 290.035156 118.878906 L 289.769531 112.921875 C 298.179688 116.484375 305.8125 122.324219 311.550781 129.550781 C 313.175781 131.597656 314.640625 133.753906 315.949219 135.996094 L 311.621094 135.605469 L 303.894531 153.632812 L 281.921875 158.632812 Z M 269.621094 147.855469 " fill-opacity="1" fill-rule="nonzero"/></g></g></g><g clip-path="url(#ff99b0df5a)"><g clip-path="url(#9a8704a2e8)"><g clip-path="url(#407e1bc662)"><path fill="#c5921e" d="M 202.246094 176.835938 C 202.015625 175.058594 200.382812 173.804688 198.601562 174.035156 L 166.15625 178.277344 C 164.378906 178.511719 163.121094 180.144531 163.355469 181.925781 C 163.472656 182.8125 163.9375 183.574219 164.597656 184.082031 C 165.257812 184.589844 166.113281 184.84375 167 184.726562 L 199.445312 180.484375 C 201.222656 180.25 202.476562 178.617188 202.246094 176.835938 Z M 202.246094 176.835938 " fill-opacity="1" fill-rule="nonzero"/></g></g></g></svg>